<svg xmlns="http://www.w3.org/2000/svg" xmlns:xlink="http://www.w3.org/1999/xlink" viewBox="0 0 828.49 458.15"><defs><style>.cls-1,.cls-5{fill:none;}.cls-2{clip-path:url(#clip-path);}.cls-3{fill:#00E8DD;}.cls-4,.cls-6{fill: #f5f7fa;}.cls-5,.cls-6{stroke:#0f5a6d;stroke-linecap:round;stroke-linejoin:round;stroke-width:1.44px;}</style><clipPath id="clip-path" transform="translate(-16.33 -20.47)"><rect class="cls-1" width="633.27" height="468.19"/></clipPath></defs><g><g><g class="cls-2"><path class="cls-3" d="M254.25,478c22.15-3.93,39.35-28.27,43.93-47.75s2.34-38.42,12-58c15.54-31.41,55.59-52.91,91.4-66s74.15-23.31,104.61-48.06c14.36-11.68,25.88-25.84,35.07-40.34,8.91-14,16-29.72,12.66-42.06-4.24-15.68-23.82-21.12-43.14-22s-40.47,1.35-56.78-4.65c-23.49-8.65-33.85-33.36-60.83-36.44-33.4-3.8-71.55,26.26-107.83,43.75C224.43,185.85,161.13,180.8,99,204.42,86.83,209,74.68,214.81,63.74,222.55,28.42,247.54,12.93,288.6,17,320c5,38.72,34,61.4,52.2,92.16,9.9,16.72,12.18,41.12,32.2,50.17,30.88,13.95,60.24-16.44,91.22-14.66C219.37,449.18,222.72,483.6,254.25,478Z" transform="translate(-16.33 -20.47)"/><rect class="cls-4" x="27.53" y="415.73" width="407.39" height="17.99"/><path class="cls-4" d="M215.83,60.29H246a68.83,68.83,0,0,1,68.83,68.83V299.27a0,0,0,0,1,0,0H147a0,0,0,0,1,0,0V129.12a68.83,68.83,0,0,1,68.83-68.83Z"/><polygon class="cls-4" points="314.84 299.27 147 299.27 124.59 334.65 337.24 334.65 314.84 299.27"/><rect class="cls-4" x="124.59" y="334.65" width="212.65" height="44.42"/><polygon class="cls-4" points="337.24 379.06 124.59 379.06 103.46 397.54 358.38 397.54 337.24 379.06"/><rect class="cls-4" x="103.46" y="397.54" width="254.92" height="18.19"/><polygon class="cls-4" points="401.13 433.71 60.7 433.71 73.64 447.46 389.27 447.46 401.13 433.71"/><rect class="cls-4" x="147" y="285.65" width="167.84" height="13.63"/><rect class="cls-5" x="27.53" y="415.73" width="407.39" height="17.99"/><path class="cls-5" d="M215.83,60.29H246a68.83,68.83,0,0,1,68.83,68.83V299.27a0,0,0,0,1,0,0H147a0,0,0,0,1,0,0V129.12a68.83,68.83,0,0,1,68.83-68.83Z"/><polygon class="cls-5" points="314.84 299.27 147 299.27 124.59 334.65 337.24 334.65 314.84 299.27"/><rect class="cls-5" x="124.59" y="334.65" width="212.65" height="44.42"/><polygon class="cls-5" points="337.24 379.06 124.59 379.06 103.46 397.54 358.38 397.54 337.24 379.06"/><rect class="cls-5" x="103.46" y="397.54" width="254.92" height="18.19"/><polygon class="cls-5" points="401.13 433.71 60.7 433.71 73.64 447.46 389.27 447.46 401.13 433.71"/><rect class="cls-5" x="147" y="285.65" width="167.84" height="13.63"/><rect class="cls-5" x="147" y="124" width="167.84" height="13.63"/><path class="cls-5" d="M202.59,36.42h19.84A4.6,4.6,0,0,1,227,41V47a0,0,0,0,1,0,0H198a0,0,0,0,1,0,0V41A4.6,4.6,0,0,1,202.59,36.42Z"/><path class="cls-5" d="M267.13,66.62V40.33A19.14,19.14,0,0,0,248,21.19h0a19.14,19.14,0,0,0-19.15,19.14V48" transform="translate(-16.33 -20.47)"/><path class="cls-5" d="M209.68,27.52h5.65a4.41,4.41,0,0,1,4.41,4.41v4.48a0,0,0,0,1,0,0H205.28a0,0,0,0,1,0,0V31.93A4.41,4.41,0,0,1,209.68,27.52Z"/><path class="cls-5" d="M206.88,85.2V75a7.53,7.53,0,0,1,7.53-7.52h28.87A7.52,7.52,0,0,1,250.8,75v5.81" transform="translate(-16.33 -20.47)"/><path class="cls-5" d="M275.31,82l.13-7.18a8.18,8.18,0,0,0-8.18-8.18h0a8.19,8.19,0,0,0-8.19,8.18L259,80.59" transform="translate(-16.33 -20.47)"/><path class="cls-5" d="M174.05,111.59l-16-16a11.94,11.94,0,0,1,0-16.88h0a11.94,11.94,0,0,1,16.88,0l5.61,5.61" transform="translate(-16.33 -20.47)"/><path class="cls-5" d="M184.15,100.26l-4.69-4.69a6.92,6.92,0,0,1,0-9.8h0a6.92,6.92,0,0,1,9.8,0l5.81,5.8" transform="translate(-16.33 -20.47)"/><path class="cls-5" d="M284.94,84.51l8.63-20.89a11.93,11.93,0,0,1,15.59-6.47h0a11.93,11.93,0,0,1,6.47,15.59l-3,7.33" transform="translate(-16.33 -20.47)"/><path class="cls-5" d="M298.59,91.06l3.22-7.7a6.93,6.93,0,0,1,9.05-3.76h0a6.94,6.94,0,0,1,3.77,9.06l-4.79,11.11" transform="translate(-16.33 -20.47)"/><circle class="cls-5" cx="232.66" cy="207.12" r="60.49"/><circle class="cls-5" cx="232.66" cy="207.12" r="43.57"/><circle class="cls-5" cx="232.66" cy="207.12" r="10.19"/><circle class="cls-5" cx="232.66" cy="207.12" r="4.14"/><circle class="cls-5" cx="289.73" cy="357.74" r="12.55"/><circle class="cls-5" cx="289.73" cy="357.74" r="5.1"/><path class="cls-5" d="M229.87,181.32A49.86,49.86,0,0,1,249,177.54" transform="translate(-16.33 -20.47)"/><path class="cls-5" d="M199,227.58A49.87,49.87,0,0,1,210.17,196a51.75,51.75,0,0,1,3.8-4.17" transform="translate(-16.33 -20.47)"/><rect class="cls-5" x="131.77" y="406.63" width="18.25" height="9.09"/><rect class="cls-5" x="191.65" y="406.63" width="18.25" height="9.09"/><rect class="cls-5" x="252" y="406.63" width="18.25" height="9.09"/><rect class="cls-5" x="311.88" y="406.63" width="18.25" height="9.09"/><path class="cls-5" d="M140.4,246.58H147a0,0,0,0,1,0,0v36.77a0,0,0,0,1,0,0h-6.6a5.61,5.61,0,0,1-5.61-5.61V252.19A5.61,5.61,0,0,1,140.4,246.58Z"/><path class="cls-5" d="M121.39,256.23h13.4a0,0,0,0,1,0,0v17.48a0,0,0,0,1,0,0h-13.4a8.74,8.74,0,0,1-8.74-8.74v0A8.74,8.74,0,0,1,121.39,256.23Z"/><path class="cls-5" d="M63.74,435.84V396.7a16.39,16.39,0,0,1,16.4-16.39h0A16.39,16.39,0,0,1,96.53,396.7v30.4" transform="translate(-16.33 -20.47)"/><rect class="cls-5" x="86.77" y="427.1" width="19.51" height="8.74" transform="translate(176.73 842.47) rotate(180)"/><circle class="cls-5" cx="63.81" cy="377.11" r="8.6"/><circle class="cls-5" cx="123.33" cy="264.97" r="3.27"/><line class="cls-5" x1="125.29" y1="273.71" x2="74.71" y2="364"/><line class="cls-5" x1="115.48" y1="271.81" x2="66.17" y2="359.84"/><rect class="cls-5" x="139.38" y="351.47" width="12.53" height="12.53"/><rect class="cls-5" x="159.64" y="351.47" width="12.53" height="12.53"/><rect class="cls-5" x="179.87" y="351.47" width="12.53" height="12.53"/><path class="cls-5" d="M336.73,267h6.43a0,0,0,0,1,0,0v36.77a0,0,0,0,1,0,0h-6.43a5.56,5.56,0,0,1-5.56-5.56V272.61A5.56,5.56,0,0,1,336.73,267Z" transform="translate(657.99 550.4) rotate(180)"/><path class="cls-5" d="M351.82,276.69H364.9a0,0,0,0,1,0,0v17.48a0,0,0,0,1,0,0H351.82a8.66,8.66,0,0,1-8.66-8.66v-.16A8.66,8.66,0,0,1,351.82,276.69Z" transform="translate(691.72 550.4) rotate(-180)"/><path class="cls-5" d="M429,435.84V396.7a16.24,16.24,0,0,0-16.1-16.39h0a16.24,16.24,0,0,0-16.09,16.39v30.4" transform="translate(-16.33 -20.47)"/><rect class="cls-5" x="370.86" y="406.63" width="19.17" height="8.74"/><ellipse class="cls-5" cx="396.54" cy="377.11" rx="8.45" ry="8.6"/><ellipse class="cls-5" cx="338.08" cy="264.97" rx="3.21" ry="3.27"/><line class="cls-5" x1="336.16" y1="273.71" x2="385.83" y2="364"/><line class="cls-5" x1="345.79" y1="271.81" x2="394.22" y2="359.84"/><path class="cls-5" d="M232.66,171.15h0a1.29,1.29,0,0,1,1.29,1.29v24.49a0,0,0,0,1,0,0h-2.58a0,0,0,0,1,0,0V172.44A1.29,1.29,0,0,1,232.66,171.15Z"/><path class="cls-5" d="M263.49,203.26h0a1.29,1.29,0,0,1,1.29,1.29V223a0,0,0,0,1,0,0H262.2a0,0,0,0,1,0,0V204.55A1.29,1.29,0,0,1,263.49,203.26Z" transform="translate(211.54 -144.36) rotate(45)"/><path class="cls-5" d="M264.67,93.41h4c22,0,42.86,21.6,46.47,39.9H284.94Z" transform="translate(-16.33 -20.47)"/><line class="cls-5" x1="155.2" y1="146.62" x2="155.2" y2="186.49"/><line class="cls-5" x1="134.79" y1="328.8" x2="146.03" y2="311.08"/></g><rect class="cls-6" x="307.98" y="221.62" width="375.48" height="213.45"/><line class="cls-6" x1="683.47" y1="412.88" x2="307.98" y2="412.88"/><rect class="cls-6" x="345.42" y="435.1" width="11.02" height="12.48"/><rect class="cls-6" x="635.01" y="435.1" width="11.02" height="12.48"/><line class="cls-5" x1="307.98" y1="447.58" x2="827.77" y2="447.58"/><rect class="cls-5" x="714.58" y="370.26" width="63.09" height="97.86" rx="6.5" ry="6.5" transform="translate(1475.91 817.92) rotate(180)"/><ellipse class="cls-5" cx="729.7" cy="372.55" rx="12.47" ry="12.29"/><ellipse class="cls-5" cx="729.7" cy="420.01" rx="10.64" ry="10.48"/><ellipse class="cls-5" cx="729.7" cy="420.01" rx="20.27" ry="19.97"/><line class="cls-5" x1="753" y1="392.35" x2="705.01" y2="392.35"/><line class="cls-5" x1="755.32" y1="356.35" x2="749.52" y2="356.35"/><line class="cls-5" x1="709.94" y1="356.35" x2="704.14" y2="356.35"/><line class="cls-5" x1="755.32" y1="441.01" x2="749.52" y2="441.01"/><line class="cls-5" x1="709.94" y1="441.01" x2="704.14" y2="441.01"/><path class="cls-5" d="M789.86,372.1a14.06,14.06,0,0,0-14.17-14" transform="translate(-16.33 -20.47)"/><path class="cls-5" d="M799.31,372.1a23.44,23.44,0,0,0-23.62-23.27" transform="translate(-16.33 -20.47)"/><path class="cls-5" d="M811.46,372.1c0-19.46-16-35.23-35.77-35.23" transform="translate(-16.33 -20.47)"/><line class="cls-6" x1="328.45" y1="216.72" x2="328.45" y2="202.53"/><line class="cls-6" x1="660.89" y1="216.72" x2="660.89" y2="202.53"/><line class="cls-6" x1="494.67" y1="216.72" x2="494.67" y2="202.53"/><line class="cls-6" x1="342.08" y1="216.72" x2="342.08" y2="210.53"/><line class="cls-6" x1="475.03" y1="216.72" x2="475.03" y2="210.53"/><line class="cls-6" x1="408.55" y1="216.72" x2="408.55" y2="210.53"/><line class="cls-6" x1="358.7" y1="216.72" x2="358.7" y2="210.53"/><line class="cls-6" x1="375.32" y1="216.72" x2="375.32" y2="210.53"/><line class="cls-6" x1="391.94" y1="216.72" x2="391.94" y2="210.53"/><line class="cls-6" x1="425.17" y1="216.72" x2="425.17" y2="210.53"/><line class="cls-6" x1="441.79" y1="216.72" x2="441.79" y2="210.53"/><line class="cls-6" x1="458.41" y1="216.72" x2="458.41" y2="210.53"/><line class="cls-6" x1="508.7" y1="216.72" x2="508.7" y2="210.53"/><line class="cls-6" x1="641.65" y1="216.72" x2="641.65" y2="210.53"/><line class="cls-6" x1="575.17" y1="216.72" x2="575.17" y2="210.53"/><line class="cls-6" x1="525.32" y1="216.72" x2="525.32" y2="210.53"/><line class="cls-6" x1="541.94" y1="216.72" x2="541.94" y2="210.53"/><line class="cls-6" x1="558.55" y1="216.72" x2="558.55" y2="210.53"/><line class="cls-6" x1="591.79" y1="216.72" x2="591.79" y2="210.53"/><line class="cls-6" x1="608.41" y1="216.72" x2="608.41" y2="210.53"/><line class="cls-6" x1="625.03" y1="216.72" x2="625.03" y2="210.53"/></g></g></svg>