<?xml version="1.0" encoding="utf-8"?>
<!-- Generator: Adobe Illustrator 26.0.2, SVG Export Plug-In . SVG Version: 6.00 Build 0)  -->
<svg version="1.1" id="Layer_1" xmlns="http://www.w3.org/2000/svg" xmlns:xlink="http://www.w3.org/1999/xlink" x="0px" y="0px"
	 viewBox="0 0 500 500" style="enable-background:new 0 0 500 500;" xml:space="preserve">
<style type="text/css">
	.st0{fill:#EBEBEB;}
	.st1{fill:#E6E6E6;}
	.st2{fill:#F0F0F0;}
	.st3{fill:#F5F5F5;}
	.st4{fill:#00AFAA;}
	.st5{fill:#263238;}
	.st6{opacity:0.5;fill:#FFFFFF;enable-background:new    ;}
	.st7{opacity:0.2;enable-background:new    ;}
	.st8{fill:#0A383B;}
	.st9{fill:#126060;}
	.st10{fill:#E4897B;}
	.st11{opacity:0.1;fill:#FFFFFF;enable-background:new    ;}
	.st12{opacity:0.1;}
	.st13{fill:#FFFFFF;}
	.st14{fill:#407BFF;}
	.st15{opacity:0.7;fill:#FFFFFF;enable-background:new    ;}
	.st16{opacity:0.4;fill:#FFFFFF;enable-background:new    ;}
	.st17{opacity:0.2;fill:#FFFFFF;enable-background:new    ;}
	.st18{fill:#DE5753;}
	.st19{fill-rule:evenodd;clip-rule:evenodd;fill:#FFFFFF;}
</style>
<g id="freepik--background-complete--inject-39">
	<rect x="-33.8" y="401.5" class="st0" width="567.5" height="0.3"/>
	<rect x="439.3" y="419.7" class="st0" width="37.6" height="0.3"/>
	<rect x="332.3" y="422.8" class="st0" width="9.9" height="0.3"/>
	<rect x="416.4" y="409.2" class="st0" width="21.8" height="0.3"/>
	<rect x="25.8" y="411.1" class="st0" width="49" height="0.3"/>
	<rect x="84.9" y="411.1" class="st0" width="7.2" height="0.3"/>
	<rect x="115.5" y="415.9" class="st0" width="106.3" height="0.3"/>
	<path class="st0" d="M235.2,350.8H16.1c-3.6,0-6.5-2.9-6.5-6.5V36.3c0-3.6,2.9-6.4,6.5-6.4h219.2c3.6,0,6.5,2.9,6.5,6.5
		c0,0,0,0,0,0v308C241.7,347.9,238.8,350.8,235.2,350.8z M16.1,30.1c-3.4,0-6.2,2.8-6.2,6.2v308.1c0,3.4,2.8,6.2,6.2,6.2h219.2
		c3.4,0,6.2-2.8,6.2-6.2V36.3c0-3.4-2.8-6.2-6.2-6.2H16.1z"/>
	<path class="st0" d="M480.8,350.8H261.6c-3.6,0-6.5-2.9-6.5-6.5V36.3c0-3.6,2.9-6.4,6.5-6.4h219.2c3.5,0,6.4,2.9,6.5,6.4v308.1
		C487.2,347.9,484.3,350.8,480.8,350.8z M261.6,30.1c-3.4,0-6.2,2.8-6.2,6.2v308.1c0,3.4,2.8,6.2,6.2,6.2h219.2
		c3.4,0,6.2-2.8,6.2-6.2V36.3c0-3.4-2.8-6.2-6.2-6.2H261.6z"/>
	<polygon class="st1" points="463.3,400.7 463.3,347.6 458.7,347.6 458.7,322.3 452.1,322.3 452.1,234.2 442.5,234.2 442.5,222.8 
		422,213.3 422,201.8 419.1,201.8 419.1,234.2 415.1,234.2 415.1,322.3 411.2,322.3 411.2,276 400.4,276 400.4,252.1 397.4,252.1 
		397.4,322.3 389.2,322.3 389.2,295.6 383.8,295.6 383.8,288.7 371.3,288.7 371.3,265.4 364.4,265.4 364.4,249 356,249 356,225 
		353,225 353,249 344.6,249 344.6,265.4 337.8,265.4 337.8,288.7 325.3,288.7 325.3,295.6 319.9,295.6 319.9,322.3 313.5,322.3 
		313.5,288.7 301,288.7 301,216.6 297,216.6 297,208.6 270.3,208.6 270.3,216.6 264.6,216.6 264.6,268.9 241.9,268.9 241.9,274 
		233.4,274 233.4,277.9 241.9,277.9 241.9,298.4 218,298.4 218,230.2 212.9,230.2 212.9,215.7 201.9,215.7 201.9,164.3 198.7,164.3 
		198.7,215.7 190.8,215.7 190.8,230.2 144.2,230.2 144.2,225.5 141.3,225.5 141.3,257.8 137.3,257.8 137.3,258.4 135,258.4 
		135,290.8 131,290.8 131,299.6 122.6,299.6 122.6,275.7 119.6,275.7 119.6,332.5 116.2,332.5 116.2,308.7 113.2,308.7 113.2,345.9 
		111.4,345.9 111.4,319.2 106,319.2 106,312.4 93.5,312.4 93.5,289.1 86.6,289.1 86.6,272.6 78.2,272.6 78.2,248.6 75.2,248.6 
		75.2,272.6 66.8,272.6 66.8,289.1 60,289.1 60,312.4 47.5,312.4 47.5,319.2 42.1,319.2 42.1,345.3 41.1,345.3 41.1,345.9 
		38.4,345.9 38.4,400.7 	"/>
	<rect x="170.2" y="233.4" class="st2" width="3.2" height="3.2"/>
	<rect x="170.2" y="238.8" class="st2" width="3.2" height="3.2"/>
	<rect x="170.2" y="260.4" class="st2" width="3.2" height="3.2"/>
	<rect x="170.2" y="265.8" class="st2" width="3.2" height="3.2"/>
	<rect x="170.2" y="271.2" class="st2" width="3.2" height="3.2"/>
	<rect x="170.2" y="287.4" class="st2" width="3.2" height="3.2"/>
	<rect x="170.2" y="292.8" class="st2" width="3.2" height="3.2"/>
	<rect x="175.3" y="255" class="st2" width="3.2" height="3.2"/>
	<rect x="175.3" y="260.4" class="st2" width="3.2" height="3.2"/>
	<rect x="175.3" y="265.8" class="st2" width="3.2" height="3.2"/>
	<rect x="175.3" y="271.2" class="st2" width="3.2" height="3.2"/>
	<rect x="175.3" y="276.6" class="st2" width="3.2" height="3.2"/>
	<rect x="175.3" y="287.4" class="st2" width="3.2" height="3.2"/>
	<rect x="175.3" y="292.8" class="st2" width="3.2" height="3.2"/>
	<rect x="180.4" y="233.4" class="st2" width="3.2" height="3.2"/>
	<rect x="180.4" y="238.8" class="st2" width="3.2" height="3.2"/>
	<rect x="180.4" y="244.2" class="st2" width="3.2" height="3.2"/>
	<rect x="180.4" y="249.6" class="st2" width="3.2" height="3.2"/>
	<rect x="180.4" y="255" class="st2" width="3.2" height="3.2"/>
	<rect x="180.4" y="260.4" class="st2" width="3.2" height="3.2"/>
	<rect x="180.4" y="265.8" class="st2" width="3.2" height="3.2"/>
	<rect x="180.4" y="271.2" class="st2" width="3.2" height="3.2"/>
	<rect x="180.4" y="276.6" class="st2" width="3.2" height="3.2"/>
	<rect x="180.4" y="282" class="st2" width="3.2" height="3.2"/>
	<rect x="180.4" y="292.8" class="st2" width="3.2" height="3.2"/>
	<rect x="185.5" y="233.4" class="st2" width="3.2" height="3.2"/>
	<rect x="185.5" y="238.8" class="st2" width="3.2" height="3.2"/>
	<rect x="185.5" y="244.2" class="st2" width="3.2" height="3.2"/>
	<rect x="185.5" y="249.6" class="st2" width="3.2" height="3.2"/>
	<rect x="185.5" y="255" class="st2" width="3.2" height="3.2"/>
	<rect x="185.5" y="260.4" class="st2" width="3.2" height="3.2"/>
	<rect x="185.5" y="265.8" class="st2" width="3.2" height="3.2"/>
	<rect x="185.5" y="314.4" class="st2" width="3.2" height="3.2"/>
	<rect x="190.6" y="233.4" class="st2" width="3.2" height="3.2"/>
	<rect x="190.6" y="238.8" class="st2" width="3.2" height="3.2"/>
	<rect x="190.6" y="244.2" class="st2" width="3.2" height="3.2"/>
	<rect x="190.6" y="249.6" class="st2" width="3.2" height="3.2"/>
	<rect x="190.6" y="255" class="st2" width="3.2" height="3.2"/>
	<rect x="190.6" y="260.4" class="st2" width="3.2" height="3.2"/>
	<rect x="190.6" y="265.8" class="st2" width="3.2" height="3.2"/>
	<rect x="190.6" y="271.2" class="st2" width="3.2" height="3.2"/>
	<rect x="190.6" y="303.6" class="st2" width="3.2" height="3.2"/>
	<rect x="190.6" y="309" class="st2" width="3.2" height="3.2"/>
	<rect x="190.6" y="314.4" class="st2" width="3.2" height="3.2"/>
	<rect x="190.6" y="319.8" class="st2" width="3.2" height="3.2"/>
	<rect x="190.6" y="341.3" class="st2" width="3.2" height="3.2"/>
	<rect x="195.7" y="233.4" class="st2" width="3.2" height="3.2"/>
	<rect x="195.7" y="238.8" class="st2" width="3.2" height="3.2"/>
	<rect x="195.7" y="244.2" class="st2" width="3.2" height="3.2"/>
	<rect x="195.7" y="249.6" class="st2" width="3.2" height="3.2"/>
	<rect x="195.7" y="255" class="st2" width="3.2" height="3.2"/>
	<rect x="195.7" y="260.4" class="st2" width="3.2" height="3.2"/>
	<rect x="195.7" y="265.8" class="st2" width="3.2" height="3.2"/>
	<rect x="195.7" y="271.2" class="st2" width="3.2" height="3.2"/>
	<rect x="195.7" y="276.6" class="st2" width="3.2" height="3.2"/>
	<rect x="195.7" y="282" class="st2" width="3.2" height="3.2"/>
	<rect x="195.7" y="298.2" class="st2" width="3.2" height="3.2"/>
	<rect x="195.7" y="303.6" class="st2" width="3.2" height="3.2"/>
	<rect x="195.7" y="309" class="st2" width="3.2" height="3.2"/>
	<rect x="195.7" y="314.4" class="st2" width="3.2" height="3.2"/>
	<rect x="195.7" y="319.8" class="st2" width="3.2" height="3.2"/>
	<rect x="195.7" y="341.3" class="st2" width="3.2" height="3.2"/>
	<rect x="200.9" y="233.4" class="st2" width="3.2" height="3.2"/>
	<rect x="200.9" y="238.8" class="st2" width="3.2" height="3.2"/>
	<rect x="200.9" y="244.2" class="st2" width="3.2" height="3.2"/>
	<rect x="200.9" y="249.6" class="st2" width="3.2" height="3.2"/>
	<rect x="200.9" y="255" class="st2" width="3.2" height="3.2"/>
	<rect x="200.9" y="260.4" class="st2" width="3.2" height="3.2"/>
	<rect x="200.9" y="265.8" class="st2" width="3.2" height="3.2"/>
	<rect x="200.9" y="271.2" class="st2" width="3.2" height="3.2"/>
	<rect x="200.9" y="276.6" class="st2" width="3.2" height="3.2"/>
	<rect x="200.9" y="282" class="st2" width="3.2" height="3.2"/>
	<rect x="200.9" y="287.4" class="st2" width="3.2" height="3.2"/>
	<rect x="200.9" y="292.8" class="st2" width="3.2" height="3.2"/>
	<rect x="200.9" y="298.2" class="st2" width="3.2" height="3.2"/>
	<rect x="200.9" y="303.6" class="st2" width="3.2" height="3.2"/>
	<rect x="200.9" y="309" class="st2" width="3.2" height="3.2"/>
	<rect x="200.9" y="314.4" class="st2" width="3.2" height="3.2"/>
	<rect x="200.9" y="319.8" class="st2" width="3.2" height="3.2"/>
	<rect x="200.9" y="325.1" class="st2" width="3.2" height="3.2"/>
	<rect x="206" y="233.4" class="st2" width="3.2" height="3.2"/>
	<rect x="206" y="238.8" class="st2" width="3.2" height="3.2"/>
	<rect x="206" y="244.2" class="st2" width="3.2" height="3.2"/>
	<rect x="206" y="249.6" class="st2" width="3.2" height="3.2"/>
	<rect x="206" y="255" class="st2" width="3.2" height="3.2"/>
	<rect x="206" y="260.4" class="st2" width="3.2" height="3.2"/>
	<rect x="206" y="265.8" class="st2" width="3.2" height="3.2"/>
	<rect x="206" y="271.2" class="st2" width="3.2" height="3.2"/>
	<rect x="206" y="276.6" class="st2" width="3.2" height="3.2"/>
	<rect x="206" y="282" class="st2" width="3.2" height="3.2"/>
	<rect x="206" y="298.2" class="st2" width="3.2" height="3.2"/>
	<rect x="206" y="303.6" class="st2" width="3.2" height="3.2"/>
	<rect x="206" y="309" class="st2" width="3.2" height="3.2"/>
	<rect x="206" y="314.4" class="st2" width="3.2" height="3.2"/>
	<rect x="211.1" y="233.4" class="st2" width="3.2" height="3.2"/>
	<rect x="211.1" y="238.8" class="st2" width="3.2" height="3.2"/>
	<rect x="211.1" y="244.2" class="st2" width="3.2" height="3.2"/>
	<rect x="211.1" y="249.6" class="st2" width="3.2" height="3.2"/>
	<rect x="211.1" y="255" class="st2" width="3.2" height="3.2"/>
	<rect x="211.1" y="260.4" class="st2" width="3.2" height="3.2"/>
	<rect x="211.1" y="265.8" class="st2" width="3.2" height="3.2"/>
	<rect x="211.1" y="271.2" class="st2" width="3.2" height="3.2"/>
	<rect x="211.1" y="276.6" class="st2" width="3.2" height="3.2"/>
	<rect x="211.1" y="282" class="st2" width="3.2" height="3.2"/>
	<rect x="211.1" y="298.2" class="st2" width="3.2" height="3.2"/>
	<rect x="211.1" y="303.6" class="st2" width="3.2" height="3.2"/>
	<rect x="211.1" y="309" class="st2" width="3.2" height="3.2"/>
	<rect x="268.6" y="219.4" class="st2" width="3.2" height="3.2"/>
	<rect x="268.6" y="224.8" class="st2" width="3.2" height="3.2"/>
	<rect x="268.6" y="230.2" class="st2" width="3.2" height="3.2"/>
	<rect x="268.6" y="235.6" class="st2" width="3.2" height="3.2"/>
	<rect x="268.6" y="241" class="st2" width="3.2" height="3.2"/>
	<rect x="268.6" y="246.4" class="st2" width="3.2" height="3.2"/>
	<rect x="268.6" y="251.8" class="st2" width="3.2" height="3.2"/>
	<rect x="268.6" y="257.2" class="st2" width="3.2" height="3.2"/>
	<rect x="268.6" y="273.4" class="st2" width="3.2" height="3.2"/>
	<rect x="268.6" y="278.8" class="st2" width="3.2" height="3.2"/>
	<rect x="273.7" y="219.4" class="st2" width="3.2" height="3.2"/>
	<rect x="273.7" y="224.8" class="st2" width="3.2" height="3.2"/>
	<rect x="273.7" y="230.2" class="st2" width="3.2" height="3.2"/>
	<rect x="273.7" y="235.6" class="st2" width="3.2" height="3.2"/>
	<rect x="273.7" y="241" class="st2" width="3.2" height="3.2"/>
	<rect x="273.7" y="246.4" class="st2" width="3.2" height="3.2"/>
	<rect x="273.7" y="251.8" class="st2" width="3.2" height="3.2"/>
	<rect x="273.7" y="257.2" class="st2" width="3.2" height="3.2"/>
	<rect x="273.7" y="278.8" class="st2" width="3.2" height="3.2"/>
	<rect x="278.9" y="219.4" class="st2" width="3.2" height="3.2"/>
	<rect x="278.9" y="224.8" class="st2" width="3.2" height="3.2"/>
	<rect x="278.9" y="230.2" class="st2" width="3.2" height="3.2"/>
	<rect x="278.9" y="235.6" class="st2" width="3.2" height="3.2"/>
	<rect x="278.9" y="241" class="st2" width="3.2" height="3.2"/>
	<rect x="278.9" y="246.4" class="st2" width="3.2" height="3.2"/>
	<rect x="278.9" y="251.8" class="st2" width="3.2" height="3.2"/>
	<rect x="278.9" y="257.2" class="st2" width="3.2" height="3.2"/>
	<rect x="284" y="219.4" class="st2" width="3.2" height="3.2"/>
	<rect x="284" y="224.8" class="st2" width="3.2" height="3.2"/>
	<rect x="284" y="230.2" class="st2" width="3.2" height="3.2"/>
	<rect x="284" y="235.6" class="st2" width="3.2" height="3.2"/>
	<rect x="284" y="241" class="st2" width="3.2" height="3.2"/>
	<rect x="284" y="246.4" class="st2" width="3.2" height="3.2"/>
	<rect x="284" y="257.2" class="st2" width="3.2" height="3.2"/>
	<rect x="284" y="262.6" class="st2" width="3.2" height="3.2"/>
	<rect x="284" y="278.8" class="st2" width="3.2" height="3.2"/>
	<rect x="284" y="284.2" class="st2" width="3.2" height="3.2"/>
	<rect x="284" y="289.6" class="st2" width="3.2" height="3.2"/>
	<rect x="284" y="294.9" class="st2" width="3.2" height="3.2"/>
	<rect x="284" y="300.3" class="st2" width="3.2" height="3.2"/>
	<rect x="284" y="305.7" class="st2" width="3.2" height="3.2"/>
	<rect x="284" y="311.1" class="st2" width="3.2" height="3.2"/>
	<rect x="289.1" y="219.4" class="st2" width="3.2" height="3.2"/>
	<rect x="289.1" y="224.8" class="st2" width="3.2" height="3.2"/>
	<rect x="289.1" y="230.2" class="st2" width="3.2" height="3.2"/>
	<rect x="289.1" y="235.6" class="st2" width="3.2" height="3.2"/>
	<rect x="289.1" y="241" class="st2" width="3.2" height="3.2"/>
	<rect x="289.1" y="246.4" class="st2" width="3.2" height="3.2"/>
	<rect x="289.1" y="262.6" class="st2" width="3.2" height="3.2"/>
	<rect x="289.1" y="268" class="st2" width="3.2" height="3.2"/>
	<rect x="289.1" y="273.4" class="st2" width="3.2" height="3.2"/>
	<rect x="289.1" y="278.8" class="st2" width="3.2" height="3.2"/>
	<rect x="289.1" y="284.2" class="st2" width="3.2" height="3.2"/>
	<rect x="289.1" y="289.6" class="st2" width="3.2" height="3.2"/>
	<rect x="289.1" y="294.9" class="st2" width="3.2" height="3.2"/>
	<rect x="289.1" y="300.3" class="st2" width="3.2" height="3.2"/>
	<rect x="289.1" y="305.7" class="st2" width="3.2" height="3.2"/>
	<rect x="289.1" y="311.1" class="st2" width="3.2" height="3.2"/>
	<rect x="289.1" y="316.5" class="st2" width="3.2" height="3.2"/>
	<rect x="289.1" y="327.3" class="st2" width="3.2" height="3.2"/>
	<rect x="294.2" y="219.4" class="st2" width="3.2" height="3.2"/>
	<rect x="294.2" y="224.8" class="st2" width="3.2" height="3.2"/>
	<rect x="294.2" y="230.2" class="st2" width="3.2" height="3.2"/>
	<rect x="294.2" y="235.6" class="st2" width="3.2" height="3.2"/>
	<rect x="294.2" y="241" class="st2" width="3.2" height="3.2"/>
	<rect x="294.2" y="246.4" class="st2" width="3.2" height="3.2"/>
	<rect x="294.2" y="262.6" class="st2" width="3.2" height="3.2"/>
	<rect x="294.2" y="268" class="st2" width="3.2" height="3.2"/>
	<rect x="294.2" y="273.4" class="st2" width="3.2" height="3.2"/>
	<rect x="294.2" y="278.8" class="st2" width="3.2" height="3.2"/>
	<rect x="294.2" y="294.9" class="st2" width="3.2" height="3.2"/>
	<rect x="294.2" y="300.3" class="st2" width="3.2" height="3.2"/>
	<rect x="294.2" y="305.7" class="st2" width="3.2" height="3.2"/>
	<rect x="294.2" y="311.1" class="st2" width="3.2" height="3.2"/>
	<rect x="294.2" y="316.5" class="st2" width="3.2" height="3.2"/>
	<rect x="294.2" y="327.3" class="st2" width="3.2" height="3.2"/>
	<rect x="294.2" y="332.7" class="st2" width="3.2" height="3.2"/>
	<rect x="340.6" y="269.6" class="st2" width="3.2" height="3.2"/>
	<rect x="340.6" y="275" class="st2" width="3.2" height="3.2"/>
	<rect x="340.6" y="280.4" class="st2" width="3.2" height="3.2"/>
	<rect x="340.6" y="285.8" class="st2" width="3.2" height="3.2"/>
	<rect x="340.6" y="291.2" class="st2" width="3.2" height="3.2"/>
	<rect x="340.6" y="296.6" class="st2" width="3.2" height="3.2"/>
	<rect x="340.6" y="302" class="st2" width="3.2" height="3.2"/>
	<rect x="340.6" y="318.1" class="st2" width="3.2" height="3.2"/>
	<rect x="340.6" y="323.5" class="st2" width="3.2" height="3.2"/>
	<rect x="340.6" y="328.9" class="st2" width="3.2" height="3.2"/>
	<rect x="345.7" y="269.6" class="st2" width="3.2" height="3.2"/>
	<rect x="345.7" y="275" class="st2" width="3.2" height="3.2"/>
	<rect x="345.7" y="280.4" class="st2" width="3.2" height="3.2"/>
	<rect x="345.7" y="285.8" class="st2" width="3.2" height="3.2"/>
	<rect x="345.7" y="291.2" class="st2" width="3.2" height="3.2"/>
	<rect x="345.7" y="296.6" class="st2" width="3.2" height="3.2"/>
	<rect x="345.7" y="302" class="st2" width="3.2" height="3.2"/>
	<rect x="350.8" y="269.6" class="st2" width="3.2" height="3.2"/>
	<rect x="350.8" y="275" class="st2" width="3.2" height="3.2"/>
	<rect x="350.8" y="280.4" class="st2" width="3.2" height="3.2"/>
	<rect x="350.8" y="285.8" class="st2" width="3.2" height="3.2"/>
	<rect x="350.8" y="291.2" class="st2" width="3.2" height="3.2"/>
	<rect x="350.8" y="296.6" class="st2" width="3.2" height="3.2"/>
	<rect x="350.8" y="302" class="st2" width="3.2" height="3.2"/>
	<rect x="355.9" y="269.6" class="st2" width="3.2" height="3.2"/>
	<rect x="355.9" y="275" class="st2" width="3.2" height="3.2"/>
	<rect x="355.9" y="280.4" class="st2" width="3.2" height="3.2"/>
	<rect x="355.9" y="285.8" class="st2" width="3.2" height="3.2"/>
	<rect x="355.9" y="291.2" class="st2" width="3.2" height="3.2"/>
	<rect x="355.9" y="296.6" class="st2" width="3.2" height="3.2"/>
	<rect x="355.9" y="302" class="st2" width="3.2" height="3.2"/>
	<rect x="355.9" y="307.4" class="st2" width="3.2" height="3.2"/>
	<rect x="355.9" y="312.7" class="st2" width="3.2" height="3.2"/>
	<rect x="355.9" y="318.1" class="st2" width="3.2" height="3.2"/>
	<rect x="355.9" y="323.5" class="st2" width="3.2" height="3.2"/>
	<rect x="361" y="269.6" class="st2" width="3.2" height="3.2"/>
	<rect x="361" y="275" class="st2" width="3.2" height="3.2"/>
	<rect x="361" y="280.4" class="st2" width="3.2" height="3.2"/>
	<rect x="361" y="285.8" class="st2" width="3.2" height="3.2"/>
	<rect x="361" y="291.2" class="st2" width="3.2" height="3.2"/>
	<rect x="361" y="296.6" class="st2" width="3.2" height="3.2"/>
	<rect x="361" y="302" class="st2" width="3.2" height="3.2"/>
	<rect x="361" y="307.4" class="st2" width="3.2" height="3.2"/>
	<rect x="361" y="312.7" class="st2" width="3.2" height="3.2"/>
	<rect x="361" y="318.1" class="st2" width="3.2" height="3.2"/>
	<rect x="361" y="323.5" class="st2" width="3.2" height="3.2"/>
	<rect x="361" y="328.9" class="st2" width="3.2" height="3.2"/>
	<rect x="361" y="345.1" class="st2" width="3.2" height="3.2"/>
	<rect x="361" y="350.5" class="st2" width="3.2" height="3.2"/>
	<rect x="366.1" y="269.6" class="st2" width="3.2" height="3.2"/>
	<rect x="366.1" y="275" class="st2" width="3.2" height="3.2"/>
	<rect x="366.1" y="280.4" class="st2" width="3.2" height="3.2"/>
	<rect x="366.1" y="296.6" class="st2" width="3.2" height="3.2"/>
	<rect x="366.1" y="302" class="st2" width="3.2" height="3.2"/>
	<rect x="366.1" y="307.4" class="st2" width="3.2" height="3.2"/>
	<rect x="366.1" y="312.7" class="st2" width="3.2" height="3.2"/>
	<rect x="366.1" y="318.1" class="st2" width="3.2" height="3.2"/>
	<rect x="366.1" y="323.5" class="st2" width="3.2" height="3.2"/>
	<rect x="366.1" y="328.9" class="st2" width="3.2" height="3.2"/>
	<rect x="366.1" y="345.1" class="st2" width="3.2" height="3.2"/>
	<rect x="366.1" y="350.5" class="st2" width="3.2" height="3.2"/>
	<rect x="366.1" y="355.9" class="st2" width="3.2" height="3.2"/>
	<rect x="419.7" y="237.2" class="st2" width="3.2" height="3.2"/>
	<rect x="419.7" y="242.6" class="st2" width="3.2" height="3.2"/>
	<rect x="419.7" y="248" class="st2" width="3.2" height="3.2"/>
	<rect x="419.7" y="253.4" class="st2" width="3.2" height="3.2"/>
	<rect x="419.7" y="258.8" class="st2" width="3.2" height="3.2"/>
	<rect x="419.7" y="264.2" class="st2" width="3.2" height="3.2"/>
	<rect x="419.7" y="269.6" class="st2" width="3.2" height="3.2"/>
	<rect x="419.7" y="275" class="st2" width="3.2" height="3.2"/>
	<rect x="419.7" y="280.4" class="st2" width="3.2" height="3.2"/>
	<rect x="419.7" y="285.8" class="st2" width="3.2" height="3.2"/>
	<rect x="419.7" y="291.2" class="st2" width="3.2" height="3.2"/>
	<rect x="419.7" y="296.6" class="st2" width="3.2" height="3.2"/>
	<rect x="419.7" y="302" class="st2" width="3.2" height="3.2"/>
	<rect x="419.7" y="307.4" class="st2" width="3.2" height="3.2"/>
	<rect x="419.7" y="312.7" class="st2" width="3.2" height="3.2"/>
	<rect x="419.7" y="318.1" class="st2" width="3.2" height="3.2"/>
	<rect x="419.7" y="323.5" class="st2" width="3.2" height="3.2"/>
	<rect x="419.7" y="328.9" class="st2" width="3.2" height="3.2"/>
	<rect x="419.7" y="334.3" class="st2" width="3.2" height="3.2"/>
	<rect x="419.7" y="339.7" class="st2" width="3.2" height="3.2"/>
	<rect x="419.7" y="345.1" class="st2" width="3.2" height="3.2"/>
	<rect x="419.7" y="350.5" class="st2" width="3.2" height="3.2"/>
	<rect x="419.7" y="355.9" class="st2" width="3.2" height="3.2"/>
	<rect x="424.8" y="237.2" class="st2" width="3.2" height="3.2"/>
	<rect x="424.8" y="242.6" class="st2" width="3.2" height="3.2"/>
	<rect x="424.8" y="248" class="st2" width="3.2" height="3.2"/>
	<rect x="424.8" y="253.4" class="st2" width="3.2" height="3.2"/>
	<rect x="424.8" y="258.8" class="st2" width="3.2" height="3.2"/>
	<rect x="424.8" y="264.2" class="st2" width="3.2" height="3.2"/>
	<rect x="424.8" y="269.6" class="st2" width="3.2" height="3.2"/>
	<rect x="424.8" y="275" class="st2" width="3.2" height="3.2"/>
	<rect x="424.8" y="280.4" class="st2" width="3.2" height="3.2"/>
	<rect x="424.8" y="285.8" class="st2" width="3.2" height="3.2"/>
	<rect x="424.8" y="291.2" class="st2" width="3.2" height="3.2"/>
	<rect x="424.8" y="296.6" class="st2" width="3.2" height="3.2"/>
	<rect x="424.8" y="302" class="st2" width="3.2" height="3.2"/>
	<rect x="424.8" y="307.4" class="st2" width="3.2" height="3.2"/>
	<rect x="424.8" y="312.7" class="st2" width="3.2" height="3.2"/>
	<rect x="424.8" y="318.1" class="st2" width="3.2" height="3.2"/>
	<rect x="424.8" y="323.5" class="st2" width="3.2" height="3.2"/>
	<rect x="424.8" y="328.9" class="st2" width="3.2" height="3.2"/>
	<rect x="424.8" y="334.3" class="st2" width="3.2" height="3.2"/>
	<rect x="429.9" y="237.2" class="st2" width="3.2" height="3.2"/>
	<rect x="429.9" y="242.6" class="st2" width="3.2" height="3.2"/>
	<rect x="429.9" y="248" class="st2" width="3.2" height="3.2"/>
	<rect x="429.9" y="253.4" class="st2" width="3.2" height="3.2"/>
	<rect x="429.9" y="258.8" class="st2" width="3.2" height="3.2"/>
	<rect x="429.9" y="264.2" class="st2" width="3.2" height="3.2"/>
	<rect x="429.9" y="269.6" class="st2" width="3.2" height="3.2"/>
	<rect x="429.9" y="275" class="st2" width="3.2" height="3.2"/>
	<rect x="429.9" y="280.4" class="st2" width="3.2" height="3.2"/>
	<rect x="429.9" y="285.8" class="st2" width="3.2" height="3.2"/>
	<rect x="429.9" y="291.2" class="st2" width="3.2" height="3.2"/>
	<rect x="429.9" y="296.6" class="st2" width="3.2" height="3.2"/>
	<rect x="429.9" y="302" class="st2" width="3.2" height="3.2"/>
	<rect x="429.9" y="307.4" class="st2" width="3.2" height="3.2"/>
	<rect x="429.9" y="312.7" class="st2" width="3.2" height="3.2"/>
	<rect x="429.9" y="318.1" class="st2" width="3.2" height="3.2"/>
	<rect x="429.9" y="323.5" class="st2" width="3.2" height="3.2"/>
	<rect x="429.9" y="328.9" class="st2" width="3.2" height="3.2"/>
	<rect x="429.9" y="334.3" class="st2" width="3.2" height="3.2"/>
	<rect x="435.1" y="237.2" class="st2" width="3.2" height="3.2"/>
	<rect x="435.1" y="242.6" class="st2" width="3.2" height="3.2"/>
	<rect x="435.1" y="248" class="st2" width="3.2" height="3.2"/>
	<rect x="435.1" y="253.4" class="st2" width="3.2" height="3.2"/>
	<rect x="435.1" y="258.8" class="st2" width="3.2" height="3.2"/>
	<rect x="435.1" y="264.2" class="st2" width="3.2" height="3.2"/>
	<rect x="435.1" y="269.6" class="st2" width="3.2" height="3.2"/>
	<rect x="435.1" y="275" class="st2" width="3.2" height="3.2"/>
	<rect x="435.1" y="280.4" class="st2" width="3.2" height="3.2"/>
	<rect x="435.1" y="285.8" class="st2" width="3.2" height="3.2"/>
	<rect x="435.1" y="291.2" class="st2" width="3.2" height="3.2"/>
	<rect x="435.1" y="296.6" class="st2" width="3.2" height="3.2"/>
	<rect x="435.1" y="302" class="st2" width="3.2" height="3.2"/>
	<rect x="435.1" y="307.4" class="st2" width="3.2" height="3.2"/>
	<rect x="435.1" y="312.7" class="st2" width="3.2" height="3.2"/>
	<rect x="440.2" y="237.2" class="st2" width="3.2" height="3.2"/>
	<rect x="440.2" y="242.6" class="st2" width="3.2" height="3.2"/>
	<rect x="440.2" y="248" class="st2" width="3.2" height="3.2"/>
	<rect x="440.2" y="253.4" class="st2" width="3.2" height="3.2"/>
	<rect x="440.2" y="258.8" class="st2" width="3.2" height="3.2"/>
	<rect x="440.2" y="264.2" class="st2" width="3.2" height="3.2"/>
	<rect x="440.2" y="269.6" class="st2" width="3.2" height="3.2"/>
	<rect x="440.2" y="275" class="st2" width="3.2" height="3.2"/>
	<rect x="440.2" y="280.4" class="st2" width="3.2" height="3.2"/>
	<rect x="440.2" y="285.8" class="st2" width="3.2" height="3.2"/>
	<rect x="440.2" y="291.2" class="st2" width="3.2" height="3.2"/>
	<rect x="440.2" y="296.6" class="st2" width="3.2" height="3.2"/>
	<rect x="440.2" y="302" class="st2" width="3.2" height="3.2"/>
	<rect x="445.3" y="237.2" class="st2" width="3.2" height="3.2"/>
	<rect x="445.3" y="242.6" class="st2" width="3.2" height="3.2"/>
	<rect x="445.3" y="248" class="st2" width="3.2" height="3.2"/>
	<rect x="445.3" y="253.4" class="st2" width="3.2" height="3.2"/>
	<rect x="445.3" y="258.8" class="st2" width="3.2" height="3.2"/>
	<rect x="445.3" y="264.2" class="st2" width="3.2" height="3.2"/>
	<rect x="445.3" y="269.6" class="st2" width="3.2" height="3.2"/>
	<rect x="445.3" y="275" class="st2" width="3.2" height="3.2"/>
	<rect x="445.3" y="280.4" class="st2" width="3.2" height="3.2"/>
	<rect x="445.3" y="285.8" class="st2" width="3.2" height="3.2"/>
	<rect x="445.3" y="291.2" class="st2" width="3.2" height="3.2"/>
	<rect x="445.3" y="296.6" class="st2" width="3.2" height="3.2"/>
	<rect x="69.6" y="276.6" class="st2" width="3.2" height="3.2"/>
	<rect x="69.6" y="282" class="st2" width="3.2" height="3.2"/>
	<rect x="69.6" y="287.4" class="st2" width="3.2" height="3.2"/>
	<rect x="69.6" y="292.8" class="st2" width="3.2" height="3.2"/>
	<rect x="69.6" y="298.2" class="st2" width="3.2" height="3.2"/>
	<rect x="69.6" y="303.6" class="st2" width="3.2" height="3.2"/>
	<rect x="69.6" y="309" class="st2" width="3.2" height="3.2"/>
	<rect x="69.6" y="314.4" class="st2" width="3.2" height="3.2"/>
	<rect x="69.6" y="319.8" class="st2" width="3.2" height="3.2"/>
	<rect x="69.6" y="325.1" class="st2" width="3.2" height="3.2"/>
	<rect x="69.6" y="330.5" class="st2" width="3.2" height="3.2"/>
	<rect x="69.6" y="335.9" class="st2" width="3.2" height="3.2"/>
	<rect x="69.6" y="341.3" class="st2" width="3.2" height="3.2"/>
	<rect x="69.6" y="346.7" class="st2" width="3.2" height="3.2"/>
	<rect x="69.6" y="352.1" class="st2" width="3.2" height="3.2"/>
	<rect x="69.6" y="357.5" class="st2" width="3.2" height="3.2"/>
	<rect x="69.6" y="362.9" class="st2" width="3.2" height="3.2"/>
	<rect x="69.6" y="368.3" class="st2" width="3.2" height="3.2"/>
	<rect x="69.6" y="373.7" class="st2" width="3.2" height="3.2"/>
	<rect x="69.6" y="379.1" class="st2" width="3.2" height="3.2"/>
	<rect x="74.7" y="276.6" class="st2" width="3.2" height="3.2"/>
	<rect x="74.7" y="282" class="st2" width="3.2" height="3.2"/>
	<rect x="74.7" y="287.4" class="st2" width="3.2" height="3.2"/>
	<rect x="74.7" y="292.8" class="st2" width="3.2" height="3.2"/>
	<rect x="74.7" y="298.2" class="st2" width="3.2" height="3.2"/>
	<rect x="74.7" y="303.6" class="st2" width="3.2" height="3.2"/>
	<rect x="74.7" y="309" class="st2" width="3.2" height="3.2"/>
	<rect x="74.7" y="314.4" class="st2" width="3.2" height="3.2"/>
	<rect x="74.7" y="319.8" class="st2" width="3.2" height="3.2"/>
	<rect x="74.7" y="325.1" class="st2" width="3.2" height="3.2"/>
	<rect x="74.7" y="330.5" class="st2" width="3.2" height="3.2"/>
	<rect x="74.7" y="335.9" class="st2" width="3.2" height="3.2"/>
	<rect x="74.7" y="341.3" class="st2" width="3.2" height="3.2"/>
	<rect x="74.7" y="346.7" class="st2" width="3.2" height="3.2"/>
	<rect x="74.7" y="352.1" class="st2" width="3.2" height="3.2"/>
	<rect x="74.7" y="357.5" class="st2" width="3.2" height="3.2"/>
	<rect x="74.7" y="362.9" class="st2" width="3.2" height="3.2"/>
	<rect x="74.7" y="368.3" class="st2" width="3.2" height="3.2"/>
	<rect x="79.9" y="276.6" class="st2" width="3.2" height="3.2"/>
	<rect x="79.9" y="282" class="st2" width="3.2" height="3.2"/>
	<rect x="79.9" y="287.4" class="st2" width="3.2" height="3.2"/>
	<rect x="79.9" y="292.8" class="st2" width="3.2" height="3.2"/>
	<rect x="79.9" y="298.2" class="st2" width="3.2" height="3.2"/>
	<rect x="79.9" y="303.6" class="st2" width="3.2" height="3.2"/>
	<rect x="79.9" y="309" class="st2" width="3.2" height="3.2"/>
	<rect x="79.9" y="314.4" class="st2" width="3.2" height="3.2"/>
	<rect x="79.9" y="319.8" class="st2" width="3.2" height="3.2"/>
	<rect x="79.9" y="325.1" class="st2" width="3.2" height="3.2"/>
	<rect x="79.9" y="330.5" class="st2" width="3.2" height="3.2"/>
	<rect x="79.9" y="335.9" class="st2" width="3.2" height="3.2"/>
	<rect x="79.9" y="341.3" class="st2" width="3.2" height="3.2"/>
	<rect x="79.9" y="346.7" class="st2" width="3.2" height="3.2"/>
	<rect x="79.9" y="352.1" class="st2" width="3.2" height="3.2"/>
	<rect x="79.9" y="357.5" class="st2" width="3.2" height="3.2"/>
	<rect x="79.9" y="362.9" class="st2" width="3.2" height="3.2"/>
	<rect x="79.9" y="368.3" class="st2" width="3.2" height="3.2"/>
	<rect x="50.5" y="316" class="st2" width="3.2" height="3.2"/>
	<rect x="50.5" y="321.4" class="st2" width="3.2" height="3.2"/>
	<rect x="50.5" y="326.8" class="st2" width="3.2" height="3.2"/>
	<rect x="50.5" y="332.2" class="st2" width="3.2" height="3.2"/>
	<rect x="50.5" y="337.6" class="st2" width="3.2" height="3.2"/>
	<rect x="50.5" y="342.9" class="st2" width="3.2" height="3.2"/>
	<rect x="50.5" y="348.3" class="st2" width="3.2" height="3.2"/>
	<rect x="50.5" y="353.7" class="st2" width="3.2" height="3.2"/>
	<rect x="50.5" y="359.1" class="st2" width="3.2" height="3.2"/>
	<rect x="50.5" y="364.5" class="st2" width="3.2" height="3.2"/>
	<rect x="50.5" y="369.9" class="st2" width="3.2" height="3.2"/>
	<rect x="50.5" y="375.3" class="st2" width="3.2" height="3.2"/>
	<rect x="50.5" y="380.7" class="st2" width="3.2" height="3.2"/>
	<rect x="55.6" y="316" class="st2" width="3.2" height="3.2"/>
	<rect x="55.6" y="321.4" class="st2" width="3.2" height="3.2"/>
	<rect x="55.6" y="326.8" class="st2" width="3.2" height="3.2"/>
	<rect x="55.6" y="332.2" class="st2" width="3.2" height="3.2"/>
	<rect x="55.6" y="337.6" class="st2" width="3.2" height="3.2"/>
	<rect x="55.6" y="342.9" class="st2" width="3.2" height="3.2"/>
	<rect x="55.6" y="348.3" class="st2" width="3.2" height="3.2"/>
	<rect x="55.6" y="353.7" class="st2" width="3.2" height="3.2"/>
	<rect x="55.6" y="359.1" class="st2" width="3.2" height="3.2"/>
	<rect x="55.6" y="364.5" class="st2" width="3.2" height="3.2"/>
	<rect x="55.6" y="369.9" class="st2" width="3.2" height="3.2"/>
	<rect x="55.6" y="375.3" class="st2" width="3.2" height="3.2"/>
	<rect x="55.6" y="380.7" class="st2" width="3.2" height="3.2"/>
	<rect x="60.7" y="316" class="st2" width="3.2" height="3.2"/>
	<rect x="60.7" y="321.4" class="st2" width="3.2" height="3.2"/>
	<rect x="60.7" y="326.8" class="st2" width="3.2" height="3.2"/>
	<rect x="60.7" y="332.2" class="st2" width="3.2" height="3.2"/>
	<rect x="60.7" y="337.6" class="st2" width="3.2" height="3.2"/>
	<rect x="60.7" y="342.9" class="st2" width="3.2" height="3.2"/>
	<rect x="60.7" y="348.3" class="st2" width="3.2" height="3.2"/>
	<rect x="60.7" y="353.7" class="st2" width="3.2" height="3.2"/>
	<rect x="60.7" y="359.1" class="st2" width="3.2" height="3.2"/>
	<rect x="60.7" y="364.5" class="st2" width="3.2" height="3.2"/>
	<rect x="60.7" y="369.9" class="st2" width="3.2" height="3.2"/>
	<rect x="60.7" y="375.3" class="st2" width="3.2" height="3.2"/>
	<rect x="60.7" y="380.7" class="st2" width="3.2" height="3.2"/>
	<rect x="60.7" y="386.1" class="st2" width="3.2" height="3.2"/>
	<rect x="89.1" y="317.6" class="st2" width="3.2" height="3.2"/>
	<rect x="89.1" y="323" class="st2" width="3.2" height="3.2"/>
	<rect x="89.1" y="328.4" class="st2" width="3.2" height="3.2"/>
	<rect x="89.1" y="333.8" class="st2" width="3.2" height="3.2"/>
	<rect x="89.1" y="339.2" class="st2" width="3.2" height="3.2"/>
	<rect x="89.1" y="344.6" class="st2" width="3.2" height="3.2"/>
	<rect x="89.1" y="349.9" class="st2" width="3.2" height="3.2"/>
	<rect x="89.1" y="355.4" class="st2" width="3.2" height="3.2"/>
	<rect x="89.1" y="360.7" class="st2" width="3.2" height="3.2"/>
	<rect x="89.1" y="366.1" class="st2" width="3.2" height="3.2"/>
	<rect x="89.1" y="382.3" class="st2" width="3.2" height="3.2"/>
	<rect x="94.2" y="317.6" class="st2" width="3.2" height="3.2"/>
	<rect x="94.2" y="323" class="st2" width="3.2" height="3.2"/>
	<rect x="94.2" y="328.4" class="st2" width="3.2" height="3.2"/>
	<rect x="94.2" y="333.8" class="st2" width="3.2" height="3.2"/>
	<rect x="94.2" y="339.2" class="st2" width="3.2" height="3.2"/>
	<rect x="94.2" y="344.6" class="st2" width="3.2" height="3.2"/>
	<rect x="94.2" y="349.9" class="st2" width="3.2" height="3.2"/>
	<rect x="94.2" y="355.4" class="st2" width="3.2" height="3.2"/>
	<rect x="94.2" y="360.7" class="st2" width="3.2" height="3.2"/>
	<rect x="94.2" y="376.9" class="st2" width="3.2" height="3.2"/>
	<rect x="94.2" y="382.3" class="st2" width="3.2" height="3.2"/>
	<rect x="99.4" y="317.6" class="st2" width="3.2" height="3.2"/>
	<rect x="99.4" y="323" class="st2" width="3.2" height="3.2"/>
	<rect x="99.4" y="328.4" class="st2" width="3.2" height="3.2"/>
	<rect x="99.4" y="333.8" class="st2" width="3.2" height="3.2"/>
	<rect x="99.4" y="339.2" class="st2" width="3.2" height="3.2"/>
	<rect x="99.4" y="344.6" class="st2" width="3.2" height="3.2"/>
	<rect x="99.4" y="349.9" class="st2" width="3.2" height="3.2"/>
	<rect x="99.4" y="355.4" class="st2" width="3.2" height="3.2"/>
	<rect x="99.4" y="371.5" class="st2" width="3.2" height="3.2"/>
	<rect x="99.4" y="376.9" class="st2" width="3.2" height="3.2"/>
	<rect x="99.4" y="382.3" class="st2" width="3.2" height="3.2"/>
	<rect x="146.9" y="235.6" class="st2" width="3.2" height="3.2"/>
	<rect x="146.9" y="241" class="st2" width="3.2" height="3.2"/>
	<rect x="146.9" y="246.4" class="st2" width="3.2" height="3.2"/>
	<rect x="146.9" y="251.8" class="st2" width="3.2" height="3.2"/>
	<rect x="146.9" y="257.2" class="st2" width="3.2" height="3.2"/>
	<rect x="146.9" y="262.6" class="st2" width="3.2" height="3.2"/>
	<rect x="146.9" y="268" class="st2" width="3.2" height="3.2"/>
	<rect x="146.9" y="273.4" class="st2" width="3.2" height="3.2"/>
	<rect x="146.9" y="278.8" class="st2" width="3.2" height="3.2"/>
	<rect x="146.9" y="284.2" class="st2" width="3.2" height="3.2"/>
	<rect x="146.9" y="289.6" class="st2" width="3.2" height="3.2"/>
	<rect x="146.9" y="294.9" class="st2" width="3.2" height="3.2"/>
	<rect x="146.9" y="300.3" class="st2" width="3.2" height="3.2"/>
	<rect x="146.9" y="305.7" class="st2" width="3.2" height="3.2"/>
	<rect x="146.9" y="311.1" class="st2" width="3.2" height="3.2"/>
	<rect x="146.9" y="316.5" class="st2" width="3.2" height="3.2"/>
	<rect x="146.9" y="321.9" class="st2" width="3.2" height="3.2"/>
	<rect x="146.9" y="332.7" class="st2" width="3.2" height="3.2"/>
	<rect x="146.9" y="338.1" class="st2" width="3.2" height="3.2"/>
	<rect x="146.9" y="343.5" class="st2" width="3.2" height="3.2"/>
	<rect x="146.9" y="348.9" class="st2" width="3.2" height="3.2"/>
	<rect x="146.9" y="354.3" class="st2" width="3.2" height="3.2"/>
	<rect x="152" y="235.6" class="st2" width="3.2" height="3.2"/>
	<rect x="152" y="241" class="st2" width="3.2" height="3.2"/>
	<rect x="152" y="246.4" class="st2" width="3.2" height="3.2"/>
	<rect x="152" y="251.8" class="st2" width="3.2" height="3.2"/>
	<rect x="152" y="257.2" class="st2" width="3.2" height="3.2"/>
	<rect x="152" y="262.6" class="st2" width="3.2" height="3.2"/>
	<rect x="152" y="268" class="st2" width="3.2" height="3.2"/>
	<rect x="152" y="273.4" class="st2" width="3.2" height="3.2"/>
	<rect x="152" y="278.8" class="st2" width="3.2" height="3.2"/>
	<rect x="152" y="284.2" class="st2" width="3.2" height="3.2"/>
	<rect x="152" y="289.6" class="st2" width="3.2" height="3.2"/>
	<rect x="152" y="294.9" class="st2" width="3.2" height="3.2"/>
	<rect x="152" y="300.3" class="st2" width="3.2" height="3.2"/>
	<rect x="152" y="305.7" class="st2" width="3.2" height="3.2"/>
	<rect x="152" y="311.1" class="st2" width="3.2" height="3.2"/>
	<rect x="152" y="316.5" class="st2" width="3.2" height="3.2"/>
	<rect x="152" y="348.9" class="st2" width="3.2" height="3.2"/>
	<rect x="152" y="354.3" class="st2" width="3.2" height="3.2"/>
	<rect x="157.1" y="235.6" class="st2" width="3.2" height="3.2"/>
	<rect x="157.1" y="241" class="st2" width="3.2" height="3.2"/>
	<rect x="157.1" y="246.4" class="st2" width="3.2" height="3.2"/>
	<rect x="157.1" y="251.8" class="st2" width="3.2" height="3.2"/>
	<rect x="157.1" y="257.2" class="st2" width="3.2" height="3.2"/>
	<rect x="157.1" y="262.6" class="st2" width="3.2" height="3.2"/>
	<rect x="157.1" y="268" class="st2" width="3.2" height="3.2"/>
	<rect x="157.1" y="273.4" class="st2" width="3.2" height="3.2"/>
	<rect x="157.1" y="278.8" class="st2" width="3.2" height="3.2"/>
	<rect x="157.1" y="284.2" class="st2" width="3.2" height="3.2"/>
	<rect x="157.1" y="289.6" class="st2" width="3.2" height="3.2"/>
	<rect x="157.1" y="294.9" class="st2" width="3.2" height="3.2"/>
	<rect x="157.1" y="300.3" class="st2" width="3.2" height="3.2"/>
	<rect x="157.1" y="305.7" class="st2" width="3.2" height="3.2"/>
	<rect x="157.1" y="311.1" class="st2" width="3.2" height="3.2"/>
	<rect x="157.1" y="316.5" class="st2" width="3.2" height="3.2"/>
	<rect x="157.1" y="327.3" class="st2" width="3.2" height="3.2"/>
	<rect x="157.1" y="332.7" class="st2" width="3.2" height="3.2"/>
	<rect x="157.1" y="338.1" class="st2" width="3.2" height="3.2"/>
	<rect x="157.1" y="343.5" class="st2" width="3.2" height="3.2"/>
	<rect x="157.1" y="354.3" class="st2" width="3.2" height="3.2"/>
	<rect x="128.3" y="303.6" class="st2" width="3.2" height="3.2"/>
	<rect x="128.3" y="309" class="st2" width="3.2" height="3.2"/>
	<rect x="128.3" y="314.4" class="st2" width="3.2" height="3.2"/>
	<rect x="128.3" y="319.8" class="st2" width="3.2" height="3.2"/>
	<rect x="128.3" y="325.1" class="st2" width="3.2" height="3.2"/>
	<rect x="128.3" y="330.5" class="st2" width="3.2" height="3.2"/>
	<rect x="128.3" y="335.9" class="st2" width="3.2" height="3.2"/>
	<rect x="128.3" y="346.7" class="st2" width="3.2" height="3.2"/>
	<rect x="128.3" y="352.1" class="st2" width="3.2" height="3.2"/>
	<rect x="128.3" y="357.5" class="st2" width="3.2" height="3.2"/>
	<rect x="128.3" y="362.9" class="st2" width="3.2" height="3.2"/>
	<rect x="128.3" y="368.3" class="st2" width="3.2" height="3.2"/>
	<rect x="128.3" y="373.7" class="st2" width="3.2" height="3.2"/>
	<rect x="128.3" y="379.1" class="st2" width="3.2" height="3.2"/>
	<rect x="128.3" y="384.5" class="st2" width="3.2" height="3.2"/>
	<rect x="133.4" y="303.6" class="st2" width="3.2" height="3.2"/>
	<rect x="133.4" y="309" class="st2" width="3.2" height="3.2"/>
	<rect x="133.4" y="314.4" class="st2" width="3.2" height="3.2"/>
	<rect x="133.4" y="319.8" class="st2" width="3.2" height="3.2"/>
	<rect x="133.4" y="325.1" class="st2" width="3.2" height="3.2"/>
	<rect x="133.4" y="330.5" class="st2" width="3.2" height="3.2"/>
	<rect x="133.4" y="346.7" class="st2" width="3.2" height="3.2"/>
	<rect x="133.4" y="352.1" class="st2" width="3.2" height="3.2"/>
	<rect x="133.4" y="357.5" class="st2" width="3.2" height="3.2"/>
	<rect x="133.4" y="362.9" class="st2" width="3.2" height="3.2"/>
	<rect x="133.4" y="368.3" class="st2" width="3.2" height="3.2"/>
	<rect x="133.4" y="373.7" class="st2" width="3.2" height="3.2"/>
	<rect x="133.4" y="379.1" class="st2" width="3.2" height="3.2"/>
	<rect x="133.4" y="384.5" class="st2" width="3.2" height="3.2"/>
	<rect x="138.6" y="303.6" class="st2" width="3.2" height="3.2"/>
	<rect x="138.6" y="309" class="st2" width="3.2" height="3.2"/>
	<rect x="138.6" y="314.4" class="st2" width="3.2" height="3.2"/>
	<rect x="138.6" y="319.8" class="st2" width="3.2" height="3.2"/>
	<rect x="138.6" y="325.1" class="st2" width="3.2" height="3.2"/>
	<rect x="138.6" y="330.5" class="st2" width="3.2" height="3.2"/>
	<rect x="138.6" y="341.3" class="st2" width="3.2" height="3.2"/>
	<rect x="138.6" y="346.7" class="st2" width="3.2" height="3.2"/>
	<rect x="138.6" y="352.1" class="st2" width="3.2" height="3.2"/>
	<rect x="138.6" y="357.5" class="st2" width="3.2" height="3.2"/>
	<rect x="138.6" y="362.9" class="st2" width="3.2" height="3.2"/>
	<rect x="138.6" y="368.3" class="st2" width="3.2" height="3.2"/>
	<rect x="138.6" y="373.7" class="st2" width="3.2" height="3.2"/>
	<rect x="138.6" y="379.1" class="st2" width="3.2" height="3.2"/>
	<rect x="138.6" y="384.5" class="st2" width="3.2" height="3.2"/>
	<rect x="246.3" y="273.4" class="st2" width="3.2" height="3.2"/>
	<rect x="246.3" y="278.8" class="st2" width="3.2" height="3.2"/>
	<rect x="246.3" y="284.2" class="st2" width="3.2" height="3.2"/>
	<rect x="246.3" y="289.6" class="st2" width="3.2" height="3.2"/>
	<rect x="246.3" y="294.9" class="st2" width="3.2" height="3.2"/>
	<rect x="246.3" y="300.3" class="st2" width="3.2" height="3.2"/>
	<rect x="246.3" y="305.7" class="st2" width="3.2" height="3.2"/>
	<rect x="246.3" y="311.1" class="st2" width="3.2" height="3.2"/>
	<rect x="246.3" y="316.5" class="st2" width="3.2" height="3.2"/>
	<rect x="246.3" y="321.9" class="st2" width="3.2" height="3.2"/>
	<rect x="246.3" y="327.3" class="st2" width="3.2" height="3.2"/>
	<rect x="246.3" y="332.7" class="st2" width="3.2" height="3.2"/>
	<rect x="246.3" y="338.1" class="st2" width="3.2" height="3.2"/>
	<rect x="246.3" y="348.9" class="st2" width="3.2" height="3.2"/>
	<rect x="246.3" y="354.3" class="st2" width="3.2" height="3.2"/>
	<rect x="246.3" y="359.7" class="st2" width="3.2" height="3.2"/>
	<rect x="246.3" y="365.1" class="st2" width="3.2" height="3.2"/>
	<rect x="246.3" y="375.9" class="st2" width="3.2" height="3.2"/>
	<rect x="246.3" y="381.3" class="st2" width="3.2" height="3.2"/>
	<rect x="246.3" y="386.7" class="st2" width="3.2" height="3.2"/>
	<rect x="251.4" y="273.4" class="st2" width="3.2" height="3.2"/>
	<rect x="251.4" y="278.8" class="st2" width="3.2" height="3.2"/>
	<rect x="251.4" y="284.2" class="st2" width="3.2" height="3.2"/>
	<rect x="251.4" y="289.6" class="st2" width="3.2" height="3.2"/>
	<rect x="251.4" y="294.9" class="st2" width="3.2" height="3.2"/>
	<rect x="251.4" y="300.3" class="st2" width="3.2" height="3.2"/>
	<rect x="251.4" y="305.7" class="st2" width="3.2" height="3.2"/>
	<rect x="251.4" y="311.1" class="st2" width="3.2" height="3.2"/>
	<rect x="251.4" y="316.5" class="st2" width="3.2" height="3.2"/>
	<rect x="251.4" y="321.9" class="st2" width="3.2" height="3.2"/>
	<rect x="251.4" y="327.3" class="st2" width="3.2" height="3.2"/>
	<rect x="251.4" y="332.7" class="st2" width="3.2" height="3.2"/>
	<rect x="251.4" y="338.1" class="st2" width="3.2" height="3.2"/>
	<rect x="251.4" y="354.3" class="st2" width="3.2" height="3.2"/>
	<rect x="251.4" y="359.7" class="st2" width="3.2" height="3.2"/>
	<rect x="251.4" y="370.5" class="st2" width="3.2" height="3.2"/>
	<rect x="251.4" y="375.9" class="st2" width="3.2" height="3.2"/>
	<rect x="251.4" y="381.3" class="st2" width="3.2" height="3.2"/>
	<rect x="251.4" y="386.7" class="st2" width="3.2" height="3.2"/>
	<rect x="256.5" y="273.4" class="st2" width="3.2" height="3.2"/>
	<rect x="256.5" y="278.8" class="st2" width="3.2" height="3.2"/>
	<rect x="256.5" y="284.2" class="st2" width="3.2" height="3.2"/>
	<rect x="256.5" y="289.6" class="st2" width="3.2" height="3.2"/>
	<rect x="256.5" y="294.9" class="st2" width="3.2" height="3.2"/>
	<rect x="256.5" y="300.3" class="st2" width="3.2" height="3.2"/>
	<rect x="256.5" y="305.7" class="st2" width="3.2" height="3.2"/>
	<rect x="256.5" y="311.1" class="st2" width="3.2" height="3.2"/>
	<rect x="256.5" y="316.5" class="st2" width="3.2" height="3.2"/>
	<rect x="256.5" y="321.9" class="st2" width="3.2" height="3.2"/>
	<rect x="256.5" y="327.3" class="st2" width="3.2" height="3.2"/>
	<rect x="256.5" y="332.7" class="st2" width="3.2" height="3.2"/>
	<rect x="256.5" y="338.1" class="st2" width="3.2" height="3.2"/>
	<rect x="256.5" y="343.5" class="st2" width="3.2" height="3.2"/>
	<rect x="256.5" y="354.3" class="st2" width="3.2" height="3.2"/>
	<rect x="256.5" y="365.1" class="st2" width="3.2" height="3.2"/>
	<rect x="256.5" y="370.5" class="st2" width="3.2" height="3.2"/>
	<rect x="256.5" y="375.9" class="st2" width="3.2" height="3.2"/>
	<rect x="256.5" y="381.3" class="st2" width="3.2" height="3.2"/>
	<rect x="256.5" y="386.7" class="st2" width="3.2" height="3.2"/>
	<rect x="225.5" y="304.1" class="st2" width="3.2" height="3.2"/>
	<rect x="225.5" y="309.5" class="st2" width="3.2" height="3.2"/>
	<rect x="225.5" y="314.9" class="st2" width="3.2" height="3.2"/>
	<rect x="225.5" y="320.3" class="st2" width="3.2" height="3.2"/>
	<rect x="225.5" y="325.7" class="st2" width="3.2" height="3.2"/>
	<rect x="225.5" y="331.1" class="st2" width="3.2" height="3.2"/>
	<rect x="225.5" y="347.3" class="st2" width="3.2" height="3.2"/>
	<rect x="225.5" y="352.7" class="st2" width="3.2" height="3.2"/>
	<rect x="225.5" y="358.1" class="st2" width="3.2" height="3.2"/>
	<rect x="225.5" y="363.5" class="st2" width="3.2" height="3.2"/>
	<rect x="225.5" y="368.9" class="st2" width="3.2" height="3.2"/>
	<rect x="225.5" y="374.3" class="st2" width="3.2" height="3.2"/>
	<rect x="225.5" y="379.7" class="st2" width="3.2" height="3.2"/>
	<rect x="230.6" y="304.1" class="st2" width="3.2" height="3.2"/>
	<rect x="230.6" y="309.5" class="st2" width="3.2" height="3.2"/>
	<rect x="230.6" y="314.9" class="st2" width="3.2" height="3.2"/>
	<rect x="230.6" y="320.3" class="st2" width="3.2" height="3.2"/>
	<rect x="230.6" y="325.7" class="st2" width="3.2" height="3.2"/>
	<rect x="230.6" y="331.1" class="st2" width="3.2" height="3.2"/>
	<rect x="230.6" y="347.3" class="st2" width="3.2" height="3.2"/>
	<rect x="230.6" y="352.7" class="st2" width="3.2" height="3.2"/>
	<rect x="230.6" y="358.1" class="st2" width="3.2" height="3.2"/>
	<rect x="230.6" y="363.5" class="st2" width="3.2" height="3.2"/>
	<rect x="230.6" y="368.9" class="st2" width="3.2" height="3.2"/>
	<rect x="230.6" y="374.3" class="st2" width="3.2" height="3.2"/>
	<rect x="230.6" y="385.1" class="st2" width="3.2" height="3.2"/>
	<rect x="400.4" y="280.4" class="st2" width="3.2" height="3.2"/>
	<rect x="400.4" y="285.8" class="st2" width="3.2" height="3.2"/>
	<rect x="400.4" y="291.2" class="st2" width="3.2" height="3.2"/>
	<rect x="400.4" y="296.6" class="st2" width="3.2" height="3.2"/>
	<rect x="400.4" y="302" class="st2" width="3.2" height="3.2"/>
	<rect x="400.4" y="307.4" class="st2" width="3.2" height="3.2"/>
	<rect x="400.4" y="312.7" class="st2" width="3.2" height="3.2"/>
	<rect x="400.4" y="318.1" class="st2" width="3.2" height="3.2"/>
	<rect x="400.4" y="323.5" class="st2" width="3.2" height="3.2"/>
	<rect x="400.4" y="328.9" class="st2" width="3.2" height="3.2"/>
	<rect x="400.4" y="334.3" class="st2" width="3.2" height="3.2"/>
	<rect x="400.4" y="345.1" class="st2" width="3.2" height="3.2"/>
	<rect x="400.4" y="350.5" class="st2" width="3.2" height="3.2"/>
	<rect x="400.4" y="355.9" class="st2" width="3.2" height="3.2"/>
	<rect x="400.4" y="361.3" class="st2" width="3.2" height="3.2"/>
	<rect x="400.4" y="366.7" class="st2" width="3.2" height="3.2"/>
	<rect x="400.4" y="372.1" class="st2" width="3.2" height="3.2"/>
	<rect x="400.4" y="377.5" class="st2" width="3.2" height="3.2"/>
	<rect x="400.4" y="382.9" class="st2" width="3.2" height="3.2"/>
	<rect x="405.5" y="280.4" class="st2" width="3.2" height="3.2"/>
	<rect x="405.5" y="285.8" class="st2" width="3.2" height="3.2"/>
	<rect x="405.5" y="291.2" class="st2" width="3.2" height="3.2"/>
	<rect x="405.5" y="296.6" class="st2" width="3.2" height="3.2"/>
	<rect x="405.5" y="302" class="st2" width="3.2" height="3.2"/>
	<rect x="405.5" y="307.4" class="st2" width="3.2" height="3.2"/>
	<rect x="405.5" y="312.7" class="st2" width="3.2" height="3.2"/>
	<rect x="405.5" y="318.1" class="st2" width="3.2" height="3.2"/>
	<rect x="405.5" y="323.5" class="st2" width="3.2" height="3.2"/>
	<rect x="405.5" y="328.9" class="st2" width="3.2" height="3.2"/>
	<rect x="405.5" y="334.3" class="st2" width="3.2" height="3.2"/>
	<rect x="405.5" y="339.7" class="st2" width="3.2" height="3.2"/>
	<rect x="405.5" y="345.1" class="st2" width="3.2" height="3.2"/>
	<rect x="405.5" y="350.5" class="st2" width="3.2" height="3.2"/>
	<rect x="405.5" y="355.9" class="st2" width="3.2" height="3.2"/>
	<rect x="405.5" y="361.3" class="st2" width="3.2" height="3.2"/>
	<rect x="405.5" y="366.7" class="st2" width="3.2" height="3.2"/>
	<rect x="405.5" y="372.1" class="st2" width="3.2" height="3.2"/>
	<rect x="405.5" y="377.5" class="st2" width="3.2" height="3.2"/>
	<rect x="405.5" y="382.9" class="st2" width="3.2" height="3.2"/>
	<rect x="375.2" y="301.4" class="st2" width="3.2" height="3.2"/>
	<rect x="375.2" y="306.8" class="st2" width="3.2" height="3.2"/>
	<rect x="375.2" y="312.2" class="st2" width="3.2" height="3.2"/>
	<rect x="375.2" y="317.6" class="st2" width="3.2" height="3.2"/>
	<rect x="375.2" y="323" class="st2" width="3.2" height="3.2"/>
	<rect x="375.2" y="328.4" class="st2" width="3.2" height="3.2"/>
	<rect x="375.2" y="333.8" class="st2" width="3.2" height="3.2"/>
	<rect x="375.2" y="339.2" class="st2" width="3.2" height="3.2"/>
	<rect x="375.2" y="344.6" class="st2" width="3.2" height="3.2"/>
	<rect x="375.2" y="349.9" class="st2" width="3.2" height="3.2"/>
	<rect x="380.3" y="301.4" class="st2" width="3.2" height="3.2"/>
	<rect x="380.3" y="306.8" class="st2" width="3.2" height="3.2"/>
	<rect x="380.3" y="312.2" class="st2" width="3.2" height="3.2"/>
	<rect x="380.3" y="317.6" class="st2" width="3.2" height="3.2"/>
	<rect x="380.3" y="323" class="st2" width="3.2" height="3.2"/>
	<rect x="380.3" y="328.4" class="st2" width="3.2" height="3.2"/>
	<rect x="380.3" y="333.8" class="st2" width="3.2" height="3.2"/>
	<rect x="380.3" y="339.2" class="st2" width="3.2" height="3.2"/>
	<rect x="380.3" y="344.6" class="st2" width="3.2" height="3.2"/>
	<path class="st2" d="M133.2,172.3c0-5.5-4.4-10-9.9-10c-1,0-2,0.1-2.9,0.4c1.7-11.6-6.3-22.3-17.9-24c-1-0.2-2.1-0.2-3.1-0.2
		c-1.3,0-2.6,0.1-3.9,0.4c-5.3-8.7-16.7-11.5-25.5-6.2c-5.4,3.3-8.8,9.2-8.9,15.6h-0.3c-9.4,0-17.1,7.6-17.1,17.1
		c0,9.4,7.6,17.1,17.1,17.1h62.7l0,0C129,182.2,133.3,177.8,133.2,172.3z"/>
	<path class="st2" d="M214.7,154.3c0-3.5,2.9-6.4,6.4-6.4c0,0,0,0,0,0c0.6,0,1.2,0.1,1.8,0.3c-0.1-0.6-0.2-1.3-0.1-2
		c0-7.5,6.1-13.5,13.5-13.5c0.8,0,1.7,0.1,2.5,0.2c3.4-5.6,10.7-7.4,16.3-4c3.5,2.1,5.6,5.9,5.7,9.9h0.2c6,0.2,10.7,5.2,10.6,11.3
		c-0.2,5.7-4.8,10.4-10.6,10.6h-40C217.4,160.6,214.7,157.8,214.7,154.3z"/>
	<path class="st2" d="M400.2,170.2c0-3.5,2.9-6.4,6.4-6.4l0,0c0.6,0,1.2,0.1,1.8,0.3c-0.1-0.7-0.1-1.3-0.1-2
		c0-7.5,6.1-13.5,13.5-13.5l0,0c0.8,0,1.7,0.1,2.5,0.2c3.4-5.6,10.7-7.4,16.3-4c3.5,2.1,5.6,5.9,5.7,9.9h0.1
		c6-0.2,11.1,4.5,11.3,10.6c0.2,6-4.5,11.1-10.6,11.3c-0.2,0-0.5,0-0.7,0h-40C402.9,176.5,400.2,173.7,400.2,170.2z"/>
	<path class="st2" d="M145.5,90.5c0-2.2,1.7-3.9,3.9-3.9c0,0,0,0,0,0c0.4,0,0.8,0.1,1.1,0.2c-0.1-0.4-0.1-0.8-0.1-1.2
		c0-4.6,3.7-8.3,8.3-8.3l0,0c0.5,0,1,0,1.5,0.1c2.1-3.4,6.5-4.5,10-2.4c2.1,1.3,3.4,3.6,3.5,6.1h0.1c3.7,0.2,6.6,3.3,6.4,7
		c-0.1,3.5-2.9,6.3-6.4,6.4h-24.5C147.2,94.4,145.5,92.7,145.5,90.5z"/>
	<path class="st2" d="M312.3,93.4c0-2.2,1.8-3.9,3.9-3.9l0,0c0.4,0,0.8,0.1,1.1,0.2c-0.7-4.5,2.4-8.7,6.9-9.4
		c0.4-0.1,0.8-0.1,1.3-0.1c0.5,0,1,0.1,1.5,0.1c2.1-3.4,6.5-4.5,9.9-2.5c2.1,1.3,3.5,3.6,3.5,6.1h0.1c3.7,0,6.7,3,6.7,6.7
		c0,3.7-3,6.7-6.7,6.7h-24.5C314,97.3,312.3,95.5,312.3,93.4z"/>
</g>
<g id="freepik--Shadow--inject-39">
	<ellipse id="freepik--path--inject-39" class="st3" cx="250" cy="439.9" rx="220.1" ry="12.8"/>
</g>
<g id="freepik--Floor--inject-39">
	<path class="st4" d="M373,427.5c0,0-9.1-17.6-6.8-19.3s6.8,14.8,6.8,13.4s-0.3-23.7,3.9-22.8c4.2,0.9,0,21.5,0,21.5
		s5.6-10.5,7.8-9.7c2.2,0.8-6.5,13.3-6.5,13.3s5.2-3.1,6.5-2.9s-6.5,6.5-6.5,6.5H373z"/>
	<path class="st4" d="M129.3,432.5c0,0,9.1-17.6,6.8-19.3s-6.7,14.8-6.8,13.4c-0.1-1.3,0.3-23.7-3.9-22.8c-4.2,0.9,0,21.6,0,21.6
		s-7.8-14.9-9.9-11.1c-1.8,3.3,8.5,14.7,8.5,14.7s-10.3-7-10.3-3.9c-0.1,3.3,10.3,7.5,10.3,7.5L129.3,432.5z"/>
	<path class="st4" d="M267.7,417.7c0,0-8.6-10.7-5.3-11.6c3.3-1,5.6,7.9,6.1,6.7c0.6-1.2,0.2-12.9,5.7-11.1c5.5,1.8-2,11.7-2,11.7
		s4.9-3.8,6.3-2.8c1.3,1-5.9,7.9-5.9,7.9L267.7,417.7z"/>
	<path class="st4" d="M189.2,404.6c0,0,5.8-12.4,2.4-12.6s-4.5,9.4-4.5,9.4s-1.9-12.8-7.1-11.1c-5.4,1.9,3.9,12,3.9,12
		s-9-5.7-9.6-2.5c-0.7,3.9,11.6,6.2,11.6,6.2L189.2,404.6z"/>
	<polygon class="st5" points="98.5,440.6 404.2,440.6 391.7,427 300.6,417.4 268.7,417.4 245.7,398.8 186,403.7 136.9,422 
		126.8,431.4 111.2,431.4 	"/>
	<polygon class="st6" points="98.5,440.6 404.2,440.6 391.7,427 300.6,417.4 268.7,417.4 245.7,398.8 186,403.7 136.9,422 
		126.8,431.4 111.2,431.4 	"/>
	<polygon class="st7" points="126.8,431.4 159,436.8 176.4,436.8 156.7,433.4 136.9,422 	"/>
	<polygon class="st7" points="268.7,417.4 251.4,417.4 223.4,427.4 237.8,413.2 258.6,409.2 	"/>
	<polygon class="st7" points="391.7,427 358.7,436.8 330.1,429.4 355.6,440.6 404.2,440.6 	"/>
</g>
<g>
	<g>
		<path class="st8" d="M384.5,249.7c-0.2-0.6-0.6-1.1-1.2-1.5c-0.5-0.3-0.9,0-1.3,0.1c-0.4,0.1-0.4-0.1-0.5-0.3
			c-0.7-1.7-2-3.2-3.8-4.2c-0.4-0.2-0.6-0.2-1-0.2c-3.1,0.8-6.3,1.4-9.7,1.8c-3.7,0.4-7.5,0.3-11.3,0.2c-2.3-0.1-4.6-0.2-6.9-0.3
			c-2.7-0.1-4.9,1.6-5.2,3.8c-0.3,2.4,0.8,4.5,3.2,6.2c2.3,1.7,4.9,2.2,7.5,1.6c1.6-0.4,3.1-0.8,4.7-1.1c2.8-0.6,5.7-1.1,8.6-1.3
			l7.2-0.1c2.8,0.1,5.6,0.1,8.3,0.2c0.5,0,0.8-0.1,0.9-0.5c0.1-0.5,0.3-1,0.5-1.4C384.7,251.7,384.8,250.7,384.5,249.7z
			 M354.4,255.4c-2.1,0.8-4.3,0.5-6.4-0.8c-2-1.3-3-3-2.9-4.9c0.1-2.5,3.5-3.8,6.2-2.5c0.5,0.3,1,0.7,1.4,1.3c-1.2,0-2.3,0.1-3.4,0
			c-1.2,0-2,0.3-2.3,1.3c-0.2,0.8,0.3,2,1.3,2.7c1.4,0.9,3.2,1.2,4.7,0.6c1.5-0.6,2.1-1.8,1.9-3.2c-0.2-1.1-0.7-2-1.7-2.9
			c2.2,0,4.3,0.1,6.4,0.1c1.7,0,3.4,0,5-0.1c0.3,0,0.5,0,0.7,0.3c0.7,0.7,1.4,1.5,2,2.4c-3.7-0.3-7.4-0.6-11.2-1.1
			c0.2,0.3,0.3,0.6,0.4,0.9C357.6,251.9,356.8,254.5,354.4,255.4z M352.7,249.7c0.5,0,0.7,0.1,0.6,0.5c0,0.2-0.1,0.4-0.1,0.5
			c-0.6,1.3-2.4,1.7-3.7,1c-0.4-0.2-0.7-0.5-0.9-0.9c-0.2-0.6,0-0.9,0.7-0.9C350.5,249.7,351.6,249.7,352.7,249.7z M368.1,253.1
			c-3.5,0.2-6.9,0.8-10.2,1.4c0,0-0.1,0-0.2,0c0.8-1.3,1-2.7,0.6-4.2c-0.1-0.3,0-0.4,0.3-0.3c3,0.3,5.9,0.6,8.9,0.8
			c0.3,0,0.4,0.1,0.5,0.3c0.2,0.6,0.3,1.1,0.4,1.7C368.5,253,368.4,253.1,368.1,253.1z M373,249.7c-0.2-0.1-0.2-0.2-0.2-0.3
			c-0.5-1-1.2-2-2-2.9c-0.3-0.3-0.2-0.4,0.2-0.4c2-0.3,3.9-0.7,5.8-1.2c0.3-0.1,0.5,0,0.8,0.2c1.2,0.9,2.1,1.9,2.5,3.2
			c0.1,0.3,0.1,0.4-0.2,0.5c-2.2,0.4-4.3,0.7-6.6,0.9C373.1,249.7,373.1,249.7,373,249.7z M382.7,253c0,0.3-0.3,0.4-0.7,0.3
			c-2.7-0.1-5.4-0.1-8.1-0.2c-0.3,0-0.5,0-0.4-0.4c0.1-0.5,0-1-0.1-1.4c-0.1-0.3,0-0.4,0.3-0.4c2.9-0.2,5.7-0.7,8.5-1.3
			c0.6-0.1,0.7-0.1,0.8,0.5C383.3,251.1,383,252,382.7,253z"/>
	</g>
	<g>
		<path class="st9" d="M353.3,250.2c0,0.2-0.1,0.4-0.1,0.5c-0.6,1.3-2.4,1.7-3.7,1c-0.4-0.2-0.7-0.5-0.9-0.9c-0.2-0.6,0-0.9,0.7-0.9
			c1.1,0,2.3,0,3.4-0.1C353.2,249.7,353.4,249.8,353.3,250.2z"/>
	</g>
	<g>
		<path class="st9" d="M379.8,248.8c-2.2,0.4-4.3,0.7-6.6,0.9c-0.1,0-0.2,0-0.3,0c-0.2-0.1-0.2-0.2-0.2-0.3c-0.5-1-1.2-2-2-2.9
			c-0.3-0.3-0.2-0.4,0.2-0.4c2-0.3,3.9-0.7,5.8-1.2c0.3-0.1,0.5,0,0.8,0.2c1.2,0.9,2.1,1.9,2.5,3.2
			C380.2,248.6,380.1,248.7,379.8,248.8z"/>
	</g>
	<g>
		<path class="st9" d="M382.7,253c0,0.3-0.3,0.4-0.7,0.3c-2.7-0.1-5.4-0.1-8.1-0.2c-0.3,0-0.5,0-0.4-0.4c0.1-0.5,0-1-0.1-1.4
			c-0.1-0.3,0-0.4,0.3-0.4c2.9-0.2,5.7-0.7,8.5-1.3c0.6-0.1,0.7-0.1,0.8,0.5C383.3,251.1,383,252,382.7,253z"/>
	</g>
	<g>
		<path class="st9" d="M368.1,253.1c-3.5,0.2-6.9,0.8-10.2,1.4c0,0-0.1,0-0.2,0c0.8-1.3,1-2.7,0.6-4.2c-0.1-0.3,0-0.4,0.3-0.3
			c3,0.3,5.9,0.6,8.9,0.8c0.3,0,0.4,0.1,0.5,0.3c0.2,0.6,0.3,1.1,0.4,1.7C368.5,253,368.4,253.1,368.1,253.1z"/>
	</g>
	<g>
		<path class="st9" d="M356.5,249.4c1.2,2.5,0.3,5.1-2.1,6c-2.1,0.8-4.3,0.5-6.4-0.8c-2-1.3-3-3-2.9-4.9c0.1-2.5,3.5-3.8,6.2-2.5
			c0.5,0.3,1,0.7,1.4,1.3c-1.2,0-2.3,0.1-3.4,0c-1.2,0-2,0.3-2.3,1.3c-0.2,0.8,0.3,2,1.3,2.7c1.4,0.9,3.2,1.2,4.7,0.6
			c1.5-0.6,2.1-1.8,1.9-3.2c-0.2-1.1-0.7-2-1.7-2.9c2.2,0,4.3,0.1,6.4,0.1c1.7,0,3.4,0,5-0.1c0.3,0,0.5,0,0.7,0.3
			c0.7,0.7,1.4,1.5,2,2.4c-3.7-0.3-7.4-0.6-11.2-1.1C356.2,248.8,356.3,249.1,356.5,249.4z"/>
	</g>
</g>
<g id="freepik--Character--inject-39">
	<polygon class="st10" points="234.8,406.2 226.8,404 229.8,384.9 237.7,387.2 	"/>
	<path class="st5" d="M226.7,397.3h10.1c0.3,0,0.6,0.2,0.7,0.6l1.7,7.3c0.1,0.7-0.3,1.3-0.9,1.4c-0.1,0-0.2,0-0.3,0
		c-3.2-0.1-5.6-0.2-9.7-0.2c-2.5,0-10.1,0.3-13.6,0.3s-3.9-3.4-2.5-3.7c6.3-1.4,11.1-3.3,13.1-5.2
		C225.7,397.5,226.2,397.3,226.7,397.3z"/>
	<polygon class="st10" points="363.1,428.3 355,430 348.8,411.7 356.9,410 	"/>
	<path class="st5" d="M292.3,248.1c0,0-37.8,41.7-47.9,58.1c-10.2,16.4-19.1,86.1-19.1,86.1l15,3.6c0,0,17.5-67.9,22.1-74.7
		c4.7-6.8,54.1-52.9,54.1-52.9L292.3,248.1z"/>
	<path class="st11" d="M316.6,268.3l-4.9,4.5c-4.1,3.8-10.3,9.7-17,16.1c-13.9,13.2-29.7,28.6-32.2,32.3
		c-4.7,6.8-22.1,74.8-22.1,74.8l-15-3.6c0,0,8.9-69.7,19.1-86.1c10.2-16.5,47.9-58.1,47.9-58.1L316.6,268.3z"/>
	<path class="st7" d="M311.7,272.9c-4.1,3.8-10.3,9.7-17,16.1c4.4-12,15.1-19.7,15.1-19.7L311.7,272.9z"/>
	<path class="st5" d="M305.5,251.1c0,0,9.7,70.8,14.4,94.6c5.1,26,28,74.4,28,74.4l14.8-3.1c0,0-15.6-44.7-19-70.8
		c-3.8-29.2-9.6-95.3-9.6-95.3L305.5,251.1z"/>
	<g class="st12">
		<path class="st13" d="M305.5,251.1c0,0,9.7,70.8,14.4,94.6c5.1,26,28,74.4,28,74.4l14.8-3.1c0,0-15.6-44.7-19-70.8
			c-3.8-29.2-9.6-95.3-9.6-95.3L305.5,251.1z"/>
	</g>
	<path class="st10" d="M247.9,162.5l-0.6-8.4l8.7,3.4c0,0,0.1,7.5-3.8,7.4L247.9,162.5z"/>
	<polygon class="st10" points="250.7,149.3 258.9,149.8 256,157.5 247.3,154.1 	"/>
	<polygon class="st14" points="247.6,164 247.9,161.7 254.9,163.1 254.3,165.6 	"/>
	<polygon class="st15" points="247.6,164 247.9,161.7 254.9,163.1 254.3,165.6 	"/>
	<path class="st14" d="M281.2,151.5H263c-0.6,0-1.1,1.4-1.1,3.1c0,1.7,0.5,3.1,1.1,3.1h18.2c0.6,0,1.1-1.4,1.1-3.1
		C282.3,152.9,281.8,151.5,281.2,151.5z"/>
	<path class="st16" d="M281.2,151.5H263c-0.6,0-1.1,1.4-1.1,3.1c0,1.7,0.5,3.1,1.1,3.1h18.2c0.6,0,1.1-1.4,1.1-3.1
		C282.3,152.9,281.8,151.5,281.2,151.5z"/>
	<path class="st14" d="M262.7,150.7h-21.8c-0.8,0-1.5,1.8-1.5,4c0,2.2,0.7,3.9,1.5,3.9h21.7c0.8,0,1.5-1.8,1.5-3.9
		C264.1,152.5,263.5,150.7,262.7,150.7z"/>
	<path class="st17" d="M262.7,150.7h-21.8c-0.8,0-1.5,1.8-1.5,4c0,2.2,0.7,3.9,1.5,3.9h21.7c0.8,0,1.5-1.8,1.5-3.9
		C264.1,152.5,263.5,150.7,262.7,150.7z"/>
	<path class="st14" d="M241.3,149.9h-22.7c-1,0-1.8,2.1-1.8,4.8s0.8,4.7,1.8,4.7h22.7c1,0,1.8-2.1,1.8-4.7
		C243.1,152,242.2,149.9,241.3,149.9z"/>
	<path class="st16" d="M241.3,149.9h-22.7c-1,0-1.8,2.1-1.8,4.8s0.8,4.7,1.8,4.7h22.7c1,0,1.8-2.1,1.8-4.7
		C243.1,152,242.2,149.9,241.3,149.9z"/>
	<path class="st17" d="M220.3,154.6c0,2.6-0.8,4.7-1.8,4.7c-1,0-1.8-2.1-1.8-4.7c0-2.6,0.8-4.8,1.8-4.8
		C219.5,149.9,220.3,152,220.3,154.6z"/>
	<path d="M218.6,158.8c-0.4,0-1.2-1.6-1.2-4.2s0.8-4.2,1.2-4.2c0.4,0,1.2,1.6,1.2,4.2C219.8,157.3,219,158.8,218.6,158.8z"/>
	<path class="st5" d="M352.1,421.7h10.1c0.3,0,0.6,0.2,0.7,0.6l1.7,7.3c0.1,0.6-0.3,1.3-0.9,1.4c-0.1,0-0.2,0-0.3,0
		c-3.2,0-5.6-0.2-9.7-0.2c-2.5,0-10.1,0.3-13.6,0.3c-3.5,0-3.9-3.4-2.5-3.7c6.3-1.4,11.1-3.3,13.1-5.1
		C351.1,421.9,351.6,421.7,352.1,421.7z"/>
	<path class="st5" d="M278,183.6c0,0-4.5,1.1-9.2,1.8c-2.4,0.3-4.7,0.7-7,0.9c-1.1,0.1-2.3,0.2-3.3,0.2h-0.6
		c-0.3-0.8-0.5-1.6-0.7-2.5c-0.5-2.2-1-4.5-1.4-6.9c-0.8-4.7-1-12.8-1-12.8l-7.3-1.7c-0.7,5.1-1.1,10.2-1.1,15.3
		c0,2.7,0.1,5.3,0.4,7.9c0.2,1.5,0.4,2.9,0.8,4.4c0.2,0.9,0.5,1.8,0.9,2.6c0.3,0.6,0.6,1.1,1,1.6c0.6,0.8,1.3,1.5,2.1,2.1
		c0.3,0.2,0.6,0.4,0.9,0.5c0.4,0.2,0.7,0.3,1.1,0.4l0.8,0.2c0.5,0.1,0.9,0.2,1.4,0.2c0.8,0.1,1.6,0.2,2.4,0.2c1.5,0.1,2.8,0.1,4.2,0
		c2.7,0,5.3-0.2,7.8-0.5c5.1-0.5,10.1-1.3,15.2-2.3L278,183.6z"/>
	<path class="st14" d="M325.3,180.9c-0.2,8.6,0.2,17.3,1.3,25.9c0.7,6.4,1.7,12.5,2.7,17.9c2.4,12.9,5,22.5,5.4,25.9l-44.3,6.5
		C272.8,210,279,183.4,279,183.4c3.4-1.2,6.9-2.1,10.5-2.9c0.7-0.2,1.5-0.3,2.3-0.4c6.2-0.8,12.5-1.3,18.8-1.4c1.1,0,2.4,0,3.5,0
		C317.9,178.8,321.7,179.6,325.3,180.9z"/>
	<path class="st15" d="M325.3,180.9c-0.2,8.6,0.2,17.3,1.3,25.9c0.7,6.4,1.7,12.5,2.7,17.9c2.4,12.9,5,22.5,5.4,25.9l-44.3,6.5
		C272.8,210,279,183.4,279,183.4c3.4-1.2,6.9-2.1,10.5-2.9c0.7-0.2,1.5-0.3,2.3-0.4c6.2-0.8,12.5-1.3,18.8-1.4c1.1,0,2.4,0,3.5,0
		C317.9,178.8,321.7,179.6,325.3,180.9z"/>
	<path class="st14" d="M295.7,190.8c-0.6,3.4-2.3,12.2-2.3,20.9c0.8,1.7,1.9,5.8,2.9,7.5c0.7-1.9,2-5.8,2.8-7.7
		c-0.8-8.3-2.3-16.5-1.8-20.9L295.7,190.8z"/>
	<polygon class="st14" points="296.2,193.4 294,189.5 296.8,187.8 299.2,188.8 	"/>
	<path class="st10" d="M305.1,159.3c-0.2,6.1,0.4,17.2,5.2,20.6c-3.1,4.5-8,7.3-13.4,7.9c-5.2,0.7-5-3.7-4.2-5.8
		c5.4-2.3,4.4-6.7,2.5-11.2L305.1,159.3z"/>
	<path class="st13" d="M296.8,187.8c0,0,2.3,2.2,5,4.3c3.1-2.3,10.3-8.3,9.4-12.7c-0.6-0.9-1.5-1.5-2.5-1.8
		C305.3,181.7,301.3,185.1,296.8,187.8z"/>
	<path class="st13" d="M296.8,187.8c-1.5,1.7-2.7,3.5-3.7,5.5c-2.7-1.4-1.7-10.2-0.9-11.2c1.1-1.4,2.6-2.6,4.2-3.4
		C295.4,181.6,295.6,184.9,296.8,187.8z"/>
	<path class="st7" d="M301.1,164l-5.8,6.8c0.5,1,0.9,2.1,1.1,3.2c2.5-0.8,5.5-4.1,5.4-6.8C301.7,166.1,301.5,165,301.1,164z"/>
	<path class="st5" d="M283.9,145.1c-1.3,3.1-1.3,9.6,3.3,7.9C291.8,151.4,286,139.8,283.9,145.1z"/>
	<path class="st10" d="M306.3,151.4c-0.2,8.2,0.1,13-3.9,17.3c-6,6.5-16.2,3-18.5-5.1c-2-7.3-1.4-19.5,6.5-22.9
		c5.8-2.5,12.4,0.2,14.9,6C306.1,148.1,306.4,149.7,306.3,151.4z"/>
	<path class="st5" d="M301.4,137.5c-0.3,0-0.5,0.1-0.8,0.1c0,0,0.7,16,4.4,19.5C314.4,154.4,319.2,136.6,301.4,137.5z"/>
	<path class="st10" d="M309.7,158.1c-0.6,2-1.9,3.6-3.7,4.6c-2.4,1.3-4.2-0.7-4.1-3.3c0.1-2.3,1.5-5.8,4.2-6c2-0.1,3.6,1.3,3.8,3.3
		C309.9,157.2,309.9,157.7,309.7,158.1z"/>
	<path class="st5" d="M286.5,154.2c0,0.7-0.3,1.2-0.7,1.2c-0.4,0-0.8-0.5-0.8-1.2c0-0.7,0.3-1.2,0.7-1.2
		C286.1,153,286.4,153.6,286.5,154.2z"/>
	<path class="st18" d="M288.9,154.4c-0.7,2-1.8,3.9-3,5.6c1,0.6,2.1,0.8,3.2,0.4L288.9,154.4z"/>
	<path class="st5" d="M292.7,162.9c-0.3,0.1-0.6,0.1-0.9,0.1c-0.1,0-0.2-0.1-0.2-0.2c0-0.1,0.1-0.2,0.2-0.2c0,0,0,0,0,0
		c1.7,0,3.3-0.8,4.2-2.2c0.1-0.1,0.2-0.1,0.3-0.1c0,0,0,0,0,0c0.1,0.1,0.1,0.2,0.1,0.2c0,0,0,0,0,0
		C295.5,161.9,294.2,162.7,292.7,162.9z"/>
	<path class="st5" d="M294.5,152.2c-0.1,0.1-0.3,0.1-0.4,0c-0.9-0.5-1.9-0.6-2.8-0.2c-0.2,0.1-0.4,0-0.5-0.2c-0.1-0.2,0-0.4,0.2-0.5
		c1.2-0.5,2.5-0.5,3.6,0.2c0.2,0.1,0.2,0.3,0.1,0.5C294.6,152.1,294.6,152.2,294.5,152.2L294.5,152.2z"/>
	<path class="st5" d="M282.7,151.2c-0.1,0-0.1,0-0.2-0.1c-0.2-0.2-0.2-0.4,0-0.6c0.9-0.9,2.2-1.3,3.4-1.1c0.2,0.1,0.3,0.3,0.3,0.5
		c0,0.2-0.2,0.3-0.5,0.3c0,0,0,0,0,0c-1-0.1-2,0.2-2.7,1C283,151.2,282.8,151.2,282.7,151.2z"/>
	<path class="st5" d="M292.2,154.4c0,0-0.1,0-0.1-0.1c-0.1-0.1-0.1-0.2,0-0.2c0.5-0.5,1.4-0.7,2-0.4c0.1,0,0.1,0.1,0.1,0.2
		c0,0.1-0.1,0.1-0.2,0.1c-0.6-0.3-1.2-0.1-1.7,0.3C292.2,154.3,292.2,154.4,292.2,154.4z"/>
	<path class="st5" d="M303.6,148.1c-2.2-0.2-4.2-1.6-5.1-3.7c-1.5-3.5-2.7-0.6-2.7-0.6s-0.5-1-3.6-1.7c-3.2-0.6-5.2,7.8-8.6,6.5
		c-1.9-0.7-3-2.8-2.4-4.8c0,0,1.5-0.7,3.2-5.3c1.9-5.2,11-7.5,18.9-3.6C311,138.8,303.6,148.1,303.6,148.1z"/>
	<path class="st5" d="M340.9,261.4l-33,6.9l-8.7-12.5l-5.2,11.7l-14.4-8.2l7.7-11.2c-14.2-34.5-9.4-64.6-9.4-64.6
		c4.6-2,9.4-3.2,14.3-3.6c-8.2,12.5,4,39.2,4,39.2c7.4-20.6,16.2-40.5,16.2-40.5c4.7-0.3,9.4,0.2,14,1.5c0,0,3.2,47,7.5,58.9
		S340.9,261.4,340.9,261.4z"/>
	<path class="st11" d="M307.8,195.7l6.9,8.7c0,0-16.1,11.5-20.9,30.6l1.7-11.2l-13.3-18.6l6.1-7.6l-7.2-5.4c0,0,6.2-10.5,11.2-12.3
		c-8.2,12.5,4,39.2,4,39.2c7.4-20.6,16.2-40.5,16.2-40.5c4.1,3.3,7.2,7.8,9,12.8L307.8,195.7z"/>
	<path class="st10" d="M362.7,242.4l-1.5,8.3l10.2-2.8c0,0-0.3-7.3-4.2-7.5L362.7,242.4z"/>
	<path class="st10" d="M365.9,256.3l5.1-1.6c0.7-0.2,1.2-0.9,1.1-1.7l-0.6-5l-10.2,2.8l2.5,4.7C364.2,256.2,365.1,256.6,365.9,256.3
		z"/>
	<polygon class="st14" points="362.1,239.1 362.3,242.8 369.1,241.4 368.6,238 	"/>
	<polygon class="st15" points="362.1,239.1 362.3,242.8 369.1,241.4 368.6,238 	"/>
	<path class="st5" d="M326.4,180c6,2.3,11.7,5.1,17.4,8.1c2.9,1.6,5.7,3.3,8.4,5.1c1.4,1,2.8,2,4.1,3.2c1.5,1.3,2.9,2.8,4.1,4.4
		c0.4,0.5,0.7,1,1,1.6c0.2,0.3,0.3,0.6,0.5,0.9l0.3,0.6l0.5,1.3l0.4,1.2c0.3,0.8,0.5,1.6,0.7,2.4c0.2,0.8,0.4,1.6,0.6,2.3
		c0.8,3.1,1.5,6.2,2.1,9.3c1.1,6.2,2.1,12.3,2.8,18.5l-7.3,1.4c0,0-2.7-11.7-4.7-17.5c-1-2.9-2-5.7-3-8.5c-0.2-0.7-0.5-1.4-0.8-2.1
		c-0.3-0.7-0.5-1.4-0.8-2l-0.4-1l-0.4-0.8l-0.2-0.4c0,0-0.1-0.1-0.1-0.1c-0.1-0.1-0.2-0.2-0.3-0.3c-0.7-0.8-1.6-1.5-2.4-2.2
		c-1-0.8-2.1-1.5-3.3-2.3c-2.4-1.5-4.9-2.9-7.6-4.2c-5.2-2.6-10.8-5.2-16.2-7.5L326.4,180z"/>
</g>
<g id="freepik--speech-bubble--inject-39">
	<circle class="st4" cx="393.3" cy="129.4" r="53.8"/>
	<circle class="st15" cx="393.3" cy="129.4" r="53.8"/>
	<circle class="st14" cx="338" cy="149.9" r="5.7"/>
	<circle class="st15" cx="338" cy="149.9" r="5.7"/>
	<path class="st14" d="M329,153.8c-0.1,1.8-1.7,3.1-3.5,3c-1.8-0.1-3.1-1.7-3-3.5c0.1-1.8,1.7-3.1,3.5-3c0,0,0,0,0,0
		C327.8,150.4,329.2,152,329,153.8z"/>
	<path class="st15" d="M329,153.8c-0.1,1.8-1.7,3.1-3.5,3c-1.8-0.1-3.1-1.7-3-3.5c0.1-1.8,1.7-3.1,3.5-3c0,0,0,0,0,0
		C327.8,150.4,329.2,152,329,153.8z"/>
	<path class="st14" d="M319.2,152.9c-0.1,0.9-0.8,1.6-1.7,1.5s-1.6-0.8-1.5-1.7c0.1-0.9,0.8-1.6,1.7-1.5c0,0,0,0,0,0
		C318.6,151.2,319.3,152,319.2,152.9z"/>
	<path class="st15" d="M319.2,152.9c-0.1,0.9-0.8,1.6-1.7,1.5s-1.6-0.8-1.5-1.7c0.1-0.9,0.8-1.6,1.7-1.5c0,0,0,0,0,0
		C318.6,151.2,319.3,152,319.2,152.9z"/>
</g>
<g id="Layer_2_00000171700016214118326740000004577908341236553391_">
	<ellipse class="st19" cx="393.8" cy="133.6" rx="16.1" ry="14.5"/>
	<g>
		<path class="st4" d="M410,131.9c-0.5-3.7-2.1-7.2-4.8-9.8c-0.4-0.4-0.8-0.8-1.3-1.2v-6.5c-5.2-6.1-16.7-5.8-21.4,0v6.6
			c-0.4,0.3-0.8,0.7-1.2,1.1c-6.6,6.6-6.6,17.4,0,23.9l12,12l12-12c0,0,0,0,0.1-0.1l6.9,3.4l-3-9.2l7.9-7.5L410,131.9z M382.6,140.5
			c-3.6-5.8-1.7-13.5,4.1-17.1s13.5-1.7,17.1,4.1c0.7,1.2,1.3,2.5,1.5,3.9l-5.3-0.5c-0.1-0.3-0.3-0.6-0.4-0.8
			c-2.2-3.5-6.8-4.7-10.4-2.5c-3.5,2.2-4.7,6.8-2.5,10.4c1.7,2.7,4.8,4,7.8,3.5l3.4,4.1C392.4,147.8,385.8,145.8,382.6,140.5z
			 M405.9,139.5l1.7,4.4l-2.8-1.6l0.8-2.4l-4.7,4.3l-9.6-11.7l19.6,2.3l-4,3.5l-11.1-3.8l0,0L405.9,139.5z"/>
		<path class="st4" d="M375.5,119.5l-0.4,4c0.9,0.7,2.2,0.7,3.1,0l-0.4-4c-0.2-0.2-0.3-0.3-0.5-0.4c0.2-0.1,0.3-0.2,0.4-0.4
			c0.4-0.6,0.2-1.3-0.3-1.7V116l3.3,0.8v-2.7l0.2-0.6c0.5-0.6,1-1.1,1.6-1.6c2.8-2.3,6.7-3.6,10.6-3.6c3.9,0,7.9,1.1,10.8,3.5
			c0.6,0.5,1.2,1.1,1.7,1.7l0.2,0.6v2.7l15.6-4l-28.2-12l-11.1,4.7l-5.6,0.7c-0.3,0-0.6,0.3-0.6,0.7v1.2v7.5v1.4
			c-0.1,0.1-0.3,0.2-0.4,0.4c-0.3,0.6-0.2,1.3,0.4,1.7C375.8,119.2,375.6,119.3,375.5,119.5z M377.3,107.5L377.3,107.5L377.3,107.5
			L377.3,107.5z"/>
		<polygon class="st4" points="374.5,115.2 374.5,108.7 365,112.8 		"/>
	</g>
</g>
</svg>
