<svg xmlns="http://www.w3.org/2000/svg" viewBox="0 0 1280 142.29"><g><g><path d="M384.67,142.29c-5-2.93-10.82-6.4-12.33-9.49,0,0-14.53-11.78-19.3-17.89s-12.49-9.74-17.27-11.32-13.39-4.3-19.75-4.3-13.18-.23-17-2.27-6.59-1.58-12.26-2.71S267,83.44,264.46,81s-4.31,1.81-5.91,0-5.9-5.44-8.39-5.44S245.6,69,242,67.81s-8.62-.67-11.12-2.94S211.76,46.53,209,45.18s-3.85-3.85-5.9-3.85-6.13,1.35-7.5,0-3.48-2.87-4.77-3a10.6,10.6,0,0,1-4.31-2.42,25,25,0,0,0-3.19-2.56c-.3-.08-1-1.59-2.18-1.67s-3.19.23-4.17-.6-2.42-3.62-3.26-3.77-8.17-1.51-10.29,0-4.69,4.22-7.27,4.67-4.54,2.87-6.36,2.87-3.63,1.66-5,1.66A27.12,27.12,0,0,0,138,38.16c-2.57.9-5.15.45-7,1.81s-.76,1.81-2.43,2.71-8,7.1-11.35,9.21S97.15,64,91.1,64,65.65,75.44,62,75.74s-8.18,8.45-10.9,8.76-9.39.6-10,1.8S38.86,90.38,36.28,91s-3.78,1.66-5.45,1.36-4.69,1.35-5.15,2.11-3.63,2.71-5.15,2.11-5.3,1.06-5.75,1.51-8.32,5-10.45,5A15.76,15.76,0,0,0,0,104.49v37.8Z" style="fill:#1c8c7e;opacity:0.6000000000000001"/><path d="M1275.39,142.29a25.2,25.2,0,0,0-6.79-.1l-.82.1Z" style="fill:#1c8c7e;opacity:0.6000000000000001"/><path d="M1265.07,142.29c-6-.43-13.92-3.28-15.21-4.46-1.55-1.44-12.51-4.77-18.73-4.35s-10.55-1.64-20-3a28.66,28.66,0,0,1-17.2-9.1c-2-2.29-26.69-3.4-36.75-4.19s-25.55-16.31-39-17.17-83.4-23.77-105.85-24.27-83.13-20.4-95.14-24.6-34.56-16.23-40.58-18-2-2.57-8.54-5.25-16.13-2-25.52-3.94-19.94-3.53-25-3.64S806.08,17,799.35,16.8s-13.64-4.8-23.11-5.86-18.56-6.31-26.17-9.29S715,.59,711.89.81,703,6.09,699.2,7.55s-11,.74-15.54.78-7.28,2.79-8.42,2.9-8.7,3-12.21,4.52-11.6,4-16.4,4.13-12.9,2.81-18.18,5.22-20.22-.45-27.79-.62-12.2,4.37-22.53,6.67S503.67,62,494,66,466,68.73,452.29,70.53,430,84.37,420.71,84.17s-25.87,6.17-32.06,9.41-12.23-4.91-21.89-.48-63.5,21.36-84.74,23-31.26.57-45.92,4-39.95,3.33-63.53,2.81-56,3.81-74,6.37c-13.92,2-34.63,6.1-51.95,13Z" style="fill:#1c8c7e;opacity:0.6000000000000001"/><path d="M719.86,142.29c-1.78,0-3.55-.1-5.31-.15-2.87-.1-5.93,0-9.09.15Z" style="fill:#1c8c7e;opacity:0.6000000000000001"/><path d="M1280,142.29V94.86c-16.23-1.66-54.84-20.43-62.68-24.49-8.1-4.2-23.33-16.23-27.4-18.05s-1.36-2.58-5.76-5.25-10.89-2-17.23-3.94-13.47-3.53-16.88-3.65-7.77-3.34-12.32-3.49-9.21-4.8-15.6-5.86-12.54-6.31-17.67-9.29-23.68-1.06-25.78-.85-6,5.29-8.57,6.75-7.45.74-10.49.78-4.91,2.79-5.68,2.9-5.88,3-8.25,4.51-7.83,4-11.07,4.14-8.71,2.8-12.28,5.22-13.64-.45-18.76-.62-8.23,4.37-15.21,6.67S938.1,81.16,931.6,85.16s-19,2.75-28.19,4.56-15.07,13.84-21.33,13.64-17.46,6.17-21.64,9.41-8.25-4.91-14.79-.49-42.86,21.37-57.2,23-21.11.58-31,4.05c-5.31,1.86-12.7,2.68-20.86,3Z" style="fill:#1c8c7e;opacity:0.6000000000000001"/></g></g></svg>