<svg xmlns="http://www.w3.org/2000/svg" viewBox="0 0 664.58 284.78" class="reporting-svg"><g><g><path d="M490.41,19.06c-21.63-3.31-47.08,11.74-61.93,25.35C415.11,56.66,407.17,73.16,393.35,85c-17.54,15-40.17,14.2-61.5,8.83-24.63-6.2-47.31-18.17-71.3-26.09C192.34,45.23,88.79,31.42,34.26,93.06q-1.9,2.16-3.69,4.43c-20.13,25.69-31.89,58.59-30.45,90s19.25,58.79,49.1,72.87c26.4,12.45,56.7,16.93,85.84,21.22,71.34,10.49,140.65-8.27,212-10.52,81.35-2.57,164.68,20.16,244-9.91,33.72-12.79,69.5-39.83,73.21-76.11,2.83-27.67-15.75-53.3-15-81,.38-13.41,3.67-26.91-8.67-36.52-6.37-5-14.85-7-23.18-7.77-21.8-2.13-43.77,5.52-65.58,2.76-25-3.16-28-21.94-44.19-35.64A34.34,34.34,0,0,0,490.41,19.06Z" style="fill:#00e8dd"></path><polygon points="592.27 252.13 468.65 252.13 466.88 247.13 459.21 252.13 53.41 252.13 53.41 91.59 173.36 91.59 176.1 96.59 184.23 91.59 592.27 91.59 592.27 252.13" style="fill:#fff;stroke:#0f5a6d;stroke-linecap:round;stroke-linejoin:round;stroke-width:2.3035882165352px"></polygon><path d="M592.27,252.13c12.76,0,23.1-7.33,23.1-16.37" style="fill:#fff"></path><path d="M615.37,90V235.76c0,9-10.34,16.37-23.1,16.37s-23.09-7.33-23.09-16.37V90c0-5.91,4.42-11.09,11-14a31.45,31.45,0,0,1,24.1,0C611,79,615.37,84.13,615.37,90Z" style="fill:#f2f2f2;stroke:#0f5a6d;stroke-linecap:round;stroke-linejoin:round;stroke-width:1.98859535944514px"></path><path d="M53.41,252.13c12.76,0,23.1-7.33,23.1-16.37" style="fill:#fff"></path><path d="M76.51,90V235.76c0,9-10.34,16.37-23.1,16.37s-23.09-7.33-23.09-16.37V90c0-5.91,4.42-11.09,11-14a31.45,31.45,0,0,1,24.1,0C72.09,79,76.51,84.13,76.51,90Z" style="fill:#f2f2f2;stroke:#0f5a6d;stroke-linecap:round;stroke-linejoin:round;stroke-width:1.98859535944514px"></path><ellipse cx="53.41" cy="235.49" rx="23.09" ry="16.63" style="fill:#e6e6e6;stroke:#0f5a6d;stroke-linecap:round;stroke-linejoin:round;stroke-width:1.98859535944514px"></ellipse><ellipse cx="592.27" cy="235.49" rx="23.09" ry="16.63" style="fill:#e6e6e6;stroke:#0f5a6d;stroke-linecap:round;stroke-linejoin:round;stroke-width:1.98859535944514px"></ellipse><line x1="592.27" y1="234.02" x2="592.27" y2="258.06" style="fill:#fff;stroke:#0f5a6d;stroke-linecap:round;stroke-linejoin:round;stroke-width:2.3035882165352px"></line><circle cx="592.27" cy="267.99" r="9.93" style="fill:#fff;stroke:#0f5a6d;stroke-linecap:round;stroke-linejoin:round;stroke-width:2.3035882165352px"></circle><line x1="54.1" y1="234.02" x2="54.1" y2="258.06" style="fill:#fff;stroke:#0f5a6d;stroke-linecap:round;stroke-linejoin:round;stroke-width:2.3035882165352px"></line><circle cx="54.1" cy="267.99" r="9.93" style="fill:#fff;stroke:#0f5a6d;stroke-linecap:round;stroke-linejoin:round;stroke-width:2.3035882165352px"></circle><line x1="53.83" y1="72.68" x2="53.83" y2="68.76" style="fill:#fff;stroke:#0f5a6d;stroke-linecap:round;stroke-linejoin:round;stroke-width:2.3035882165352px"></line><circle cx="53.84" cy="58.83" r="9.93" style="fill:#fff;stroke:#0f5a6d;stroke-linecap:round;stroke-linejoin:round;stroke-width:2.3035882165352px"></circle><line x1="592.27" y1="72.68" x2="592.27" y2="68.76" style="fill:#fff;stroke:#0f5a6d;stroke-linecap:round;stroke-linejoin:round;stroke-width:2.3035882165352px"></line><circle cx="592.27" cy="58.83" r="9.93" style="fill:#fff;stroke:#0f5a6d;stroke-linecap:round;stroke-linejoin:round;stroke-width:2.3035882165352px"></circle><path d="M30.88,110.81s8.17-11,23-11" style="fill:#fff;stroke:#0f5a6d;stroke-linecap:round;stroke-linejoin:round;stroke-width:2.3035882165352px"></path><path d="M569.49,137.67s8.17-11,23-11" style="fill:#fff;stroke:#0f5a6d;stroke-linecap:round;stroke-linejoin:round;stroke-width:2.3035882165352px"></path><path d="M614.81,207.89a27.4,27.4,0,0,0-10.23-8.2" style="fill:#fff;stroke:#0f5a6d;stroke-linecap:round;stroke-linejoin:round;stroke-width:2.35466221656202px"></path><path d="M76.13,194.45a27.39,27.39,0,0,0-10.24-8.2" style="fill:#fff;stroke:#0f5a6d;stroke-linecap:round;stroke-linejoin:round;stroke-width:2.35466221656202px"></path><g class="reporting-svg__feather"><path d="M375.25,109.14h0a25.7,25.7,0,0,1-10-33.72l3.35-6.7,5.7,3.15-3.64-7.26,16-32L389.57,34l-.52-6.2A48.29,48.29,0,0,1,430.84,1.15h0l1.88,3.26a48.34,48.34,0,0,1,6.43,22.76c0,1.44-2.51,6.27-3.45,7.65.82.21,2.24.67,2.94.84a48,48,0,0,1-4.12,13.54L423.8,72l-8.18.7,6.09,3.5L411.42,97.94a25.7,25.7,0,0,1-7.64,9.44c-1.61-.06-4.76-.16-5.71-.23.18.64.69,2.57.84,3.14A25.64,25.64,0,0,1,375.25,109.14Z" style="fill:#fff;stroke:#0f5a6d;stroke-linecap:round;stroke-linejoin:round;stroke-width:2.3035882165352px"></path><line x1="364.84" y1="133.69" x2="400.82" y2="60.49" style="fill:none;stroke:#0f5a6d;stroke-linecap:round;stroke-linejoin:round;stroke-width:2.3035882165352px"></line></g><line x1="110.21" y1="136.39" x2="110.21" y2="126.62" style="fill:none;stroke:#0f5a6d;stroke-linecap:round;stroke-linejoin:round;stroke-width:2.3035882165352px"></line><line x1="115.53" y1="136.39" x2="115.53" y2="127.73" style="fill:none;stroke:#0f5a6d;stroke-linecap:round;stroke-linejoin:round;stroke-width:2.3035882165352px"></line><polyline points="96.73 123.28 121.1 128.72 117.88 114.62" style="fill:none;stroke:#0f5a6d;stroke-linecap:round;stroke-linejoin:round;stroke-width:2.3035882165352px"></polyline><path d="M128.27,122.66s1-10.52-11.38-14.11c-4,4.58-13.6,16.19-13.6,16.19" style="fill:none;stroke:#0f5a6d;stroke-linecap:round;stroke-linejoin:round;stroke-width:2.3035882165352px"></path><path d="M120.27,113.56s-3,1.73-7.2-.52" style="fill:none;stroke:#0f5a6d;stroke-linecap:round;stroke-linejoin:round;stroke-width:2.3035882165352px"></path><path d="M150.13,118h13s-2.35-5.36-6.48-5.36C153.34,112.64,150.13,118,150.13,118Z" style="fill:none;stroke:#0f5a6d;stroke-linecap:round;stroke-linejoin:round;stroke-width:2.3035882165352px"></path><path d="M171.28,118h12.95s-2.34-5.36-6.47-5.36C174.49,112.64,171.28,118,171.28,118Z" style="fill:none;stroke:#0f5a6d;stroke-linecap:round;stroke-linejoin:round;stroke-width:2.3035882165352px"></path><line x1="149.09" y1="128.72" x2="185.08" y2="128.72" style="fill:none;stroke:#0f5a6d;stroke-linecap:round;stroke-linejoin:round;stroke-width:2.3035882165352px"></line><line x1="157.96" y1="134.89" x2="177.38" y2="134.89" style="fill:none;stroke:#0f5a6d;stroke-linecap:round;stroke-linejoin:round;stroke-width:2.3035882165352px"></line><path d="M150.13,216.78h13s-2.35-5.36-6.48-5.36C153.34,211.42,150.13,216.78,150.13,216.78Z" style="fill:none;stroke:#0f5a6d;stroke-linecap:round;stroke-linejoin:round;stroke-width:2.3035882165352px"></path><path d="M171.28,216.78h12.95s-2.34-5.36-6.47-5.36C174.49,211.42,171.28,216.78,171.28,216.78Z" style="fill:none;stroke:#0f5a6d;stroke-linecap:round;stroke-linejoin:round;stroke-width:2.3035882165352px"></path><line x1="149.09" y1="227.5" x2="185.08" y2="227.5" style="fill:none;stroke:#0f5a6d;stroke-linecap:round;stroke-linejoin:round;stroke-width:2.3035882165352px"></line><line x1="157.96" y1="233.67" x2="177.38" y2="233.67" style="fill:none;stroke:#0f5a6d;stroke-linecap:round;stroke-linejoin:round;stroke-width:2.3035882165352px"></line><polyline points="121.78 180.87 121.78 150.33 128.29 169.87 125.04 169.87" style="fill:none;stroke:#0f5a6d;stroke-linecap:round;stroke-linejoin:round;stroke-width:2.3035882165352px"></polyline><polyline points="106.96 180.87 106.96 150.33 113.46 169.87 110.21 169.87" style="fill:none;stroke:#0f5a6d;stroke-linecap:round;stroke-linejoin:round;stroke-width:2.3035882165352px"></polyline><line x1="149.55" y1="167.37" x2="185.08" y2="167.37" style="fill:none;stroke:#0f5a6d;stroke-linecap:round;stroke-linejoin:round;stroke-width:2.3035882165352px"></line><line x1="154.85" y1="151.59" x2="154.85" y2="158.62" style="fill:none;stroke:#0f5a6d;stroke-linecap:round;stroke-linejoin:round;stroke-width:2.3035882165352px"></line><line x1="167.08" y1="151.59" x2="167.08" y2="158.62" style="fill:none;stroke:#0f5a6d;stroke-linecap:round;stroke-linejoin:round;stroke-width:2.3035882165352px"></line><line x1="179.1" y1="151.59" x2="179.1" y2="158.62" style="fill:none;stroke:#0f5a6d;stroke-linecap:round;stroke-linejoin:round;stroke-width:2.3035882165352px"></line><path d="M149.55,188.93c.66.11,34.68,0,34.68,0l-23.57-7.68v4.1" style="fill:none;stroke:#0f5a6d;stroke-linecap:round;stroke-linejoin:round;stroke-width:2.3035882165352px"></path><path d="M127.36,236.28v-9.81s.1-4.26-2.63-7c-4.74-4.74-1.4-9.28,2.51-9.28,2.32,0,4.68,1.12,4.68,5.27" style="fill:none;stroke:#0f5a6d;stroke-linecap:round;stroke-linejoin:round;stroke-width:2.3035882165352px"></path><polyline points="110.64 209.16 110.64 217.16 106.96 217.16 106.96 235.92 114.23 235.92 114.23 217.22" style="fill:none;stroke:#0f5a6d;stroke-linecap:round;stroke-linejoin:round;stroke-width:2.3035882165352px"></polyline><line x1="101.42" y1="190.13" x2="133.44" y2="190.13" style="fill:none;stroke:#0f5a6d;stroke-linecap:round;stroke-linejoin:round;stroke-width:2.3035882165352px"></line><line x1="109.2" y1="197.26" x2="125.82" y2="197.26" style="fill:none;stroke:#0f5a6d;stroke-linecap:round;stroke-linejoin:round;stroke-width:2.3035882165352px"></line><path class="reporting-svg__path1" d="M356.08,118H369s-2.34-5.37-6.47-5.37C359.28,112.61,356.08,118,356.08,118Z" style="fill:none;stroke:#0f5a6d;stroke-linecap:round;stroke-linejoin:round;stroke-width:2.3035882165352px"></path><path class="reporting-svg__path2" d="M377.23,118h12.94s-2.34-5.37-6.47-5.37C380.44,112.61,377.23,118,377.23,118Z" style="fill:none;stroke:#0f5a6d;stroke-linecap:round;stroke-linejoin:round;stroke-width:2.3035882165352px"></path><line class="reporting-svg__line2" x1="355.03" y1="128.69" x2="391.03" y2="128.69" style="fill:none;stroke:#0f5a6d;stroke-linecap:round;stroke-linejoin:round;stroke-width:2.3035882165352px"></line><line class="reporting-svg__line1" x1="363.91" y1="134.87" x2="383.32" y2="134.87" style="fill:none;stroke:#0f5a6d;stroke-linecap:round;stroke-linejoin:round;stroke-width:2.3035882165352px"></line><line x1="221.34" y1="200.46" x2="221.34" y2="190.69" style="fill:none;stroke:#0f5a6d;stroke-linecap:round;stroke-linejoin:round;stroke-width:2.31467034196847px"></line><line x1="215.97" y1="200.46" x2="215.97" y2="191.8" style="fill:none;stroke:#0f5a6d;stroke-linecap:round;stroke-linejoin:round;stroke-width:2.31467034196847px"></line><polyline points="234.95 187.35 210.35 192.79 213.6 178.69" style="fill:none;stroke:#0f5a6d;stroke-linecap:round;stroke-linejoin:round;stroke-width:2.31467034196847px"></polyline><path d="M203.11,186.73s-1-10.52,11.49-14.1c4,4.57,13.73,16.18,13.73,16.18" style="fill:none;stroke:#0f5a6d;stroke-linecap:round;stroke-linejoin:round;stroke-width:2.31467034196847px"></path><path d="M211.19,177.64s3,1.72,7.26-.53" style="fill:none;stroke:#0f5a6d;stroke-linecap:round;stroke-linejoin:round;stroke-width:2.31467034196847px"></path><path d="M287.54,228.31H274.6s2.34,5.36,6.47,5.36C284.34,233.67,287.54,228.31,287.54,228.31Z" style="fill:none;stroke:#0f5a6d;stroke-linecap:round;stroke-linejoin:round;stroke-width:2.3035882165352px"></path><path d="M266.39,228.31H253.45s2.34,5.36,6.47,5.36C263.19,233.67,266.39,228.31,266.39,228.31Z" style="fill:none;stroke:#0f5a6d;stroke-linecap:round;stroke-linejoin:round;stroke-width:2.3035882165352px"></path><line x1="288.59" y1="217.59" x2="252.6" y2="217.59" style="fill:none;stroke:#0f5a6d;stroke-linecap:round;stroke-linejoin:round;stroke-width:2.3035882165352px"></line><line x1="279.72" y1="211.42" x2="260.3" y2="211.42" style="fill:none;stroke:#0f5a6d;stroke-linecap:round;stroke-linejoin:round;stroke-width:2.3035882165352px"></line><line x1="253.07" y1="167.37" x2="288.59" y2="167.37" style="fill:none;stroke:#0f5a6d;stroke-linecap:round;stroke-linejoin:round;stroke-width:2.3035882165352px"></line><line x1="258.36" y1="151.59" x2="258.36" y2="158.62" style="fill:none;stroke:#0f5a6d;stroke-linecap:round;stroke-linejoin:round;stroke-width:2.3035882165352px"></line><line x1="270.59" y1="151.59" x2="270.59" y2="158.62" style="fill:none;stroke:#0f5a6d;stroke-linecap:round;stroke-linejoin:round;stroke-width:2.3035882165352px"></line><line x1="282.61" y1="151.59" x2="282.61" y2="158.62" style="fill:none;stroke:#0f5a6d;stroke-linecap:round;stroke-linejoin:round;stroke-width:2.3035882165352px"></line><path d="M253.07,188.93c.65.11,34.67,0,34.67,0l-23.57-7.68v4.1" style="fill:none;stroke:#0f5a6d;stroke-linecap:round;stroke-linejoin:round;stroke-width:2.3035882165352px"></path><line x1="203.26" y1="212.86" x2="238.79" y2="212.86" style="fill:none;stroke:#0f5a6d;stroke-linecap:round;stroke-linejoin:round;stroke-width:2.3035882165352px"></line><path d="M203.26,234.43c.66.11,34.67,0,34.67,0l-23.57-7.69" style="fill:none;stroke:#0f5a6d;stroke-linecap:round;stroke-linejoin:round;stroke-width:2.3035882165352px"></path><polyline points="225.3 140.84 225.3 110.3 231.8 129.84 228.55 129.84" style="fill:none;stroke:#0f5a6d;stroke-linecap:round;stroke-linejoin:round;stroke-width:2.3035882165352px"></polyline><polyline points="210.47 140.84 210.47 110.3 216.97 129.84 213.72 129.84" style="fill:none;stroke:#0f5a6d;stroke-linecap:round;stroke-linejoin:round;stroke-width:2.3035882165352px"></polyline><line x1="204.94" y1="150.1" x2="236.95" y2="150.1" style="fill:none;stroke:#0f5a6d;stroke-linecap:round;stroke-linejoin:round;stroke-width:2.3035882165352px"></line><line x1="212.72" y1="157.23" x2="229.33" y2="157.23" style="fill:none;stroke:#0f5a6d;stroke-linecap:round;stroke-linejoin:round;stroke-width:2.3035882165352px"></line><path d="M279.1,136.39v-9.81s.1-4.27-2.63-7c-4.74-4.74-1.4-9.28,2.51-9.28,2.32,0,4.68,1.12,4.68,5.27" style="fill:none;stroke:#0f5a6d;stroke-linecap:round;stroke-linejoin:round;stroke-width:2.3035882165352px"></path><polyline points="262.38 109.27 262.38 117.27 258.7 117.27 258.7 136.03 265.97 136.03 265.97 117.32" style="fill:none;stroke:#0f5a6d;stroke-linecap:round;stroke-linejoin:round;stroke-width:2.3035882165352px"></polyline><line x1="316.16" y1="136.39" x2="316.16" y2="126.62" style="fill:none;stroke:#0f5a6d;stroke-linecap:round;stroke-linejoin:round;stroke-width:2.3035882165352px"></line><line x1="321.48" y1="136.39" x2="321.48" y2="127.73" style="fill:none;stroke:#0f5a6d;stroke-linecap:round;stroke-linejoin:round;stroke-width:2.3035882165352px"></line><polyline points="302.68 123.28 327.05 128.72 323.83 114.62" style="fill:none;stroke:#0f5a6d;stroke-linecap:round;stroke-linejoin:round;stroke-width:2.3035882165352px"></polyline><path d="M334.22,122.66s1-10.52-11.38-14.11c-4,4.58-13.6,16.19-13.6,16.19" style="fill:none;stroke:#0f5a6d;stroke-linecap:round;stroke-linejoin:round;stroke-width:2.3035882165352px"></path><path d="M326.22,113.56s-3,1.73-7.19-.52" style="fill:none;stroke:#0f5a6d;stroke-linecap:round;stroke-linejoin:round;stroke-width:2.3035882165352px"></path><path d="M356.09,216.78H369s-2.34-5.36-6.47-5.36C359.29,211.42,356.09,216.78,356.09,216.78Z" style="fill:none;stroke:#0f5a6d;stroke-linecap:round;stroke-linejoin:round;stroke-width:2.3035882165352px"></path><path d="M377.24,216.78h12.94s-2.34-5.36-6.47-5.36C380.44,211.42,377.24,216.78,377.24,216.78Z" style="fill:none;stroke:#0f5a6d;stroke-linecap:round;stroke-linejoin:round;stroke-width:2.3035882165352px"></path><line x1="355.04" y1="227.5" x2="391.03" y2="227.5" style="fill:none;stroke:#0f5a6d;stroke-linecap:round;stroke-linejoin:round;stroke-width:2.3035882165352px"></line><line x1="363.91" y1="233.67" x2="383.33" y2="233.67" style="fill:none;stroke:#0f5a6d;stroke-linecap:round;stroke-linejoin:round;stroke-width:2.3035882165352px"></line><polyline points="327.74 180.87 327.74 150.33 334.24 169.87 330.99 169.87" style="fill:none;stroke:#0f5a6d;stroke-linecap:round;stroke-linejoin:round;stroke-width:2.3035882165352px"></polyline><polyline points="312.91 180.87 312.91 150.33 319.42 169.87 316.16 169.87" style="fill:none;stroke:#0f5a6d;stroke-linecap:round;stroke-linejoin:round;stroke-width:2.3035882165352px"></polyline><line x1="355.51" y1="167.37" x2="391.03" y2="167.37" style="fill:none;stroke:#0f5a6d;stroke-linecap:round;stroke-linejoin:round;stroke-width:2.3035882165352px"></line><line x1="360.8" y1="151.59" x2="360.8" y2="158.62" style="fill:none;stroke:#0f5a6d;stroke-linecap:round;stroke-linejoin:round;stroke-width:2.3035882165352px"></line><line x1="373.04" y1="151.59" x2="373.04" y2="158.62" style="fill:none;stroke:#0f5a6d;stroke-linecap:round;stroke-linejoin:round;stroke-width:2.3035882165352px"></line><line x1="385.05" y1="151.59" x2="385.05" y2="158.62" style="fill:none;stroke:#0f5a6d;stroke-linecap:round;stroke-linejoin:round;stroke-width:2.3035882165352px"></line><path d="M355.51,188.93c.65.11,34.67,0,34.67,0l-23.57-7.68v4.1" style="fill:none;stroke:#0f5a6d;stroke-linecap:round;stroke-linejoin:round;stroke-width:2.3035882165352px"></path><path d="M333.31,236.28v-9.81s.1-4.26-2.63-7c-4.74-4.74-1.4-9.28,2.52-9.28,2.32,0,4.68,1.12,4.68,5.27" style="fill:none;stroke:#0f5a6d;stroke-linecap:round;stroke-linejoin:round;stroke-width:2.3035882165352px"></path><polyline points="316.59 209.16 316.59 217.16 312.91 217.16 312.91 235.92 320.19 235.92 320.19 217.22" style="fill:none;stroke:#0f5a6d;stroke-linecap:round;stroke-linejoin:round;stroke-width:2.3035882165352px"></polyline><line x1="307.38" y1="190.13" x2="339.39" y2="190.13" style="fill:none;stroke:#0f5a6d;stroke-linecap:round;stroke-linejoin:round;stroke-width:2.3035882165352px"></line><line x1="315.16" y1="197.26" x2="331.77" y2="197.26" style="fill:none;stroke:#0f5a6d;stroke-linecap:round;stroke-linejoin:round;stroke-width:2.3035882165352px"></line><line x1="523.22" y1="136.39" x2="523.22" y2="126.62" style="fill:none;stroke:#0f5a6d;stroke-linecap:round;stroke-linejoin:round;stroke-width:2.3035882165352px"></line><line x1="528.53" y1="136.39" x2="528.53" y2="127.73" style="fill:none;stroke:#0f5a6d;stroke-linecap:round;stroke-linejoin:round;stroke-width:2.3035882165352px"></line><polyline points="509.73 123.28 534.1 128.72 530.88 114.62" style="fill:none;stroke:#0f5a6d;stroke-linecap:round;stroke-linejoin:round;stroke-width:2.3035882165352px"></polyline><path d="M541.28,122.66s1-10.52-11.38-14.11c-4,4.58-13.61,16.19-13.61,16.19" style="fill:none;stroke:#0f5a6d;stroke-linecap:round;stroke-linejoin:round;stroke-width:2.3035882165352px"></path><path d="M533.27,113.56s-3,1.73-7.19-.52" style="fill:none;stroke:#0f5a6d;stroke-linecap:round;stroke-linejoin:round;stroke-width:2.3035882165352px"></path><polyline points="534.79 180.87 534.79 150.33 541.29 169.87 538.04 169.87" style="fill:none;stroke:#0f5a6d;stroke-linecap:round;stroke-linejoin:round;stroke-width:2.3035882165352px"></polyline><polyline points="519.96 180.87 519.96 150.33 526.47 169.87 523.22 169.87" style="fill:none;stroke:#0f5a6d;stroke-linecap:round;stroke-linejoin:round;stroke-width:2.3035882165352px"></polyline><path d="M540.36,236.28v-9.81s.11-4.26-2.62-7c-4.75-4.74-1.41-9.28,2.51-9.28,2.32,0,4.68,1.12,4.68,5.27" style="fill:none;stroke:#0f5a6d;stroke-linecap:round;stroke-linejoin:round;stroke-width:2.3035882165352px"></path><polyline points="523.65 209.16 523.65 217.16 519.96 217.16 519.96 235.92 527.24 235.92 527.24 217.22" style="fill:none;stroke:#0f5a6d;stroke-linecap:round;stroke-linejoin:round;stroke-width:2.3035882165352px"></polyline><line x1="514.43" y1="190.13" x2="546.44" y2="190.13" style="fill:none;stroke:#0f5a6d;stroke-linecap:round;stroke-linejoin:round;stroke-width:2.3035882165352px"></line><line x1="522.21" y1="197.26" x2="538.82" y2="197.26" style="fill:none;stroke:#0f5a6d;stroke-linecap:round;stroke-linejoin:round;stroke-width:2.3035882165352px"></line><line x1="430.29" y1="200.46" x2="430.29" y2="190.69" style="fill:none;stroke:#0f5a6d;stroke-linecap:round;stroke-linejoin:round;stroke-width:2.31467034196847px"></line><line x1="424.92" y1="200.46" x2="424.92" y2="191.8" style="fill:none;stroke:#0f5a6d;stroke-linecap:round;stroke-linejoin:round;stroke-width:2.31467034196847px"></line><polyline points="443.91 187.35 419.3 192.79 422.55 178.69" style="fill:none;stroke:#0f5a6d;stroke-linecap:round;stroke-linejoin:round;stroke-width:2.31467034196847px"></polyline><path d="M412.06,186.73s-1-10.52,11.49-14.1c4,4.57,13.73,16.18,13.73,16.18" style="fill:none;stroke:#0f5a6d;stroke-linecap:round;stroke-linejoin:round;stroke-width:2.31467034196847px"></path><path d="M420.14,177.64s3,1.72,7.26-.53" style="fill:none;stroke:#0f5a6d;stroke-linecap:round;stroke-linejoin:round;stroke-width:2.31467034196847px"></path><path d="M496.5,228.31H483.55s2.35,5.36,6.48,5.36C493.29,233.67,496.5,228.31,496.5,228.31Z" style="fill:none;stroke:#0f5a6d;stroke-linecap:round;stroke-linejoin:round;stroke-width:2.3035882165352px"></path><path d="M475.35,228.31h-13s2.34,5.36,6.47,5.36C472.14,233.67,475.35,228.31,475.35,228.31Z" style="fill:none;stroke:#0f5a6d;stroke-linecap:round;stroke-linejoin:round;stroke-width:2.3035882165352px"></path><line x1="497.55" y1="217.59" x2="461.55" y2="217.59" style="fill:none;stroke:#0f5a6d;stroke-linecap:round;stroke-linejoin:round;stroke-width:2.3035882165352px"></line><line x1="488.67" y1="211.42" x2="469.25" y2="211.42" style="fill:none;stroke:#0f5a6d;stroke-linecap:round;stroke-linejoin:round;stroke-width:2.3035882165352px"></line><line x1="462.02" y1="167.37" x2="497.55" y2="167.37" style="fill:none;stroke:#0f5a6d;stroke-linecap:round;stroke-linejoin:round;stroke-width:2.3035882165352px"></line><line x1="467.31" y1="151.59" x2="467.31" y2="158.62" style="fill:none;stroke:#0f5a6d;stroke-linecap:round;stroke-linejoin:round;stroke-width:2.3035882165352px"></line><line x1="479.55" y1="151.59" x2="479.55" y2="158.62" style="fill:none;stroke:#0f5a6d;stroke-linecap:round;stroke-linejoin:round;stroke-width:2.3035882165352px"></line><line x1="491.56" y1="151.59" x2="491.56" y2="158.62" style="fill:none;stroke:#0f5a6d;stroke-linecap:round;stroke-linejoin:round;stroke-width:2.3035882165352px"></line><path d="M462,188.93c.65.11,34.67,0,34.67,0l-23.57-7.68v4.1" style="fill:none;stroke:#0f5a6d;stroke-linecap:round;stroke-linejoin:round;stroke-width:2.3035882165352px"></path><line x1="412.21" y1="212.86" x2="447.74" y2="212.86" style="fill:none;stroke:#0f5a6d;stroke-linecap:round;stroke-linejoin:round;stroke-width:2.3035882165352px"></line><path d="M412.21,234.43c.66.11,34.68,0,34.68,0l-23.58-7.69" style="fill:none;stroke:#0f5a6d;stroke-linecap:round;stroke-linejoin:round;stroke-width:2.3035882165352px"></path><polyline points="434.25 140.84 434.25 110.3 440.75 129.84 437.5 129.84" style="fill:none;stroke:#0f5a6d;stroke-linecap:round;stroke-linejoin:round;stroke-width:2.3035882165352px"></polyline><polyline points="419.42 140.84 419.42 110.3 425.93 129.84 422.67 129.84" style="fill:none;stroke:#0f5a6d;stroke-linecap:round;stroke-linejoin:round;stroke-width:2.3035882165352px"></polyline><line x1="413.89" y1="150.1" x2="445.9" y2="150.1" style="fill:none;stroke:#0f5a6d;stroke-linecap:round;stroke-linejoin:round;stroke-width:2.3035882165352px"></line><line x1="421.67" y1="157.23" x2="438.28" y2="157.23" style="fill:none;stroke:#0f5a6d;stroke-linecap:round;stroke-linejoin:round;stroke-width:2.3035882165352px"></line><path d="M488.05,136.39v-9.81s.1-4.27-2.63-7c-4.74-4.74-1.4-9.28,2.52-9.28,2.32,0,4.68,1.12,4.68,5.27" style="fill:none;stroke:#0f5a6d;stroke-linecap:round;stroke-linejoin:round;stroke-width:2.3035882165352px"></path><polyline points="471.33 109.27 471.33 117.27 467.65 117.27 467.65 136.03 474.93 136.03 474.93 117.32" style="fill:none;stroke:#0f5a6d;stroke-linecap:round;stroke-linejoin:round;stroke-width:2.3035882165352px"></polyline></g></g></svg>