<svg id="visual" viewBox="0 0 900 600" width="900" height="600" xmlns="http://www.w3.org/2000/svg" xmlns:xlink="http://www.w3.org/1999/xlink" version="1.1"><rect x="0" y="0" width="900" height="600" fill="#ffffff"></rect><path d="M0 366L21.5 373.5C43 381 86 396 128.8 405C171.7 414 214.3 417 257.2 406.7C300 396.3 343 372.7 385.8 375.7C428.7 378.7 471.3 408.3 514.2 422.2C557 436 600 434 642.8 429.5C685.7 425 728.3 418 771.2 418.3C814 418.7 857 426.3 878.5 430.2L900 434L900 601L878.5 601C857 601 814 601 771.2 601C728.3 601 685.7 601 642.8 601C600 601 557 601 514.2 601C471.3 601 428.7 601 385.8 601C343 601 300 601 257.2 601C214.3 601 171.7 601 128.8 601C86 601 43 601 21.5 601L0 601Z" fill="#2fa5ba"></path><path d="M0 478L21.5 475.8C43 473.7 86 469.3 128.8 462.3C171.7 455.3 214.3 445.7 257.2 439.7C300 433.7 343 431.3 385.8 436.5C428.7 441.7 471.3 454.3 514.2 451.2C557 448 600 429 642.8 429.3C685.7 429.7 728.3 449.3 771.2 451.5C814 453.7 857 438.3 878.5 430.7L900 423L900 601L878.5 601C857 601 814 601 771.2 601C728.3 601 685.7 601 642.8 601C600 601 557 601 514.2 601C471.3 601 428.7 601 385.8 601C343 601 300 601 257.2 601C214.3 601 171.7 601 128.8 601C86 601 43 601 21.5 601L0 601Z" fill="#25889a"></path><path d="M0 502L21.5 499C43 496 86 490 128.8 483.2C171.7 476.3 214.3 468.7 257.2 464.2C300 459.7 343 458.3 385.8 460.2C428.7 462 471.3 467 514.2 472C557 477 600 482 642.8 485.5C685.7 489 728.3 491 771.2 485.7C814 480.3 857 467.7 878.5 461.3L900 455L900 601L878.5 601C857 601 814 601 771.2 601C728.3 601 685.7 601 642.8 601C600 601 557 601 514.2 601C471.3 601 428.7 601 385.8 601C343 601 300 601 257.2 601C214.3 601 171.7 601 128.8 601C86 601 43 601 21.5 601L0 601Z" fill="#1c6d7b"></path><path d="M0 499L21.5 504.8C43 510.7 86 522.3 128.8 524.5C171.7 526.7 214.3 519.3 257.2 511.8C300 504.3 343 496.7 385.8 492.8C428.7 489 471.3 489 514.2 492.7C557 496.3 600 503.7 642.8 511C685.7 518.3 728.3 525.7 771.2 530.2C814 534.7 857 536.3 878.5 537.2L900 538L900 601L878.5 601C857 601 814 601 771.2 601C728.3 601 685.7 601 642.8 601C600 601 557 601 514.2 601C471.3 601 428.7 601 385.8 601C343 601 300 601 257.2 601C214.3 601 171.7 601 128.8 601C86 601 43 601 21.5 601L0 601Z" fill="#13535e"></path><path d="M0 531L21.5 531.5C43 532 86 533 128.8 536.5C171.7 540 214.3 546 257.2 547.2C300 548.3 343 544.7 385.8 542.8C428.7 541 471.3 541 514.2 539.3C557 537.7 600 534.3 642.8 537C685.7 539.7 728.3 548.3 771.2 553.3C814 558.3 857 559.7 878.5 560.3L900 561L900 601L878.5 601C857 601 814 601 771.2 601C728.3 601 685.7 601 642.8 601C600 601 557 601 514.2 601C471.3 601 428.7 601 385.8 601C343 601 300 601 257.2 601C214.3 601 171.7 601 128.8 601C86 601 43 601 21.5 601L0 601Z" fill="#0b3a42"></path></svg>