<svg id="visual" viewBox="0 0 1200 1000" width="1200" height="1000" xmlns="http://www.w3.org/2000/svg" xmlns:xlink="http://www.w3.org/1999/xlink" version="1.1"><rect x="0" y="0" width="1200" height="1000" fill="#ffffff"></rect><path d="M0 418L63 526L126 556L189 640L253 567L316 640L379 414L442 506L505 408L568 572L632 552L695 528L758 423L821 540L884 485L947 563L1011 530L1074 631L1137 556L1200 432L1200 0L1137 0L1074 0L1011 0L947 0L884 0L821 0L758 0L695 0L632 0L568 0L505 0L442 0L379 0L316 0L253 0L189 0L126 0L63 0L0 0Z" fill="#23907e" stroke-linecap="square" stroke-linejoin="bevel"></path></svg>