<svg id="visual" viewBox="0 0 400 600" width="400" height="600" xmlns="http://www.w3.org/2000/svg" xmlns:xlink="http://www.w3.org/1999/xlink" version="1.1"><rect x="0" y="0" width="400" height="600" fill="#ffffff"></rect><path d="M0 132L4.5 139C9 146 18 160 26.8 157.7C35.7 155.3 44.3 136.7 53.2 123.7C62 110.7 71 103.3 80 104C89 104.7 98 113.3 106.8 113C115.7 112.7 124.3 103.3 133.2 109.5C142 115.7 151 137.3 160 157.3C169 177.3 178 195.7 186.8 190.2C195.7 184.7 204.3 155.3 213.2 142.7C222 130 231 134 240 147.8C249 161.7 258 185.3 266.8 189.5C275.7 193.7 284.3 178.3 293.2 165.2C302 152 311 141 320 131.3C329 121.7 338 113.3 346.8 124.8C355.7 136.3 364.3 167.7 373.2 183C382 198.3 391 197.7 395.5 197.3L400 197L400 0L395.5 0C391 0 382 0 373.2 0C364.3 0 355.7 0 346.8 0C338 0 329 0 320 0C311 0 302 0 293.2 0C284.3 0 275.7 0 266.8 0C258 0 249 0 240 0C231 0 222 0 213.2 0C204.3 0 195.7 0 186.8 0C178 0 169 0 160 0C151 0 142 0 133.2 0C124.3 0 115.7 0 106.8 0C98 0 89 0 80 0C71 0 62 0 53.2 0C44.3 0 35.7 0 26.8 0C18 0 9 0 4.5 0L0 0Z" fill="#23907e" stroke-linecap="round" stroke-linejoin="miter"></path></svg>