<svg xmlns="http://www.w3.org/2000/svg" viewBox="0 0 396.2 331.12"><defs><style>.cls-1{fill:#0a383b;}</style></defs><g id="Layer_2" data-name="Layer 2"><g id="Layer_1-2" data-name="Layer 1"><path class="cls-1" d="M258,44.15a64.23,64.23,0,0,1,34.54-9.59c15.29,0,28.64,3.8,39.68,11.28a66,66,0,0,1,23.42,28.4H396.2c-6.14-22.09-17.77-39.93-34.61-53.08h0C343.66,7.12,320.65,0,293.2,0c-21.14,0-39.94,4.76-55.88,14.15A97.22,97.22,0,0,0,200.2,53.82a118.69,118.69,0,0,0-12.28,40.89h9.37A40.72,40.72,0,0,0,234.05,71.5h0C239.72,59.74,247.78,50.54,258,44.15Z"/><path class="cls-1" d="M396.2,150.35H355.66a66,66,0,0,1-23.41,28.4l-.21.13c-13.58,9.16-22.24,24-22.24,40.38v4.4c20.13-2.3,37.54-9.09,51.79-20.23C378.43,190.28,390.06,172.44,396.2,150.35Z"/><path class="cls-1" d="M172.79,271.65l-69-82.88a31.38,31.38,0,0,0-24.12-11.3H50.26l76.12,94.18Z"/><path class="cls-1" d="M38.84,47.86H0V170.17H30.34a8.51,8.51,0,0,0,8.5-8.5Z"/><path class="cls-1" d="M118.09,106.36a220.28,220.28,0,0,0-15.66,27.45c-2.66,5.39-5,10.92-7.5,16.38-4.12,9-11.31,14.35-21.14,15.47-10,1.15-18.33-2.39-24.37-10.53a21.33,21.33,0,0,1,1-25.94c5.26-6.1,10.9-11.87,16.16-18,8.69-10.1,17.53-20.09,24.59-31.47A248.73,248.73,0,0,0,107.8,47.79a3.57,3.57,0,0,1,2.69-2.29A27.7,27.7,0,0,1,131,48.28c.9.5,1.44.93,2.06-.39s.73-3.26,2.66-3.74a8.64,8.64,0,0,1,6.81,1.33c3.66,2.27,6.16,5.63,8.27,9.29,1.07,1.88,2,3.85,3,5.75a3.07,3.07,0,0,1-.49,3.95c-6.48,7.32-12.86,14.72-19.29,22.09M64.25,122.17a17.4,17.4,0,0,1,11.93,4.22c4.72,4,6.43,9.18,5,15.23a14.57,14.57,0,0,1-12,10.89c-4,.57-8.57-1.54-10.41-4.82-2.14-3.81-1-7,1.61-10.14s5-6.24,7.58-9.46a11.43,11.43,0,0,0-6.65-.08c-9.89,3.12-13.79,16.56-7,24.69,5.24,6.28,12.12,8.87,20.21,7.4,8.44-1.55,14-6.65,16.57-14.82,2.89-9.37-2.29-19.62-12-24.3l-3.59-1.7c9.55-8.89,18.79-17.76,27.9-27.14a37.12,37.12,0,0,0-11-2.1,2.38,2.38,0,0,0-2.41,1.18c-3.51,4.78-7.17,9.47-11,14C74.13,110.76,69.33,116.28,64.25,122.17Zm32.08,11.35c.31-.29.43-.36.49-.47,5.56-11.19,11.32-22.26,18.79-32.34a1.11,1.11,0,0,0-.21-1.77,38.07,38.07,0,0,0-5.57-4,1.34,1.34,0,0,0-2,.23c-7.15,7.53-14.63,14.73-22.17,21.85-.91.86-.73,1.22.15,1.85A27.93,27.93,0,0,1,96.33,133.52Zm20.39-56.78.55-.81a222,222,0,0,0,12.15-20.76c.57-1.08.24-1.51-.73-2.06a22.67,22.67,0,0,0-14.48-2.9,2.49,2.49,0,0,0-2.34,1.61c-2.94,6.63-6.08,13.16-9.61,19.5-.56,1-.69,1.5.76,1.67a42.6,42.6,0,0,1,12.45,3.52C115.84,76.68,116.2,77,116.72,76.74Zm31.06-16.36c-2.08-3.8-3.93-7.34-7.24-9.78-2.06-1.52-2.23-1.45-3.3.77a210.09,210.09,0,0,1-15.3,27.12c-.7,1-.52,1.48.38,2.15a17,17,0,0,1,4.31,4.22c.81,1.24,1.22.8,1.93,0,6.18-7.18,12.37-14.37,18.63-21.49C148.17,62.22,148.55,61.3,147.78,60.38Zm-72.5,73.31c-.16-.25-.59-1-1-1.68-.93-1.52-1.69-1.35-2.72,0-2.41,3.24-5,6.37-7.46,9.56-1.67,2.15-1.4,3.5.92,4.89a5.81,5.81,0,0,0,4.66.49C74.91,145.61,77.74,139.39,75.28,133.69Z"/><path class="cls-1" d="M39,272H.12V187H30.46a8.51,8.51,0,0,1,8.5,8.5Z"/><path class="cls-1" d="M263.82,239.07c7.5,6.23,11.31,15.17,11.31,26.58S271.36,285.87,264,292c-7.22,5.87-17.48,8.85-30.54,8.85h0a27.77,27.77,0,0,0-27.77,27.77v2.54h37c23.68,0,41.9-5.38,54.15-16,12.08-10.47,18.21-25,18.21-43.25,0-13-4-24.55-11.78-34.2s-18.23-15.85-31.49-18.56l-16.53-3.36,16.43-3.85c11.41-2.67,20.72-8.31,27.68-16.78s10.44-19.56,10.44-33.06c0-17.58-5.71-30.8-17.47-40.4S263,107.08,240.62,107.08H147v61.41h7.45a31.39,31.39,0,0,0,31.38-31.39v-.36h44.67c13.11,0,23.09,3,29.66,8.8s10.09,14.38,10.09,25.05-3.46,19.09-10.27,24.95c-6.74,5.69-16.43,8.57-28.82,8.57H147v25.72h86.12C246.11,229.83,256.45,232.94,263.82,239.07Z"/></g></g></svg>