<svg xmlns="http://www.w3.org/2000/svg" viewBox="0 0 1920 636"><defs><style>.cls-1{fill:#00a09c;}.cls-2{fill:#00afaa;}</style></defs><g id="Layer_2" data-name="Layer 2"><g id="Layer_1-2" data-name="Layer 1"><rect class="cls-1" y="541" width="1920" height="95"/><path class="cls-2" d="M924.26,401.93a10.31,10.31,0,0,1,1.24-1.41,60.19,60.19,0,0,0,6.09-.76l.09,1.37a4.27,4.27,0,0,0-1.15.71c-.4.4-.53.8-.84.93a5.08,5.08,0,0,0-1.63.84c-.36.39-.8.44-1.24.75a14.59,14.59,0,0,1-3.49.62c-.84.08-2.2.26-2.2.26S923.77,402.64,924.26,401.93Z"/><path class="cls-2" d="M878.92,541.32h69.92l-.06-.15c-3.66-9-28.92-46.85-29.65-48.5s-2.93-2.93-2.93-4.21.37-2.56,2-8.42,2.75-23.24,3.85-32.39,2.19-24.71,2.19-24.71a14.89,14.89,0,0,1,2.75-3.48c1.65-1.46,6.4-5.3,7.87-6.4s1.65-3.66,2.19-6.77,0-6.41.19-8.06,0-4.39-1.47-8.41-3.75-7.45-5.3-6.41c-2.2,1.46.54,8.24.54,8.24s-3.47,2.38-3.84,3.29-5.12,3.84-6.4,4.21-5.31,3.48-6.23,5.12-2.19,6.78-2.74,10.25-4.57,28.72-4.57,28.72l-.41,2.81a120.06,120.06,0,0,1-3.05,19.09s-.48,10.52-3.82,10-12.67-1.67-13.87,4.06.24,9.09,1.44,11.24-2.87,6.93-4.55,8.6-5.49,7.18-5.49,9.57-.24,6-.24,6l3.58,4.78a82.33,82.33,0,0,0-.48,10c.24,3.11,0,3.59-1,6.94A15.72,15.72,0,0,0,878.92,541.32Zm42.21-136.08s2.64-2.6,3.13-3.31a10.31,10.31,0,0,1,1.24-1.41,60.19,60.19,0,0,0,6.09-.76l.09,1.37a4.27,4.27,0,0,0-1.15.71c-.4.4-.53.8-.84.93a5.08,5.08,0,0,0-1.63.84c-.36.39-.8.44-1.24.75a14.59,14.59,0,0,1-3.49.62C922.49,405.06,921.13,405.24,921.13,405.24Z"/><path class="cls-2" d="M474.46,502.86c.53-7.72,4.52-21,3.46-28.47s-2.13-10.91-.8-17,1.07-8.25,2.93-10.38a11.84,11.84,0,0,1,2.93-2.66s2.39,4.26,3.72,4,.8-26.34,1.86-33.25,1.33-37.52,2.93-40.71,3.46-9.58,2.4-14.64-2.93-10.11-3.2-12.5-4.26-9-5.59-10.91a65.32,65.32,0,0,1-3.46-6.12s3.46-2.4,5.59-.27L483,321.4s1.06-3.2,5.85-.8,5.32,5.59,6.65,8.78,6.92,13,8,14.9,2.66,1.59,4.53,5.05a89.4,89.4,0,0,1,3.72,8.25s3.19-9.58,7.45-8.51,3.19,1.59,1.33,4.79-4.52,9-5,11.44a27,27,0,0,1-4.26,8.78c-1.86,2.39-4.26,1.86-4.79,6.65s.27,29.54.53,38.58a288.42,288.42,0,0,0,2.66,29c.8,4.26,1.07,10.65,1.87,12.24s4.25,5.06,5.32,9.05,6.12,10.64,5.58,19.69-1.32,8-1.32,8,3.45,6.12,2.66,10.11-1.87,3.73-1.34,5.06,4.26,4.52,5.33,7.18a1,1,0,0,0,0,.1q.12,4.44.33,8.9c-1.21,2.12-2.59,4.5-2.24,5.37.47,1.16,2.12.11,2.56.33.14,2.33.3,4.66.46,7H464.17C469,526.72,474.1,508.12,474.46,502.86Z"/><path class="cls-2" d="M729.63,539.22c1.33-.54,3.72-1.6,3.72-3.73s.8-7.72,1.6-8.51,1.33-2.67,2.39-4.26,3.46-6.12,5.06-8.52,6.65-7.18,6.65-7.18l1.6-2.13s5.85-19.42,7.71-30.6a274.3,274.3,0,0,0,2.66-29c0-1.33-2.12,0-1.86-2.13s1.6-2.39,1.07-4.26-1.87-5.85-3.2-7.18-4.25-6.92-5.32-8.51-2.66-11.45-4.26-13.57-4.52-3.73-4.52-4.53,2.66-2.66,5.32-.8S754.9,411,754.9,411s2.67-18.63,6.66-18.63,1.33,6.39.26,9.05-1.06,8.51-1.06,8.51l.26,1.6,1.6-1.6s1.33-8,3.46-8,4.52.8,5.06,3.19c0,0,4-.53,4.79,2.13l.79,2.66s2.93,0,4,1.6,1.87,5.59,1.33,6.65-.26,7.45-.53,10.11-.8,7.72-.8,7.72l-1.33,2.66s2.66.53,1.87,2.66-2.4,1.59-2.4,1.59-1.06,5.06-.8,7.72,2.4,26.87,1.87,31.66-.27,21.82-1.33,25.55c0,0,17.29,16.76,16.76,19.69a132.46,132.46,0,0,1-3.27,13.81H728.45C728.79,540.23,729.2,539.39,729.63,539.22Z"/><path class="cls-2" d="M1185.36,541c5.62-2.92,6.25-9.8,7.92-12.51s7.92-24.4,8.76-27.11,0-8.55,0-12.51,1.66-7.09,1.46-11.26-2.09-20.64-2.09-20.64a56.1,56.1,0,0,0,5.63-1.46s-.63-6.88-2.09-8.55-7.29-7.5-8.13-9.38a73.92,73.92,0,0,1-2.71-11.88,10.42,10.42,0,0,0-.62-2.92s-8.13-1.46-9-1.67c0,0-1.88-3.54,5.21-2.29l3.13-1.46s-10.42-.63-12.72-1.05-2.92-2.92,0-3.12,9.18.2,9.18.2.83-2.91,2.71-2.71,5,2.3,7.09,2.3H1205s-15-16.47-15.22-19.81c0,0,1-4,4.8.63s5.84,6.67,5.84,6.67-3.13-11.47-1-11.05,7.93,14.38,9.18,16.89,3.75,5.42,5,5.83,3.55.84,4.17,3.34a32.37,32.37,0,0,1,1,6.26c.2,2.5.41,9.38,1.25,12.92s.83,6.88,2.29,10,3.34,5.84,3.13,7.09,1.87-.42,1.87-.42,1,9,1.26,10.64,2.29,7.92,1.45,13.34,1.88,11.26,1.88,16.06-2.92,26.89-2.71,34a128.25,128.25,0,0,0,1.91,16h-46.2A5,5,0,0,1,1185.36,541Z"/><path class="cls-2" d="M1236.84,404.38a6.62,6.62,0,0,1-1.73-.69c-.41-.13-1.14-.5-1.28-.54s.09-.41.73-.55,6.83.14,6.83.14-1.82,1.5-2.41,1.86S1237.7,404.51,1236.84,404.38Z"/><path class="cls-2" d="M1232.65,398.36a7,7,0,0,0-1.55.91c-.14.14-1,.28-1.14.09a13.38,13.38,0,0,0-1.09-1.13c-.14-.05.32-.51,1.09-.64s7.06-.18,7.06-.18a3.39,3.39,0,0,1-1.41.63A22.7,22.7,0,0,0,1232.65,398.36Z"/><path class="cls-2" d="M1237.37,541.32h54.57c1.49-8.51,3.09-16.75,3.09-16.75.82-7.21-.73-7.94-3.28-13.69s-3.93-7.86-4.94-14.61-2.55-13.52-4.1-16.26-2.47-5.57-2.38-7.58a15,15,0,0,0-1.83-8.67,33,33,0,0,1-3.56-10.68c-.09-1.83-1.18-1.74-1.18-2.38s-2.47-9.49-3-11.32a7.06,7.06,0,0,0-1.55-2.83l-.46-2.38c-.45-2.37.37-3.74-1.09-6s-3.75-5.48-5-8.95-3.75-18.35-4.11-20.55-.92-5-1.65-6-3.47-1.74-5-2.47-3.92-7-4.84-8.67-1.82-2.74-2.92-2.93a44.62,44.62,0,0,1-6.48-2.19,8.27,8.27,0,0,0-4.2-.82c-1.56.09-4.57,0-4.57,0a2.12,2.12,0,0,0-.75,1.19,3.7,3.7,0,0,0,2.54,2.77,59.73,59.73,0,0,0,6,.93c.34.11.4.8,1.67,1.38a8,8,0,0,1,2.2,1.56,2.43,2.43,0,0,1-1.62.12,8.82,8.82,0,0,0-2.19-.29c-.64,0-1.56-.41-2.2-.46a31.06,31.06,0,0,1-3.12-.87,27.86,27.86,0,0,0-4.33-.81,12,12,0,0,1-4.28-1.1c-1.79-.81-2.08,1-2,2.31s1,1.8,4.45,3.18,5.37,2.2,7.74,2.31a10.35,10.35,0,0,1,5.72,2.89c.46.64.06.64-.52.87a13.29,13.29,0,0,1-2.72.92c-.86.12-6.06.81-7.56,1.21a21.88,21.88,0,0,1-4.68.29c-5.38-3.29-6.76,1.72-5.88,3.18s3.23,3.23,6.16,4.41,3.53,4.1,5.29,5.28.88,2.35,2.34,5.58,6.17,8.51,8.22,9.39,4.11,4.69,7.63,6.16,3.23,11.45,3.23,11.45-2,3.81-.88,5.28.88,7.93.88,7.93.59,7.33.59,8.21-1.47,4.7-1.17,6.75-2.65,12.92-2.65,14.09-2,8.51-3.22,15.56-1.77,29.35-2.65,31.7-2.34,11.15-2.34,11.15A8.91,8.91,0,0,0,1237.37,541.32ZM1237,397.41a3.39,3.39,0,0,1-1.41.63,22.7,22.7,0,0,0-3,.32,6.73,6.73,0,0,0-1.55.91c-.14.14-1,.28-1.14.09a13.38,13.38,0,0,0-1.09-1.13c-.14-.05.32-.51,1.09-.64S1237,397.41,1237,397.41Zm4.37,5.33s-1.82,1.5-2.41,1.86-1.28-.09-2.14-.22a6.62,6.62,0,0,1-1.73-.69c-.41-.13-1.14-.5-1.28-.54s.09-.41.73-.55S1241.39,402.74,1241.39,402.74Z"/><path class="cls-2" d="M1107.61,517.25c1.55-2.07,1.34-4.22.13-6.35,1-.72,1.61-1.36,1.61-1.69,0-1.2,1.44-11.29,1.92-13.21l.72-2.88s-11.28-27.84-16.56-36.73-11.29-11.28-13.93-11.76-6.72-4.56-8.64-8.16-4.08-6-3.84-7.45-.48-8.4-.72-9.36,2.16-3.12,5.52,3.36,3.12,7.93,3.12,7.93,5-.73,6-.73,1.68-2.88,1-5.28-.48-6-2.16-8.4-4.56-7.92-6.48-9.36-5-3.36-5.28-4.08-2.4-2.4.48-3.36,7.68,3.6,11.52,6.24a31.93,31.93,0,0,1,5.52,4.56s2.41-2.4-4.56-6.72-10.08-7-6.48-9.37c0,0,6.72,2.4,9.36,5.05a27,27,0,0,1,5.77,1,51.64,51.64,0,0,1,6.48,3.36c.72.48,4.8,9.84,6,11.76s.48,4.08,0,5.52-3.84,7.44-2.4,9.6,2.88,2.65,4.08,5.29,8.88,10.8,10.56,12.72,8.65,8.88,8.65,8.88.24-2.64,1.2-3.12,0-8.4,3.12-11S1142,435,1151.36,436s26.17,1,28.81,1,8.64-.48,8.64-.48,10.57,16.8,10.09,20.16.24,6,.48,8.65-.72,10.32-1,12.24-1.44,12.24-1.2,16.08-1,15.37-1.92,19.21a22.48,22.48,0,0,1-5,9.12c-2.17,2.64-3.37,4.56-5.77,7.92s-4.32,5.77-3.84,7.45a21,21,0,0,1,.57,4h-79.55C1099.8,533.79,1101,525.69,1107.61,517.25Z"/><path class="cls-2" d="M1306.94,540.52c1.59-3.65,2.07-4.44,2.55-4s9.37-15.56,20-27.63,17.79-23.82,19.85-29.86,2.06-13.66,5.56-19.22,9.37-17,10-16.67c0,0,3.66-10,5.72-9.85,0,0-.79-2.54,2.86-1.11s-.16,15.56-1.75,21.28c0,0,3.66-7.94,5.4-12.71,0,0,5.88-3.49,1.91,11.44s-4.61,15.88-4.45,16.68-.16,5.55-.16,5.55l1.75.16s3-7.14,6.35-10.64,8.42-4.13,7.15-.32-2.06-1.27-4.29,8.26-3,7.31-4,10.17-5.87,6.19-8.26,7.94-7.78,3.18-11.91,8.26A114.91,114.91,0,0,0,1350,515.75c-2.55,4.92-9.53,15.88-12.07,24.46-.12.39-.23.75-.33,1.11h-31C1306.72,541,1306.85,540.73,1306.94,540.52Z"/><path class="cls-2" d="M996.06,526.55c2.55-4.11,4.7-9,4.89-10.37s3.13-25.63,3.72-35.61.59-33.26-.59-36.2-4.1-6.26-4.69-9.59,0-5.87-2.15-9.39-5.48-7.63-7-10.37a26.93,26.93,0,0,1-2.54-6.46c-.2-.78,2.35-3.13,6.85,1.77s5.08,8.8,8.8,9.19,6.26,1.18,7.24,0,5.09-5.28,5.09-5.87-3.52-8-2.94-9.59,2.74-2.54,2.94-.58a9.85,9.85,0,0,0,2,4.3l.58,1s4.31-3.72,4.31-5.48-1.18-9.78.58-11.93,2.74-1.37,2.74-1.37l.59,3.91s1-9.59,6.07-7.83c.58.21-1,4.89-1,4.89s2,.2,1.56,1.37a21.59,21.59,0,0,0-1.37,6.46c0,2.55-1.17,4.11-1.56,7.63s-2.54,6.07-2.94,8.81-.58,6.65-1.37,8.61-3.52,8.22-3.32,10-1.18,5.87-1.37,8.61a24.33,24.33,0,0,0,.19,6.65c.4,2.15,0,5.48,0,8.61s1.18,19.76,1.57,27.78a165.67,165.67,0,0,0,2.15,17.81s4.5,15.26,5.28,19.17a22.36,22.36,0,0,1-1.17,12.33c-.34.9-1.17,3.3-2.27,6.55H990.38C992.52,534.9,994.81,528.57,996.06,526.55Z"/><path class="cls-2" d="M801.82,532.9a38.64,38.64,0,0,0-.78-4.69s-3.43.49-4.21-.4,0-1.17.39-1.85,2.74-2.25,2.35-3.43-1.18-11.84.59-15.95,1.76-4.89,4.4-8.12a40.53,40.53,0,0,0,4.5-7.43,20.41,20.41,0,0,0,2.15-3.23c.59-1.37,1.27-2.35,2.15-4.4s.49-2.84,1.67-4.7,1.76-2.84,2.93-3.62,6.36-2.93,6.36-2.93-3-24.27-3.82-25.54-8.7-17.31-9-18,5.78-4.89,6-5.58-2.93-12.81-4.11-15-7.82-11.45-9-20.65-1.17-12.81-1.47-13.3-3.52-7.24-4.5-7.83-4.69-2.64-5.18-3.13-1.76-2.15-.78-2.74,4.4-.29,6.84.78,6.27,2.45,7,2.94,1.76-.59.69-2.64-9.49-13.9-10.28-15-2.15-2.84-.29-4.5,4.89,3.71,6,4.3,2.83,3.13,3.62,4,5.77,5.68,6.55,6.66,1.57,1.95,1.57,1.95-.49-6.55-1.47-8.12-7-13-7.24-14.77.1-2.84,2.15-2.64,3.52,3.23,4.7,5.08,5.58,8.71,6.65,9.89,2,1.95,2.15,3.32a19,19,0,0,0,.59,2.94c0-.3,1.18-3,1-4.5s-.88-6-1.17-7.14-1.77-5.09-1.77-6.07-1.43-4.75,3-3.89c2.11.41,2.23,4.24,3.64,6.76s1.51,5.86,2.32,7.88,1.62,3.84,1,6.06a54.86,54.86,0,0,0-1.82,7.88c-.3,2.72-.5,8.07-.5,10.4s-.3,9.19.2,15,.51,9.19,1.31,10.4a37.07,37.07,0,0,1,4.25,8.79c1.51,4.54,3.13,9.49,3.13,9.49a5,5,0,0,1,3.13,3.54c.6,2.72,8,17.77,9.19,20s3.43,7.88,4.24,9.19a49.3,49.3,0,0,1,3.13,7.27c.2,1,6.06,9.59,7.87,11.51s8.38,7.17,8.08,7.07-1.41,2.32-1.61,4,.5,3.43-.11,5.35a25.75,25.75,0,0,0-.8,3.13s2.52,5.66,3.43,15.35,1.31,13,1.31,14.24.1,3.23.1,3.23a32.66,32.66,0,0,1,4.85,6.76,111.47,111.47,0,0,1,15.71,14.9H801.15A35.86,35.86,0,0,0,801.82,532.9Z"/><path class="cls-2" d="M578.93,528.38c1.05-5,4.8-19,7.1-25.24s17.1-28.79,19-34,9.18-18.56,9.18-19.82,1.25-.62,1-1.25,3.13-3.13,2.71-8.55-4.38-17.32-4.38-19.82,1.46-3.34,1.67-5.21,0-5.43.21-7.93a14.79,14.79,0,0,1,2.09-6.05c1-2.09,4.59-9.6,4.8-11.48s3.33-2.29,5.42.84l-.21,2.92a2.53,2.53,0,0,1,0,3.55l-.21,6.88s1.88-6.47,4.59-5.63,2.5,5.42,1.67,10-.83,7.09-.21,9,1.88,4.17,2.3,5.22.62,2.71,1.25,3.33,6.05,2.72,7.09,3.13,4.59,0,4.59,0,9.6-8.34,14.81-8.34,5.84,2.29,5.84,2.29-4.17,3.13-5.63,5.85-3.75,2.92-5.21,4.38-4.39,4.17-5,5.63-5.22,5.84-8.35,6.67-7.3,5.22-7.51,7.1a9.42,9.42,0,0,1-1,3.33l1,1.47s-2.5,3.33-3.54,5.21-2.09,10.64-2.71,12.1-1.67,4.17-1.46,5.22-1.05,5-1.05,6.05-.41,5.84-.21,10.43a104,104,0,0,1,0,11.68c-.2,1.46,2.72,2.08,1,5.84s-2.92,4.17-2.72,7.3,3.55,5.63,2.51,7.3a27.13,27.13,0,0,0-3.34,6.47c-.63,2.29-.21,6,.42,7.09h-49A120,120,0,0,1,578.93,528.38Z"/><path class="cls-2" d="M1241.52,113.85a1.54,1.54,0,0,1,2-1.16s13.77,4,26.85,7.68a56.93,56.93,0,0,0-6.14-12,2.65,2.65,0,0,1-1.25.33,2.61,2.61,0,0,1-2.61-2.62,2.49,2.49,0,0,1,.23-1.06,34.78,34.78,0,0,1-2.91-2.51c-1.79-1.72.06-3.76-.9-5.1s-2-2.17-3.12-3.77-2.49-3.32-3.77-5.55-.64-5.81-.64-5.81c.83,4,2.75,5.49,2.75,5.49-1.09-1.21-2.11-5.8-2.11-5.8l1-1c1.66,1.08,5,9.06,4.72,8a24.91,24.91,0,0,0-2.23-5.16,25.86,25.86,0,0,1-1.85-3.39l1.66-1.27,1.21,1.91s-.7-2-.45-2.42a2.08,2.08,0,0,1,1-.7s-.32-.45.51.57,1.47,5.3,1.47,5.3c.7-2.36-.26-6.13-.26-6.13a12.58,12.58,0,0,1,1.21,6.13c-.12,2.23,1.92,5.87,1.92,5.87.51,2.1,1.53,4.65,1.91,5.8a7.37,7.37,0,0,1,.13,3.06,3.61,3.61,0,0,0,.76,2.49,8.49,8.49,0,0,1,.87,2.47,2.61,2.61,0,0,1,1,4.77,44,44,0,0,1,7,12.39c9.37,2.66,18.2,5.14,21.13,5.89a53.13,53.13,0,0,1,10.55,3.63c-2.31,19.46-10.72,52.93-10.72,52.93-1.65-1.48-16.66-5.11-17.48-5.11s-4.29.83-4.95.66-1.32.83-9.89-1-12-7.58-12-7.58c-2.31-.66-17.32-5.28-17.32-5.28S1241,115.5,1241.52,113.85Z"/><path class="cls-2" d="M1034.59,222.75c1.94-.53,1.41-1.93,1.41-1.93l-4.92-2.28s-5.79,2.63-7.55,4.56-1.76,1.06-1.76,1.06a3.21,3.21,0,0,1,.71-2.64c1-1.4,1-3.51,1.4-5.09s1.23-5.62,2.28-5.62,7.91-1.58,9.66-1.93,2.64-3.34,4.39-5.62,9-12.47,9.66-13.35,3-4.21,4-4.74l14.62,18.55c.47-6.63-.57-14.61-6.36-20.66-5.27-5.5-7.63-9.18-8.6-11.95h-.18a5.28,5.28,0,0,1-5.18-6.25c-.51-.62-1-1.32-1.57-2.08-1.91-2.76-1.41-3.23-1.69-5.72a31.25,31.25,0,0,1-.5-5.14,15.5,15.5,0,0,0-.7-4.83,29.82,29.82,0,0,1-.49-4.29,15.6,15.6,0,0,0-1.48-3.87,20,20,0,0,1-.92-2.81,6.43,6.43,0,0,1,.28-2.44s.21.8.71,2.87,1,1.53,1.62,2.17a4.5,4.5,0,0,1,1.19,2.65,46.32,46.32,0,0,0,2.26,6,27.64,27.64,0,0,1-1-4.56,17.17,17.17,0,0,0-2-4.71c-.78-1.33-1.27-4.24-.92-4.67s2.82-.53,2.82-.53a32.84,32.84,0,0,0,1.69,3.08c0-.27-1-3.13-1-3.13l1-.11s1.13-.1,1.34.59.14,7.58.14,7.58l.56.26c.07-.21.57-1,.07-3.29a10.26,10.26,0,0,1,.5-4.92,16.24,16.24,0,0,0,.07,3.23c.21,2.07,1,2.17,1.2,3.71a16.77,16.77,0,0,1-.48,4.33,13.75,13.75,0,0,0,1.53-3,5.63,5.63,0,0,0-.28-4.71c1,1,2,.74.7,4s-3.16,11.82.64,17.55a31.55,31.55,0,0,1,1.65,2.75,5.27,5.27,0,0,1-.23,10,22.85,22.85,0,0,0,5.17,8.12c6.63,6.8,10.13,12.4,8.86,25.19L1082,220.82c7.2,9.13,5.8,11.59,4.57,14.05s-11.94,22.83-17.21,25.29l-9.49-12.47s-4.91,1.05-8.78-.35-8.25-3.16-10.18-4-6.33-2.64-8.08-3.51-8.61-9.31-9.66-10.37a4.21,4.21,0,0,0-1.93-1.22S1032.66,223.28,1034.59,222.75Z"/><path class="cls-2" d="M996.65,54.48c1-11.85.68-13.55.68-13.55s5.93-2.37,8.64-2c0,0,4.06-15.91,4.57-17.94s1.35-3.22,1.69-1c0,0,15.08,7.22,27.9,13.7,9.29-10.23,5.45-16.51,2.79-19.1a1.76,1.76,0,0,1-3.17-1,1.11,1.11,0,0,1,0-.19,11.85,11.85,0,0,0-3.33-2.46c-1.91-.76-6.25-7.55-5.53-7.17a4.57,4.57,0,0,1,1.5,2c0,.22,5.37,4.16,5.37,4.16s-.72-.66-1.34-1.37a7,7,0,0,1-1.29-2.19A7,7,0,0,0,1032.57,4c-.88-.5-.83-2.14-.83-2.14a11.52,11.52,0,0,1,2,1.43c.52.49,1.24,1.25,1.55,1.58a8.65,8.65,0,0,0,1.45.93,25,25,0,0,1-2-2.35c-1.4-1.64-2.23-1.75-2.17-1.92s1-1.53,1-1.53a5.12,5.12,0,0,1,1.7.33c.47.27.47,1.37.93,2.08s2.12,2.85,2.12,2.85c0-.39.41-1.48-.31-1.81s-1.7-3.12-1.7-3.12,2.06,2.41,2.58,3.23a10.66,10.66,0,0,1,.88,3.5,7,7,0,0,0,1.7,3.4,3.29,3.29,0,0,1,.67,1.38,1.77,1.77,0,0,1,1.16,1.65,2.09,2.09,0,0,1-.08.5c3.18,1.94,3.53,6.11,3.81,8.83.18,1.72-2.74,6.47-6.1,11.22,8.79,4.46,16.32,8.48,16.86,9.43,1.36,2.37.34,3.05.34,3.05l-1.86,7.28s-11.51,44.19-12.36,46.9c0,0-.34,1.35-2.88-.51s-25.39-12.36-29.12-14.9S997,77.84,997,77.84l1.36-5.92S995.64,66.33,996.65,54.48Z"/><path class="cls-2" d="M774.28,80.49c-.82-1.69-.61-2.57-.61-4.2s-.75-3.53-.55-5.29-.74-7.32-.74-7.32A10.42,10.42,0,0,1,774.14,67a11.18,11.18,0,0,1,.68,4.48c-.2,1.56.88,6.44.88,6.44-.61-2.38,0-4.07-.07-5.56a25.16,25.16,0,0,0-.88-6.1c-.54-1.29-1.22-2.51-1.22-2.51l1.83-1a7,7,0,0,1,1.76.27c.34.21.62,1.83.68,2.71a43.5,43.5,0,0,0,1.29,4.61s-.27-1.69-.61-3.18-.74-4.14-.74-4.14,1.22-.4,1.15-.2,1.22,2.78,1.35,4.07,1.77,2.71,2.44,5-.2,8.48-.2,8.48c.88-1.22,1.56-6.24,1.56-6.24-.07.95.14,4.41-.88,6.37s-.75,4.34-.2,6.44a18.52,18.52,0,0,1,.28,4.58,2.55,2.55,0,0,1,.85,4.57l0,.06c1.44,3.07,7.67,9.67,14.26,14.42,4.73,3.41,8.23,9.16,10.06,12.51,1.13-5.26,4.95-24.2,5.4-25.63l10,3.15-1.42,1.53-1.22,7.32s10.88,1.22,11.9,1.53,3.15,1.62,4,1.93,6.92,4.37,6,4.68a10.4,10.4,0,0,0-2.85,1.52c-.2.31-.1,3.66-.81,5.29s-1.12,5.09-1.52,6.41a31.6,31.6,0,0,1-2,4.47,25.1,25.1,0,0,0-2.13,4.38c-.21,1-1.33,4.16-1.22,5.38s.3,5.6-.51,6.31a2.35,2.35,0,0,1-2.14.2l-1,1.53s-4.28-.92-5.8-1.12-10.17-2-10.17-2-.81,4.57-.81,5.49.1,2.64.1,2.64l-9.87-.2a17.17,17.17,0,0,1,0-5.29c.49-1.74,5.11-24.75,5.82-27.84a36.87,36.87,0,0,0-4.6-7.85c-3.86-5.09-9-8.55-12-10.58-2.81-1.87-7.51-8.75-8.24-9.82a2.35,2.35,0,0,1-.6.08,2.56,2.56,0,0,1-2.55-2.39c-1.09-1.11-2.49-2.74-2.54-3.23a35.87,35.87,0,0,0-1.15-5.56c-.61-1.83-7.19-8.61-7.19-8.61C771.77,77.92,775.09,82.19,774.28,80.49Z"/><path class="cls-2" d="M714.32,200.37,709,187l49.39-15.55s8.23,20.8,12.75,32.17c5.54,1.36,10.78,4.1,13.91,9.28,6.78,11.24,13.26,22,17.18,27.21a4.41,4.41,0,0,1,6.58,2.84c2.58,1.73,6.65,5.39,6.74,11.17.14,8.27-4.47,19.66-3.39,27.53s.41,14.64-.27,16.54c0,0-1-11.12-1.22-14.38,0,0,.41,13.43-3.39,14.51l-3.79-.81s1.22-5.83,2-9.9c0,0-2.71,6.92-3.93,9.22l-4.21-1.35s-1.4-2.51.28-7a17.57,17.57,0,0,1,1.08-2.35c3.26-6,6.78-11.39,6.92-13.7,0,0-8.55,12.07-9.77,16.55,0,0,1.63-10.17,5-15.19a22,22,0,0,0,3.8-11.12c0-1.08-1.77-5.56-1.77-8.13,0-1.61-.21-4.38-.3-6.66a4.41,4.41,0,0,1-1.26-7.1,8.79,8.79,0,0,1-1.15-1.84c-1.08-2.44-18-27.79-22.1-30.5a19.69,19.69,0,0,0-6-2.44c.49,1.24.92,2.31,1.24,3.11,3,7.62,9,22.71,9.14,23.17s-8.53,3.66-13,5.18-34.76,12.35-34.76,12.35L730,238.48s-7.47-2.74-11.74-8.69-9.3-21.49-8.54-24.54Z"/><path class="cls-2" d="M571.86,98.35a9.26,9.26,0,0,1,1.64-1.09c.87-.43.87-3.49-.22-7.74s3.27-10.14,3.27-10.14l14-6.65-3.17-29,19.15,19c.15-4.65-.71-9-3.72-11.26-6.08-4.54-8.15-8-9-10.34a1.86,1.86,0,0,1-.34,0,2.5,2.5,0,0,1-2.5-2.5,2.47,2.47,0,0,1,.59-1.59,32.67,32.67,0,0,1-.59-4.42c0-1-1.31-3.35-2.45-5.23s-1.31-3.27-2.13-5.48-1.14-3.11-.82-4.83a5.89,5.89,0,0,0-.49-3.35c1.07.57,1.48.65,1.56,2.37s3.1,6.87,3.1,6.87c-.08-.24-1.14-2.86-1.47-3.76a46.75,46.75,0,0,1-.82-4.75l2.46-.16.33,3.6v-.41c0-.9.4-3.27.65-3.27s1.14-.33,1.14.24.09,5.4.09,5.4.24,1.56.16-.32A28.06,28.06,0,0,1,593,14L593,18.08c-.41,2.62,2,7.94,3.19,12.52a9.9,9.9,0,0,1-.51,7,2.47,2.47,0,0,1-1.19,3.35c1,2.52,3.29,6.77,7.58,8.66,4.69,2.07,5.66,7.26,5.21,13.88l17.94,17.79-1,40s-18-12.32-18.21-12.65c0,0-7.2,3.82-11.12,4.47s-10.36-1.85-12.54-2.94-6.65-6-7.63-7.2a19.55,19.55,0,0,0-2.51-2.4l1.42-1.09Z"/><path class="cls-2" d="M905,415.37a9.46,9.46,0,0,0-1.12-1.28s-4.38-.36-5.5-.68l-.08,1.24a3.85,3.85,0,0,1,1,.64c.36.36.48.72.75.84a4.74,4.74,0,0,1,1.48.76c.32.36.72.4,1.12.67a13.1,13.1,0,0,0,3.15.56c.76.08,2,.24,2,.24S905.44,416,905,415.37Z"/><path class="cls-2" d="M945.54,536.85c-.87-3-1.08-3.45-.87-6.26a73.81,73.81,0,0,0-.43-9.07l3.24-4.32s-.21-3.24-.21-5.4-3.46-7.13-5-8.64-5.19-5.84-4.11-7.78,2.38-5,1.3-10.15-9.5-4.1-12.53-3.67-3.45-9.07-3.45-9.07a107.39,107.39,0,0,1-2.75-17.25l-.38-2.54-4.13-25.95c-.49-3.14-1.65-7.77-2.48-9.26a16.07,16.07,0,0,0-5.62-4.63c-1.16-.33-5.46-3-5.79-3.8s-3.47-3-3.47-3,2.48-6.12.5-7.44c-1.41-.94-3.48,2.15-4.8,5.79a17.28,17.28,0,0,0-1.32,7.6c.16,1.49-.33,4.47.16,7.28s.66,5.12,2,6.12,5.62,4.46,7.11,5.79a13.23,13.23,0,0,1,2.48,3.14s1,14.05,2,22.32,2,24,3.48,29.27,1.81,6.45,1.81,7.61-2,2.31-2.64,3.8-23.48,35.72-26.79,43.83l-.06.13H946A14.51,14.51,0,0,0,945.54,536.85Zm-39.7-118.73a13.1,13.1,0,0,1-3.15-.56c-.4-.27-.8-.31-1.12-.67a4.74,4.74,0,0,0-1.48-.76c-.27-.12-.39-.48-.75-.84a3.85,3.85,0,0,0-1-.64l.08-1.24c1.12.32,5.5.68,5.5.68a9.46,9.46,0,0,1,1.12,1.28c.44.64,2.83,3,2.83,3S906.6,418.2,905.84,418.12Z"/><path class="cls-2" d="M1030.83,506.57c-.48-7-4.09-19-3.12-25.73s1.92-9.85.72-15.38-1-7.46-2.65-9.38a10.55,10.55,0,0,0-2.64-2.4s-2.17,3.84-3.37,3.6-.72-23.8-1.68-30-1.2-33.9-2.65-36.78-3.12-8.66-2.16-13.23,2.64-9.13,2.89-11.3,3.84-8.17,5-9.85a57.44,57.44,0,0,0,3.13-5.53s-3.13-2.17-5-.24l3.85-7.7s-1-2.88-5.29-.72-4.81,5.05-6,7.94-6.25,11.78-7.22,13.46-2.4,1.44-4.08,4.57a78.58,78.58,0,0,0-3.37,7.45s-2.88-8.66-6.73-7.69-2.88,1.44-1.2,4.32a52.93,52.93,0,0,1,4.57,10.34,24.16,24.16,0,0,0,3.84,7.94c1.69,2.16,3.85,1.68,4.33,6s-.24,26.68-.48,34.86a260.56,260.56,0,0,1-2.4,26.2c-.73,3.85-1,9.62-1.69,11.06s-3.84,4.57-4.81,8.18-5.53,9.61-5,17.79,1.2,7.21,1.2,7.21-3.13,5.53-2.41,9.14,1.69,3.36,1.21,4.56-3.85,4.09-4.81,6.5l0,.08q-.11,4-.3,8c1.09,1.92,2.34,4.07,2,4.86-.42,1-1.92.1-2.31.3q-.2,3.15-.42,6.32h58.43C1035.73,528.12,1031.16,511.32,1030.83,506.57Z"/><path class="cls-2" d="M1101.62,539.42c-1.2-.48-3.37-1.44-3.37-3.37s-.72-7-1.44-7.69-1.2-2.41-2.16-3.85-3.13-5.53-4.57-7.69a59.53,59.53,0,0,0-6-6.49l-1.44-1.93s-5.29-17.55-7-27.64a250.54,250.54,0,0,1-2.4-26.21c0-1.2,1.92,0,1.68-1.92s-1.44-2.17-1-3.85,1.68-5.29,2.88-6.49,3.85-6.25,4.81-7.7,2.41-10.33,3.85-12.26,4.09-3.36,4.09-4.08-2.41-2.41-4.81-.72a43.72,43.72,0,0,0-6,6s-2.41-16.83-6-16.83-1.2,5.77-.24,8.17,1,7.69,1,7.69l-.24,1.45-1.44-1.45s-1.21-7.21-3.13-7.21-4.09.72-4.57,2.89c0,0-3.6-.48-4.32,1.92l-.73,2.4s-2.64,0-3.6,1.45-1.69,5.05-1.2,6,.24,6.73.48,9.13.72,7,.72,7l1.2,2.41s-2.4.48-1.68,2.4,2.16,1.45,2.16,1.45a31.58,31.58,0,0,1,.72,7c-.24,2.4-2.16,24.28-1.68,28.61s.24,19.71,1.2,23.08c0,0-15.63,15.14-15.15,17.79a120.17,120.17,0,0,0,3,12.48h57.49C1102.37,540.34,1102,539.57,1101.62,539.42Z"/><path class="cls-2" d="M799.78,541c-5.08-2.64-5.65-8.86-7.16-11.3s-7.16-22.05-7.91-24.5,0-7.72,0-11.3-1.51-6.41-1.32-10.17,1.89-18.66,1.89-18.66-3.58-.75-5.09-1.31c0,0,.56-6.22,1.88-7.73s6.6-6.78,7.35-8.48a65.48,65.48,0,0,0,2.45-10.73,9.19,9.19,0,0,1,.57-2.64s7.34-1.32,8.1-1.51c0,0,1.69-3.2-4.71-2.07L793,429.32s9.42-.57,11.49-.94,2.64-2.64,0-2.83-8.29.19-8.29.19-.75-2.64-2.45-2.45-4.52,2.07-6.4,2.07h-5.28s13.57-14.88,13.76-17.89c0,0-1-3.58-4.34.56s-5.27,6-5.27,6,2.82-10.36.94-10-7.16,13-8.29,15.26-3.39,4.9-4.52,5.28-3.2.75-3.77,3a30,30,0,0,0-.94,5.66c-.19,2.26-.38,8.47-1.13,11.68s-.75,6.21-2.07,9-3,5.27-2.83,6.4-1.69-.37-1.69-.37-.95,8.1-1.13,9.61-2.08,7.16-1.32,12.05-1.7,10.18-1.7,14.51,2.64,24.3,2.45,30.71a118.22,118.22,0,0,1-1.72,14.41h41.74A4.06,4.06,0,0,0,799.78,541Z"/><path class="cls-2" d="M607.8,417a6.05,6.05,0,0,0,1.56-.62c.38-.12,1-.45,1.16-.49s-.08-.37-.66-.5-6.18.13-6.18.13,1.65,1.36,2.19,1.68S607,417.09,607.8,417Z"/><path class="cls-2" d="M611.59,411.54a6.15,6.15,0,0,1,1.4.82c.12.12.86.25,1,.08a12.5,12.5,0,0,1,1-1c.13,0-.28-.45-1-.57s-6.38-.17-6.38-.17a2.94,2.94,0,0,0,1.27.58A18.76,18.76,0,0,1,611.59,411.54Z"/><path class="cls-2" d="M606.05,539.58s-1.33-8-2.12-10.08-1.33-22.28-2.39-28.64-2.92-13-2.92-14.06-2.65-10.87-2.38-12.73-1.06-5.3-1.06-6.1.53-7.42.53-7.42-.27-5.84.79-7.16-.79-4.78-.79-4.78-.27-9,2.91-10.34,5-4.77,6.9-5.57,6.1-5.57,7.42-8.48.54-4,2.13-5,2.12-3.72,4.77-4.78,4.77-2.65,5.57-4-.46-5.84-5.31-2.87a19.75,19.75,0,0,1-4.23-.26c-1.35-.36-6-1-6.84-1.1a11.88,11.88,0,0,1-2.45-.83c-.52-.21-.89-.21-.47-.78a9.26,9.26,0,0,1,5.17-2.61c2.14-.11,3.91-.84,7-2.09s3.92-1.72,4-2.87-.15-2.82-1.77-2.09a10.85,10.85,0,0,1-3.86,1,25.44,25.44,0,0,0-3.92.73c-.94.26-2.24.73-2.82.79s-1.41.41-2,.41a8.39,8.39,0,0,0-2,.26,2.2,2.2,0,0,1-1.46-.1,7.11,7.11,0,0,1,2-1.41c1.14-.52,1.2-1.15,1.51-1.25a54.48,54.48,0,0,0,5.43-.84,3.36,3.36,0,0,0,2.3-2.5,2,2,0,0,0-.68-1.08s-2.73.09-4.13,0a7.44,7.44,0,0,0-3.79.75,42.64,42.64,0,0,1-5.86,2c-1,.16-1.82,1.15-2.64,2.64s-3,7.18-4.38,7.84-3.87,1.32-4.53,2.22-1.16,3.47-1.49,5.45-2.56,15.43-3.71,18.56a42.86,42.86,0,0,1-4.54,8.09c-1.32,2.06-.58,3.3-1,5.44l-.41,2.15a6.48,6.48,0,0,0-1.4,2.56c-.5,1.65-2.73,9.65-2.73,10.23s-1,.49-1.07,2.14a29.49,29.49,0,0,1-3.22,9.66,13.61,13.61,0,0,0-1.65,7.83,14.15,14.15,0,0,1-2.14,6.85c-1.41,2.48-2.81,8.58-3.72,14.69s-2.14,8-4.45,13.2-3.71,5.86-3,12.38c0,0,1.45,7.44,2.79,15.13h49.31A8.12,8.12,0,0,0,606.05,539.58Zm8-128.74c.7.12,1.11.53,1,.57a12.5,12.5,0,0,0-1,1c-.17.17-.91,0-1-.08a6.15,6.15,0,0,0-1.4-.82,18.76,18.76,0,0,0-2.68-.29,2.94,2.94,0,0,1-1.27-.58S613.32,410.71,614,410.84Zm-4.16,4.52c.57.13.78.46.66.5s-.78.37-1.15.49a6.32,6.32,0,0,1-1.57.62c-.78.12-1.4.53-1.93.2s-2.19-1.68-2.19-1.68S609.28,415.24,609.86,415.36Z"/><path class="cls-2" d="M728.34,519.57c-1.4-1.87-1.21-3.81-.12-5.74-.86-.65-1.45-1.22-1.45-1.53,0-1.08-1.31-10.19-1.74-11.93l-.65-2.6s10.19-25.16,15-33.19,10.19-10.19,12.58-10.63,6.07-4.12,7.81-7.37,3.69-5.43,3.47-6.73a50.91,50.91,0,0,1,.65-8.46c.22-.86-2-2.82-5,3s-2.82,7.16-2.82,7.16-4.56-.65-5.42-.65-1.52-2.61-.87-4.77.43-5.43,2-7.6,4.12-7.16,5.86-8.46,4.55-3,4.77-3.68,2.17-2.17-.43-3S755,416.64,751.49,419a28.23,28.23,0,0,0-5,4.12s-2.17-2.17,4.12-6.07,9.11-6.29,5.85-8.46c0,0-6.07,2.17-8.46,4.55a24.4,24.4,0,0,0-5.2.87,45.43,45.43,0,0,0-5.86,3c-.65.43-4.34,8.89-5.42,10.63s-.44,3.68,0,5,3.47,6.73,2.17,8.68-2.61,2.39-3.69,4.77-8,9.77-9.54,11.5-7.81,8-7.81,8-.22-2.39-1.09-2.82,0-7.6-2.82-10-11.5-7.59-20-6.73-23.64.87-26,.87-7.81-.43-7.81-.43-9.54,15.18-9.11,18.22-.21,5.42-.43,7.81.65,9.33.87,11.06,1.3,11.06,1.08,14.53a94.53,94.53,0,0,0,1.74,17.36,20.31,20.31,0,0,0,4.55,8.24c2,2.39,3,4.12,5.21,7.16s3.9,5.21,3.47,6.72a19.42,19.42,0,0,0-.51,3.64h71.88C735.39,534.51,734.31,527.19,728.34,519.57Z"/><path class="cls-2" d="M874.26,540.6c-1.43-3.3-1.86-4-2.29-3.59S863.5,523,853.89,512s-16.08-21.52-17.94-27-1.87-12.34-5-17.36-8.47-15.36-9-15.07c0,0-3.3-9-5.16-8.9,0,0,.72-2.29-2.58-1s.14,14.06,1.57,19.23c0,0-3.3-7.18-4.88-11.48,0,0-5.3-3.16-1.72,10.33s4.16,14.35,4,15.07.14,5,.14,5l-1.57.15s-2.73-6.46-5.74-9.62-7.61-3.73-6.46-.29,1.86-1.14,3.87,7.47,2.73,6.6,3.59,9.18,5.31,5.6,7.46,7.18,7,2.87,10.77,7.46a103.72,103.72,0,0,1,10.18,15.78c2.3,4.45,8.61,14.35,10.91,22.1.11.36.2.68.3,1h28Z"/><path class="cls-2" d="M977.32,528c-2.3-3.72-4.24-8.14-4.42-9.37s-2.83-23.16-3.36-32.18-.53-30.06.53-32.71,3.71-5.66,4.24-8.66,0-5.31,2-8.49,5-6.89,6.36-9.37a24,24,0,0,0,2.3-5.83c.18-.71-2.12-2.83-6.19,1.59s-4.59,8-8,8.31-5.66,1.06-6.54,0-4.6-4.78-4.6-5.31,3.18-7.25,2.65-8.66-2.47-2.3-2.65-.53a8.87,8.87,0,0,1-1.77,3.89l-.53.88s-3.89-3.36-3.89-5,1.06-8.84-.53-10.78-2.47-1.24-2.47-1.24l-.53,3.54s-.89-8.67-5.48-7.08c-.53.19.88,4.42.88,4.42s-1.77.18-1.41,1.24a19.56,19.56,0,0,1,1.23,5.84c0,2.29,1.06,3.71,1.42,6.89s2.3,5.48,2.65,8,.53,6,1.24,7.78,3.18,7.42,3,9,1.06,5.31,1.24,7.78a21.69,21.69,0,0,1-.18,6c-.35,2,0,5,0,7.78s-1.06,17.86-1.41,25.11a148.25,148.25,0,0,1-2,16.09s-4.06,13.79-4.77,17.32a20.31,20.31,0,0,0,1.06,11.14c.31.82,1.06,3,2,5.92h33C980.52,535.52,978.45,529.8,977.32,528Z"/><path class="cls-2" d="M1162.28,533.71a36.12,36.12,0,0,1,.71-4.24s3.1.44,3.8-.35,0-1.06-.35-1.68-2.48-2-2.12-3.1,1.06-10.69-.53-14.41-1.59-4.42-4-7.33a37,37,0,0,1-4.07-6.72,18.6,18.6,0,0,1-1.94-2.92c-.53-1.24-1.15-2.12-2-4s-.44-2.56-1.5-4.24-1.59-2.56-2.65-3.27-5.75-2.65-5.75-2.65,2.74-21.93,3.45-23.08,7.87-15.64,8.13-16.26-5.21-4.42-5.39-5,2.65-11.58,3.71-13.52,7.08-10.35,8.14-18.66,1.06-11.58,1.32-12,3.18-6.54,4.07-7.07,4.24-2.39,4.68-2.83,1.6-1.95.71-2.48-4-.26-6.19.71-5.65,2.21-6.27,2.65-1.59-.53-.62-2.38,8.57-12.56,9.28-13.53,1.94-2.56.27-4.07-4.42,3.36-5.4,3.89-2.56,2.83-3.27,3.63-5.21,5.13-5.92,6l-1.42,1.77s.45-5.92,1.33-7.34,6.28-11.76,6.54-13.35-.09-2.56-1.94-2.38-3.18,2.91-4.25,4.59-5,7.87-6,8.93-1.77,1.77-1.94,3a17.44,17.44,0,0,1-.53,2.65c0-.27-1.06-2.74-.89-4.07s.8-5.39,1.06-6.45,1.6-4.6,1.6-5.48,1.29-4.29-2.72-3.52c-1.89.37-2,3.83-3.28,6.12s-1.37,5.29-2.1,7.11-1.46,3.47-.91,5.48a47.17,47.17,0,0,1,1.64,7.11c.28,2.47.46,7.3.46,9.4s.27,8.31-.18,13.6-.46,8.3-1.19,9.4a33.15,33.15,0,0,0-3.83,7.93c-1.37,4.11-2.83,8.58-2.83,8.58a4.52,4.52,0,0,0-2.83,3.19c-.55,2.47-7.21,16.06-8.3,18.07s-3.11,7.12-3.84,8.3a43.11,43.11,0,0,0-2.82,6.57c-.19.91-5.48,8.67-7.12,10.4s-7.57,6.48-7.3,6.39,1.28,2.1,1.46,3.65-.46,3.1.09,4.84a22.4,22.4,0,0,1,.73,2.82,48.09,48.09,0,0,0-3.1,13.87c-.82,8.76-1.19,11.77-1.19,12.87s-.09,2.92-.09,2.92a29.76,29.76,0,0,0-4.38,6.11,100.7,100.7,0,0,0-14.19,13.46h84.51A32.32,32.32,0,0,1,1162.28,533.71Z"/><path class="cls-2" d="M1381.26,529.63c-.94-4.53-4.34-17.16-6.41-22.81s-15.46-26-17.15-30.73-8.3-16.77-8.3-17.9-1.13-.57-.94-1.14-2.83-2.82-2.45-7.72,4-15.65,4-17.91-1.32-3-1.51-4.71,0-4.9-.19-7.17a13.5,13.5,0,0,0-1.88-5.46c-1-1.89-4.15-8.67-4.34-10.37s-3-2.07-4.9.75l.19,2.64a2.29,2.29,0,0,0,0,3.21l.19,6.22s-1.7-5.85-4.15-5.09-2.26,4.9-1.51,9.05.76,6.41.19,8.1-1.7,3.77-2.07,4.71-.57,2.45-1.13,3-5.47,2.45-6.41,2.83-4.15,0-4.15,0-8.67-7.54-13.38-7.54-5.28,2.07-5.28,2.07,3.77,2.83,5.09,5.28,3.39,2.64,4.71,4,4,3.77,4.53,5.09,4.71,5.27,7.54,6,6.59,4.71,6.78,6.41a8.74,8.74,0,0,0,.94,3l-.94,1.32s2.26,3,3.21,4.72,1.88,9.61,2.45,10.93,1.5,3.77,1.32,4.71.94,4.52.94,5.47.37,5.28.19,9.42a93.94,93.94,0,0,0,0,10.56c.18,1.32-2.45,1.88-1,5.28s2.64,3.77,2.45,6.59-3.2,5.09-2.26,6.6a24.67,24.67,0,0,1,3,5.84c.56,2.08.19,5.47-.38,6.41h44.32A107.28,107.28,0,0,0,1381.26,529.63Z"/><path class="cls-1" d="M655.39,542.69c1.42-3.54,15.91-15.91,20.15-18.38s4.59-2.83,7.06-3.18,11-6.71,12.37-7.07,12-6.71,12-6.71.4-8,.91-9.11a9.26,9.26,0,0,1,1.33-2,10,10,0,0,1-.41-2.25c.1-.4-6.23-12.25-6.64-14.6a3.5,3.5,0,0,1-2.76,2.15c-1.94.1-4.39-2.56-5.2-4.39s-3.17-7.56-3.17-9.7a3.22,3.22,0,0,1,2.76-3.47,4.81,4.81,0,0,1,2.55.1,33.34,33.34,0,0,1-1.84-8.17c-.2-3.78-1-9.09-1.32-9.09s-25.41-11-32.74-14.63c-.14,1.58-.49,4.81-1.21,8.79-1,5.71-2.6,7.66-7.53,10.77s-2.2,7.26-2.2,7.26l2.07.78c2.08.78.65,2.6.78,3.11s.39,4.15,1,6.75-1.82,9.21-1.82,9.21a58.27,58.27,0,0,0,.65-7.66c-1.29,1.17-2.72,9.6-2.72,9.6-3-2.59.13-10.11.13-10.11-1.3,1.42-1.82,5.57-1.82,5.57-.65-1.68.39-3.76,1.17-5.7s0-5.32-1.56-7.27,1.17-4,1.17-4c-2.33-6,3.37-8.3,7.52-12.71,3.39-3.59,3.58-11.84,3.54-14.76-.52-.27-.91-.48-1.09-.6a9.56,9.56,0,0,1,1.54-1.73c.51-.31,60.44-33.39,61.46-33.9s4.09,2.35,6.64,3.37,51.15,18.68,51.87,19.4a1.63,1.63,0,0,1-.41,2.45C778.86,421.26,751,438,751,438s1.63,7.76,1.83,9.4a59.35,59.35,0,0,1,.72,6.53c-.1,1-.21,2.25-.21,2.25s2.25-1,4.4,1.43,1.22,4.18,1.22,7.14.61,5.62.31,6-2.35,5.41-5,5.31-3.37-.82-3.37-.82-1,2.65-1,3,4.9,6.84,6.13,9.19,4.49,4.8,5.1,5.61,2.76,0,2.76,0,11.23-2.75,13.58-2.34c0,0,9.19-3.47,10.72-4s4.7-1.73,5-2.55,1.64-4.29,1.43-5.1-2-2.15-1.43-5.92a26.69,26.69,0,0,1,2.76-7.56,81.31,81.31,0,0,1,9.7-1c3.47,0,7.56,1.94,9-1.84s4.18-14.8,5.92-17.56,8.68-11.95,8.06-14.81-.1-11.53,0-16c0,0-3.67.92-4.08-7.24s.41-14.61-.82-15.73-5.51-5.21-5.82-7.35-.1-9.29-1.12-11.33-1.22-6.33-2-7.56a51.57,51.57,0,0,0-7.46-6.94,28.05,28.05,0,0,1-4.59-4.8c-.41-.41-1.33-2.66-.82-6.64s-.51-5.72-.3-6.23,1-1.32.81-1.83-2.85-4.8-2.55-7.25,5.72-2.86,6.94-1.64L808,331s4.19-2.15,5.41-2,4.7-.21,6.23.92a10.82,10.82,0,0,1,2.45,2.55s3.27-1.23,4.8-.61,3.16,2,3.57,1.94,3.27.1,4.39,1,2.66,5.2,3.17,7.35,1.51,9.86,1.51,9.86,4-1.1,8.08,8.81a47.44,47.44,0,0,0,10.28,8.08c5.87,3.3,22.76,9.91,28.63,26.8S896,421,898.6,423.58s12.48,18,17.62,32.31a161.83,161.83,0,0,0,9.91,22.76s5.51.74,6.24,4-.73,17.25.74,22.76,4.4,12.12,5.51,15.05.73,11,0,13.22c-.4,1.2-.48,5.76-1.23,10.09H654.92C655.11,543.38,655.27,543,655.39,542.69Z"/><path class="cls-1" d="M412.89,528.6c12-2.39,18.38-4.07,18.38-4.07s0-2.12,3.26-2,7.07.09,7.07.09l1.24,1.15s7.77-.8,8.83-.53,1.24-4.86,1.33-5.48-.8-.35-.8-.35,4.95-8.84,5.75-9.45a16.58,16.58,0,0,0,1.67-1.59s.18-5-.61-5.84-3.27-8.3-3-8.74-1.59,1.41-3.18.7-2.47-4.15-2.56-4.85,0-3.1-.53-4a5.13,5.13,0,0,1-.44-3.44c.26-1,1.77-4.6,2.21-4.69s-.18-1.76-.18-2.74a12.84,12.84,0,0,0-.79-3.26,12,12,0,0,1,.17-3.1,7.58,7.58,0,0,0-.09-2.82c-.26-.71.45-3.18.45-3.18l.53-1.59-2,2.12.53-1.95c.18-.62-.79-.62-.79-.62l.88-1.59s2.74-5.56,3.18-6,1.42-2.74,2.3-3.18a27.18,27.18,0,0,0,4.86-3.8c.44-.71.26-1.77,1.32-2.39a18.17,18.17,0,0,1,3.89-1.76,37.75,37.75,0,0,1,6.45-1.68c1.85-.27,5.39,0,6.45-.09s-.62-2.48-4.68-1.86c0,0,3.44-1.41,8.3,1.42,0,0,4.24.44,4.51.44s-.8-1.06-3.36-1.86a10.36,10.36,0,0,1,7.42,3.89s2.47,4.06,3,4.06.18-2.12.18-2.12,2.21,2.83,2.65,2.92a20.5,20.5,0,0,1,3.18,2.38c.71.62,1.24.36,1.77,1.77s1.15.27,2.12,1.59,2.21,2.12,2.56,3.27a9.13,9.13,0,0,1,.71,2.56,4.38,4.38,0,0,0,1,2.65c.79,1.42,1.68,2.92,1.24,3.71a11.46,11.46,0,0,0-1.15,3,6.75,6.75,0,0,1-.71,2.21,20.47,20.47,0,0,0-1.24,5.56,4.16,4.16,0,0,1-.44,1.86,7.14,7.14,0,0,1,2,4.24c.08,2.38-.89,4.15-.8,6.36s.53,3.35-.35,4.24a8.79,8.79,0,0,1-3.18,1.68,15.5,15.5,0,0,1-1.95.44,32.59,32.59,0,0,1-1.85,4.68c-.62.88-1,4.24-1.77,5.39s-.88,5.65-1.15,6.36a13.09,13.09,0,0,0-.44,1.59s1,1.15,1.15,1.41,2.38,8.93,2.65,10.87-.44,1.94-.44,1.94,1.23,1.33,1.94,1.15,9.54-7.24,12.46-7.95,5.47-2,5.39-3.09.17-5.39.26-6.27,5-11.22,5.83-13.25.89-3.45,1.95-4,3.18-1.24,4.59-.8,3.18,1.06,4.24.71,5-3.44,7.77-4.15,4.24-1.06,5-1.59,11.31-16.08,13.52-18.64,8.66-14.49,9.89-16,5-7.25,5.75-7.6,1.76-2.38,2.82-2.83,5.39-8.39,5.92-11.3a47.56,47.56,0,0,0,1.06-8.13c-.09-1.77.62-6.27.62-7.33a23.15,23.15,0,0,1,.26-2.74l6.28-.44s1.68-7.69,2.47-10a12.66,12.66,0,0,1,3.89-5c.55-.47,1.59-1.51,2.65-2.36q-.43-1-.81-2c-3.53-10-2.16-29.65.4-33.38l9.62-2.94s.19-17.67,2.55-21.6L627,340c-1-12.7.84-24.79,9.74-28.69,18.92-8.31,13.44,13.44,20.63,21.25a2.68,2.68,0,0,1,4.31,1.06c.71-.19,2.33-.11,5.41,2.4,4.46,3.63,5.23,6.31,6.88,8s2.3,4.15,3.45,4,2.1,1,2.36,3.7c0,0-1-2.68-3-3a4,4,0,0,1,1.47,3.38c-.32,2-.83,1.91.25,3.51a3.1,3.1,0,0,1-1.53-3.45c.57-2.36-1.34-3.25-2.49-3.95s-3.12-1.15-3.56-1.78,2.61,3.69,2.86,6.63.13,4.9.83,5.29a4.74,4.74,0,0,1-1.78-3.89,11.29,11.29,0,0,0-2.49-6.12,25.12,25.12,0,0,1-1.62-2.19c.21.72,1.21,5,1,7.22,0,0-.31,3.51.39,4a3.78,3.78,0,0,1-1.34-3.19c0-2.29-.64-6.24-1.21-7.2a14.66,14.66,0,0,0-2.3-2.49,16.91,16.91,0,0,1-2.61-3.31c-.53-.87-1.93-2.86-2.64-4a2.9,2.9,0,0,1-.84.14,2.7,2.7,0,0,1-2.7-2.71,2.66,2.66,0,0,1,.21-1.05c-.34-.28-.69-.59-1-.94-2.58-2.58-5-20.94-10-21.45s-11.84,1.71-13.21,4.8-5.15,6.18-4.46,17c.18,2.83.48,5.6.82,8.19l30.53,19L656,420.76l-22.57-12s-11.39.79-12.76,5.5a58.81,58.81,0,0,1-4.27-5.65,4.87,4.87,0,0,1-2,0c-2-.59-3.14,1.76-3.73,3.14s-.19,6.87-.19,6.87-3,10.21-2.56,10.4-1.76,12.37-1.57,13.16-.58,5.3-.58,5.3,3.92,0,6.67.2a12.72,12.72,0,0,1,5.5,2.15,42.62,42.62,0,0,0-4.32,6.68c-2.75,4.91-5.3,6.09-4.91,10.21a24.11,24.11,0,0,1,.2,5.1S603,479.07,600.23,482a52.46,52.46,0,0,1-7.85,6.48c-1.38,1-3,13.15-8,24.15s-9.62,18.65-12,21.2-3.93,4.51-8.05,8.64c-.39.39-.81.84-1.26,1.33H391C396.47,537.82,404.55,530.25,412.89,528.6Z"/><path class="cls-1" d="M25.2,195l-.61-.9S24.84,194.38,25.2,195Z"/><path class="cls-1" d="M124.84,542.8c.34-3.18,1.81-8.63,1-11.24s-4.88-9-5.11-10.21-1.48-9.08.23-11.13-3.75-2.72-3.52-3.63,3-3.75,2.72-5.79-1-5.45-1.47-7.38-1.48-5.67-1.25-7.26-.57-2.39-1.25-4a25.23,25.23,0,0,1-1.59-4.32c-.68-2.38-.91-3.18-2-4.31s-5.34-8.4-6.13-10.9-1-6.92-2.39-8.74-5.79-6.24-5.79-9.42,1-8.17.69-8.85-1.82-6.25-2.5-8.63-2.5-7.95-2.16-10,1.36-4.88.8-6.47-2.16-5.79-3.07-6-4.31-2.72-5.11-4.42-2.61-5.79-2.83-8.29-1.82-7.26-2.84-8.17-2.61-1.25-3.75-2.84-5.33-12-5.33-15.66-1.71-8.86-1.93-9.65-8.4-19.3-8.74-20.66A6.61,6.61,0,0,0,59,331c-1.36-.91-7.72-5.33-8.74-6.7s-1.82-2.83-1.48-3.51.23-3.41.8-4.2.34-3.3.79-3.75.12-1.93,1.14-2,1-.8,1.25-1.14,1.93-1,2.38-1.59-.23-1.59-.23-2.5,1.37-4.19.57-5.1-2.84-2.73-2.84-2.73-6.49-18.81-10.08-29.68c-5-4.61-16.43-18.34-18.37-21.73-2.12-3.71-1.45-9.53-.79-11.91a63.26,63.26,0,0,1,4.33-9.52,4.08,4.08,0,0,1-1-7.56.71.71,0,0,1,.11-.12,28.06,28.06,0,0,0-.27-3.71c-.26-1.72,0-2.38.93-8.47A15.37,15.37,0,0,0,25.2,195l2.43,3.6c.13-.79,1.06-2.38,2-5s3.3-6.35,6.74-7.54a9.71,9.71,0,0,0,5-4.23c1.46,1.72.13,4.1.13,4.1a4.32,4.32,0,0,1,5.16-.27c-2.11-.26-4.23,3.58-4.23,3.58,3.18-3.58,4.9-1.2,4.9-1.2-2.12-.52-3.71,3.18-3.71,3.18,2,.26,3.71-1.72,3.71-1.72.26,1.85-3.58,3.31-3.58,3.31,4.11.53,4.77-1.59,4.77-1.59.66,2.25-3.31,2.65-3.31,2.65-3.82-.39-7.07,3.62-8.6,5.9a7.43,7.43,0,0,1,4.23-1.54c-4.23.27-5.82,8.07-5.82,8.07,1.85-3.57,4.1-4.1,4.1-4.1-1.72.4-4.1,5.82-5,7.28s-2,5.43-2.38,7.41a8.47,8.47,0,0,1-.3,1.07A4.07,4.07,0,0,1,29,225a5.16,5.16,0,0,1-1.23,2.55c-1.58,1.59-3.17,6.08-3.57,9.92s1.59,10.19,6.88,16.54a137,137,0,0,0,10.46,10.9c-.54-1.67-1-3-1.15-3.71C39,256.19,28.24,227,28.24,227s12.83,17,14.64,17.59,6.93-1.59,8.4-1.7,15-5.11,15.55-5.11,13.62,17.25,15,20.32,6.58,17.59,6.58,17.59,4.88,4.88,4.43,6.7-4.66,5.11-4.66,5.11a65.53,65.53,0,0,0-9.42,2c-3.18,1.14-7.38,4.43-10.44,4.54s-8.52,2.72-8.52,2.72l3,9.09s.79-1.71,2-.69,2,3.86,2.61,4.09,4.65,3.18,5.56,3.41a5.06,5.06,0,0,1,3.75,3.17c.79,2.27,1.13,7.38,1.25,9.65s-.12,3.29,1,5.9,9.08,20.66,9.08,20.66,66.4,18,73.1,21.57,17.93,13.39,18.05,19.18-1.93,13.51-2.5,15.21-2.5,6.93-2.16,8.29,1.14,2.16,1.25,3.29-.11-5.33,2.61-10.67,4-9,4.88-8.51,2.05-1.93,2.39-2.95,1.13-2.73,3.06-2.39,2.95.46,4.2-.34,1.7-1.59,3.29-1.13a27.45,27.45,0,0,0,3.75,1c1.47.23,7.6-.11,9.31.68s2.49,1.36,3.86,1.93l4.18,1.73s3.88.36,5.65,1.41a76.31,76.31,0,0,1,8.47,7.06c1.76,1.77,2.82,1.06,4.58,3.18s2.47,5.29,2.83,7.41-.71,3.88.7,7.05,2.12-.7,1.41,3.18,0,4.94,1.06,7.41-.35,2.47-1.06,5.65-.35,6-2.11,7.41a35.76,35.76,0,0,0-3.88,3.88s2.11,2.11-.36,6.35-4.23,7.76-6,8.82-9.88,2.82-9.88,2.82,1.77,1.41,7.41,2.47,21.53,2.12,23.65,3.18,12.7,0,14.11,4.23,5.29,7.06,3.88,11.65a39.33,39.33,0,0,0,11.29-2.47c2.88-1.24,7.08-3.67,10.43-5.34,2.58-8.48,9.71-13.86,12.29-19.24,3.16-6.61,4.89-12.08,4.31-13.52s-6-4.89-5.18-8.63c.1-.39.23-1.53.36-2.86a1.61,1.61,0,0,1-.29-.21c-2.25-2.12-2.16-6.85-1.72-7.67a3.34,3.34,0,0,1,2.74-1.45,5.34,5.34,0,0,1,1.79-3c1.16-.9,12.94-1.73,15,2.59,0,0,2.3,8.05,1.72,11.5s1.15,6.33-.28,9.78-4,25.6-6,30.49c-1.32,3.2-2.4,9.1-4.35,13.53,1.85,2.41,3,4.53,3.21,6.66.34,4.2,3.07,15.32,3.52,17s1.59,3.18.8,4.66-3.52,5.67-3.63,6.81,3.29,1.7,2.27,3-5.45,6.47-7.16,8.51c-.37.44-.88,1-1.47,1.66H124.74C124.78,543.43,124.81,543.06,124.84,542.8Z"/><path class="cls-1" d="M528,80.09c2.11-1.86,3.24-2.94,3.24-2.94A16.39,16.39,0,0,1,528,80.09Z"/><path class="cls-1" d="M432.14,183.09l.08,0Z"/><path class="cls-1" d="M433.88,178.29c-.29-4.21,2.52-6.15,4-7.11s8.86-6.59,9.44-7.61c.43-.74,4.43-2.51,6.59-3.89a6.19,6.19,0,0,1,3.86-8.43,12.68,12.68,0,0,1,.09-1.91c.9-7.82,7.49-18.31,14.69-23.38,7.59-5.34,6.49-9.83,6-11-2,1.12-4.09,2.22-6.2,3.3-34.18,17.52-52.27,22.4-52.27,22.4l27-13.21,1.43-9.19L434.41,92.08l14.07-9.19,5.75,4.88-.29-7.46S468,67.67,482.66,70.25c0,0,14.37,22.41,13.5,31,0,0,23-14.42,31.8-21.18a289.13,289.13,0,0,1-47.35,33.67c.63,1.39,2,6.48-7.23,13-7.28,5.12-13.11,16.79-13.84,23.13a6.71,6.71,0,0,0,0,1.09h0a6.19,6.19,0,0,1,3.54,11.28,11.77,11.77,0,0,1-2.23,4.66c-3.63,4.64-10,10.31-13.55,14.37s-1.16,7.12-.1,9.25a7.09,7.09,0,0,1-2.13-3.73,13.59,13.59,0,0,1,.44-6.1,9.65,9.65,0,0,0-1.94,7.94c1,4.7-.05,3-1.16,5,0,0,1.31-2.52.58-4.31a14.25,14.25,0,0,1-.1-7.94c.78-2.08,1.84-5.08,1.89-5.23s-7.16,3.78-7.84,8.52S434.8,190,434,190.59c0,0,2.91-6.73,2.86-9.73s.58-4.55,2.37-6.34c0,0-4.06.72-4.55,4.69-.46,3.76-1.91,3.66-2.48,3.84C432.61,182.88,434.13,182,433.88,178.29Z"/><path class="cls-1" d="M793.53,232.46c-2.71.64-3-1.43-3-1.43L795,225s8.82-.63,12.25.56,2.85.12,2.85.12a4.47,4.47,0,0,0-2.61-2.75c-2.22-1-3.62-3.59-5.1-5.28s-5.24-6.05-6.52-5.35-10.7,3.32-13.08,4.06-5.44-2.32-9.1-3.94-19.22-9.28-20.66-9.88-6.45-3.17-8.09-3.11c0,0-2.72,16-5.52,32.36-5-7.78-9-18.22-6-29.45C736.26,192.1,736.7,186,736,182l.23-.12a7.32,7.32,0,0,0,2.94-9.93,8.42,8.42,0,0,0-.77-1.14c.21-1.1.4-2.3.54-3.58.49-4.63-.43-4.89-1.74-8.12s-1.6-4.58-2.81-6.6a21.08,21.08,0,0,1-2.35-6.36c-.47-2.09-1.52-3.62-2.25-5.57a20.86,20.86,0,0,1-.76-5.71,30.54,30.54,0,0,0-.75-4,8.87,8.87,0,0,0-2-2.79s.27,1.11,1,4-.19,2.53-.54,3.73a6.2,6.2,0,0,0,.3,4,62,62,0,0,1,1.26,8.88,37.84,37.84,0,0,0-1.82-6.22,23.76,23.76,0,0,1-.64-7.12c.06-2.13-1.27-6-2-6.31s-3.79,1.23-3.79,1.23a43.56,43.56,0,0,1,0,4.88c-.17-.33-.87-4.48-.87-4.48l-1.27.53s-1.45.62-1.25,1.6,4.86,9.35,4.86,9.35l-.51.7c-.23-.22-1.36-.86-2.27-4a14.26,14.26,0,0,0-3.88-5.69,22.53,22.53,0,0,1,2.07,4c1.11,2.67.24,3.31,1,5.33a23,23,0,0,0,3.46,5,19,19,0,0,1-3.87-2.65,7.88,7.88,0,0,1-2.79-6c-.54,1.89-2,2.27,1.82,5.39s11.72,12.33,10.88,21.84a44.3,44.3,0,0,0-.19,4.46,7.32,7.32,0,0,0,6.95,12.08,31.93,31.93,0,0,1-.93,13.36c-3.58,12.7-4.13,21.88,5.92,36.64-1.92,11.25-3.85,22.57-4.95,29-2.72,15.93.63,18,3.76,20.19s29.76,19.94,37.82,19.44l3.3-21.53s6.7-2,10.49-6.26,8-9.35,9.75-11.7,6-7.42,7.53-9.66S811.32,235,811.9,233a6,6,0,0,1,1.54-2.79S796.24,231.82,793.53,232.46Z"/><path class="cls-1" d="M585.67,112.5c-1.3-15.18-.87-17.35-.87-17.35s-7.58-3-11-2.6c0,0-5.21-20.39-5.86-23s-1.73-4.12-2.17-1.3c0,0-19.31,9.25-35.72,17.55-11.91-13.1-7-21.15-3.58-24.46a2.24,2.24,0,0,0,1.8.91A2.26,2.26,0,0,0,530.48,60a2.42,2.42,0,0,0,0-.25,15.52,15.52,0,0,1,4.26-3.14c2.45-1,8-9.68,7.08-9.19A5.94,5.94,0,0,0,539.88,50c-.07.28-6.89,5.33-6.89,5.33a22.37,22.37,0,0,0,1.72-1.76,8.79,8.79,0,0,0,1.66-2.8c.33-.91,2.18-2.25,3.31-2.88s1.06-2.73,1.06-2.73a15.54,15.54,0,0,0-2.52,1.82c-.66.63-1.59,1.61-2,2a11.36,11.36,0,0,1-1.86,1.19,32.3,32.3,0,0,0,2.52-3c1.79-2.1,2.84-2.24,2.78-2.45s-1.26-2-1.26-2a6.79,6.79,0,0,0-2.18.42c-.6.36-.6,1.76-1.19,2.67s-2.72,3.65-2.72,3.65c.07-.49-.53-1.9.4-2.32s2.18-4,2.18-4-2.64,3.09-3.31,4.14-.86,2.88-1.12,4.49a8.9,8.9,0,0,1-2.18,4.35,4.15,4.15,0,0,0-.85,1.77A2.24,2.24,0,0,0,526,60a2.2,2.2,0,0,0,.1.64c-4.07,2.48-4.52,7.83-4.89,11.31-.23,2.2,3.52,8.28,7.82,14.37-11.25,5.71-20.9,10.86-21.6,12.08-1.73,3-.43,3.91-.43,3.91l2.38,9.32s14.75,56.6,15.83,60.07c0,0,.44,1.73,3.69-.66s32.53-15.82,37.3-19.08,19.08-9.54,19.08-9.54l-1.74-7.59S587,127.68,585.67,112.5Z"/><path class="cls-1" d="M1010.41,90.27c1.31-2.73,1-4.14,1-6.76s1.2-5.67.87-8.5,1.2-11.78,1.2-11.78a16.55,16.55,0,0,0-2.83,5.35,17.84,17.84,0,0,0-1.1,7.19c.33,2.51-1.41,10.36-1.41,10.36,1-3.82,0-6.54.11-8.94s.54-7.74,1.41-9.81,2-4,2-4l-3-1.63a11.39,11.39,0,0,0-2.83.43c-.55.33-1,3-1.09,4.36a70.49,70.49,0,0,1-2.07,7.42s.43-2.73,1-5.13,1.2-6.65,1.2-6.65-2-.65-1.86-.32-2,4.47-2.18,6.54-2.83,4.36-3.92,8.06.33,13.63.33,13.63c-1.42-2-2.51-10-2.51-10,.11,1.53-.22,7.09,1.42,10.25s1.2,7,.32,10.36A29.68,29.68,0,0,0,996,108a4.1,4.1,0,0,0-1.37,7.35.36.36,0,0,0,0,.09c-2.33,4.94-12.34,15.56-22.94,23.2-7.61,5.48-13.23,14.72-16.17,20.11-1.82-8.46-8-38.91-8.68-41.21l-16,5.07,2.29,2.45,2,11.78s-17.49,2-19.13,2.45-5.07,2.62-6.38,3.11-11.11,7-9.64,7.52a16.48,16.48,0,0,1,4.58,2.45c.32.49.16,5.89,1.3,8.51s1.8,8.17,2.46,10.3a49.86,49.86,0,0,0,3.27,7.19c.65,1.15,3.1,5.4,3.43,7s2.13,6.71,2,8.67-.49,9,.82,10.14,3.43.33,3.43.33l1.64,2.45s6.87-1.47,9.32-1.8,16.35-3.27,16.35-3.27,1.31,7.36,1.31,8.83-.16,4.25-.16,4.25l15.86-.33s.82-5.56,0-8.5-8.22-39.79-9.36-44.77a59.6,59.6,0,0,1,7.4-12.63c6.21-8.17,14.39-13.73,19.29-17,4.52-3,12.09-14.07,13.25-15.79a4.54,4.54,0,0,0,1,.13,4.11,4.11,0,0,0,4.09-3.85c1.75-1.79,4-4.4,4.08-5.18a57.06,57.06,0,0,1,1.86-8.94c1-3,11.55-13.85,11.55-13.85C1014.44,86.13,1009.1,93,1010.41,90.27Z"/><path class="cls-1" d="M1064.79,218l-6.42-14.78-51.19,26.87s10,22.9,15.44,35.43c-3.28,5.45-5.24,11.76-3.59,18.31,3.56,14.22,7,27.83,8,35a4.91,4.91,0,0,0-2.93,7.44c-.66,3.41-1,9.51,3.54,14.14,6.44,6.61,19.09,11.93,24.47,19s11.27,11.84,13.31,12.8L1055,359.91s10.31,10.89,14.16,8.74l2.34-3.65s-5.58-3.62-9.44-6.18c0,0,7.61,3.29,10.4,4.14l2.23-4.39s-.88-3.09-5.76-5.3a18.86,18.86,0,0,0-2.72-1c-7.28-2.12-14.35-3.6-16.28-5.31,0,0,16.28,2.74,20.78,5.29,0,0-9.33-6.71-16-8a24.5,24.5,0,0,1-11.79-5.74c-.86-.86-3-5.77-5-7.8-1.28-1.27-3.3-3.61-5-5.48a4.91,4.91,0,0,0-4.63-6.58,9.7,9.7,0,0,0-.55-2.36c-1.08-2.78-7.82-36.16-6.77-41.52a22.06,22.06,0,0,1,2.83-6.7c.6,1.37,1.11,2.54,1.49,3.43,3.64,8.41,10.91,25,11.15,25.48s9.62-3.88,14.3-6.18S1087.83,273,1087.83,273l-5.22-12.62s3.71-8.08,2.36-16.14-9.7-24.28-12.72-26.07Z"/><path class="cls-1" d="M427.83,182.63A2.11,2.11,0,0,0,425.1,181s-19.05,5.47-37.15,10.61a79,79,0,0,1,8.5-16.61,3.58,3.58,0,0,0,5.34-3.16,3.67,3.67,0,0,0-.32-1.48,50.07,50.07,0,0,0,4-3.46c2.47-2.39-.09-5.21,1.23-7.06s2.83-3,4.33-5.21,3.44-4.59,5.2-7.67.89-8,.89-8c-1.15,5.47-3.8,7.58-3.8,7.58,1.5-1.67,2.91-8,2.91-8l-1.32-1.32c-2.29,1.5-7,12.53-6.53,11s2.12-5.91,3.09-7.15a34.78,34.78,0,0,0,2.56-4.67l-2.3-1.77-1.67,2.65s1-2.74.61-3.35a2.85,2.85,0,0,0-1.32-1s.44-.62-.7.79-2,7.32-2,7.32c-1-3.26.35-8.47.35-8.47a17.4,17.4,0,0,0-1.68,8.47c.18,3.09-2.65,8.12-2.65,8.12-.7,2.91-2.11,6.44-2.64,8a10,10,0,0,0-.18,4.24,5,5,0,0,1-1.06,3.44,12.2,12.2,0,0,0-1.2,3.41,3.61,3.61,0,0,0-1.38,6.59A61,61,0,0,0,386.57,192c-13,3.69-25.17,7.12-29.21,8.15-9.81,2.51-14.6,5-14.6,5,3.19,26.91,14.83,73.21,14.83,73.21,2.28-2.05,23-7.07,24.17-7.07s5.93,1.14,6.84.91,1.83,1.14,13.69-1.36,16.65-10.5,16.65-10.5c3.19-.91,23.94-7.29,23.94-7.29S428.52,184.91,427.83,182.63Z"/><path class="cls-1" d="M1275.18,542.69c-1.41-3.54-15.9-15.91-20.14-18.38s-4.59-2.83-7.06-3.18-11-6.71-12.37-7.07-12-6.71-12-6.71-.4-8-.91-9.11a9.26,9.26,0,0,0-1.33-2,10,10,0,0,0,.41-2.25c-.1-.4,6.23-12.25,6.64-14.6a3.48,3.48,0,0,0,2.75,2.15c1.94.1,4.39-2.56,5.21-4.39s3.17-7.56,3.17-9.7a3.22,3.22,0,0,0-2.76-3.47,4.81,4.81,0,0,0-2.55.1,33.34,33.34,0,0,0,1.84-8.17c.2-3.78,1-9.09,1.32-9.09s25.41-11,32.74-14.63c.14,1.58.49,4.81,1.21,8.79,1,5.71,2.6,7.66,7.53,10.77s2.2,7.26,2.2,7.26l-2.07.78c-2.08.78-.65,2.6-.78,3.11s-.39,4.15-1,6.75,1.82,9.21,1.82,9.21a58.27,58.27,0,0,1-.65-7.66c1.29,1.17,2.72,9.6,2.72,9.6,3-2.59-.13-10.11-.13-10.11,1.3,1.42,1.82,5.57,1.82,5.57.64-1.68-.39-3.76-1.17-5.7s0-5.32,1.56-7.27-1.17-4-1.17-4c2.33-6-3.37-8.3-7.52-12.71-3.39-3.59-3.58-11.84-3.54-14.76.52-.27.91-.48,1.09-.6a9.56,9.56,0,0,0-1.54-1.73c-.51-.31-60.44-33.39-61.46-33.9s-4.09,2.35-6.64,3.37-51.15,18.68-51.87,19.4a1.63,1.63,0,0,0,.41,2.45c.82.51,28.69,17.25,28.69,17.25s-1.63,7.76-1.83,9.4a59.35,59.35,0,0,0-.72,6.53c.1,1,.2,2.25.2,2.25s-2.24-1-4.39,1.43-1.22,4.18-1.22,7.14-.61,5.62-.31,6,2.35,5.41,5,5.31,3.36-.82,3.36-.82,1,2.65,1,3-4.9,6.84-6.13,9.19-4.49,4.8-5.11,5.61-2.75,0-2.75,0-11.23-2.75-13.58-2.34c0,0-9.19-3.47-10.72-4s-4.7-1.73-5-2.55-1.63-4.29-1.42-5.1,2-2.15,1.42-5.92a26.49,26.49,0,0,0-2.75-7.56,81.31,81.31,0,0,0-9.7-1c-3.47,0-7.56,1.94-9-1.84s-4.18-14.8-5.92-17.56-8.68-11.95-8.06-14.81.1-11.53,0-16c0,0,3.67.92,4.08-7.24s-.41-14.61.82-15.73,5.51-5.21,5.82-7.35.1-9.29,1.12-11.33,1.22-6.33,2-7.56a52,52,0,0,1,7.45-6.94,27.84,27.84,0,0,0,4.6-4.8c.41-.41,1.33-2.66.82-6.64s.51-5.72.3-6.23-1-1.32-.81-1.83,2.85-4.8,2.55-7.25-5.72-2.86-6.94-1.64l-1.23,1.23s-4.19-2.15-5.41-2-4.7-.21-6.23.92a10.82,10.82,0,0,0-2.45,2.55s-3.27-1.23-4.8-.61-3.16,2-3.57,1.94-3.27.1-4.39,1-2.66,5.2-3.17,7.35-1.51,9.86-1.51,9.86-4-1.1-8.08,8.81a47.44,47.44,0,0,1-10.28,8.08c-5.87,3.3-22.76,9.91-28.63,26.8s-9.55,25.33-12.12,27.9-12.48,18-17.62,32.31a161.83,161.83,0,0,1-9.91,22.76s-5.51.74-6.24,4,.73,17.25-.74,22.76-4.4,12.12-5.51,15.05-.73,11,0,13.22c.4,1.2.48,5.76,1.23,10.09h282.47C1275.47,543.38,1275.3,543,1275.18,542.69Z"/><path class="cls-1" d="M1517.69,528.6c-12-2.39-18.38-4.07-18.38-4.07s0-2.12-3.27-2-7.06.09-7.06.09l-1.24,1.15s-7.77-.8-8.83-.53-1.24-4.86-1.33-5.48.8-.35.8-.35-5-8.84-5.75-9.45a17.23,17.23,0,0,1-1.68-1.59s-.17-5,.62-5.84,3.27-8.3,3-8.74,1.59,1.41,3.18.7,2.47-4.15,2.56-4.85,0-3.1.53-4a5.13,5.13,0,0,0,.44-3.44c-.26-1-1.77-4.6-2.21-4.69s.18-1.76.18-2.74a12.84,12.84,0,0,1,.79-3.26,12,12,0,0,0-.17-3.1,7.58,7.58,0,0,1,.09-2.82c.26-.71-.45-3.18-.45-3.18l-.53-1.59,2,2.12-.53-1.95c-.18-.62.79-.62.79-.62l-.88-1.59s-2.74-5.56-3.18-6-1.42-2.74-2.3-3.18a27.18,27.18,0,0,1-4.86-3.8c-.44-.71-.26-1.77-1.32-2.39a18.17,18.17,0,0,0-3.89-1.76,37.75,37.75,0,0,0-6.45-1.68c-1.86-.27-5.39,0-6.45-.09s.62-2.48,4.68-1.86c0,0-3.44-1.41-8.3,1.42,0,0-4.24.44-4.51.44s.8-1.06,3.36-1.86a10.36,10.36,0,0,0-7.42,3.89s-2.47,4.06-3,4.06-.18-2.12-.18-2.12-2.21,2.83-2.65,2.92a20.5,20.5,0,0,0-3.18,2.38c-.71.62-1.24.36-1.77,1.77s-1.15.27-2.12,1.59-2.21,2.12-2.56,3.27a9.13,9.13,0,0,0-.71,2.56,4.38,4.38,0,0,1-1,2.65c-.79,1.42-1.68,2.92-1.24,3.71a11.46,11.46,0,0,1,1.15,3,6.75,6.75,0,0,0,.71,2.21,20.47,20.47,0,0,1,1.24,5.56,4,4,0,0,0,.44,1.86,7.14,7.14,0,0,0-2,4.24c-.08,2.38.89,4.15.8,6.36s-.53,3.35.35,4.24a8.79,8.79,0,0,0,3.18,1.68,15.5,15.5,0,0,0,2,.44,32.59,32.59,0,0,0,1.85,4.68c.62.88,1,4.24,1.77,5.39s.88,5.65,1.15,6.36a13.09,13.09,0,0,1,.44,1.59s-1,1.15-1.15,1.41-2.38,8.93-2.65,10.87.44,1.94.44,1.94-1.23,1.33-1.94,1.15-9.54-7.24-12.46-7.95-5.48-2-5.39-3.09-.17-5.39-.26-6.27-5-11.22-5.83-13.25-.89-3.45-2-4-3.18-1.24-4.59-.8-3.18,1.06-4.24.71-5-3.44-7.78-4.15-4.24-1.06-4.94-1.59-11.31-16.08-13.52-18.64-8.66-14.49-9.89-16-5-7.25-5.75-7.6-1.76-2.38-2.82-2.83-5.39-8.39-5.92-11.3a47.56,47.56,0,0,1-1.06-8.13c.09-1.77-.62-6.27-.62-7.33a22.32,22.32,0,0,0-.27-2.74l-6.27-.44s-1.68-7.69-2.47-10a12.66,12.66,0,0,0-3.89-5c-.55-.47-1.59-1.51-2.65-2.36q.44-1,.81-2c3.53-10,2.16-29.65-.4-33.38l-9.62-2.94s-.19-17.67-2.55-21.6l-11.24,7c1-12.7-.84-24.79-9.74-28.69-18.92-8.31-13.44,13.44-20.64,21.25a2.67,2.67,0,0,0-1.78-.69,2.71,2.71,0,0,0-2.52,1.75c-.71-.19-2.33-.11-5.41,2.4-4.46,3.63-5.23,6.31-6.89,8s-2.29,4.15-3.44,4-2.1,1-2.36,3.7c0,0,1-2.68,3-3a4,4,0,0,0-1.47,3.38c.32,2,.83,1.91-.25,3.51a3.1,3.1,0,0,0,1.53-3.45c-.58-2.36,1.34-3.25,2.48-3.95s3.13-1.15,3.57-1.78-2.61,3.69-2.86,6.63-.13,4.9-.83,5.29a4.74,4.74,0,0,0,1.78-3.89,11.29,11.29,0,0,1,2.49-6.12,22.68,22.68,0,0,0,1.61-2.19c-.2.72-1.2,5-1,7.22,0,0,.31,3.51-.39,4a3.78,3.78,0,0,0,1.34-3.19c0-2.29.64-6.24,1.21-7.2a14.66,14.66,0,0,1,2.3-2.49,16.91,16.91,0,0,0,2.61-3.31c.53-.87,1.93-2.86,2.64-4a2.89,2.89,0,0,0,.83.14,2.71,2.71,0,0,0,2.71-2.71,2.66,2.66,0,0,0-.21-1.05c.34-.28.69-.59,1-.94,2.58-2.58,5-20.94,10-21.45s11.84,1.71,13.21,4.8,5.15,6.18,4.46,17c-.18,2.83-.48,5.6-.82,8.19l-30.53,19,3.34,60.66,22.57-12s11.39.79,12.76,5.5a58.81,58.81,0,0,0,4.27-5.65,4.87,4.87,0,0,0,2,0c2-.59,3.14,1.76,3.73,3.14s.19,6.87.19,6.87,2.95,10.21,2.55,10.4,1.77,12.37,1.57,13.16a34.12,34.12,0,0,0,.59,5.3s-3.92,0-6.67.2a12.72,12.72,0,0,0-5.5,2.15,42.62,42.62,0,0,1,4.32,6.68c2.75,4.91,5.3,6.09,4.91,10.21a24.11,24.11,0,0,0-.2,5.1s5.89,7.27,8.64,10.21a52.46,52.46,0,0,0,7.85,6.48c1.38,1,3,13.15,8,24.15s9.62,18.65,12,21.2,3.92,4.51,8,8.64c.39.39.81.84,1.26,1.33h172C1534.11,537.82,1526,530.25,1517.69,528.6Z"/><path class="cls-1" d="M1905.38,195l.61-.9S1905.74,194.38,1905.38,195Z"/><path class="cls-1" d="M1805.74,542.8c-.34-3.18-1.81-8.63-1-11.24s4.88-9,5.11-10.21,1.48-9.08-.23-11.13,3.75-2.72,3.52-3.63-2.95-3.75-2.72-5.79,1-5.45,1.47-7.38,1.48-5.67,1.25-7.26.57-2.39,1.25-4a25.23,25.23,0,0,0,1.59-4.32c.68-2.38.91-3.18,2-4.31s5.34-8.4,6.13-10.9,1-6.92,2.39-8.74,5.78-6.24,5.78-9.42-1-8.17-.68-8.85,1.82-6.25,2.5-8.63,2.5-7.95,2.16-10-1.36-4.88-.8-6.47,2.16-5.79,3.07-6,4.31-2.72,5.11-4.42,2.61-5.79,2.83-8.29,1.82-7.26,2.84-8.17,2.61-1.25,3.75-2.84,5.33-12,5.33-15.66,1.7-8.86,1.93-9.65,8.4-19.3,8.74-20.66a6.61,6.61,0,0,1,2.5-3.86c1.36-.91,7.72-5.33,8.74-6.7s1.82-2.83,1.47-3.51-.22-3.41-.79-4.2-.34-3.3-.79-3.75-.12-1.93-1.14-2-1-.8-1.25-1.14-1.93-1-2.38-1.59.23-1.59.23-2.5-1.37-4.19-.57-5.1,2.84-2.73,2.84-2.73,6.49-18.81,10.08-29.68c5-4.61,16.43-18.34,18.37-21.73,2.12-3.71,1.45-9.53.79-11.91a63.26,63.26,0,0,0-4.33-9.52,4.08,4.08,0,0,0,1-7.56.71.71,0,0,0-.11-.12,28.06,28.06,0,0,1,.27-3.71c.26-1.72,0-2.38-.93-8.47a15.37,15.37,0,0,1,2.3-10.08l-2.43,3.6c-.13-.79-1.06-2.38-2-5s-3.3-6.35-6.74-7.54a9.66,9.66,0,0,1-5-4.23c-1.46,1.72-.14,4.1-.14,4.1a4.32,4.32,0,0,0-5.16-.27c2.12-.26,4.24,3.58,4.24,3.58-3.18-3.58-4.9-1.2-4.9-1.2,2.12-.52,3.71,3.18,3.71,3.18-2,.26-3.71-1.72-3.71-1.72-.26,1.85,3.58,3.31,3.58,3.31-4.11.53-4.77-1.59-4.77-1.59-.66,2.25,3.31,2.65,3.31,2.65,3.81-.39,7.07,3.62,8.6,5.9a7.43,7.43,0,0,0-4.23-1.54c4.23.27,5.82,8.07,5.82,8.07-1.85-3.57-4.1-4.1-4.1-4.1,1.72.4,4.1,5.82,5,7.28s2,5.43,2.39,7.41a8.47,8.47,0,0,0,.3,1.07,4.07,4.07,0,0,0,2.44,7.1,5.16,5.16,0,0,0,1.23,2.55c1.58,1.59,3.17,6.08,3.57,9.92s-1.59,10.19-6.88,16.54a137,137,0,0,1-10.46,10.9c.54-1.67,1-3,1.14-3.71,1.37-5,12.15-34.16,12.15-34.16s-12.83,17-14.64,17.59-6.93-1.59-8.4-1.7-15-5.11-15.55-5.11-13.62,17.25-15,20.32-6.58,17.59-6.58,17.59-4.88,4.88-4.43,6.7,4.66,5.11,4.66,5.11a65.53,65.53,0,0,1,9.42,2c3.18,1.14,7.38,4.43,10.44,4.54s8.51,2.72,8.51,2.72l-3,9.09s-.79-1.71-2-.69-2,3.86-2.61,4.09-4.65,3.18-5.56,3.41a5.06,5.06,0,0,0-3.75,3.17c-.79,2.27-1.13,7.38-1.25,9.65s.12,3.29-1,5.9-9.08,20.66-9.08,20.66-66.4,18-73.1,21.57-17.93,13.39-18.05,19.18,1.93,13.51,2.5,15.21,2.5,6.93,2.16,8.29-1.14,2.16-1.25,3.29.11-5.33-2.61-10.67-4-9-4.88-8.51-2-1.93-2.39-2.95-1.13-2.73-3.06-2.39-2.95.46-4.2-.34-1.7-1.59-3.29-1.13a27.45,27.45,0,0,1-3.75,1c-1.48.23-7.6-.11-9.31.68s-2.49,1.36-3.86,1.93l-4.18,1.73s-3.88.36-5.65,1.41a76.31,76.31,0,0,0-8.47,7.06c-1.76,1.77-2.82,1.06-4.58,3.18s-2.47,5.29-2.83,7.41.71,3.88-.7,7.05-2.12-.7-1.41,3.18,0,4.94-1.06,7.41.35,2.47,1.06,5.65.35,6,2.11,7.41a35.76,35.76,0,0,1,3.88,3.88s-2.11,2.11.36,6.35,4.23,7.76,6,8.82,9.88,2.82,9.88,2.82-1.77,1.41-7.41,2.47-21.53,2.12-23.65,3.18-12.7,0-14.11,4.23-5.29,7.06-3.88,11.65a39.33,39.33,0,0,1-11.29-2.47c-2.88-1.24-7.08-3.67-10.43-5.34-2.58-8.48-9.71-13.86-12.29-19.24-3.16-6.61-4.89-12.08-4.31-13.52s6-4.89,5.17-8.63c-.09-.39-.22-1.53-.35-2.86a1.61,1.61,0,0,0,.29-.21c2.25-2.12,2.16-6.85,1.72-7.67a3.34,3.34,0,0,0-2.74-1.45,5.34,5.34,0,0,0-1.79-3c-1.16-.9-12.94-1.73-15,2.59,0,0-2.3,8.05-1.72,11.5s-1.15,6.33.28,9.78,4,25.6,6,30.49c1.32,3.2,2.4,9.1,4.35,13.53-1.85,2.41-3,4.53-3.21,6.66-.35,4.2-3.07,15.32-3.52,17s-1.59,3.18-.8,4.66,3.52,5.67,3.63,6.81-3.29,1.7-2.27,3,5.45,6.47,7.16,8.51c.36.44.88,1,1.47,1.66h182.62C1805.8,543.43,1805.77,543.06,1805.74,542.8Z"/><path class="cls-1" d="M1402.62,80.09c-2.11-1.86-3.25-2.94-3.25-2.94A16.88,16.88,0,0,0,1402.62,80.09Z"/><path class="cls-1" d="M1498.44,183.09a.2.2,0,0,0-.08,0Z"/><path class="cls-1" d="M1496.7,178.29c.29-4.21-2.52-6.15-4-7.11s-8.86-6.59-9.44-7.61c-.43-.74-4.43-2.51-6.59-3.89a6.19,6.19,0,0,0-3.86-8.43,14.15,14.15,0,0,0-.09-1.91c-.9-7.82-7.49-18.31-14.69-23.38-7.59-5.34-6.49-9.83-6-11,2,1.12,4.09,2.22,6.2,3.3,34.17,17.52,52.27,22.4,52.27,22.4l-27-13.21-1.44-9.19,14.08-26.14-14.08-9.19-5.74,4.88.29-7.46s-14.08-12.64-28.72-10.06c0,0-14.37,22.41-13.5,31,0,0-23-14.42-31.8-21.18A288.66,288.66,0,0,0,1450,113.76c-.63,1.39-2,6.48,7.22,13,7.29,5.12,13.12,16.79,13.85,23.13a6.71,6.71,0,0,1,0,1.09h0a6.19,6.19,0,0,0-3.53,11.28,11.77,11.77,0,0,0,2.23,4.66c3.63,4.64,10,10.31,13.55,14.37s1.16,7.12.1,9.25a7.09,7.09,0,0,0,2.13-3.73,13.59,13.59,0,0,0-.44-6.1,9.65,9.65,0,0,1,1.94,7.94c-1,4.7,0,3,1.16,5,0,0-1.31-2.52-.58-4.31a14.25,14.25,0,0,0,.1-7.94c-.78-2.08-1.84-5.08-1.89-5.23s7.16,3.78,7.84,8.52,2.13,5.28,2.91,5.86c0,0-2.91-6.73-2.86-9.73s-.58-4.55-2.37-6.34c0,0,4.06.72,4.55,4.69.46,3.76,1.91,3.66,2.48,3.84C1498,182.88,1496.45,182,1496.7,178.29Z"/><path class="cls-1" d="M1137.05,232.46c2.71.64,3-1.43,3-1.43l-4.49-6.06s-8.82-.63-12.25.56-2.85.12-2.85.12a4.47,4.47,0,0,1,2.61-2.75c2.22-1,3.62-3.59,5.1-5.28s5.24-6.05,6.52-5.35,10.7,3.32,13.08,4.06,5.44-2.32,9.1-3.94,19.22-9.28,20.66-9.88,6.45-3.17,8.08-3.11c0,0,2.73,16,5.53,32.36,5-7.78,9-18.22,5.95-29.45-2.77-10.21-3.21-16.28-2.55-20.3l-.23-.12a7.32,7.32,0,0,1-2.94-9.93,8.42,8.42,0,0,1,.77-1.14c-.21-1.1-.41-2.3-.54-3.58-.49-4.63.43-4.89,1.74-8.12s1.6-4.58,2.81-6.6a21.36,21.36,0,0,0,2.35-6.36c.47-2.09,1.52-3.62,2.25-5.57a20.86,20.86,0,0,0,.76-5.71,30.54,30.54,0,0,1,.75-4,8.87,8.87,0,0,1,2-2.79s-.27,1.11-1,4,.19,2.53.54,3.73a6.2,6.2,0,0,1-.3,4,62,62,0,0,0-1.26,8.88,37.84,37.84,0,0,1,1.82-6.22,23.76,23.76,0,0,0,.64-7.12c-.07-2.13,1.27-6,2-6.31s3.79,1.23,3.79,1.23a43.56,43.56,0,0,0,0,4.88c.17-.33.87-4.48.87-4.48l1.27.53s1.45.62,1.25,1.6-4.86,9.35-4.86,9.35l.51.7c.23-.22,1.36-.86,2.27-4a14.26,14.26,0,0,1,3.88-5.69,22.53,22.53,0,0,0-2.07,4c-1.11,2.67-.24,3.31-1,5.33a23,23,0,0,1-3.46,5,19,19,0,0,0,3.87-2.65,7.88,7.88,0,0,0,2.79-6c.53,1.89,2,2.27-1.82,5.39s-11.72,12.33-10.88,21.84c.15,1.74.2,3.21.19,4.46a7.32,7.32,0,0,1-7,12.08,32.08,32.08,0,0,0,.92,13.36c3.59,12.7,4.14,21.88-5.91,36.64,1.92,11.25,3.85,22.57,5,29,2.72,15.93-.63,18-3.76,20.19s-29.76,19.94-37.82,19.44l-3.3-21.53s-6.7-2-10.49-6.26-8-9.35-9.75-11.7-6-7.42-7.53-9.66-4.33-17.08-4.91-19.07a6,6,0,0,0-1.55-2.79S1134.34,231.82,1137.05,232.46Z"/><path class="cls-1" d="M1344.91,112.5c1.3-15.18.86-17.35.86-17.35s7.59-3,11.06-2.6c0,0,5.21-20.39,5.86-23s1.73-4.12,2.17-1.3c0,0,19.31,9.25,35.72,17.55,11.91-13.1,7-21.15,3.58-24.46a2.24,2.24,0,0,1-1.8.91A2.26,2.26,0,0,1,1400.1,60a2.42,2.42,0,0,1,0-.25,15.42,15.42,0,0,0-4.27-3.14c-2.44-1-8-9.68-7.08-9.19A5.89,5.89,0,0,1,1390.7,50c.07.28,6.88,5.33,6.88,5.33a24.58,24.58,0,0,1-1.72-1.76,8.93,8.93,0,0,1-1.65-2.8c-.33-.91-2.18-2.25-3.31-2.88s-1.06-2.73-1.06-2.73a15.54,15.54,0,0,1,2.52,1.82c.66.63,1.59,1.61,2,2a11.36,11.36,0,0,0,1.86,1.19,32.3,32.3,0,0,1-2.52-3c-1.79-2.1-2.84-2.24-2.78-2.45s1.26-2,1.26-2a6.79,6.79,0,0,1,2.18.42c.6.36.6,1.76,1.19,2.67s2.72,3.65,2.72,3.65c-.07-.49.53-1.9-.4-2.32s-2.18-4-2.18-4,2.64,3.09,3.3,4.14.86,2.88,1.13,4.49a8.9,8.9,0,0,0,2.18,4.35,4.15,4.15,0,0,1,.85,1.77,2.24,2.24,0,0,1,1.49,2.11,2.2,2.2,0,0,1-.1.64c4.07,2.48,4.52,7.83,4.89,11.31.23,2.2-3.52,8.28-7.82,14.37,11.25,5.71,20.9,10.86,21.6,12.08,1.73,3,.43,3.91.43,3.91l-2.38,9.32s-14.75,56.6-15.83,60.07c0,0-.44,1.73-3.69-.66s-32.53-15.82-37.3-19.08-19.08-9.54-19.08-9.54l1.74-7.59S1343.61,127.68,1344.91,112.5Z"/><path class="cls-1" d="M920.17,90.27c-1.31-2.73-1-4.14-1-6.76s-1.2-5.67-.87-8.5-1.2-11.78-1.2-11.78A16.55,16.55,0,0,1,920,68.58,17.68,17.68,0,0,1,921,75.77c-.32,2.51,1.42,10.36,1.42,10.36-1-3.82,0-6.54-.11-8.94s-.54-7.74-1.41-9.81-2-4-2-4l2.95-1.63a11.39,11.39,0,0,1,2.83.43c.55.33,1,3,1.09,4.36a70.49,70.49,0,0,0,2.07,7.42s-.43-2.73-1-5.13-1.2-6.65-1.2-6.65,2-.65,1.86-.32,2,4.47,2.18,6.54,2.83,4.36,3.92,8.06-.33,13.63-.33,13.63c1.42-2,2.51-10,2.51-10-.11,1.53.22,7.09-1.42,10.25s-1.2,7-.32,10.36a29.68,29.68,0,0,1,.45,7.35,4.1,4.1,0,0,1,1.37,7.35.36.36,0,0,1,0,.09c2.33,4.94,12.33,15.56,22.94,23.2,7.61,5.48,13.23,14.72,16.17,20.11,1.82-8.46,8-38.91,8.68-41.21l16,5.07L997.52,125l-2,11.78s17.49,2,19.13,2.45,5.07,2.62,6.37,3.11,11.12,7,9.65,7.52a16.48,16.48,0,0,0-4.58,2.45c-.32.49-.16,5.89-1.3,8.51s-1.8,8.17-2.46,10.3a49.86,49.86,0,0,1-3.27,7.19c-.65,1.15-3.1,5.4-3.43,7s-2.13,6.71-2,8.67.49,9-.82,10.14-3.44.33-3.44.33l-1.63,2.45s-6.87-1.47-9.32-1.8-16.35-3.27-16.35-3.27-1.31,7.36-1.31,8.83S981,215,981,215l-15.86-.33s-.82-5.56,0-8.5,8.22-39.79,9.36-44.77a59.6,59.6,0,0,0-7.4-12.63c-6.21-8.17-14.39-13.73-19.29-17-4.52-3-12.09-14.07-13.25-15.79a4.54,4.54,0,0,1-1,.13,4.11,4.11,0,0,1-4.09-3.85c-1.75-1.79-4-4.4-4.09-5.18a55.64,55.64,0,0,0-1.85-8.94c-1-3-11.55-13.85-11.55-13.85C916.14,86.13,921.48,93,920.17,90.27Z"/><path class="cls-1" d="M865.79,218l6.42-14.78,51.19,26.87s-10,22.9-15.44,35.43c3.28,5.45,5.23,11.76,3.59,18.31-3.56,14.22-7,27.83-8,35a4.85,4.85,0,0,1,2.29,1.3,4.91,4.91,0,0,1,.64,6.14c.66,3.41,1,9.51-3.54,14.14-6.44,6.61-19.09,11.93-24.47,19s-11.27,11.84-13.31,12.8l10.42-12.28s-10.31,10.89-14.16,8.74L859.06,365s5.58-3.62,9.44-6.18c0,0-7.61,3.29-10.4,4.14l-2.23-4.39s.88-3.09,5.76-5.3a18.86,18.86,0,0,1,2.72-1c7.28-2.12,14.35-3.6,16.28-5.31,0,0-16.28,2.74-20.78,5.29,0,0,9.33-6.71,16-8a24.5,24.5,0,0,0,11.8-5.74c.86-.86,3-5.77,5-7.8,1.28-1.27,3.3-3.61,5-5.48a4.91,4.91,0,0,1,4.63-6.58,9.7,9.7,0,0,1,.55-2.36c1.08-2.78,7.82-36.16,6.76-41.52a21.77,21.77,0,0,0-2.82-6.7c-.6,1.37-1.11,2.54-1.49,3.43-3.64,8.41-10.91,25-11.15,25.48s-9.62-3.88-14.3-6.18S842.75,273,842.75,273L848,260.4s-3.71-8.08-2.36-16.14,9.7-24.28,12.72-26.07Z"/><path class="cls-1" d="M1502.75,182.63a2.11,2.11,0,0,1,2.73-1.59s19,5.47,37.15,10.61a79,79,0,0,0-8.5-16.61,3.58,3.58,0,0,1-5.34-3.16,3.51,3.51,0,0,1,.32-1.48,48.4,48.4,0,0,1-4-3.46c-2.47-2.39.09-5.21-1.23-7.06s-2.83-3-4.33-5.21-3.44-4.59-5.2-7.67-.89-8-.89-8c1.15,5.47,3.8,7.58,3.8,7.58-1.5-1.67-2.91-8-2.91-8l1.32-1.32c2.29,1.5,7,12.53,6.53,11s-2.12-5.91-3.09-7.15a34.78,34.78,0,0,1-2.56-4.67l2.3-1.77,1.67,2.65s-1-2.74-.62-3.35a2.91,2.91,0,0,1,1.33-1s-.44-.62.7.79,2,7.32,2,7.32c1-3.26-.35-8.47-.35-8.47a17.4,17.4,0,0,1,1.68,8.47c-.18,3.09,2.64,8.12,2.64,8.12.71,2.91,2.12,6.44,2.65,8a10,10,0,0,1,.18,4.24,5,5,0,0,0,1.06,3.44,12.2,12.2,0,0,1,1.2,3.41,3.61,3.61,0,0,1,1.38,6.59A61,61,0,0,1,1544,192c13,3.69,25.17,7.12,29.21,8.15,9.81,2.51,14.6,5,14.6,5-3.19,26.91-14.83,73.21-14.83,73.21-2.28-2.05-23-7.07-24.17-7.07s-5.93,1.14-6.84.91-1.83,1.14-13.69-1.36-16.65-10.5-16.65-10.5c-3.19-.91-24-7.29-24-7.29S1502.06,184.91,1502.75,182.63Z"/></g></g></svg>