<svg xmlns="http://www.w3.org/2000/svg" viewBox="0 0 1360.21 190.16"><g><g><polygon points="0 183.37 0 175.6 81.5 175.6 81.5 110.6 81.5 97.99 123.21 97.99 123.21 16.49 159.11 16.49 159.11 97.99 184.34 97.99 184.34 68.88 196.95 68.88 196.95 53.36 279.42 53.36 279.42 68.88 292.03 68.88 292.03 97.99 340.54 97.99 340.54 38.81 365.76 38.81 365.76 97.99 390.02 97.99 390.02 16.49 400.69 16.49 400.69 4.85 484.13 4.85 484.13 16.49 494.8 16.49 494.8 48.51 522.93 48.51 522.93 81.5 576.29 81.5 576.29 100.9 657.79 100.9 657.79 19.4 690.78 19.4 690.78 2.91 707.27 2.91 707.27 19.4 740.26 19.4 740.26 60.15 767.42 60.15 767.42 85.38 874.14 85.38 874.14 7.76 991.53 7.76 991.53 39.78 1072.06 39.78 1072.06 66.94 1110.87 66.94 1110.87 9.7 1126.39 9.7 1126.39 0 1161.32 0 1161.32 9.7 1174.9 9.7 1174.9 66.94 1214.68 66.94 1214.68 101.87 1254.46 101.87 1254.46 86.35 1277.74 86.35 1277.74 123.21 1325.28 123.21 1325.28 171.72 1360.21 171.72 1360.21 182.4 1360.21 190.16 0 190.16 0 183.37" style="fill:#00afaa"/></g></g></svg>