<?xml version="1.0" encoding="utf-8"?>
<!-- Generator: Adobe Illustrator 26.0.2, SVG Export Plug-In . SVG Version: 6.00 Build 0)  -->
<svg version="1.1" id="Layer_1" xmlns="http://www.w3.org/2000/svg" xmlns:xlink="http://www.w3.org/1999/xlink" x="0px" y="0px"
	 viewBox="0 0 326.5 300" style="enable-background:new 0 0 326.5 300;" xml:space="preserve">
<style type="text/css">
	.st0{fill:#FFFFFF;fill-opacity:0;}
	.st1{fill:#D0D9E8;stroke:#FFFFFF;stroke-width:0.6122;stroke-linejoin:round;stroke-miterlimit:1.2956;}
	.st2{enable-background:new    ;}
	.st3{fill:#0B3A42;}
	.st4{opacity:0.8;fill:#FF0067;stroke:#FFFFFF;stroke-width:0.8162;stroke-miterlimit:1.2956;enable-background:new    ;}
</style>
<rect x="-653" y="-600" class="st0" width="1632.5" height="1500"/>
<path class="st1" d="M30.4,226.3l0.1,1.1l-0.5,1.3l-1.1,1.1l-0.2,0.7l-0.9-0.2l-2.9-1.5l-1.1,0.7l-0.3-0.6l1-1.1l-1.1-0.6l-0.8,0.1
	l-0.4-1.1l1.8-1l1.5-0.1l2.7-0.8l1.3,0.1l0.8,1.1L30.4,226.3z"/>
<path class="st1" d="M271.3,107.1l-2.3,3.5l-0.5,1.8l-0.4,5.8l-2,7.4l-0.5,3.6l0.3,11.2l0.4,10.4l-0.1,1.6l-0.4,1.5l-8.4,16.2v0
	l-1.7,3.9l-1.1,1.6l-1.4,0.9l-11.9,3.2l-7.1,4.3l-5.4,3.3l-5.4,3.2l-7.3,4.4l-27.4-39.5l-8-11.4l-0.2-0.4l-0.2-0.6l0-0.6l0.3-3.4
	l0-0.6l-0.2-0.6l-3.1-6.6l-1.5-1.9l-4.9-4l20.6-30.3l0.4-0.8l-0.4-0.2l-1.4-0.9l-0.3-0.1v-0.6l0.5-3.7l4.7-21.8l3.2-14.3l1.1,2.4
	l3.6,6.1L209,67l36.4,35.7l1.6,0.9l0.9,0.4l3,0.7l1.7,0.6l3.7,0.8l9.5,0.2L271.3,107.1z"/>
<path class="st1" d="M86.1,275.3l-3.9,2.5l-8.3,5.4l-5.4,3.4l-7.4,4.9l-7.8,5.3l-0.6,0.2l-0.7,0l-3.1-0.8l-1.1,0l-0.8,0.5l-1.7-1.3
	l-6.6-0.8l0-0.4l0.2-1.7l0-0.1l-0.1-2.8l0-0.3l0.3-1.1L39,288l0-0.5l-0.1-0.2l-0.1-0.3l-0.5-0.8l-0.6-0.7l-0.3-0.4V285l0-0.2
	l0.3-0.6l0.3-0.4l0-0.1l-0.1-0.4l-0.6-0.9l-0.8,0.1h-0.1l-0.3-0.1l-0.2-0.2l-0.1-0.2l-0.2-0.2l-0.2-0.1h-0.1l-0.9,0.2l-0.7,0
	l-0.8-0.1l-0.1-0.1l0-0.2l0.1-0.4l0-0.2l0.2-0.4l0-0.2l0-0.2l-0.3-0.6l0-0.3l0.1-0.3l0.2-0.2l0.6-0.2l0.2-0.1l0.1-0.1l0.3-0.4
	l0.2-0.1l0.4-0.2l0.3-0.2l0.1-0.2l0.1-0.4v-0.3l-0.1-0.2l-0.2-0.2l-0.6-0.4l-0.3-0.2l-0.2-0.1l-1-0.1l-0.2-0.1l-0.7-0.3l-0.2,0h-0.2
	l-0.2-0.1l-0.1-0.1l-0.2-0.2l-0.2-0.4l0-0.1l-0.1-0.4v-0.3l0-0.4l0.1-0.3l0.5-0.5l-0.4-3.9v-0.9l0.1-0.2l0-0.2l-0.2-0.6l-0.9-2.1
	l-0.1-0.6l-0.1-0.4l0-0.4l0-0.2l0.1-0.2l0.4-0.8l0.1-0.2l0-0.2l-0.1-0.2l-0.1-0.3l-0.1-0.2v-0.2l0.1-0.2l0.2-0.2l0.8-0.6l0.6-0.4
	l0.7-0.6l1.5-1.1l0.4-0.2l0.5-0.1l2-0.1l2.9,0.2l0.2,0l0.1,0l0.1-0.1l0-0.1l-0.1-0.3l-0.2-0.5l-0.1-0.2l0-0.2l-0.1-1.4l0-0.2
	l-0.1-0.2l-0.2-0.1l-0.2,0h-0.2l-0.1,0l-0.8,0.3l-0.2,0l-0.2-0.1l-0.2-0.2l-0.1-0.2l0-0.9v-0.3l0-0.2l-0.1-0.2l-0.4-0.7l-0.1-0.4
	l-0.1-0.4v-0.3l0.1-0.3l0-0.4l0-0.4l-0.1-0.4l0-0.3l0.1-0.3l0.1-0.3l0.2-0.3l0.2-0.3l0.3-0.3l0.8-0.6l0.2,0h0.3l1.4,0.2l0.4-0.1
	l0.9-0.5l12.3-1.8l0.1,0.1l0.5,0.5l0.2,0.2l0.4,0.4l0.4,0.3l1.4,0.8l0.1,0.1l0.6,0.6l0.2,0.4l0.1,0.2l0.1,0.7l0.1,0.2l0.1,0.2
	l1.7,1.7l0.2,0.3l0.1,0.2l0.1,0.5l0,0.5l0,0.2l0.1,0.2l0.1,0.2l0.1,0.1l1,0.7l0.2,0.1l0.8,0.1h0.3l3.2,0.7l0.2,0.2l0.2,0.2l0.3,0.2
	l0.6,0.4l0.2,0.2l0.1,0.2l0,0.2v0.3l0,0.2l0,0.3l0,0.1l0.1,0.2l0.2,0.3l0.3,0.3l0.1,0.1l0.1,0.3l0.1,0.2l0.1,0.1l0.1,0.1l0.1,0.1
	l0.1,0.4l2.5,1.5l0.6,0.3l0.3-0.1l0.2-0.1l0.1-0.2l0.2,0l1.4,0l0.8,0.3l0.3,0.4l0.2,0.3l0.1,0.2l0.1,0.2l0.2,0.6l0.2,2.6l0.1,0.3
	l0.2,0.3l6.6,6.7l2.4,1.7l0.4,0.5L86.1,275.3z"/>
<path class="st1" d="M72.5,107.2l-0.9,0.5l-0.1,0.2l-0.2,0.3l-0.5,1.3l-1.2,2.1l-0.3,0.4l-0.3,0.2l-1,0.4l-0.6,0.4l-0.3,0.3
	l-0.3,0.5l-0.9,2l-0.1,0.4l0,0.3l0,0.3l0,0.2l0.1,0.1l0.2,0.1l0.2,0.1l0.2,0h0.2l0.2-0.1l0.2-0.1l0.1-0.2l0.1-0.2l0.3-0.6l0.2-0.3
	l0.2-0.1l0.2-0.1l0.2,0.1l0.2,0.1l0.1,0.1l0.1,0.2l0.1,0.2l0.1,0.5l0,2.5l-0.1,0.2h-0.2l-0.2-0.1l-0.2-0.1h-0.2l-0.2,0l-0.2,0.1
	l-0.3,0.2l-0.3,0.4l-0.4,0.7l-0.1,0.2l-0.2,0.1l-0.3,0.1l-0.3,0l-1,0l-1.1,0.1h-0.5l-0.2-0.1l-0.2-0.1l-0.2-0.1l-0.2-0.1l-0.1-0.2
	l0-0.2l0-0.7v-0.2l-0.2-0.8v-0.2v-0.2l0.1-0.2l0.5-1l0.1-0.2l0-0.3v-0.2l0-0.5l0-0.2l-0.1-0.2l-0.2-0.4l-0.1-0.2l-0.2-0.1l-0.3-0.1
	l-0.2,0.1l-0.1,0.2l-0.4,0.7l-0.2,0.2l-1,1l-0.8,1.3l-0.3,0.2l-0.3,0.1l-0.4,0l-0.5,0.1h-0.3l-0.2-0.1l-0.1-0.1l-0.1-0.2l-0.1-0.2
	l-0.5-0.3l-0.2-0.1l-0.1-0.1l-0.2-0.4l-0.1-0.2l-0.2-0.3l-1.5-1.3l-0.2-0.1l-0.2-0.1h-0.2h-0.2l-5.8,1.6l-2.5-0.1l-3.3-0.9l-0.5-0.1
	l-0.9,0.1l-0.5,0l-0.3,0l-0.2-0.1l-0.2-0.1l-0.1-0.2l-0.2-0.3l-0.1-0.4l-0.2-0.4l-0.1-0.2l-0.2-0.1l-0.9-0.5l-0.3-0.1l-0.2,0
	l-1.7,0.8l-1-0.3l-0.3-0.4l-0.2-1l-1.1-2.4l0.1-0.2l0.1-0.2l0.1-0.2l0.1-0.3l-0.4-4l0.1-1.1l0.7-3.2l0.3-2.6l-0.1-0.8l-0.3-0.2
	L31,97.4l-0.6-0.2L30.3,97l-0.1-0.4l-0.1-0.2l-0.1-0.3l-0.3-0.4l-0.2-0.2l-0.2-0.1h-0.2l-0.2,0l-0.2,0.1l-0.2,0.1l-0.6,0.2L27.3,96
	l-0.4-0.1l-0.4-0.1l-0.2-0.1l-0.2-0.2L26,95.4L25.8,95l1.2-0.8l0.4-0.5l0.1-0.2v-0.3l-0.1-0.2l-0.2-0.2L27,92.6l-0.2-0.1l-3.3,0.2
	l-0.4,0.1l-0.4,0.2L22.4,93H22l-0.7-0.1L21,92.8l-0.2-0.2l0-0.2l0-0.2l0-0.2l0.2-0.4l0.1-0.4l0-0.2l0.1,0l0.6-1.7l0.3-4.2l1.1-1.7
	l1.6-0.6l1.2,0.3l0.7-0.2l0.4-2.1v0l1-0.4l1.9,0.7l1-0.3L30.7,79l0.2-8.7l0.1-0.9l0.3-0.5l0.4-0.4l0.1-0.5L31,67.2l0.6-0.6l0.6,0.7
	l0.6,0.5l0.7,0.2l1.3,0.2l0.3,0.1h0.3l0.4-0.2l0.2-0.3l0.1-0.5l0.2-0.4l0.6-0.2l0.9-0.1l3.7,0.6h0.9l3.4-0.6L46,66l-0.1-1.3
	l-0.2-0.9l-0.3-1L45,61.9l0.6-0.3l1.7-0.4h1.6l0.3-0.1l1-0.8l0.4-0.1l0.2,0l0.2,0.1l0.1,0.2l0.1,0.2l0.1,0.2l0.1,0.9l0.3,0.5
	l1.5,1.4l1.3,1.7l0.2,0.4l0,0.3l-0.1,0.2l-0.1,0.2l-0.2,0.4l-0.2,0.3l-1,1l-0.4,0.5L52.3,69l-0.5,0.3l-0.2,0.2l-0.2,0.3l-0.2,0.4
	L51,70.4l-1.6,1.3l-0.6,1l1,1.3l0.4,0.7l0.5,0.5l0.5,0.4l0.4,0.3l4.1,1.9l0.5,0.4l0.3,0.3l0.1,0.4l0.1,0.4l0.1,1.9v0.5l0,0.3
	l0.1,0.2l2.6,3.8l2.5,4.5l0.4,0.6l0.3,0.4l0.2,0.1l0.2,0.1l0.7,0.1l0.6,0.4l1,1l1.4,1l0.3,0.3l0.1,0.3l0,0.2v0.2l0,0.3l0,0.2
	l-0.2,0.4L66.5,96l-0.2,0.3L66,96.5l-0.2,0.1l-0.6,0.2L65,97.1l-0.3,0.4l0.7,2.3l0.4,0.9l0.3,0.5l0.2,0.4l0.2,1.1l0.3,0.4l1.5,1.8
	l0.2,0.2l0.4,0.1l0.3,0.2l0.3,0.2l0.7,0.7l0.3,0.2L72.5,107.2z"/>
<path class="st1" d="M271.3,107.1l-5.5-0.8l-9.5-0.2l-3.7-0.8l-1.7-0.6l-3-0.7l-0.9-0.4l-1.6-0.9L209,67l-6.1-6.2l-3.6-6.1l-1.1-2.4
	l-0.1-0.8l0-0.3l-0.1-0.2l-0.3-0.5l-0.6-0.6l-3-1.7l-4.5-1.8l-0.2-0.1h-0.3l-0.2,0l-0.2,0l-0.7,0.3l-0.4,0.1l-0.9,0.1l-0.5,0
	l-0.5-0.1l-0.4-0.2l-0.6-0.6l-2.5-3.2l-0.5-1l-1.1-3.4l15.7-3l10.4-4l4.8-2.9l1.7-0.6l1.8-0.4l1.8-0.8l3.5-2.3l6.4-4.3l1-0.6l1-0.4
	L230,19l1.1,0l2.2-0.7l6.5-3.6l2.4-0.9l9.1-1.4l11.6,2.4l2.2,0.9l1,0.3l13.5-0.6l20.2-4.8l5.5-1.3l2.1-1.3l3.7-3.5l2.4-3.2l0.7-0.4
	l0.9-0.7l0.6,0.7l0.1,0.7L315.7,2l0.1,0.3l0.6,0.1l1.5,0.7l0.3-0.1l0.3-0.4l0.3-0.3l0.3,0.1l0.2,0.3l0.2,0.6l0.2,0.3l1.7,1.3
	l0.3,0.2l0.3,0.8l-0.9,3.4l0.6,0.8l0.4,0.4l0.1,0.9l0,1.7l0.3,0.7l0.4,0.6l0.3,0.7V16l-1.5,1.2l-3.1,3l-5,5.4L303.9,36l-6.5,7
	l-1.3,1.1l-1.3,0.6L279.7,48l-3.1,0.6l-1.5,0.6l-1,1.4l-4.3,8.4l-0.4,1.6l-1.6,15.1v1l0.2,1.1l1.3,2.9l3.8,8.2l0.5,1.9l0.2,2
	l0.2,8.2l-0.3,1.9l-0.7,1.8L271.3,107.1z"/>
<path class="st1" d="M41.2,246.1l-0.9,0.5l-0.4,0.1l-1.4-0.2h-0.3l-0.2,0l-0.8,0.6l-0.3,0.3l-0.2,0.3l-0.2,0.3l-0.1,0.3l-0.1,0.3
	l0,0.3l0.1,0.4l0,0.4l0,0.4l-0.1,0.3v0.3l0.1,0.4l0.1,0.4l0.4,0.7l0.1,0.2l0,0.2v0.3l0,0.9l0.1,0.2l0.2,0.2l0.2,0.1l0.2,0l0.8-0.3
	l0.1,0h0.2l0.2,0l0.2,0.1l0.1,0.2l0,0.2l0.1,1.4l0,0.2l0.1,0.2l0.2,0.5l0.1,0.3l0,0.1l-0.1,0.1l-0.1,0l-0.2,0l-2.9-0.2l-2,0.1
	l-0.5,0.1l-0.4,0.2l-1.5,1.1l-0.7,0.6l-0.6,0.4l-0.8,0.6l-0.2,0.2l-0.1,0.2v0.2l0.1,0.2l0.1,0.3l0.1,0.2l0,0.2l-0.1,0.2l-0.4,0.8
	l-0.1,0.2l0,0.2l0,0.4l0.1,0.4l0.1,0.6l0.9,2.1l0.2,0.6l0,0.2l-0.1,0.2v0.9l0.4,3.9l-0.5,0.5l-0.1,0.3l0,0.4v0.3l0.1,0.4l0,0.1
	l0.2,0.4l0.2,0.2l0.1,0.1l0.2,0.1h0.2l0.2,0l0.7,0.3l0.2,0.1l1,0.1l0.2,0.1l0.3,0.2l0.6,0.4l0.2,0.2l0.1,0.2v0.3l-0.1,0.4l-0.1,0.2
	l-0.3,0.2l-0.4,0.2l-0.2,0.1l-0.3,0.4l-0.1,0.1l-0.2,0.1l-0.6,0.2l-0.2,0.2l-0.1,0.3l0,0.3l0.3,0.6l0,0.2l0,0.2L33,281l0,0.2
	l-0.1,0.4l0,0.2l0.1,0.1l0.8,0.1l0.7,0l0.9-0.2h0.1l0.2,0.1l0.2,0.2l0.1,0.2l0.2,0.2l0.3,0.1h0.1l0.8-0.1l0.6,0.9l0.1,0.4l0,0.1
	l-0.3,0.4l-0.3,0.6l0,0.2v0.2l0.3,0.4l0.6,0.7l0.5,0.8l0.1,0.3l0.1,0.2l0,0.5l-0.1,0.2l-0.3,1.1l0,0.3l0.1,2.8l0,0.1l-0.2,1.7l0,0.4
	l-1.8-0.2l-0.8-0.5l-2.8-0.3l-0.9-0.3l-0.7-0.4l-4.2-4.1l-3.1-2.2l-1.6-1.6l-0.5-0.3l-0.3,0.1l-0.6,0.5l-0.2,0.1l-0.3-0.1l-0.5-0.2
	l-0.3,0l-1.8,0.2l-1.3,0l-0.2,0V285l-0.3-0.7l-2.2-3.3l-0.5-1l0-1.1l0.1-1l-0.2-0.7l-1.1-0.1l-0.7,0.1l-0.5-0.2l-0.4-0.4l-0.5-0.6
	h0.2l0.1-0.2l0.1-0.4l-0.1-0.4l-0.2-0.1H9.9l-0.2-0.1l-0.8-0.8L8.4,274l-5.2-1.2l-0.5-0.6L2.5,272l-0.3-0.1l1.1-1.5l0.8-0.5l0.4-0.2
	l0.3-0.6l1-1.5l0.3-0.5L6,266.9l0.4-0.6l2.6-2.4l1.5-1.2l0.3-0.4l0-0.1V262l-0.1-1.1l-0.1-0.3l-0.1-0.2l-0.1-0.2l-0.1-0.2v-0.1
	l0.1-0.2l0.2-0.2l0.2-0.1l0.2,0l0.8,0l0.3,0l0.1,0l0.1,0.1l0.1,0.3l0,0.1l0.1,0.2l0.1,0.1l0.2,0.1l0.2,0l0.1-0.2V260l-0.1-0.4
	l-0.3-1l-0.1-0.2l-0.2-0.2l-0.2-0.3l-0.3-0.6l-0.6-0.8l-0.2-0.6v-0.4l0.6-3.7l0-0.1l0.3-0.7l0.6-1l0-0.2l-0.1-0.2l-0.2-0.5L12,249
	l-0.1-0.1l-0.7-0.5l-0.1-0.1l0.1-0.6l0.4-2.2l1.1,0.5l0.1,0.1l0.2,0.2l0.3,0.6l0.2,0.2l0.3,0.1l0.9,0l0.3,0l0.3-0.1l0.2-0.1l0.3-0.2
	l0.7-0.6l0.1,0l3.9-0.3l0.2-0.1l0.7-0.4l2-0.7l0.5-0.2l0.2-0.5l0.3-0.5l0.1-0.2l0.1-0.2v-0.2v-0.2l-0.2-0.6l0-0.2l0.1-0.3l0.2-0.5
	l0.2-0.2l0.1-0.1l0.2,0.1l0.1,0.2l0.4,0.6l0.2,0.3l0.2,0.2l0.5,0.3l0.2,0.2l0.1,0.2l0.1,0.6l0,0.1l0.1,0.2l0.2,0.1l0.2,0.1l0.9,0.1
	l0.2,0.1l0.1,0l0.2,0.1l0.1,0.2l0.2,0.5l0.1,0.2l0.5,0.3l0.1,0.1l0.1,0.2l0.2,0.1l1.2,0.4l0.4,0.1H32l0.2-0.1l0.1-0.1l0.1-0.2l0-0.6
	l0.1-0.2l0.2-0.3L34,243l0.2-0.1l2.4-1.5l0.1-0.2l0.3-0.3l0.8-0.6h0.2h0.2l0.2,0.1l0.2,0.2l0.2,0.4l0.2,0.7l0.1,0.2l0.1,0.2l1.6,1.9
	l0.2,0.3l0.1,0.3l0,0.9L41.2,246.1z"/>
<path class="st1" d="M125.9,249.7l-4.1,2.6l-8.5,5.3l-6.2,4l-8.3,5.4l-8.3,5.3l-4.5,2.9l-0.8-1.1l-0.4-0.5l-2.4-1.7l-6.6-6.7
	l-0.2-0.3l-0.1-0.3l-0.2-2.6l-0.2-0.6l-0.1-0.2l-0.1-0.2l-0.2-0.3l-0.3-0.4l-0.8-0.3l-1.4,0l-0.2,0l-0.1,0.2l-0.2,0.1l-0.3,0.1
	l-0.6-0.3l-2.5-1.5l-0.1-0.4l-0.1-0.1l-0.1-0.1l-0.1-0.1l-0.1-0.2l-0.1-0.3l-0.1-0.1l-0.3-0.3l-0.2-0.3l-0.1-0.2l0-0.1l0-0.3l0-0.2
	v-0.3l0-0.2l-0.1-0.2l-0.2-0.2l-0.6-0.4l-0.3-0.2l-0.2-0.2l-0.2-0.2l-3.2-0.7h-0.3l-0.8-0.1l-0.2-0.1l-1-0.7l-0.1-0.1l-0.1-0.2
	l-0.1-0.2l0-0.2l0-0.5l-0.1-0.5l-0.1-0.2l-0.2-0.3l-1.7-1.7l-0.1-0.2l-0.1-0.2l-0.1-0.7l-0.1-0.2l-0.2-0.4l-0.6-0.6l-0.1-0.1
	l-1.4-0.8l-0.4-0.3l-0.4-0.4l-0.2-0.2l-0.5-0.5l-0.1-0.1l-12.3,1.8l-0.1-0.6l0-0.9l-0.1-0.3l-0.2-0.3l-1.6-1.9l-0.1-0.2l-0.1-0.2
	l-0.2-0.7l-0.2-0.4l-0.2-0.2l-0.2-0.1h-0.2h-0.2l-0.8,0.6l-0.3,0.3l-0.1,0.2l-2.4,1.5L34,243l-1.5,1.3l-0.2,0.3l-0.1,0.2l0,0.6
	l-0.1,0.2l-0.1,0.1l-0.2,0.1h-0.3l-0.4-0.1l-1.2-0.4l-0.2-0.1l-0.1-0.2l-0.1-0.1l-0.5-0.3l-0.1-0.2l-0.2-0.5l-0.1-0.2l-0.2-0.1
	l-0.1,0l-0.2-0.1l-0.9-0.1l-0.2-0.1l-0.2-0.1l-0.1-0.2l0-0.1l-0.1-0.6l-0.1-0.2l-0.2-0.2l-0.5-0.3l-0.2-0.2l-0.2-0.3l-0.4-0.6
	l-0.1-0.2l-0.2-0.1l-0.1,0.1l-0.2,0.2l-0.2,0.5l-0.1,0.3l0,0.2l0.2,0.6v0.2v0.2l-0.1,0.2l-0.1,0.2l-0.3,0.5l-0.2,0.5l-0.5,0.2
	l-2,0.7l-0.7,0.4l-0.2,0.1l-3.9,0.3l-0.1,0l-0.7,0.6l-0.3,0.2l-0.2,0.1l-0.3,0.1l-0.3,0l-0.9,0l-0.3-0.1l-0.2-0.2l-0.3-0.6l-0.2-0.2
	l-0.1-0.1l-1.1-0.5l0.1-0.4v-0.3v-0.9l0-0.5v-0.3l0-0.2l-0.1-0.1l-0.2-0.1l-0.6-0.1l-0.6,0L9,242.4l-0.2,0l-0.2,0.1l-0.1,0.1
	l-0.1,0.2l-0.1,0.4l-0.1,0.2l-0.1,0L8,243.3l-0.3-0.7l-0.1-0.3V242v-0.2l0.1-0.4l0.1-0.3l0.1-0.3l0.2-0.3l0.2-0.3l0.1-0.2l-0.5-0.4
	l-2-1.1l-0.4-0.9l-0.2-0.7v-0.8l0.2-0.8l0.5-0.6l0.8-0.6l0.4-0.5l0.2-0.6l-0.2-0.9l0.9-0.5l1.5-1.3l0.8-1.8l-0.6-1.2l0.6-0.7
	l1.1-0.4l1.1,0l0.9-0.5l1-0.6l0.7-0.9l0.2-1.1l-0.5-0.6l-0.8-0.6l-0.9-0.5l-0.7-0.2l-1.1-0.6l-1.1-0.2l-0.6-0.4l0.2-1.3l0.2-0.2
	l0.6-0.2l0.2-0.2l0.1-0.6l-0.2-1l0.1-0.5l0.4-0.6l0.9-0.8l0.3-0.6l0.7-1l1.6-1.4l0.7-1.2l0.5-0.6l0.8-0.3l0.9-0.2l0.9-0.4l1.7-1.1
	l0.3,0.2l0.6,0.8l0.4,0.3l1,0l0.8-0.5l0.7-0.6l0.7-0.3l0.8,0.2l2.5,1.2l1.8,0.4l0.9-0.1l0.6-0.8l-0.1-1.2l-0.8-0.5l-1.9-0.3
	l-1.4-1.1l-0.3-0.4l-0.3-0.6l-0.1-0.2l1-2.1l0.6-1.1l0.8-0.9l1.9-1.7l1.6-2.1l1-0.5l0.6,0l1.1,0.4l0.6,0l0.8-0.4l0.3-0.6l0.1-0.7
	l0.3-0.8l1-1.2l2.2-1.9l1.1-1.9l1.4-1.5l0-0.1l1-0.3l1.2-0.7l0.8-0.1l1.2,0l0.2,0.1l0.9,0.5l3.4,0.5h0.4l0.1,0l1.7-1l1.5-0.5
	l0.4-0.1l0.2,0l0.3,0.2l0.6,0.9l0,0.1l0.2,0.2l1.1,1.4l0.7,0.7l0.7,1.1l0.9,0.9l0.3,0.4l0.3,0.6l0.7,1.1l0.3,0.5l0.1,0.1l0.4,0.6
	l0.1,0.2l0.5,0.8l0.1,0.3l0.2,0.3l0.4,0.3l0.1,0.2l0.2,0.4l1.7,1.5l0.6,0.4l0.4,0.2l4.7,2.8l0.5,0.2l0.2,0.1h0.5l0.9-0.1l1,0.4
	l0.3,0.2l0.1,0.1l0.1,0.2v0.1l0.3,0.7l0.2,0.3l2.5,4.2l0.3,0.3l0.7,0.5l3.9,3.9l0.8,0.5l0.5,0.4l4.7,4.4l0.3,0.5l0.5,1.1l0.1,0.4
	l0.4,1l0.2,0.4l0.3,0.8l3.3,4.4l3.3,2.6l1.4,0.8l0.5,0.3l0.7,0.3l1.8,0.5l0.5,0.2l0.8,0.1l0.2,0.1l0.5,0.2l0.3,0.2l1.2,1l1.5,0.9
	L125.9,249.7z"/>
<path class="st1" d="M11.6,245.5l-0.4,2.2l-0.1,0.6l0.1,0.1l0.7,0.5L12,249l0.1,0.2l0.2,0.5l0.1,0.2l0,0.2l-0.6,1l-0.3,0.7l0,0.1
	l-0.6,3.7v0.4l0.2,0.6l0.6,0.8l0.3,0.6l0.2,0.3l0.2,0.2l0.1,0.2l0.3,1l0.1,0.4v0.2l-0.1,0.2l-0.2,0l-0.2-0.1l-0.1-0.1l-0.1-0.2
	l0-0.1l-0.1-0.3l-0.1-0.1l-0.1,0l-0.3,0l-0.8,0l-0.2,0l-0.2,0.1l-0.2,0.2l-0.1,0.2v0.1l0.1,0.2l0.1,0.2l0.1,0.2l0.1,0.3l0.1,1.1v0.3
	l0,0.1l-0.3,0.4l-1.5,1.2l-2.6,2.4L6,266.9v0l0.7-2.6l1.4-2.8l1.1-1.1l0.6-1.2l-1.3-1l-1-0.4l-0.6-5.2l0.2-1.5l1-0.1h0.6v-0.4H8.5
	l-0.2-0.2l-0.1-0.2l0.1-0.2l0.6-0.3l0.2-0.1l0-0.2v-1.6l-0.2-0.3l-0.1-0.3l-0.3-0.2l-0.2,0l-0.3,0.2H8l-0.2-0.1l-0.1-0.3v-0.3L8,246
	v-0.2l-0.2-0.3l-0.5-0.7l-0.4-0.6l-0.2-0.7l-0.4-1.8l0-0.2l-0.1-0.2L6,241.1H5.5l-0.5,0L4.7,241l0-0.2l0.1-0.1l0.2-0.1l0.4-0.1
	l0.4-0.3l0.2-0.5l0.1-0.6l-0.1-0.5l0-0.1l2,1.1l0.5,0.4l-0.1,0.2l-0.2,0.3l-0.2,0.3l-0.1,0.3l-0.1,0.3l-0.1,0.4v0.2v0.3l0.1,0.3
	l0.3,0.7l0.1,0.1l0.1,0l0.1-0.2l0.1-0.4l0.1-0.2l0.1-0.1l0.2-0.1l0.2,0l1.1,0.2l0.6,0l0.6,0.1l0.2,0.1l0.1,0.1l0,0.2v0.3l0,0.5v0.9
	v0.3L11.6,245.5z"/>
<path class="st1" d="M171,125.2l4.9,4l1.5,1.9l3.1,6.6l0.2,0.6l0,0.6l-0.3,3.4l0,0.6l0.2,0.6l0.2,0.4l8,11.4l27.4,39.5l-3.5,2.1
	l-10.8,6.5l-5.4,3.2l-5.4,3.2l-5.4,3.2l-5.3,3.2l-10.8,6.5l-5.4,3.2l-5.4,3.2l-5.4,3.2l-5.4,3.2l-11.9,7.4l-10.4,6.6l-19.8-15.9
	l-1.5-0.9l-1.2-1l-0.3-0.2l-0.5-0.2l-0.2-0.1l-0.8-0.1l-0.5-0.2l-1.8-0.5l-0.7-0.3l-0.5-0.3l-1.4-0.8l-3.3-2.6l-3.3-4.4l-0.3-0.8
	l-0.2-0.4l-0.4-1l-0.1-0.4l-0.5-1.1l-0.3-0.5l-4.7-4.4l-0.5-0.4l-0.8-0.5l-3.9-3.9l-0.7-0.5l-0.3-0.3l-2.5-4.2l-0.2-0.3l-0.3-0.7
	v-0.1l-0.1-0.2l-0.1-0.1l-0.3-0.2l-1-0.4l-0.9,0.1h-0.5l-0.2-0.1l-0.5-0.2l-4.7-2.8l-0.4-0.2l-0.6-0.4l-1.7-1.5l-0.2-0.4l-0.1-0.2
	l-0.4-0.3l-0.2-0.3l-0.1-0.3l-0.5-0.8l-0.1-0.2l-0.4-0.6l-0.1-0.1l-0.3-0.5l-0.7-1.1l-0.3-0.6l-0.3-0.4l-0.9-0.9l-0.7-1.1l-0.7-0.7
	l-1.1-1.4l-0.2-0.2l0-0.1l-0.6-0.9l-0.3-0.2l-0.2,0l-0.4,0.1l-1.5,0.5l-1.7,1l-0.1,0h-0.4l-3.4-0.5l-0.9-0.5l-0.2-0.1l-1.2,0
	l-0.8,0.1l-1.2,0.7l-1,0.3l-0.3-0.6l-1.2-1.2l-0.3-0.8l-0.2-1.1l0.4-0.7l0.5-0.6l0.1-0.8l-0.3-0.5l-0.3-0.1l-0.4,0l-0.3-0.1
	l-0.5-0.6l-1.1-1.5l-0.2-0.5l-0.1-0.5l0-0.5l0.2-0.3l0.2-0.3l0.1-0.4l0.2-1l0-0.6l-0.3-0.5l-0.8-0.6l-0.4,0.1l-0.4-0.2l-0.7-0.9
	l-0.8-0.4l-0.6-0.6l-0.5-0.7l-0.3-1l-0.7-0.2l-1.3-0.1l-1.4,0.1L30,170h-0.3l-0.1,0l-0.6-1.2l0.8-0.9l1.3-0.7l0.9-0.7l0.2-0.9
	l-0.1-0.9l0.1-0.7l0.7-0.5l0.7,0.2l0.5,0.4l0.3-0.3l0.2-1.9l-1.2,0.4l-1.2,0l-1.2-0.4l-1-0.9l-1.1-2.1l-0.7-0.5l-1,0.7l-0.2,0.5
	l0,1.1l-0.2,0.6l-0.5,0.5l-0.5,0.2l-2.9,0.2l-0.3-0.1l-0.6-0.4l-0.3-0.1l-0.3,0.1l-0.6,0.3l-0.2,0.1l-2.1-0.2l0.1-0.6l0.1-1.2
	l0.1-0.4l3.3-6l1.1-1.6l0.2-0.1l0.1,0l0.3-0.1l0.2-0.1l0.2-0.2l0.7-1l1.3-1.1l0.2-0.2l0.1-0.2V149v-0.4l-0.1-0.6v-0.2l0-0.3l0.1-0.5
	l0.1-0.4l0.1-0.1l0.2-0.2l0.4-0.2l0.9-0.3l0.3,0.5v0.2l-0.2,0.2l-0.3,0.4l0,0.1l0,0.1l0.2,0.1h0.1l0.2,0.1l0.2,0.2l0.5,0.7l0.2,0.2
	l0.2,0.1l0.2-0.1l0.2-0.1l0.6-0.8l0.1-0.2l0.1,0l0.2,0h0.4l0.2,0.1l0.1,0.1l0.4,0.6l1.5,0.3l0.2,0l0.3-0.1l0.1-0.2l0.4-0.4l0.1-0.1
	v-0.1v-0.5l0.1-0.2L35,147l0.3-0.3l0.1-0.2l0-0.2l0-0.4v-0.5l1.2-1.3l0.4-0.6l0.4-0.5l0.2-0.2l0.5-0.1l0.2,0l0.2,0l0.2,0.1l0.2,0.1
	l0.2,0.1l0.1,0.2v0.1l-0.1,0.2l-0.1,0.2l-0.2,0.2l-0.1,0.2v0.2l0.1,0.1l0.1,0.1H39l0.2,0.1l0.2,0.1l0.1,0.2v0.4l0.1,0.2l0.2,0.1
	l0.5,0.2l0.3,0.1h0.2l0.3-0.1l0.6-0.4l1.1-0.3l2.4,0.1l3.8-1.9l0.5-0.2l0.1,0l0.1,0l0.2,0l0.4-0.1h0.4l0.3,0l1.5-0.1l0.2-0.1
	l0.6-0.6l0.3-0.1l0.3-0.1h0.5l0.2,0l0.2-0.1l0.7-0.5l0.3-0.1l0.3-0.1l0.5,0.1l0.6,0.2l0.7,0.6l0.3,0.3l0,0.1l1.5,3l1.2,2.7l1-0.4
	l0.3-0.2l2.4-1.9l0.3-0.2l0.4-0.1l0.8-0.1l0.2-0.1l0.2-0.1l0.5-0.7l0.2-0.1l0.2-0.1h0.4l0.2,0.1l0.3,0.1l0.2,0.2l0.4,0.2l0.4,0.2
	h0.1l0.1-0.1l0.1-0.3l0.2-0.2l0.3-0.3l1.2-0.8l0.3-0.1h0.3h0.1l0.2,0.1l0.2,0.1l0.2,0.1l0.2,0.2l0.1,0.1l0.2,0.5l0.2,0.3l0.1,0.2
	l0.2,0.2l0.4,0.2l0.6,0.2h0.2l0.1,0l0.3-0.2l0.3-0.3l0.1-0.2l0.1-0.2l0.2-0.8l0.1-0.2l0.1-0.1l0.4-0.3l0.1-0.2l0.1-0.5l0.1-0.2
	l0.1-0.2l0.2-0.1l0.1-0.1h0.1h0.5l0.8,0.2l0.1-0.1l0.1-0.1v-0.2l0-0.2l0.1-0.2l0.2-0.3l0.2-0.1l0.1,0L79,141l0.5,0.3l0.4,0.1l0.4,0
	l0.4-0.1l0.3-0.1l0.4-0.3l0.2-0.1l0.2,0h0.3l0.6-0.1H83l0.4,0.1l0.6,0l0.3,0l0.2,0.1l0.2,0.1l0.4,0.7l0.2,0.2l0.1,0.1l0.2,0.1
	l0.4,0.1H86l0.2,0l0.2-0.1l0.1-0.2l0-0.2v-0.2l0-0.2l-0.2-0.7l0-0.2v-1.6l0.1-0.8l0.1-0.2l0.2-0.4l0.1-0.2l0.2-0.2l0.3-0.3l1-0.5
	l1.5-1.1L90,135l0.3-0.1l0.5,0h0.2l0.7-0.2l2.2-0.8l4-0.9H98l0.1,0l0.1,0l0.4,0.2l0.3,0.3l0.6,0.7l0.2,0.2l0.2,0.1l0.2,0.1l0.3,0h1
	l0.2,0.1l0.3,0.2l0.1,0.1l0.2,0.3l0.2,0.3l0.1,0.2l0.1,0.3l0.1,0.2l0.3,0.3l0.1,0.2l0.2,0.8l0.1,0.3l0.1,0.6l0.1,0.8l0.1,0.2
	l0.2,0.2l0.4,0.4l0.3,0.2l2.8,2.3l0.3,0.3l0.4,0.7l1.9,2.4l0.3,0.3l0.1,0l0.2,0l0.4-0.2l0.1-0.1l0.9-1l0-0.1l0.1-0.2l0-0.2l0.1-0.3
	l0.1-0.1l0.1-0.3l0-0.2v-0.3l0-0.5v-0.1l0.1-0.2l0.3-0.4l0.2-0.6l0.1-0.1l0.3-0.4l0-0.1l0.1-0.2l0-0.5l0-0.2l0.2-0.3l1.3-1.2
	l0.8-0.6l6.4-2.9l0.3-0.3l0.2-0.3l-0.2-2v-0.5l0.1-0.5l0.1-0.5l0.2-0.6l0.2-0.4l1.2-1.8l0.5-0.9l0.5-1.2l0.2-1l0.1-6.6l-0.1-1
	l4.3-0.5l14.3,1.1L171,125.2z"/>
<path class="st1" d="M72.5,107.2l4.1,1.5l1.7,1.2l0.4,0.2l0.4,0.1l2.8,0l8-0.6l0.9,0.7l3.2,2.3l0.8,0.4l2.2,0.6l4.1,0.6l20.7,0
	l1.9,1.4l0.6,0.6l0.7,1.1l0.1,1l-0.1,6.6l-0.2,1l-0.5,1.2L124,128l-1.2,1.8l-0.2,0.4l-0.2,0.6l-0.1,0.5l-0.1,0.5v0.5l0.2,2l-0.2,0.3
	l-0.3,0.3l-6.4,2.9l-0.8,0.6l-1.3,1.2l-0.2,0.3l0,0.2l0,0.5l-0.1,0.2l0,0.1l-0.3,0.4l-0.1,0.1l-0.2,0.6l-0.3,0.4l-0.1,0.2v0.1l0,0.5
	v0.3l0,0.2l-0.1,0.3l-0.1,0.1l-0.1,0.3l0,0.2l-0.1,0.2l0,0.1l-0.9,1l-0.1,0.1l-0.4,0.2l-0.2,0l-0.1,0l-0.3-0.3l-1.9-2.4l-0.4-0.7
	l-0.3-0.3l-2.8-2.3l-0.3-0.2l-0.4-0.4l-0.2-0.2l-0.1-0.2l-0.1-0.8l-0.1-0.6l-0.1-0.3l-0.2-0.8l-0.1-0.2l-0.3-0.3l-0.1-0.2l-0.1-0.3
	l-0.1-0.2l-0.2-0.3l-0.2-0.3l-0.1-0.1l-0.3-0.2l-0.2-0.1h-1l-0.3,0l-0.2-0.1l-0.2-0.1l-0.2-0.2l-0.6-0.7l-0.3-0.3l-0.4-0.2l-0.1,0
	l-0.1,0h-0.2l-4,0.9l-2.2,0.8l-0.7,0.2h-0.2l-0.5,0L90,135l-0.3,0.2l-1.5,1.1l-1,0.5l-0.3,0.3l-0.2,0.2l-0.1,0.2l-0.2,0.4l-0.1,0.2
	l-0.1,0.8v1.6l0,0.2l0.2,0.7l0,0.2v0.2l0,0.2l-0.1,0.2l-0.2,0.1l-0.2,0h-0.2l-0.4-0.1l-0.2-0.1l-0.1-0.1l-0.2-0.2l-0.4-0.7l-0.2-0.1
	l-0.2-0.1l-0.3,0l-0.6,0l-0.4-0.1h-0.3l-0.6,0.1h-0.3l-0.2,0l-0.2,0.1l-0.4,0.3l-0.3,0.1l-0.4,0.1l-0.4,0l-0.4-0.1L79,141l-0.2-0.1
	l-0.1,0l-0.2,0.1l-0.2,0.3l-0.1,0.2l0,0.2v0.2l-0.1,0.1l-0.1,0.1l-0.8-0.2h-0.5h-0.1l-0.1,0.1l-0.2,0.1l-0.1,0.2l-0.1,0.2l-0.1,0.5
	l-0.1,0.2l-0.4,0.3l-0.1,0.1l-0.1,0.2l-0.2,0.8l-0.1,0.2l-0.1,0.2l-0.3,0.3l-0.3,0.2l-0.1,0H74l-0.6-0.2l-0.4-0.2l-0.2-0.2l-0.1-0.2
	l-0.2-0.3l-0.2-0.5l-0.1-0.1l-0.2-0.2l-0.2-0.1l-0.2-0.1l-0.2-0.1h-0.1h-0.3l-0.3,0.1l-1.2,0.8l-0.3,0.3l-0.2,0.2l-0.1,0.3l-0.1,0.1
	h-0.1l-0.4-0.2l-0.4-0.2l-0.2-0.2l-0.3-0.1l-0.2-0.1h-0.4l-0.2,0.1l-0.2,0.1l-0.5,0.7l-0.2,0.1l-0.2,0.1l-0.8,0.1l-0.4,0.1l-0.3,0.2
	l-2.4,1.9l-0.3,0.2l-1,0.4l-1.2-2.7l-1.5-3l0-0.1l-0.3-0.3l-0.7-0.6l-0.6-0.2l-0.5-0.1l-0.3,0.1l-0.3,0.1l-0.7,0.5l-0.2,0.1l-0.2,0
	h-0.5l-0.3,0.1l-0.3,0.1l-0.6,0.6l-0.2,0.1l-1.5,0.1l-0.3,0h-0.4l-0.4,0.1l-0.2,0l-0.1,0l-0.1,0l-0.5,0.2l-3.8,1.9l-2.4-0.1
	l-1.1,0.3l-0.6,0.4l-0.3,0.1h-0.2l-0.3-0.1l-0.5-0.2l-0.2-0.1l-0.1-0.2v-0.4l-0.1-0.2l-0.2-0.1l-0.2-0.1h-0.4l-0.1-0.1l-0.1-0.1
	v-0.2l0.1-0.2l0.2-0.2l0.1-0.2l0.1-0.2v-0.1l-0.1-0.2l-0.2-0.1l-0.2-0.1l-0.2-0.1l-0.2,0l-0.2,0l-0.5,0.1l-0.2,0.2l-0.4,0.5
	l-0.4,0.6l-1.2,1.3v0.5l0,0.4l0,0.2l-0.1,0.2L35,147l-0.1,0.2l-0.1,0.2v0.5v0.1l-0.1,0.1l-0.4,0.4l-0.1,0.2l-0.3,0.1l-0.2,0
	l-1.5-0.3l-0.4-0.6l-0.1-0.1l-0.2-0.1h-0.4l-0.2,0l-0.1,0l-0.1,0.2l-0.6,0.8l-0.2,0.1l-0.2,0.1l-0.2-0.1l-0.2-0.2l-0.5-0.7l-0.2-0.2
	l-0.2-0.1h-0.1l-0.2-0.1l0-0.1l0-0.1l0.3-0.4l0.2-0.2v-0.2l-0.3-0.5l-0.2-0.4l-0.2-0.3l-1.3-0.9l-0.2-0.2l-0.1-0.2l-0.2-0.4
	l-0.2-0.8l-0.3-0.7l-0.3-0.1l-0.4-0.1l-1.9,0.2l-0.8,0l-2.3-0.5l-0.4-1.6l0.5-0.3l0.5,0l0.5,0.1h0.2l0.2,0l0.2-0.1l0.3-0.2l0.2-0.1
	l0.2,0l0.5-0.1l0.2-0.1l0.3-0.2l0.2-0.1l0.7-0.1l0.2-0.1l0.3-0.4l0.2-0.2l0.3-0.2l0.2-0.2l0.1-0.3l0.4-1.4l0-0.9l-0.6-7l0-1.1
	l-0.1-2.3l-1.2-6l-0.8-2.3l-0.3-1.1l0-0.2l0.9-6.6l0.2-4l-0.1-1.9l-0.1-0.6l-0.1-0.4l-0.2-0.4l-0.6-0.8l-0.1-0.2l0-0.3l0.1-0.3
	l0.5-0.5l0.7-0.5l0.1-0.3l0.1-0.4l0.1-1.5l0.2-0.5l0.8-0.7l0.2,0.4l0.1,0.1l0.2,0.2l0.2,0.1l0.4,0.1l0.4,0.1l0.6-0.1l0.6-0.2
	l0.2-0.1l0.2-0.1l0.2,0h0.2l0.2,0.1l0.2,0.2l0.3,0.4l0.1,0.3l0.1,0.2l0.1,0.4l0.1,0.2l0.6,0.2l2.1,0.1l0.3,0.2l0.1,0.8l-0.3,2.6
	l-0.7,3.2l-0.1,1.1l0.4,4l-0.1,0.3l-0.1,0.2l-0.1,0.2l-0.1,0.2l1.1,2.4l0.2,1l0.3,0.4l1,0.3l1.7-0.8l0.2,0l0.3,0.1l0.9,0.5l0.2,0.1
	l0.1,0.2l0.2,0.4l0.1,0.4l0.2,0.3l0.1,0.2l0.2,0.1l0.2,0.1l0.3,0l0.5,0l0.9-0.1l0.5,0.1l3.3,0.9l2.5,0.1l5.8-1.6h0.2h0.2l0.2,0.1
	l0.2,0.1l1.5,1.3l0.2,0.3l0.1,0.2l0.2,0.4l0.1,0.1l0.2,0.1l0.5,0.3l0.1,0.2l0.1,0.2l0.1,0.1l0.2,0.1h0.3l0.5-0.1l0.4,0l0.3-0.1
	l0.3-0.2l0.8-1.3l1-1l0.2-0.2l0.4-0.7l0.1-0.2l0.2-0.1l0.3,0.1l0.2,0.1l0.1,0.2l0.2,0.4l0.1,0.2l0,0.2l0,0.5v0.2l0,0.3l-0.1,0.2
	l-0.5,1l-0.1,0.2v0.2v0.2l0.2,0.8v0.2l0,0.7l0,0.2l0.1,0.2l0.2,0.1l0.2,0.1l0.2,0.1l0.2,0.1h0.5l1.1-0.1l1,0l0.3,0l0.3-0.1l0.2-0.1
	l0.1-0.2l0.4-0.7l0.3-0.4l0.3-0.2l0.2-0.1l0.2,0h0.2l0.2,0.1l0.2,0.1h0.2l0.1-0.2l0-2.5l-0.1-0.5l-0.1-0.2l-0.1-0.2l-0.1-0.1
	l-0.2-0.1l-0.2-0.1l-0.2,0.1l-0.2,0.1l-0.2,0.3l-0.3,0.6l-0.1,0.2l-0.1,0.2l-0.2,0.1l-0.2,0.1h-0.2l-0.2,0l-0.2-0.1l-0.2-0.1
	l-0.1-0.1l0-0.2l0-0.3l0-0.3l0.1-0.4l0.9-2l0.3-0.5l0.3-0.3l0.6-0.4l1-0.4l0.3-0.2l0.3-0.4l1.2-2.1l0.5-1.3l0.2-0.3l0.1-0.2
	L72.5,107.2z"/>
<path class="st1" d="M5.8,238.6L5.8,238.6l0.2,0.6l-0.1,0.6l-0.2,0.5l-0.4,0.3L5,240.6l-0.2,0.1l-0.1,0.1l0,0.2l0.3,0.1l0.5,0H6
	l0.3,0.2l0.1,0.2l0,0.2l0.4,1.8l0.2,0.7l0.4,0.6l0.5,0.7l0.2,0.3v0.2l-0.3,0.3v0.3l0.1,0.3l0.2,0.1h0.1l0.3-0.2l0.2,0l0.3,0.2
	l0.1,0.3l0.2,0.3v1.6l0,0.2l-0.2,0.1l-0.6,0.3l-0.1,0.2l0.1,0.2l0.2,0.2h0.3v0.4H8.1l-1,0.1l-0.2,1.5l0.6,5.2l1,0.4l1.3,1l-0.6,1.2
	l-1.1,1.1l-1.4,2.8L6,266.8v0l0.1,0.3l-0.3,0.5l-1,1.5l-0.3,0.6l-0.4,0.2l-0.8,0.5l-1.1,1.5L2,272l-0.3,0.2l1.3-1.9l2.4-2.9l0.4-1.5
	l-0.2-0.7l0.6-1.7l0.8-1.4l0.4-0.1l0.7-1.3l-1.1-1.9l-0.3-0.7L6,252.4l0.1-0.8l-1.8-0.7V250l0.6-0.8l0.5-1.2l-0.2-1.7l-1.1-0.7
	l-0.2-2.7l-1.4-1l-0.3-0.5l1.6-2.3L2,237.9l1.1-0.5l0.4-0.4l0.8-0.6l0.1-0.8l0.2-0.3l0.1-1l0.3-0.4l-0.1-0.3l2.4-1.4l0.2,0.9
	l-0.2,0.6l-0.4,0.5l-0.8,0.6l-0.5,0.6l-0.2,0.8v0.8l0.2,0.7L5.8,238.6z"/>
<path class="st1" d="M141.5,35.4l0.6,2.7l0,0.2l0,0.3L142,39l-0.3,0.6l-0.2,0.2l-0.2,0.1l-2.4,0.4l-0.2,0.1l-0.2,0.1l0,0.3l0,0.5
	l0.2,1.1l0.2,0.5l0.2,0.3l0.2,0.1l0.2,0.1h0.2h0.2l0.4-0.2l0.5-0.3l1.2-1l0.4-0.2l0.2-0.1l0.2,0l0.2,0.1l0.2,0.1l0.1,0.1l0.1,0.2
	l0,0.2l0,0.2l-0.1,4l-0.2,1.7l-0.4,1.7v0l-0.4,2.1l-0.3,1l-0.6,1.2l-1.8,2.8l-0.5,0.5l-0.6,0.6l-3.2,2.3l-4,2.2l-8,1.3l-1.8,0.1
	l-1.3,0.4l-2,1l-0.8,0.5l-0.3,0.2l-0.5,0.6l-0.5,0.7l-0.5,0.8l-0.6,1.4l-1,1.7l-0.2,0.4l-0.1,0.4l-0.1,0.4l0.1,0.7l0.2,1l0.6,1.8
	l0.4,0.9l0.5,0.6l0.7,0.7l0.6,0.8l0.6,1.1l0,0.1l1.9,1.6l0.2,0.3l0.1,0.4l-0.1,0.6l-0.1,0.3l-0.1,0.3l-0.1,0.2l-0.2,0.7l-0.4,0.8
	l-0.1,0.2l-0.2,0.3l-1,1l-1.9,2.7l-0.1,0.2l-0.2,0.3l-0.4,0.7l-1.4,3.3l-1.2,5.4l-0.3,2.1v0.3l0,0.3l0.1,0.4l0.1,0.3l0.1,0.2
	l0.7,0.9l9.3,10l-20.7,0l-4.1-0.6l-2.2-0.6l-0.8-0.4l-3.2-2.3l-0.9-0.7l-8,0.6l-2.8,0l-0.4-0.1l-0.4-0.2l-1.7-1.2l-4.1-1.5l-2-0.8
	l-0.3-0.2l-0.7-0.7l-0.3-0.2l-0.3-0.2l-0.4-0.1l-0.2-0.2l-1.5-1.8l-0.3-0.4l-0.2-1.1l-0.2-0.4l-0.3-0.5l-0.4-0.9l-0.7-2.3l0.3-0.4
	l0.3-0.3l0.6-0.2l0.2-0.1l0.3-0.3l0.2-0.3l0.2-0.2l0.2-0.4l0-0.2l0-0.3v-0.2l0-0.2l-0.1-0.3L66.5,94l-1.4-1l-1-1l-0.6-0.4l-0.7-0.1
	l-0.2-0.1l-0.2-0.1L62.1,91l-0.4-0.6L59.2,86l-2.6-3.8l-0.1-0.2l0-0.3v-0.5l-0.1-1.9l-0.1-0.4l-0.1-0.4l-0.3-0.3l-0.5-0.4L51.4,76
	L51,75.7l-0.5-0.4l-0.5-0.5L49.7,74l-1-1.3l0.6-1l1.6-1.3l0.3-0.3l0.2-0.4l0.2-0.3l0.2-0.2l0.5-0.3l0.1-0.1l0.4-0.5l1-1l0.2-0.3
	l0.2-0.4l0.1-0.2l0.1-0.2l0-0.3l-0.2-0.4l-1.3-1.7l-1.5-1.4l-0.3-0.5L51.1,61L51,60.8l-0.1-0.2l-0.1-0.2l-0.2-0.1l-0.2,0l-0.4,0.1
	l-1,0.8l-0.3,0.1h-1.6l-1.7,0.4L45,61.9l-0.6-0.7l-0.8-0.3L42,60.8l-0.5-0.5l0.2,0l0.3-0.6l0.3-0.9l0-0.5l-0.1-0.5l-0.1-0.4L41.9,57
	l-0.2-0.2l-0.8-0.3l-0.3-0.3l-0.3-0.5l-0.9-3.3l-0.1-1l0.2-0.9l1.5-2.3l0.2-2.6l0-2.7l0.6-2.6l0.6-1.4l0.2-1.2l0-1.2l0.2-1.3
	l0.6-1.2l0.8-1.1l0.6-1.2l-0.2-1.5l0.5,0l0.5,0.1l9,3.1l3.1,0.2l0.9,0.2l1,0.4l0.9,0.6l0.7,0.7l1.5,1.4l0.4,0.8l0.1,1.3l-0.4,1.9
	l0.2,0.7l0.9,0.8l0.9,0.6l0.5-0.1l0.4-0.6l0.7-0.8l0.9-0.4l0.8,0.1l0.8,0.2l0.9,0.1l3.1-0.8l1.1-0.1l7.9,1.5l2,0l3.7-2.4l3.5-2.2
	l2.9-1.3l8-1.7l7.8-3.6l1.4-0.4l5.6-3.6l3.3-1.3l1.7-0.2l3.2,0.4l9.3,2.8l2.4,1.3L141.5,35.4z"/>
<path class="st1" d="M180.6,38.5l1.1,3.4l0.5,1l2.5,3.2l0.6,0.6l0.4,0.2l0.5,0.1l0.5,0l0.9-0.1l0.4-0.1l0.7-0.3l0.2,0l0.2,0h0.3
	l0.2,0.1l4.5,1.8l3,1.7l0.6,0.6l0.3,0.5l0.1,0.2l0,0.3l0.1,0.8l-3.2,14.3l-4.7,21.8l-0.5,3.7v0.6l0.3,0.1l1.4,0.9l0.4,0.2l-0.4,0.8
	L171,125.2l-27.1-7.3l-14.3-1.1l-4.3,0.5l-0.7-1.1l-0.6-0.6l-1.9-1.4l-9.3-10l-0.7-0.9l-0.1-0.2l-0.1-0.3l-0.1-0.4l0-0.3v-0.3
	l0.3-2.1l1.2-5.4l1.4-3.3l0.4-0.7l0.2-0.3l0.1-0.2l1.9-2.7l1-1l0.2-0.3l0.1-0.2l0.4-0.8l0.2-0.7l0.1-0.2l0.1-0.3l0.1-0.3l0.1-0.6
	l-0.1-0.4l-0.2-0.3l-1.9-1.6l0-0.1l-0.6-1.1l-0.6-0.8l-0.7-0.7l-0.5-0.6l-0.4-0.9l-0.6-1.8l-0.2-1l-0.1-0.7l0.1-0.4l0.1-0.4l0.2-0.4
	l1-1.7l0.6-1.4l0.5-0.8l0.5-0.7l0.5-0.6l0.3-0.2l0.8-0.5l2-1l1.3-0.4l1.8-0.1l8-1.3l4-2.2l3.2-2.3l0.6-0.6l0.5-0.5l1.8-2.8l0.6-1.2
	l0.3-1l0.4-2.1v0l0.4-1.7l0.2-1.7l0.1-4l0-0.2l0-0.2l-0.1-0.2l-0.1-0.1l-0.2-0.1l-0.2-0.1l-0.2,0l-0.2,0.1l-0.4,0.2l-1.2,1l-0.5,0.3
	l-0.4,0.2h-0.2h-0.2l-0.2-0.1l-0.2-0.1l-0.2-0.3l-0.2-0.5l-0.2-1.1l0-0.5l0-0.3l0.2-0.1l0.2-0.1l2.4-0.4l0.2-0.1l0.2-0.2L142,39
	l0.1-0.4l0-0.3l0-0.2l-0.6-2.7l1.4,1.5l2.9,1.6l3.4,0.5l7.9-0.4l1.1-0.3l2.5-0.2l7.4,2.5l2.6-0.1L180.6,38.5z"/>
<path class="st1" d="M25.7,126.7l0,1.1l0.6,7l0,0.9l-0.4,1.4l-0.1,0.3l-0.2,0.2l-0.3,0.2l-0.2,0.2l-0.3,0.4l-0.2,0.1l-0.7,0.1
	l-0.2,0.1l-0.3,0.2l-0.2,0.1l-0.5,0.1l-0.2,0l-0.2,0.1l-0.3,0.2l-0.2,0.1l-0.2,0h-0.2l-0.5-0.1l-0.5,0l-0.5,0.3l0.4,1.6l2.3,0.5
	l0.8,0l1.9-0.2l0.4,0.1l0.3,0.1l0.3,0.7l0.2,0.8l0.2,0.4l0.1,0.2l0.2,0.2l1.3,0.9l0.2,0.3l0.2,0.4l-0.9,0.3l-0.4,0.2l-0.2,0.2
	l-0.1,0.1l-0.1,0.4l-0.1,0.5l0,0.3v0.2l0.1,0.6v0.4v0.1l-0.1,0.2l-0.2,0.2l-1.3,1.1l-0.7,1l-0.2,0.2l-0.2,0.1l-0.3,0.1l-0.1,0
	l-0.2,0.1l-1.1,1.6l-3.3,6l-0.1,0.4l-0.1,1.2l-0.1,0.6l-1.2-0.1l-1.3,0.2l-1.1,0l-1.1-0.3l-0.8-0.7l-0.4-0.2l-0.4-0.1l-0.6,0
	l-0.2-1.1l-0.9-1.8l-0.3-1.6l-0.5-0.9l-0.1-0.5v-2.4l-0.1-0.4L9,150.6L8.8,150l-0.3-1.2L7,144.5l0.3-0.2l0-0.3l0.3-0.4l0.1-0.4
	l-0.1-0.4l-0.3-0.4v-0.4l0.3-0.3v0l-0.1-0.1l-0.2-0.4l0.4-0.8L8,140l0.4-0.4l0.3-0.9l-0.2-0.9l-0.3-0.8L8,136.4v-2.9l0.3-0.7
	l2.3-3.5l1-1l-0.4-1.6l-1.1-2.2l2.1,0.7l0.8,0.5l1.4,1.2l0.3,0.1l7.3-0.6l0.2-0.1l0.4-0.2l0.7-0.4l0.6,0.1L25.7,126.7z"/>
<path class="st1" d="M21,91l0,0.2l-0.1,0.4L20.7,92l0,0.2l0,0.2l0,0.2l0.2,0.2l0.3,0.1L22,93h0.4l0.3-0.1l0.4-0.2l0.4-0.1l3.3-0.2
	l0.2,0.1l0.2,0.1l0.2,0.2l0.1,0.2v0.3l-0.1,0.2L27,94.1L25.8,95L25,95.7l-0.2,0.5l-0.1,1.5l-0.1,0.4l-0.1,0.3l-0.7,0.5l-0.5,0.5
	l-0.1,0.3l0,0.3l0.1,0.2l0.6,0.8l0.2,0.4l0.1,0.4l0.1,0.6l0.1,1.9l-0.2,4l-0.9,6.6l0,0.2l0.3,1.1l0.8,2.3l1.2,6l0.1,2.3l-1.8-0.9
	l-0.6-0.1l-0.7,0.4l-0.4,0.2l-0.2,0.1l-7.3,0.6l-0.3-0.1l-1.4-1.2l-0.8-0.5l-2.1-0.7l-0.8-1.6l0.6-2l-0.2-1L9.4,116l0.1-0.8L9,114.7
	l-2.3-3.2l-1-0.5l-0.5-0.4L5,110.1l-0.4-0.3l-0.8,0.1l-0.7,0.3l-0.3,0.2L2.3,110l0.1-0.7l0.3-0.8l0-0.7l-0.3-0.3l-1.7-0.9l0.1-0.3
	l0.1-0.6l0.1-0.3H0.7L0,105.7v-0.4l1-0.4l1-0.6l0.7-0.9l0.3-1.1l-0.1-0.6L2.4,101l-0.1-0.7l0.3-0.5l1.1-0.4l1.9-3.6l0.1-0.3v-1.4
	l-0.2-1.1L5,91.5l-0.6-1.3l-0.6-0.9L6,89.5l1.2-0.3l0.5-0.9l0.2-1.2l1.3-1.9l0.5,0.2l1-0.2l1-0.4l0.9-0.2l0.6,0.7v0.8L13,87l0.1,0.7
	l0.6,0.5l0.7,0.2l1.5,0l1.4,0.7l2.9,2.1L21,91z"/>
<desc  style="-webkit-tap-highlight-color: rgba(0, 0, 0, 0);">Created with Raphaël 2.1.0</desc>
<g>
	<g class="st2">
		<path class="st3" d="M31.5,166v-4.9h0.7v4.9H31.5z M31.7,163.9v-0.7h2.9v0.7H31.7z M34,166v-4.9h0.7v4.9H34z"/>
		<path class="st3" d="M37.3,166.1c-0.5,0-0.9-0.2-1.2-0.5c-0.3-0.3-0.4-0.8-0.4-1.4c0-0.6,0.1-1.1,0.4-1.4c0.3-0.3,0.7-0.5,1.2-0.5
			c0.5,0,0.9,0.2,1.2,0.5c0.3,0.3,0.4,0.8,0.4,1.4c0,0.6-0.1,1.1-0.4,1.4S37.8,166.1,37.3,166.1z M37.3,165.4c0.3,0,0.5-0.1,0.6-0.3
			c0.1-0.2,0.2-0.5,0.2-0.9c0-0.4-0.1-0.7-0.2-0.9c-0.1-0.2-0.4-0.3-0.6-0.3c-0.3,0-0.5,0.1-0.6,0.3c-0.1,0.2-0.2,0.5-0.2,0.9
			c0,0.4,0.1,0.7,0.2,0.9C36.8,165.3,37,165.4,37.3,165.4z"/>
		<path class="st3" d="M39.8,166v-3.7h0.7l0.1,0.8v2.9H39.8z M41.2,166v-2.9c0-0.2-0.1-0.3-0.3-0.3c-0.2,0-0.4,0.2-0.4,0.5l-0.2-0.5
			h0.2c0-0.4,0.2-0.5,0.6-0.5c0.2,0,0.3,0.1,0.5,0.2c0.1,0.1,0.2,0.3,0.2,0.6v3H41.2z M42.4,166v-2.8c0-0.3-0.1-0.4-0.3-0.4
			c-0.2,0-0.4,0.2-0.4,0.5l-0.3-0.5h0.3c0-0.1,0.1-0.3,0.2-0.4c0.1-0.1,0.3-0.2,0.4-0.2c0.3,0,0.4,0.1,0.6,0.2
			c0.1,0.1,0.2,0.4,0.2,0.7v2.9H42.4z"/>
		<path class="st3" d="M45.4,166.1c-0.3,0-0.5,0-0.7,0c-0.2,0-0.4,0-0.5-0.1l0.1-0.7c0.2,0,0.5,0.1,0.6,0.1c0.2,0,0.4,0,0.5,0
			c0.4,0,0.6,0,0.8-0.1c0.2-0.1,0.3-0.2,0.3-0.3c0-0.1,0-0.2-0.1-0.2c-0.1-0.1-0.2-0.1-0.3-0.1l-0.8-0.2c-0.4-0.1-0.6-0.2-0.8-0.3
			c-0.2-0.1-0.3-0.3-0.3-0.6c0-0.4,0.2-0.7,0.5-0.9s0.8-0.3,1.5-0.3c0.2,0,0.3,0,0.5,0c0.2,0,0.3,0,0.5,0.1L47,163
			c-0.2,0-0.4,0-0.5,0s-0.3,0-0.4,0c-0.4,0-0.7,0-0.9,0.1s-0.3,0.2-0.3,0.3c0,0.1,0,0.2,0.1,0.2c0.1,0,0.2,0.1,0.4,0.1l0.7,0.2
			c0.4,0.1,0.7,0.2,0.9,0.4s0.3,0.4,0.3,0.7c0,0.4-0.1,0.7-0.4,0.9C46.5,166,46,166.1,45.4,166.1z"/>
		<path class="st3" d="M53.7,166.1c-0.4,0-0.7-0.1-0.9-0.3c-0.2-0.2-0.3-0.6-0.3-1v-2.4h0.7v2.4c0,0.2,0.1,0.4,0.2,0.5
			c0.1,0.1,0.3,0.2,0.5,0.2c0.3,0,0.5-0.1,0.6-0.3c0.1-0.2,0.2-0.5,0.2-0.9l0.2,1h-0.2c-0.1,0.3-0.2,0.4-0.3,0.6
			S53.9,166.1,53.7,166.1z M54.7,165v-2.6h0.7v2.4L54.7,165z M54.7,166.1l-0.1-0.9v-0.6h0.7v0.8l0.5,0.1v0.6L54.7,166.1z"/>
		<path class="st3" d="M56.7,166v-3.7h0.7l0.1,0.8v2.9H56.7z M59,166v-2.4c0-0.2-0.1-0.4-0.2-0.5c-0.1-0.1-0.3-0.2-0.5-0.2
			c-0.6,0-0.9,0.3-0.9,1l-0.2-0.9h0.3c0-0.2,0.1-0.4,0.3-0.6c0.2-0.1,0.4-0.2,0.7-0.2c0.4,0,0.7,0.1,0.9,0.4c0.2,0.2,0.3,0.6,0.3,1
			v2.4H59z"/>
		<path class="st3" d="M60.8,166v-0.6h1.5v0.6H60.8z M61,163v-0.6H63v0.6H61z M62.6,161.8c-0.1,0-0.3-0.1-0.4-0.2
			c-0.1-0.1-0.2-0.2-0.2-0.4c0-0.1,0.1-0.3,0.2-0.4c0.1-0.1,0.2-0.2,0.4-0.2c0.1,0,0.3,0,0.4,0.2c0.1,0.1,0.1,0.2,0.1,0.4
			c0,0.1,0,0.3-0.1,0.4C62.8,161.7,62.7,161.8,62.6,161.8z M62.2,166v-3.5H63v3.5H62.2z M62.9,166v-0.6h1.2v0.6H62.9z"/>
		<path class="st3" d="M66,166l-1.3-3.7h0.8l1,3.1h0.1l1-3.1h0.8L67,166H66z"/>
		<path class="st3" d="M71,166.1c-0.6,0-1.1-0.2-1.5-0.5c-0.3-0.3-0.5-0.8-0.5-1.4c0-0.6,0.1-1.1,0.4-1.4c0.3-0.3,0.7-0.5,1.2-0.5
			c0.5,0,0.9,0.2,1.2,0.5c0.3,0.3,0.4,0.7,0.4,1.3c0,0.2,0,0.3,0,0.5h-2.6V164h1.9c0-0.3-0.1-0.6-0.2-0.8c-0.2-0.2-0.4-0.3-0.7-0.3
			c-0.3,0-0.6,0.1-0.7,0.3c-0.2,0.2-0.3,0.5-0.3,0.9c0,0.4,0.1,0.8,0.4,1s0.6,0.3,1,0.3c0.2,0,0.3,0,0.5,0s0.3,0,0.5-0.1l0.1,0.6
			c-0.2,0-0.4,0.1-0.6,0.1C71.3,166.1,71.2,166.1,71,166.1z"/>
		<path class="st3" d="M73.1,166v-0.6h2.5v0.6H73.1z M73.2,163v-0.6h1.2l0.1,0.6H73.2z M73.9,166v-3.7h0.6l0.1,1.1v2.6H73.9z
			 M74.6,164.5l-0.2-1.2h0.3c0-0.7,0.4-1,1-1c0.4,0,0.7,0.1,0.8,0.3c0.2,0.2,0.3,0.6,0.3,1.1h-0.7c0-0.3,0-0.5-0.1-0.6
			s-0.2-0.2-0.4-0.2c-0.3,0-0.5,0.1-0.7,0.4S74.6,164,74.6,164.5z"/>
		<path class="st3" d="M78.8,166.1c-0.3,0-0.5,0-0.7,0c-0.2,0-0.4,0-0.5-0.1l0.1-0.7c0.2,0,0.5,0.1,0.6,0.1c0.2,0,0.4,0,0.5,0
			c0.4,0,0.6,0,0.8-0.1c0.2-0.1,0.3-0.2,0.3-0.3c0-0.1,0-0.2-0.1-0.2c-0.1-0.1-0.2-0.1-0.3-0.1l-0.8-0.2c-0.4-0.1-0.6-0.2-0.8-0.3
			c-0.2-0.1-0.3-0.3-0.3-0.6c0-0.4,0.2-0.7,0.5-0.9s0.8-0.3,1.5-0.3c0.2,0,0.3,0,0.5,0c0.2,0,0.3,0,0.5,0.1l-0.1,0.6
			c-0.2,0-0.4,0-0.5,0s-0.3,0-0.4,0c-0.4,0-0.7,0-0.9,0.1s-0.3,0.2-0.3,0.3c0,0.1,0,0.2,0.1,0.2c0.1,0,0.2,0.1,0.4,0.1l0.7,0.2
			c0.4,0.1,0.7,0.2,0.9,0.4s0.3,0.4,0.3,0.7c0,0.4-0.1,0.7-0.4,0.9C79.9,166,79.4,166.1,78.8,166.1z"/>
		<path class="st3" d="M81.7,166v-0.6h1.5v0.6H81.7z M81.9,163v-0.6h1.9v0.6H81.9z M83.5,161.8c-0.1,0-0.3-0.1-0.4-0.2
			c-0.1-0.1-0.2-0.2-0.2-0.4c0-0.1,0.1-0.3,0.2-0.4c0.1-0.1,0.2-0.2,0.4-0.2c0.1,0,0.3,0,0.4,0.2c0.1,0.1,0.1,0.2,0.1,0.4
			c0,0.1,0,0.3-0.1,0.4C83.7,161.7,83.6,161.8,83.5,161.8z M83.1,166v-3.5h0.7v3.5H83.1z M83.8,166v-0.6H85v0.6H83.8z"/>
		<path class="st3" d="M85.6,163v-0.6h3.3v0.6H85.6z M86.5,164.3v-3.1h0.7v3.1H86.5z M88.1,166.1c-0.6,0-1-0.1-1.2-0.3
			c-0.2-0.2-0.4-0.6-0.4-1.1V164h0.7v0.6c0,0.3,0.1,0.5,0.2,0.6c0.1,0.1,0.4,0.2,0.7,0.2c0.1,0,0.2,0,0.4,0s0.3,0,0.4-0.1l0.1,0.6
			c-0.2,0-0.3,0-0.5,0.1S88.3,166.1,88.1,166.1z"/>
		<path class="st3" d="M91.2,166l-1.5-3.7h0.8l1.2,3.1h0.1v0.6H91.2z M89.8,167.7l0-0.7l0.6-0.1c0.2,0,0.5-0.1,0.6-0.2
			c0.2-0.1,0.3-0.3,0.4-0.5c0.1-0.2,0.2-0.5,0.3-0.8l0.9-3.2h0.8l-1.1,3.4c-0.1,0.4-0.3,0.8-0.5,1.1c-0.2,0.3-0.4,0.5-0.6,0.6
			c-0.2,0.1-0.5,0.2-0.8,0.3L89.8,167.7z"/>
	</g>
</g>
<g>
	<g class="st2">
		<path class="st3" d="M41.7,227.5v-4.9h0.7v4.9H41.7z M42.3,227.5v-0.7h0.5c0.5,0,0.9-0.1,1.1-0.4c0.3-0.3,0.4-0.7,0.4-1.3
			c0-0.6-0.1-1.1-0.4-1.4c-0.3-0.3-0.6-0.5-1.1-0.5h-0.5l-0.1-0.7h0.6c1.5,0,2.3,0.8,2.3,2.5c0,1.6-0.8,2.4-2.3,2.4H42.3z"/>
		<path class="st3" d="M46.9,227.6c-0.4,0-0.7-0.1-0.9-0.3c-0.2-0.2-0.3-0.4-0.3-0.8c0-0.4,0.1-0.7,0.4-0.9c0.3-0.2,0.7-0.3,1.2-0.3
			c0.2,0,0.4,0,0.6,0s0.3,0.1,0.5,0.1l-0.2,0.5c-0.2,0-0.3-0.1-0.5-0.1c-0.1,0-0.3,0-0.5,0c-0.6,0-1,0.2-1,0.6
			c0,0.2,0.1,0.3,0.2,0.4c0.1,0.1,0.3,0.1,0.5,0.1c0.2,0,0.4,0,0.6-0.1s0.3-0.2,0.3-0.3c0.1-0.1,0.1-0.2,0.1-0.4v-0.4l0.2,0.9H48
			l0.1-0.1c0,0.2,0,0.4-0.1,0.5c-0.1,0.1-0.2,0.2-0.4,0.3C47.3,227.6,47.1,227.6,46.9,227.6z M48.2,227.6l0-1.1l-0.1-0.3v-1
			c0-0.2-0.1-0.4-0.3-0.5c-0.2-0.1-0.4-0.2-0.8-0.2l-0.9,0l0.1-0.7l0.7,0c0.6,0,1.1,0.1,1.4,0.4c0.3,0.3,0.4,0.6,0.4,1.1v1.5
			l0.6,0.1v0.6L48.2,227.6z"/>
		<path class="st3" d="M49.9,227.5v-3.7h0.7l0.1,0.8v2.9H49.9z M51.3,227.5v-2.9c0-0.2-0.1-0.3-0.3-0.3c-0.2,0-0.4,0.2-0.4,0.5
			l-0.2-0.5h0.2c0-0.4,0.2-0.5,0.6-0.5c0.2,0,0.3,0.1,0.5,0.2c0.1,0.1,0.2,0.3,0.2,0.6v3H51.3z M52.6,227.5v-2.8
			c0-0.3-0.1-0.4-0.3-0.4c-0.2,0-0.4,0.2-0.4,0.5l-0.3-0.5H52c0-0.1,0.1-0.3,0.2-0.4c0.1-0.1,0.3-0.2,0.4-0.2c0.3,0,0.4,0.1,0.6,0.2
			c0.1,0.1,0.2,0.4,0.2,0.7v2.9H52.6z"/>
		<path class="st3" d="M55.2,227.6c-0.4,0-0.7-0.1-0.9-0.3c-0.2-0.2-0.3-0.4-0.3-0.8c0-0.4,0.1-0.7,0.4-0.9c0.3-0.2,0.7-0.3,1.2-0.3
			c0.2,0,0.4,0,0.6,0s0.3,0.1,0.5,0.1l-0.2,0.5c-0.2,0-0.3-0.1-0.5-0.1c-0.1,0-0.3,0-0.5,0c-0.6,0-1,0.2-1,0.6
			c0,0.2,0.1,0.3,0.2,0.4c0.1,0.1,0.3,0.1,0.5,0.1c0.2,0,0.4,0,0.6-0.1s0.3-0.2,0.3-0.3c0.1-0.1,0.1-0.2,0.1-0.4v-0.4l0.2,0.9h-0.3
			l0.1-0.1c0,0.2,0,0.4-0.1,0.5c-0.1,0.1-0.2,0.2-0.4,0.3C55.7,227.6,55.5,227.6,55.2,227.6z M56.5,227.6l0-1.1l-0.1-0.3v-1
			c0-0.2-0.1-0.4-0.3-0.5c-0.2-0.1-0.4-0.2-0.8-0.2l-0.9,0l0.1-0.7l0.7,0c0.6,0,1.1,0.1,1.4,0.4c0.3,0.3,0.4,0.6,0.4,1.1v1.5
			l0.6,0.1v0.6L56.5,227.6z"/>
		<path class="st3" d="M59.7,227.6c-0.3,0-0.5,0-0.7,0s-0.4,0-0.5-0.1l0.1-0.7c0.2,0,0.5,0.1,0.6,0.1c0.2,0,0.4,0,0.5,0
			c0.4,0,0.6,0,0.8-0.1s0.3-0.2,0.3-0.3c0-0.1,0-0.2-0.1-0.2s-0.2-0.1-0.3-0.1l-0.8-0.2c-0.4-0.1-0.6-0.2-0.8-0.3
			c-0.2-0.1-0.3-0.3-0.3-0.6c0-0.4,0.2-0.7,0.5-0.9c0.3-0.2,0.8-0.3,1.5-0.3c0.2,0,0.3,0,0.5,0s0.3,0,0.5,0.1l-0.1,0.6
			c-0.2,0-0.4,0-0.5,0c-0.1,0-0.3,0-0.4,0c-0.4,0-0.7,0-0.9,0.1c-0.2,0.1-0.3,0.2-0.3,0.3c0,0.1,0,0.2,0.1,0.2
			c0.1,0,0.2,0.1,0.4,0.1l0.7,0.2c0.4,0.1,0.7,0.2,0.9,0.4s0.3,0.4,0.3,0.7c0,0.4-0.1,0.7-0.4,0.9C60.8,227.5,60.3,227.6,59.7,227.6
			z"/>
		<path class="st3" d="M64.5,227.6c-0.6,0-1.1-0.2-1.5-0.5c-0.3-0.3-0.5-0.8-0.5-1.4c0-0.6,0.2-1.1,0.5-1.4s0.8-0.5,1.4-0.5
			c0.4,0,0.7,0.1,0.9,0.2c0.3,0.1,0.4,0.3,0.5,0.6l-0.6,0.4c-0.1-0.2-0.2-0.3-0.4-0.4c-0.2-0.1-0.3-0.1-0.5-0.1
			c-0.3,0-0.6,0.1-0.8,0.3c-0.2,0.2-0.3,0.5-0.3,0.9c0,0.4,0.1,0.7,0.3,1s0.5,0.3,1,0.3c0.2,0,0.3,0,0.5,0c0.2,0,0.3,0,0.5-0.1
			l0.1,0.6c-0.2,0-0.4,0.1-0.6,0.1C64.9,227.6,64.7,227.6,64.5,227.6z"/>
		<path class="st3" d="M67.9,227.6c-0.4,0-0.7-0.1-0.9-0.3c-0.2-0.2-0.3-0.6-0.3-1v-2.4h0.7v2.4c0,0.2,0.1,0.4,0.2,0.5
			c0.1,0.1,0.3,0.2,0.5,0.2c0.3,0,0.5-0.1,0.6-0.3c0.1-0.2,0.2-0.5,0.2-0.9l0.2,1h-0.2c-0.1,0.2-0.2,0.4-0.3,0.6
			C68.4,227.5,68.2,227.6,67.9,227.6z M69,226.5v-2.6h0.7v2.4L69,226.5z M69,227.6l-0.1-0.9V226h0.7v0.8l0.5,0.1v0.6L69,227.6z"/>
		<path class="st3" d="M72.2,227.6c-0.3,0-0.5,0-0.7,0s-0.4,0-0.5-0.1l0.1-0.7c0.2,0,0.5,0.1,0.6,0.1c0.2,0,0.4,0,0.5,0
			c0.4,0,0.6,0,0.8-0.1s0.3-0.2,0.3-0.3c0-0.1,0-0.2-0.1-0.2s-0.2-0.1-0.3-0.1l-0.8-0.2c-0.4-0.1-0.6-0.2-0.8-0.3
			c-0.2-0.1-0.3-0.3-0.3-0.6c0-0.4,0.2-0.7,0.5-0.9c0.3-0.2,0.8-0.3,1.5-0.3c0.2,0,0.3,0,0.5,0s0.3,0,0.5,0.1l-0.1,0.6
			c-0.2,0-0.4,0-0.5,0c-0.1,0-0.3,0-0.4,0c-0.4,0-0.7,0-0.9,0.1c-0.2,0.1-0.3,0.2-0.3,0.3c0,0.1,0,0.2,0.1,0.2
			c0.1,0,0.2,0.1,0.4,0.1l0.7,0.2c0.4,0.1,0.7,0.2,0.9,0.4s0.3,0.4,0.3,0.7c0,0.4-0.1,0.7-0.4,0.9C73.3,227.5,72.8,227.6,72.2,227.6
			z"/>
		<path class="st3" d="M80.5,227.6c-0.4,0-0.7-0.1-0.9-0.3c-0.2-0.2-0.3-0.6-0.3-1v-2.4H80v2.4c0,0.2,0.1,0.4,0.2,0.5
			c0.1,0.1,0.3,0.2,0.5,0.2c0.3,0,0.5-0.1,0.6-0.3c0.1-0.2,0.2-0.5,0.2-0.9l0.2,1h-0.2c-0.1,0.2-0.2,0.4-0.3,0.6
			C80.9,227.5,80.7,227.6,80.5,227.6z M81.5,226.5v-2.6h0.7v2.4L81.5,226.5z M81.6,227.6l-0.1-0.9V226h0.7v0.8l0.5,0.1v0.6
			L81.6,227.6z"/>
		<path class="st3" d="M83.5,227.5v-3.7h0.7l0.1,0.8v2.9H83.5z M85.8,227.5v-2.4c0-0.2-0.1-0.4-0.2-0.5c-0.1-0.1-0.3-0.2-0.5-0.2
			c-0.6,0-0.9,0.3-0.9,1l-0.2-0.9h0.3c0-0.2,0.1-0.4,0.3-0.6s0.4-0.2,0.7-0.2c0.4,0,0.7,0.1,0.9,0.4c0.2,0.2,0.3,0.6,0.3,1v2.4H85.8
			z"/>
		<path class="st3" d="M87.7,227.5v-0.6h1.5v0.6H87.7z M87.9,224.5v-0.6h1.9v0.6H87.9z M89.4,223.3c-0.1,0-0.3-0.1-0.4-0.2
			c-0.1-0.1-0.2-0.2-0.2-0.4c0-0.1,0.1-0.3,0.2-0.4c0.1-0.1,0.2-0.1,0.4-0.1c0.1,0,0.3,0,0.4,0.1c0.1,0.1,0.1,0.2,0.1,0.4
			c0,0.1,0,0.3-0.1,0.4C89.7,223.2,89.5,223.3,89.4,223.3z M89.1,227.5v-3.5h0.7v3.5H89.1z M89.7,227.5v-0.6h1.2v0.6H89.7z"/>
		<path class="st3" d="M92.9,227.5l-1.3-3.7h0.8l1,3.1h0.1l1-3.1h0.8l-1.3,3.7H92.9z"/>
		<path class="st3" d="M97.9,227.6c-0.6,0-1.1-0.2-1.5-0.5c-0.3-0.3-0.5-0.8-0.5-1.4c0-0.6,0.1-1.1,0.4-1.4c0.3-0.3,0.7-0.5,1.2-0.5
			c0.5,0,0.9,0.2,1.2,0.5s0.4,0.7,0.4,1.3c0,0.2,0,0.3,0,0.5h-2.6v-0.6h1.9c0-0.3-0.1-0.6-0.2-0.8s-0.4-0.3-0.7-0.3
			c-0.3,0-0.6,0.1-0.7,0.3c-0.2,0.2-0.3,0.5-0.3,0.9c0,0.4,0.1,0.8,0.4,1s0.6,0.3,1,0.3c0.2,0,0.3,0,0.5,0c0.1,0,0.3,0,0.5-0.1
			l0.1,0.6c-0.2,0-0.4,0.1-0.6,0.1C98.2,227.6,98,227.6,97.9,227.6z"/>
		<path class="st3" d="M99.9,227.5v-0.6h2.5v0.6H99.9z M100,224.5v-0.6h1.2l0.1,0.6H100z M100.7,227.5v-3.7h0.6l0.1,1.1v2.6H100.7z
			 M101.5,226l-0.2-1.2h0.3c0-0.7,0.4-1,1-1c0.4,0,0.7,0.1,0.8,0.3c0.2,0.2,0.3,0.6,0.3,1.1h-0.7c0-0.3,0-0.5-0.1-0.6
			s-0.2-0.2-0.4-0.2c-0.3,0-0.5,0.1-0.7,0.4C101.5,225.1,101.5,225.5,101.5,226z"/>
		<path class="st3" d="M105.6,227.6c-0.3,0-0.5,0-0.7,0s-0.4,0-0.5-0.1l0.1-0.7c0.2,0,0.5,0.1,0.6,0.1c0.2,0,0.4,0,0.5,0
			c0.4,0,0.6,0,0.8-0.1s0.3-0.2,0.3-0.3c0-0.1,0-0.2-0.1-0.2s-0.2-0.1-0.3-0.1l-0.8-0.2c-0.4-0.1-0.6-0.2-0.8-0.3
			c-0.2-0.1-0.3-0.3-0.3-0.6c0-0.4,0.2-0.7,0.5-0.9c0.3-0.2,0.8-0.3,1.5-0.3c0.2,0,0.3,0,0.5,0s0.3,0,0.5,0.1l-0.1,0.6
			c-0.2,0-0.4,0-0.5,0c-0.1,0-0.3,0-0.4,0c-0.4,0-0.7,0-0.9,0.1c-0.2,0.1-0.3,0.2-0.3,0.3c0,0.1,0,0.2,0.1,0.2
			c0.1,0,0.2,0.1,0.4,0.1l0.7,0.2c0.4,0.1,0.7,0.2,0.9,0.4s0.3,0.4,0.3,0.7c0,0.4-0.1,0.7-0.4,0.9
			C106.7,227.5,106.2,227.6,105.6,227.6z"/>
		<path class="st3" d="M108.5,227.5v-0.6h1.5v0.6H108.5z M108.7,224.5v-0.6h1.9v0.6H108.7z M110.3,223.3c-0.1,0-0.3-0.1-0.4-0.2
			c-0.1-0.1-0.2-0.2-0.2-0.4c0-0.1,0.1-0.3,0.2-0.4c0.1-0.1,0.2-0.1,0.4-0.1c0.1,0,0.3,0,0.4,0.1c0.1,0.1,0.1,0.2,0.1,0.4
			c0,0.1,0,0.3-0.1,0.4C110.5,223.2,110.4,223.3,110.3,223.3z M109.9,227.5v-3.5h0.7v3.5H109.9z M110.6,227.5v-0.6h1.2v0.6H110.6z"
			/>
		<path class="st3" d="M112.4,224.5v-0.6h3.3v0.6H112.4z M113.3,225.8v-3.1h0.7v3.1H113.3z M114.9,227.6c-0.6,0-1-0.1-1.2-0.3
			c-0.2-0.2-0.4-0.6-0.4-1.1v-0.6h0.7v0.6c0,0.3,0.1,0.5,0.2,0.6s0.4,0.2,0.7,0.2c0.1,0,0.2,0,0.4,0c0.1,0,0.3,0,0.4,0l0.1,0.6
			c-0.2,0-0.3,0-0.5,0.1C115.2,227.6,115.1,227.6,114.9,227.6z"/>
		<path class="st3" d="M118,227.5l-1.5-3.7h0.8l1.2,3.1h0.1v0.6H118z M116.6,229.2l0-0.7l0.6-0.1c0.2,0,0.5-0.1,0.6-0.2
			c0.2-0.1,0.3-0.3,0.4-0.5c0.1-0.2,0.2-0.5,0.3-0.8l0.9-3.2h0.8l-1.1,3.4c-0.1,0.4-0.3,0.8-0.5,1.1c-0.2,0.3-0.4,0.5-0.6,0.6
			s-0.5,0.2-0.8,0.3L116.6,229.2z"/>
	</g>
</g>
<g>
	<g class="st2">
		<path class="st3" d="M58.6,122V117h0.7v4.9H58.6z M58.7,119.8v-0.7h2.9v0.7H58.7z M61,122V117h0.7v4.9H61z"/>
		<path class="st3" d="M63.8,122c-0.4,0-0.7-0.1-0.9-0.3c-0.2-0.2-0.3-0.4-0.3-0.8c0-0.4,0.1-0.7,0.4-0.9c0.3-0.2,0.7-0.3,1.2-0.3
			c0.2,0,0.4,0,0.6,0c0.2,0,0.3,0.1,0.5,0.1l-0.2,0.5c-0.2,0-0.3-0.1-0.5-0.1c-0.1,0-0.3,0-0.5,0c-0.6,0-1,0.2-1,0.6
			c0,0.2,0.1,0.3,0.2,0.4c0.1,0.1,0.3,0.1,0.5,0.1c0.2,0,0.4,0,0.6-0.1c0.2-0.1,0.3-0.2,0.3-0.3c0.1-0.1,0.1-0.2,0.1-0.4v-0.4
			l0.2,0.9h-0.3l0.1-0.1c0,0.2,0,0.4-0.1,0.5c-0.1,0.1-0.2,0.2-0.4,0.3S64,122,63.8,122z M65.1,122l0-1.1l-0.1-0.3v-1
			c0-0.2-0.1-0.4-0.3-0.5s-0.4-0.2-0.8-0.2l-0.9,0l0.1-0.7l0.7,0c0.6,0,1.1,0.1,1.4,0.4c0.3,0.3,0.4,0.6,0.4,1.1v1.5l0.6,0.1v0.6
			L65.1,122z"/>
		<path class="st3" d="M66.8,122v-3.7h0.7l0.1,0.8v2.9H66.8z M68.2,122v-2.9c0-0.2-0.1-0.3-0.3-0.3c-0.2,0-0.4,0.2-0.4,0.5l-0.2-0.5
			h0.2c0-0.4,0.2-0.5,0.6-0.5c0.2,0,0.3,0.1,0.5,0.2c0.1,0.1,0.2,0.3,0.2,0.6v3H68.2z M69.5,122v-2.8c0-0.3-0.1-0.4-0.3-0.4
			c-0.2,0-0.4,0.2-0.4,0.5l-0.3-0.5h0.3c0-0.1,0.1-0.3,0.2-0.4c0.1-0.1,0.3-0.2,0.4-0.2c0.3,0,0.4,0.1,0.6,0.2
			c0.1,0.1,0.2,0.4,0.2,0.7v2.9H69.5z"/>
		<path class="st3" d="M72.1,122c-0.4,0-0.7-0.1-0.9-0.3c-0.2-0.2-0.3-0.4-0.3-0.8c0-0.4,0.1-0.7,0.4-0.9c0.3-0.2,0.7-0.3,1.2-0.3
			c0.2,0,0.4,0,0.6,0c0.2,0,0.3,0.1,0.5,0.1l-0.2,0.5c-0.2,0-0.3-0.1-0.5-0.1c-0.1,0-0.3,0-0.5,0c-0.6,0-1,0.2-1,0.6
			c0,0.2,0.1,0.3,0.2,0.4c0.1,0.1,0.3,0.1,0.5,0.1c0.2,0,0.4,0,0.6-0.1c0.2-0.1,0.3-0.2,0.3-0.3c0.1-0.1,0.1-0.2,0.1-0.4v-0.4
			l0.2,0.9h-0.3l0.1-0.1c0,0.2,0,0.4-0.1,0.5c-0.1,0.1-0.2,0.2-0.4,0.3S72.4,122,72.1,122z M73.4,122l0-1.1l-0.1-0.3v-1
			c0-0.2-0.1-0.4-0.3-0.5s-0.4-0.2-0.8-0.2l-0.9,0l0.1-0.7l0.7,0c0.6,0,1.1,0.1,1.4,0.4c0.3,0.3,0.4,0.6,0.4,1.1v1.5l0.6,0.1v0.6
			L73.4,122z"/>
		<path class="st3" d="M75.4,122v-5.2h0.7v5.2H75.4z M77.6,122v-2.4c0-0.2-0.1-0.4-0.2-0.5c-0.1-0.1-0.3-0.2-0.5-0.2
			c-0.6,0-0.9,0.4-0.9,1.1l-0.2-0.9h0.3c0-0.2,0.1-0.4,0.3-0.6c0.2-0.1,0.4-0.2,0.7-0.2c0.4,0,0.7,0.1,0.9,0.4s0.3,0.6,0.3,1v2.4
			H77.6z"/>
		<path class="st3" d="M84.9,122c-0.4,0-0.7-0.1-0.9-0.3c-0.2-0.2-0.3-0.6-0.3-1v-2.4h0.7v2.4c0,0.2,0.1,0.4,0.2,0.5
			s0.3,0.2,0.5,0.2c0.3,0,0.5-0.1,0.6-0.3s0.2-0.5,0.2-0.9l0.2,1h-0.2c-0.1,0.3-0.2,0.4-0.3,0.6C85.3,122,85.1,122,84.9,122z
			 M85.9,120.9v-2.6h0.7v2.4L85.9,120.9z M85.9,122l-0.1-0.9v-0.6h0.7v0.8l0.5,0.1v0.6L85.9,122z"/>
		<path class="st3" d="M87.9,122v-3.7h0.7l0.1,0.8v2.9H87.9z M90.2,122v-2.4c0-0.2-0.1-0.4-0.2-0.5c-0.1-0.1-0.3-0.2-0.5-0.2
			c-0.6,0-0.9,0.3-0.9,1l-0.2-0.9h0.3c0-0.2,0.1-0.4,0.3-0.6c0.2-0.1,0.4-0.2,0.7-0.2c0.4,0,0.7,0.1,0.9,0.4s0.3,0.6,0.3,1v2.4H90.2
			z"/>
		<path class="st3" d="M92,122v-0.6h1.5v0.6H92z M92.2,118.9v-0.6h1.9v0.6H92.2z M93.8,117.7c-0.1,0-0.3-0.1-0.4-0.2
			c-0.1-0.1-0.2-0.2-0.2-0.4c0-0.1,0.1-0.3,0.2-0.4c0.1-0.1,0.2-0.1,0.4-0.1c0.1,0,0.3,0,0.4,0.1c0.1,0.1,0.1,0.2,0.1,0.4
			c0,0.1,0,0.3-0.1,0.4C94,117.6,93.9,117.7,93.8,117.7z M93.4,122v-3.5h0.7v3.5H93.4z M94.1,122v-0.6h1.2v0.6H94.1z"/>
		<path class="st3" d="M97.2,122l-1.3-3.7h0.8l1,3.1h0.1l1-3.1h0.8l-1.3,3.7H97.2z"/>
		<path class="st3" d="M102.2,122c-0.6,0-1.1-0.2-1.5-0.5s-0.5-0.8-0.5-1.4c0-0.6,0.1-1.1,0.4-1.4c0.3-0.3,0.7-0.5,1.2-0.5
			c0.5,0,0.9,0.2,1.2,0.5c0.3,0.3,0.4,0.7,0.4,1.3c0,0.2,0,0.3,0,0.5h-2.6v-0.6h1.9c0-0.3-0.1-0.6-0.2-0.8c-0.2-0.2-0.4-0.3-0.7-0.3
			c-0.3,0-0.6,0.1-0.7,0.3s-0.3,0.5-0.3,0.9c0,0.4,0.1,0.8,0.4,1s0.6,0.3,1,0.3c0.2,0,0.3,0,0.5,0c0.1,0,0.3,0,0.5-0.1l0.1,0.6
			c-0.2,0-0.4,0.1-0.6,0.1C102.5,122,102.4,122,102.2,122z"/>
		<path class="st3" d="M104.3,122v-0.6h2.5v0.6H104.3z M104.4,118.9v-0.6h1.2l0.1,0.6H104.4z M105.1,122v-3.7h0.6l0.1,1.1v2.6H105.1
			z M105.8,120.4l-0.2-1.2h0.3c0-0.7,0.4-1,1-1c0.4,0,0.7,0.1,0.8,0.3c0.2,0.2,0.3,0.6,0.3,1.1h-0.7c0-0.3,0-0.5-0.1-0.6
			s-0.2-0.2-0.4-0.2c-0.3,0-0.5,0.1-0.7,0.4C105.9,119.5,105.8,119.9,105.8,120.4z"/>
		<path class="st3" d="M110,122c-0.3,0-0.5,0-0.7,0c-0.2,0-0.4,0-0.5-0.1l0.1-0.7c0.2,0,0.5,0.1,0.6,0.1c0.2,0,0.4,0,0.5,0
			c0.4,0,0.6,0,0.8-0.1c0.2-0.1,0.3-0.2,0.3-0.3c0-0.1,0-0.2-0.1-0.2c-0.1-0.1-0.2-0.1-0.3-0.1l-0.8-0.2c-0.4-0.1-0.6-0.2-0.8-0.3
			c-0.2-0.1-0.3-0.3-0.3-0.6c0-0.4,0.2-0.7,0.5-0.9c0.3-0.2,0.8-0.3,1.5-0.3c0.2,0,0.3,0,0.5,0c0.2,0,0.3,0,0.5,0.1l-0.1,0.6
			c-0.2,0-0.4,0-0.5,0c-0.1,0-0.3,0-0.4,0c-0.4,0-0.7,0-0.9,0.1c-0.2,0.1-0.3,0.2-0.3,0.3c0,0.1,0,0.2,0.1,0.2
			c0.1,0,0.2,0.1,0.4,0.1l0.7,0.2c0.4,0.1,0.7,0.2,0.9,0.4s0.3,0.4,0.3,0.7c0,0.4-0.1,0.7-0.4,0.9C111.1,121.9,110.6,122,110,122z"
			/>
		<path class="st3" d="M112.9,122v-0.6h1.5v0.6H112.9z M113.1,118.9v-0.6h1.9v0.6H113.1z M114.7,117.7c-0.1,0-0.3-0.1-0.4-0.2
			c-0.1-0.1-0.2-0.2-0.2-0.4c0-0.1,0.1-0.3,0.2-0.4c0.1-0.1,0.2-0.1,0.4-0.1c0.1,0,0.3,0,0.4,0.1c0.1,0.1,0.1,0.2,0.1,0.4
			c0,0.1,0,0.3-0.1,0.4C114.9,117.6,114.8,117.7,114.7,117.7z M114.3,122v-3.5h0.7v3.5H114.3z M115,122v-0.6h1.2v0.6H115z"/>
		<path class="st3" d="M116.8,118.9v-0.6h3.3v0.6H116.8z M117.7,120.2v-3.1h0.7v3.1H117.7z M119.3,122c-0.6,0-1-0.1-1.2-0.3
			c-0.2-0.2-0.4-0.6-0.4-1.1v-0.6h0.7v0.6c0,0.3,0.1,0.5,0.2,0.6c0.1,0.1,0.4,0.2,0.7,0.2c0.1,0,0.2,0,0.4,0c0.1,0,0.3,0,0.4-0.1
			l0.1,0.6c-0.2,0-0.3,0-0.5,0.1C119.6,122,119.5,122,119.3,122z"/>
		<path class="st3" d="M122.4,122l-1.5-3.7h0.8l1.2,3.1h0.1v0.6H122.4z M121,123.6l0-0.7l0.6-0.1c0.2,0,0.5-0.1,0.6-0.2
			s0.3-0.3,0.4-0.5c0.1-0.2,0.2-0.5,0.3-0.8l0.9-3.2h0.8l-1.1,3.4c-0.1,0.4-0.3,0.8-0.5,1.1s-0.4,0.5-0.6,0.6
			c-0.2,0.1-0.5,0.2-0.8,0.3L121,123.6z"/>
	</g>
</g>
<g>
	<g class="st2">
		<path class="st3" d="M0.3,134.5v-0.7h3.6v0.7H0.3z M1.7,138.7v-4.9h0.7v4.9H1.7z"/>
		<path class="st3" d="M5.7,138.8c-0.4,0-0.7-0.1-0.9-0.3c-0.2-0.2-0.3-0.4-0.3-0.8c0-0.4,0.1-0.7,0.4-0.9c0.3-0.2,0.7-0.3,1.2-0.3
			c0.2,0,0.4,0,0.6,0c0.2,0,0.3,0.1,0.5,0.1l-0.2,0.5c-0.2,0-0.3-0.1-0.5-0.1c-0.1,0-0.3,0-0.5,0c-0.6,0-1,0.2-1,0.6
			c0,0.2,0.1,0.3,0.2,0.4c0.1,0.1,0.3,0.1,0.5,0.1c0.2,0,0.4,0,0.6-0.1c0.2-0.1,0.3-0.2,0.3-0.3c0.1-0.1,0.1-0.2,0.1-0.4V137
			l0.2,0.9H6.8l0.1-0.1c0,0.2,0,0.4-0.1,0.5c-0.1,0.1-0.2,0.2-0.4,0.3S6,138.8,5.7,138.8z M7,138.8l0-1.1l-0.1-0.3v-1
			c0-0.2-0.1-0.4-0.3-0.5s-0.4-0.2-0.8-0.2l-0.9,0L5,135l0.7,0c0.6,0,1.1,0.1,1.4,0.4c0.3,0.3,0.4,0.6,0.4,1.1v1.5l0.6,0.1v0.6
			L7,138.8z"/>
		<path class="st3" d="M8.6,138.7v-0.6h2.5v0.6H8.6z M8.8,135.7v-0.6H10l0.1,0.6H8.8z M9.5,138.7v-3.7H10l0.1,1.1v2.6H9.5z
			 M10.2,137.2L10,136h0.3c0-0.7,0.4-1,1-1c0.4,0,0.7,0.1,0.8,0.3c0.2,0.2,0.3,0.6,0.3,1.1h-0.7c0-0.3,0-0.5-0.1-0.6
			s-0.2-0.2-0.4-0.2c-0.3,0-0.5,0.1-0.7,0.4C10.3,136.3,10.2,136.7,10.2,137.2z"/>
		<path class="st3" d="M12.8,135.7v-0.6h3.3v0.6H12.8z M13.7,137v-3.1h0.7v3.1H13.7z M15.3,138.8c-0.6,0-1-0.1-1.2-0.3
			c-0.2-0.2-0.4-0.6-0.4-1.1v-0.6h0.7v0.6c0,0.3,0.1,0.5,0.2,0.6c0.1,0.1,0.4,0.2,0.7,0.2c0.1,0,0.2,0,0.4,0c0.1,0,0.3,0,0.4-0.1
			l0.1,0.6c-0.2,0-0.3,0-0.5,0.1C15.6,138.8,15.5,138.8,15.3,138.8z"/>
		<path class="st3" d="M18.4,138.8c-0.4,0-0.7-0.1-0.9-0.3c-0.2-0.2-0.3-0.6-0.3-1v-2.4h0.7v2.4c0,0.2,0.1,0.4,0.2,0.5
			s0.3,0.2,0.5,0.2c0.3,0,0.5-0.1,0.6-0.3s0.2-0.5,0.2-0.9l0.2,1h-0.2c-0.1,0.3-0.2,0.4-0.3,0.6C18.9,138.7,18.7,138.8,18.4,138.8z
			 M19.4,137.7v-2.6h0.7v2.4L19.4,137.7z M19.5,138.8l-0.1-0.9v-0.6h0.7v0.8l0.5,0.1v0.6L19.5,138.8z"/>
		<path class="st3" d="M22.7,138.8c-0.3,0-0.5,0-0.7,0c-0.2,0-0.4,0-0.5-0.1l0.1-0.7c0.2,0,0.5,0.1,0.6,0.1c0.2,0,0.4,0,0.5,0
			c0.4,0,0.6,0,0.8-0.1c0.2-0.1,0.3-0.2,0.3-0.3c0-0.1,0-0.2-0.1-0.2c-0.1-0.1-0.2-0.1-0.3-0.1l-0.8-0.2c-0.4-0.1-0.6-0.2-0.8-0.3
			c-0.2-0.1-0.3-0.3-0.3-0.6c0-0.4,0.2-0.7,0.5-0.9c0.3-0.2,0.8-0.3,1.5-0.3c0.2,0,0.3,0,0.5,0c0.2,0,0.3,0,0.5,0.1l-0.1,0.6
			c-0.2,0-0.4,0-0.5,0c-0.1,0-0.3,0-0.4,0c-0.4,0-0.7,0-0.9,0.1c-0.2,0.1-0.3,0.2-0.3,0.3c0,0.1,0,0.2,0.1,0.2
			c0.1,0,0.2,0.1,0.4,0.1l0.7,0.2c0.4,0.1,0.7,0.2,0.9,0.4s0.3,0.4,0.3,0.7c0,0.4-0.1,0.7-0.4,0.9C23.8,138.7,23.3,138.8,22.7,138.8
			z"/>
		<path class="st3" d="M31,138.8c-0.4,0-0.7-0.1-0.9-0.3c-0.2-0.2-0.3-0.6-0.3-1v-2.4h0.7v2.4c0,0.2,0.1,0.4,0.2,0.5
			s0.3,0.2,0.5,0.2c0.3,0,0.5-0.1,0.6-0.3s0.2-0.5,0.2-0.9l0.2,1h-0.2c-0.1,0.3-0.2,0.4-0.3,0.6C31.4,138.7,31.2,138.8,31,138.8z
			 M32,137.7v-2.6h0.7v2.4L32,137.7z M32,138.8l-0.1-0.9v-0.6h0.7v0.8l0.5,0.1v0.6L32,138.8z"/>
		<path class="st3" d="M34,138.7v-3.7h0.7l0.1,0.8v2.9H34z M36.3,138.7v-2.4c0-0.2-0.1-0.4-0.2-0.5c-0.1-0.1-0.3-0.2-0.5-0.2
			c-0.6,0-0.9,0.3-0.9,1l-0.2-0.9h0.3c0-0.2,0.1-0.4,0.3-0.6c0.2-0.1,0.4-0.2,0.7-0.2c0.4,0,0.7,0.1,0.9,0.4s0.3,0.6,0.3,1v2.4H36.3
			z"/>
		<path class="st3" d="M38.1,138.7v-0.6h1.5v0.6H38.1z M38.3,135.7v-0.6h1.9v0.6H38.3z M39.9,134.5c-0.1,0-0.3-0.1-0.4-0.2
			c-0.1-0.1-0.2-0.2-0.2-0.4c0-0.1,0.1-0.3,0.2-0.4c0.1-0.1,0.2-0.1,0.4-0.1c0.1,0,0.3,0,0.4,0.1c0.1,0.1,0.1,0.2,0.1,0.4
			c0,0.1,0,0.3-0.1,0.4C40.1,134.4,40,134.5,39.9,134.5z M39.5,138.7v-3.5h0.7v3.5H39.5z M40.2,138.7v-0.6h1.2v0.6H40.2z"/>
		<path class="st3" d="M43.3,138.7l-1.3-3.7h0.8l1,3.1h0.1l1-3.1h0.8l-1.3,3.7H43.3z"/>
		<path class="st3" d="M48.3,138.8c-0.6,0-1.1-0.2-1.5-0.5s-0.5-0.8-0.5-1.4c0-0.6,0.1-1.1,0.4-1.4c0.3-0.3,0.7-0.5,1.2-0.5
			c0.5,0,0.9,0.2,1.2,0.5c0.3,0.3,0.4,0.7,0.4,1.3c0,0.2,0,0.3,0,0.5H47v-0.6h1.9c0-0.3-0.1-0.6-0.2-0.8c-0.2-0.2-0.4-0.3-0.7-0.3
			c-0.3,0-0.6,0.1-0.7,0.3s-0.3,0.5-0.3,0.9c0,0.4,0.1,0.8,0.4,1s0.6,0.3,1,0.3c0.2,0,0.3,0,0.5,0c0.1,0,0.3,0,0.5-0.1l0.1,0.6
			c-0.2,0-0.4,0.1-0.6,0.1C48.6,138.8,48.5,138.8,48.3,138.8z"/>
		<path class="st3" d="M50.4,138.7v-0.6h2.5v0.6H50.4z M50.5,135.7v-0.6h1.2l0.1,0.6H50.5z M51.2,138.7v-3.7h0.6l0.1,1.1v2.6H51.2z
			 M51.9,137.2l-0.2-1.2H52c0-0.7,0.4-1,1-1c0.4,0,0.7,0.1,0.8,0.3c0.2,0.2,0.3,0.6,0.3,1.1h-0.7c0-0.3,0-0.5-0.1-0.6
			s-0.2-0.2-0.4-0.2c-0.3,0-0.5,0.1-0.7,0.4C52,136.3,51.9,136.7,51.9,137.2z"/>
		<path class="st3" d="M56.1,138.8c-0.3,0-0.5,0-0.7,0c-0.2,0-0.4,0-0.5-0.1l0.1-0.7c0.2,0,0.5,0.1,0.6,0.1c0.2,0,0.4,0,0.5,0
			c0.4,0,0.6,0,0.8-0.1c0.2-0.1,0.3-0.2,0.3-0.3c0-0.1,0-0.2-0.1-0.2c-0.1-0.1-0.2-0.1-0.3-0.1l-0.8-0.2c-0.4-0.1-0.6-0.2-0.8-0.3
			c-0.2-0.1-0.3-0.3-0.3-0.6c0-0.4,0.2-0.7,0.5-0.9c0.3-0.2,0.8-0.3,1.5-0.3c0.2,0,0.3,0,0.5,0c0.2,0,0.3,0,0.5,0.1l-0.1,0.6
			c-0.2,0-0.4,0-0.5,0c-0.1,0-0.3,0-0.4,0c-0.4,0-0.7,0-0.9,0.1c-0.2,0.1-0.3,0.2-0.3,0.3c0,0.1,0,0.2,0.1,0.2
			c0.1,0,0.2,0.1,0.4,0.1l0.7,0.2c0.4,0.1,0.7,0.2,0.9,0.4s0.3,0.4,0.3,0.7c0,0.4-0.1,0.7-0.4,0.9C57.2,138.7,56.7,138.8,56.1,138.8
			z"/>
		<path class="st3" d="M59,138.7v-0.6h1.5v0.6H59z M59.2,135.7v-0.6h1.9v0.6H59.2z M60.8,134.5c-0.1,0-0.3-0.1-0.4-0.2
			c-0.1-0.1-0.2-0.2-0.2-0.4c0-0.1,0.1-0.3,0.2-0.4c0.1-0.1,0.2-0.1,0.4-0.1c0.1,0,0.3,0,0.4,0.1c0.1,0.1,0.1,0.2,0.1,0.4
			c0,0.1,0,0.3-0.1,0.4C61,134.4,60.9,134.5,60.8,134.5z M60.4,138.7v-3.5h0.7v3.5H60.4z M61.1,138.7v-0.6h1.2v0.6H61.1z"/>
		<path class="st3" d="M62.9,135.7v-0.6h3.3v0.6H62.9z M63.8,137v-3.1h0.7v3.1H63.8z M65.4,138.8c-0.6,0-1-0.1-1.2-0.3
			c-0.2-0.2-0.4-0.6-0.4-1.1v-0.6h0.7v0.6c0,0.3,0.1,0.5,0.2,0.6c0.1,0.1,0.4,0.2,0.7,0.2c0.1,0,0.2,0,0.4,0c0.1,0,0.3,0,0.4-0.1
			l0.1,0.6c-0.2,0-0.3,0-0.5,0.1C65.7,138.8,65.6,138.8,65.4,138.8z"/>
		<path class="st3" d="M68.5,138.7l-1.5-3.7h0.8l1.2,3.1h0.1v0.6H68.5z M67.1,140.4l0-0.7l0.6-0.1c0.2,0,0.5-0.1,0.6-0.2
			s0.3-0.3,0.4-0.5c0.1-0.2,0.2-0.5,0.3-0.8l0.9-3.2h0.8l-1.1,3.4c-0.1,0.4-0.3,0.8-0.5,1.1s-0.4,0.5-0.6,0.6
			c-0.2,0.1-0.5,0.2-0.8,0.3L67.1,140.4z"/>
	</g>
</g>
<g>
	<g class="st2">
		<path class="st3" d="M5.2,97.9v-4.9h0.7v4.9H5.2z M5.2,97.9v-0.7h3.3v0.7H5.2z"/>
		<path class="st3" d="M10.4,98c-0.4,0-0.7-0.1-0.9-0.3c-0.2-0.2-0.3-0.4-0.3-0.8c0-0.4,0.1-0.7,0.4-0.9s0.7-0.3,1.2-0.3
			c0.2,0,0.4,0,0.6,0c0.2,0,0.3,0.1,0.5,0.1l-0.2,0.5c-0.2,0-0.3-0.1-0.5-0.1s-0.3,0-0.5,0c-0.6,0-1,0.2-1,0.6
			c0,0.2,0.1,0.3,0.2,0.4c0.1,0.1,0.3,0.1,0.5,0.1c0.2,0,0.4,0,0.6-0.1c0.2-0.1,0.3-0.2,0.3-0.3c0.1-0.1,0.1-0.2,0.1-0.4v-0.4
			l0.2,0.9h-0.3l0.1-0.1c0,0.2,0,0.4-0.1,0.5s-0.2,0.2-0.4,0.3C10.8,97.9,10.6,98,10.4,98z M11.7,97.9l0-1.1l-0.1-0.3v-1
			c0-0.2-0.1-0.4-0.3-0.5c-0.2-0.1-0.4-0.2-0.8-0.2l-0.9,0l0.1-0.7l0.7,0c0.6,0,1.1,0.1,1.4,0.4c0.3,0.3,0.4,0.6,0.4,1.1v1.5
			l0.6,0.1v0.6L11.7,97.9z"/>
		<path class="st3" d="M13.3,94.8v-0.6h3.3v0.6H13.3z M14.2,96.1v-3.1h0.7v3.1H14.2z M15.8,98c-0.6,0-1-0.1-1.2-0.3
			c-0.2-0.2-0.4-0.6-0.4-1.1v-0.6h0.7v0.6c0,0.3,0.1,0.5,0.2,0.6c0.1,0.1,0.4,0.2,0.7,0.2c0.1,0,0.2,0,0.4,0s0.3,0,0.4-0.1l0.1,0.6
			c-0.2,0-0.3,0-0.5,0.1S15.9,98,15.8,98z"/>
		<path class="st3" d="M17.4,94.8v-0.6h3.3v0.6H17.4z M18.4,96.1v-3.1h0.7v3.1H18.4z M19.9,98c-0.6,0-1-0.1-1.2-0.3
			c-0.2-0.2-0.4-0.6-0.4-1.1v-0.6h0.7v0.6c0,0.3,0.1,0.5,0.2,0.6c0.1,0.1,0.4,0.2,0.7,0.2c0.1,0,0.2,0,0.4,0s0.3,0,0.4-0.1l0.1,0.6
			c-0.2,0-0.3,0-0.5,0.1S20.1,98,19.9,98z"/>
		<path class="st3" d="M22.9,98c-0.4,0-0.7-0.1-0.9-0.3c-0.2-0.2-0.3-0.4-0.3-0.8c0-0.4,0.1-0.7,0.4-0.9s0.7-0.3,1.2-0.3
			c0.2,0,0.4,0,0.6,0c0.2,0,0.3,0.1,0.5,0.1l-0.2,0.5c-0.2,0-0.3-0.1-0.5-0.1s-0.3,0-0.5,0c-0.6,0-1,0.2-1,0.6
			c0,0.2,0.1,0.3,0.2,0.4c0.1,0.1,0.3,0.1,0.5,0.1c0.2,0,0.4,0,0.6-0.1c0.2-0.1,0.3-0.2,0.3-0.3c0.1-0.1,0.1-0.2,0.1-0.4v-0.4
			l0.2,0.9H24l0.1-0.1c0,0.2,0,0.4-0.1,0.5s-0.2,0.2-0.4,0.3C23.4,97.9,23.2,98,22.9,98z M24.2,97.9l0-1.1l-0.1-0.3v-1
			c0-0.2-0.1-0.4-0.3-0.5c-0.2-0.1-0.4-0.2-0.8-0.2l-0.9,0l0.1-0.7l0.7,0c0.6,0,1.1,0.1,1.4,0.4c0.3,0.3,0.4,0.6,0.4,1.1v1.5
			l0.6,0.1v0.6L24.2,97.9z"/>
		<path class="st3" d="M26.1,97.9v-5.2h0.7v5.2H26.1z M26.6,96.5v-0.7H27c0.3,0,0.6-0.1,0.8-0.2c0.2-0.1,0.4-0.3,0.5-0.5
			c0.1-0.2,0.2-0.6,0.2-1h0.8c-0.1,0.8-0.3,1.3-0.7,1.7c-0.3,0.4-0.8,0.6-1.4,0.6H26.6z M28.6,97.9l-1.1-1.8l0.7-0.3l1.3,2.1H28.6z"
			/>
		<path class="st3" d="M30.3,97.9v-0.6h1.5v0.6H30.3z M30.5,94.8v-0.6h1.9v0.6H30.5z M32,93.6c-0.1,0-0.3-0.1-0.4-0.2
			c-0.1-0.1-0.2-0.2-0.2-0.4c0-0.1,0.1-0.3,0.2-0.4c0.1-0.1,0.2-0.2,0.4-0.2c0.1,0,0.3,0,0.4,0.2c0.1,0.1,0.1,0.2,0.1,0.4
			c0,0.1,0,0.3-0.1,0.4C32.3,93.6,32.2,93.6,32,93.6z M31.7,97.9v-3.5h0.7v3.5H31.7z M32.3,97.9v-0.6h1.2v0.6H32.3z"/>
		<path class="st3" d="M35.4,98c-0.4,0-0.7-0.1-0.9-0.3c-0.2-0.2-0.3-0.4-0.3-0.8c0-0.4,0.1-0.7,0.4-0.9s0.7-0.3,1.2-0.3
			c0.2,0,0.4,0,0.6,0c0.2,0,0.3,0.1,0.5,0.1l-0.2,0.5c-0.2,0-0.3-0.1-0.5-0.1s-0.3,0-0.5,0c-0.6,0-1,0.2-1,0.6
			c0,0.2,0.1,0.3,0.2,0.4c0.1,0.1,0.3,0.1,0.5,0.1c0.2,0,0.4,0,0.6-0.1c0.2-0.1,0.3-0.2,0.3-0.3c0.1-0.1,0.1-0.2,0.1-0.4v-0.4
			l0.2,0.9h-0.3l0.1-0.1c0,0.2,0,0.4-0.1,0.5s-0.2,0.2-0.4,0.3C35.9,97.9,35.7,98,35.4,98z M36.7,97.9l0-1.1l-0.1-0.3v-1
			c0-0.2-0.1-0.4-0.3-0.5c-0.2-0.1-0.4-0.2-0.8-0.2l-0.9,0l0.1-0.7l0.7,0c0.6,0,1.1,0.1,1.4,0.4c0.3,0.3,0.4,0.6,0.4,1.1v1.5
			l0.6,0.1v0.6L36.7,97.9z"/>
		<path class="st3" d="M44,98c-0.4,0-0.7-0.1-0.9-0.3c-0.2-0.2-0.3-0.6-0.3-1v-2.4h0.7v2.4c0,0.2,0.1,0.4,0.2,0.5
			c0.1,0.1,0.3,0.2,0.5,0.2c0.3,0,0.5-0.1,0.6-0.3c0.1-0.2,0.2-0.5,0.2-0.9l0.2,1h-0.2c-0.1,0.3-0.2,0.4-0.3,0.6S44.2,98,44,98z
			 M45,96.8v-2.6h0.7v2.4L45,96.8z M45.1,97.9L45,97v-0.6h0.7v0.8l0.5,0.1v0.6L45.1,97.9z"/>
		<path class="st3" d="M47,97.9v-3.7h0.7l0.1,0.8v2.9H47z M49.3,97.9v-2.4c0-0.2-0.1-0.4-0.2-0.5c-0.1-0.1-0.3-0.2-0.5-0.2
			c-0.6,0-0.9,0.3-0.9,1l-0.2-0.9h0.3c0-0.2,0.1-0.4,0.3-0.6c0.2-0.1,0.4-0.2,0.7-0.2c0.4,0,0.7,0.1,0.9,0.4c0.2,0.2,0.3,0.6,0.3,1
			v2.4H49.3z"/>
		<path class="st3" d="M51.2,97.9v-0.6h1.5v0.6H51.2z M51.4,94.8v-0.6h1.9v0.6H51.4z M52.9,93.6c-0.1,0-0.3-0.1-0.4-0.2
			c-0.1-0.1-0.2-0.2-0.2-0.4c0-0.1,0.1-0.3,0.2-0.4c0.1-0.1,0.2-0.2,0.4-0.2c0.1,0,0.3,0,0.4,0.2c0.1,0.1,0.1,0.2,0.1,0.4
			c0,0.1,0,0.3-0.1,0.4C53.2,93.6,53,93.6,52.9,93.6z M52.6,97.9v-3.5h0.7v3.5H52.6z M53.2,97.9v-0.6h1.2v0.6H53.2z"/>
		<path class="st3" d="M56.4,97.9L55,94.2h0.8l1,3.1h0.1l1-3.1h0.8l-1.3,3.7H56.4z"/>
		<path class="st3" d="M61.4,98c-0.6,0-1.1-0.2-1.5-0.5c-0.3-0.3-0.5-0.8-0.5-1.4c0-0.6,0.1-1.1,0.4-1.4c0.3-0.3,0.7-0.5,1.2-0.5
			c0.5,0,0.9,0.2,1.2,0.5c0.3,0.3,0.4,0.7,0.4,1.3c0,0.2,0,0.3,0,0.5H60v-0.6h1.9c0-0.3-0.1-0.6-0.2-0.8c-0.2-0.2-0.4-0.3-0.7-0.3
			c-0.3,0-0.6,0.1-0.7,0.3c-0.2,0.2-0.3,0.5-0.3,0.9c0,0.4,0.1,0.8,0.4,1s0.6,0.3,1,0.3c0.2,0,0.3,0,0.5,0s0.3,0,0.5-0.1l0.1,0.6
			c-0.2,0-0.4,0.1-0.6,0.1C61.7,97.9,61.5,98,61.4,98z"/>
		<path class="st3" d="M63.4,97.9v-0.6h2.5v0.6H63.4z M63.5,94.8v-0.6h1.2l0.1,0.6H63.5z M64.2,97.9v-3.7h0.6l0.1,1.1v2.6H64.2z
			 M65,96.3l-0.2-1.2H65c0-0.7,0.4-1,1-1c0.4,0,0.7,0.1,0.8,0.3c0.2,0.2,0.3,0.6,0.3,1.1h-0.7c0-0.3,0-0.5-0.1-0.6s-0.2-0.2-0.4-0.2
			c-0.3,0-0.5,0.1-0.7,0.4S65,95.8,65,96.3z"/>
		<path class="st3" d="M69.1,98c-0.3,0-0.5,0-0.7,0c-0.2,0-0.4,0-0.5-0.1l0.1-0.7c0.2,0,0.5,0.1,0.6,0.1c0.2,0,0.4,0,0.5,0
			c0.4,0,0.6,0,0.8-0.1c0.2-0.1,0.3-0.2,0.3-0.3c0-0.1,0-0.2-0.1-0.2c-0.1-0.1-0.2-0.1-0.3-0.1L69,96.2c-0.4-0.1-0.6-0.2-0.8-0.3
			c-0.2-0.1-0.3-0.3-0.3-0.6c0-0.4,0.2-0.7,0.5-0.9s0.8-0.3,1.5-0.3c0.2,0,0.3,0,0.5,0c0.2,0,0.3,0,0.5,0.1l-0.1,0.6
			c-0.2,0-0.4,0-0.5,0s-0.3,0-0.4,0c-0.4,0-0.7,0-0.9,0.1s-0.3,0.2-0.3,0.3c0,0.1,0,0.2,0.1,0.2c0.1,0,0.2,0.1,0.4,0.1l0.7,0.2
			c0.4,0.1,0.7,0.2,0.9,0.4s0.3,0.4,0.3,0.7c0,0.4-0.1,0.7-0.4,0.9C70.2,97.9,69.7,98,69.1,98z"/>
		<path class="st3" d="M72,97.9v-0.6h1.5v0.6H72z M72.2,94.8v-0.6h1.9v0.6H72.2z M73.8,93.6c-0.1,0-0.3-0.1-0.4-0.2
			c-0.1-0.1-0.2-0.2-0.2-0.4c0-0.1,0.1-0.3,0.2-0.4c0.1-0.1,0.2-0.2,0.4-0.2c0.1,0,0.3,0,0.4,0.2c0.1,0.1,0.1,0.2,0.1,0.4
			c0,0.1,0,0.3-0.1,0.4C74,93.6,73.9,93.6,73.8,93.6z M73.4,97.9v-3.5h0.7v3.5H73.4z M74.1,97.9v-0.6h1.2v0.6H74.1z"/>
		<path class="st3" d="M75.9,94.8v-0.6h3.3v0.6H75.9z M76.8,96.1v-3.1h0.7v3.1H76.8z M78.4,98c-0.6,0-1-0.1-1.2-0.3
			c-0.2-0.2-0.4-0.6-0.4-1.1v-0.6h0.7v0.6c0,0.3,0.1,0.5,0.2,0.6c0.1,0.1,0.4,0.2,0.7,0.2c0.1,0,0.2,0,0.4,0s0.3,0,0.4-0.1l0.1,0.6
			c-0.2,0-0.3,0-0.5,0.1S78.6,98,78.4,98z"/>
		<path class="st3" d="M81.5,97.9L80,94.2h0.8l1.2,3.1h0.1v0.6H81.5z M80.1,99.5l0-0.7l0.6-0.1c0.2,0,0.5-0.1,0.6-0.2
			c0.2-0.1,0.3-0.3,0.4-0.5c0.1-0.2,0.2-0.5,0.3-0.8l0.9-3.2h0.8l-1.1,3.4c-0.1,0.4-0.3,0.8-0.5,1.1c-0.2,0.3-0.4,0.5-0.6,0.6
			c-0.2,0.1-0.5,0.2-0.8,0.3L80.1,99.5z"/>
	</g>
</g>
<circle class="st4" cx="52.7" cy="232.3" r="4.1"/>
<circle class="st4" cx="69.5" cy="68.2" r="4.1"/>
<circle class="st4" cx="46.3" cy="156.1" r="4.1"/>
<circle class="st4" cx="83.7" cy="127" r="4.1"/>
<circle class="st4" cx="13.7" cy="144.3" r="4.1"/>
<circle id="mark" class="st4" cx="17.8" cy="103.5" r="4.1"/>
<g id="uo">
	<g id="uo_00000035502179711261743490000017959105820727078057_" class="st2">
		<path class="st3" d="M58.1,60.3l1.4-4.9h1l1.4,4.9h-0.7L60,55.9H60l-1.2,4.3H58.1z M58.7,59.1v-0.7h2.5v0.7H58.7z"/>
		<path class="st3" d="M62.4,55.7v-0.6h1.1v0.6H62.4z M64.7,60.4c-0.4,0-0.7-0.1-0.9-0.3c-0.2-0.2-0.3-0.6-0.3-1.1v-3.8h0.7v3.8
			c0,0.2,0,0.4,0.1,0.5s0.1,0.2,0.2,0.3c0.1,0.1,0.3,0.1,0.5,0.1c0.2,0,0.4,0,0.7-0.1l0.1,0.6c-0.2,0.1-0.4,0.1-0.5,0.1
			C65.1,60.3,64.9,60.4,64.7,60.4z"/>
		<path class="st3" d="M68.7,60.4c-0.6,0-1.1-0.2-1.5-0.5s-0.5-0.8-0.5-1.4c0-0.6,0.1-1.1,0.4-1.4c0.3-0.3,0.7-0.5,1.2-0.5
			c0.5,0,0.9,0.2,1.2,0.5c0.3,0.3,0.4,0.7,0.4,1.3c0,0.2,0,0.3,0,0.5h-2.6v-0.6h1.9c0-0.3-0.1-0.6-0.2-0.8c-0.2-0.2-0.4-0.3-0.7-0.3
			c-0.3,0-0.6,0.1-0.7,0.3s-0.3,0.5-0.3,0.9c0,0.4,0.1,0.8,0.4,1s0.6,0.3,1,0.3c0.2,0,0.3,0,0.5,0c0.1,0,0.3,0,0.5-0.1l0.1,0.6
			c-0.2,0-0.4,0.1-0.6,0.1C69,60.3,68.8,60.4,68.7,60.4z"/>
		<path class="st3" d="M71,61.9v-5.3h0.7l0.1,0.8v4.5H71z M72.8,60.4c-0.3,0-0.5-0.1-0.7-0.2s-0.3-0.3-0.3-0.5h-0.3l0.3-1.1
			c0,0.4,0.1,0.7,0.2,0.9c0.1,0.2,0.4,0.3,0.7,0.3c0.3,0,0.5-0.1,0.7-0.3c0.2-0.2,0.2-0.5,0.2-0.9c0-0.4-0.1-0.8-0.2-1
			c-0.2-0.2-0.4-0.3-0.7-0.3c-0.3,0-0.5,0.1-0.7,0.3c-0.1,0.2-0.2,0.5-0.2,0.9l-0.3-1.1h0.3c0-0.2,0.1-0.4,0.3-0.5s0.4-0.2,0.7-0.2
			c0.5,0,0.9,0.2,1.1,0.5c0.2,0.3,0.4,0.8,0.4,1.5c0,0.6-0.1,1.1-0.4,1.4C73.7,60.2,73.3,60.4,72.8,60.4z"/>
		<path class="st3" d="M75.2,61.9v-5.3h0.7l0.1,0.8v4.5H75.2z M77,60.4c-0.3,0-0.5-0.1-0.7-0.2S76,59.8,76,59.6h-0.3l0.3-1.1
			c0,0.4,0.1,0.7,0.2,0.9c0.1,0.2,0.4,0.3,0.7,0.3c0.3,0,0.5-0.1,0.7-0.3c0.2-0.2,0.2-0.5,0.2-0.9c0-0.4-0.1-0.8-0.2-1
			c-0.2-0.2-0.4-0.3-0.7-0.3c-0.3,0-0.5,0.1-0.7,0.3c-0.1,0.2-0.2,0.5-0.2,0.9l-0.3-1.1H76c0-0.2,0.1-0.4,0.3-0.5s0.4-0.2,0.7-0.2
			c0.5,0,0.9,0.2,1.1,0.5c0.2,0.3,0.4,0.8,0.4,1.5c0,0.6-0.1,1.1-0.4,1.4C77.8,60.2,77.5,60.4,77,60.4z"/>
		<path class="st3" d="M80.9,60.4c-0.5,0-0.9-0.2-1.2-0.5c-0.3-0.3-0.4-0.8-0.4-1.4c0-0.6,0.1-1.1,0.4-1.4c0.3-0.3,0.7-0.5,1.2-0.5
			c0.5,0,0.9,0.2,1.2,0.5c0.3,0.3,0.4,0.8,0.4,1.4c0,0.6-0.1,1.1-0.4,1.4S81.4,60.4,80.9,60.4z M80.9,59.7c0.3,0,0.5-0.1,0.6-0.3
			c0.1-0.2,0.2-0.5,0.2-0.9c0-0.4-0.1-0.7-0.2-0.9c-0.1-0.2-0.4-0.3-0.6-0.3c-0.3,0-0.5,0.1-0.6,0.3C80.1,57.7,80,58,80,58.4
			c0,0.4,0.1,0.7,0.2,0.9C80.4,59.6,80.6,59.7,80.9,59.7z"/>
		<path class="st3" d="M88.9,60.4c-0.4,0-0.7-0.1-0.9-0.3c-0.2-0.2-0.3-0.6-0.3-1v-2.4h0.7V59c0,0.2,0.1,0.4,0.2,0.5
			s0.3,0.2,0.5,0.2c0.3,0,0.5-0.1,0.6-0.3s0.2-0.5,0.2-0.9l0.2,1h-0.2c-0.1,0.3-0.2,0.4-0.3,0.6C89.3,60.3,89.1,60.4,88.9,60.4z
			 M89.9,59.2v-2.6h0.7V59L89.9,59.2z M90,60.3l-0.1-0.9v-0.6h0.7v0.8l0.5,0.1v0.6L90,60.3z"/>
		<path class="st3" d="M91.9,60.3v-3.7h0.7l0.1,0.8v2.9H91.9z M94.2,60.3v-2.4c0-0.2-0.1-0.4-0.2-0.5c-0.1-0.1-0.3-0.2-0.5-0.2
			c-0.6,0-0.9,0.3-0.9,1l-0.2-0.9h0.3c0-0.2,0.1-0.4,0.3-0.6c0.2-0.1,0.4-0.2,0.7-0.2c0.4,0,0.7,0.1,0.9,0.4s0.3,0.6,0.3,1v2.4H94.2
			z"/>
		<path class="st3" d="M96.1,60.3v-0.6h1.5v0.6H96.1z M96.3,57.2v-0.6h1.9v0.6H96.3z M97.8,56c-0.1,0-0.3-0.1-0.4-0.2
			c-0.1-0.1-0.2-0.2-0.2-0.4c0-0.1,0.1-0.3,0.2-0.4c0.1-0.1,0.2-0.1,0.4-0.1c0.1,0,0.3,0,0.4,0.1c0.1,0.1,0.1,0.2,0.1,0.4
			c0,0.1,0,0.3-0.1,0.4C98.1,56,97.9,56,97.8,56z M97.5,60.3v-3.5h0.7v3.5H97.5z M98.1,60.3v-0.6h1.2v0.6H98.1z"/>
		<path class="st3" d="M101.3,60.3l-1.3-3.7h0.8l1,3.1h0.1l1-3.1h0.8l-1.3,3.7H101.3z"/>
		<path class="st3" d="M106.3,60.4c-0.6,0-1.1-0.2-1.5-0.5s-0.5-0.8-0.5-1.4c0-0.6,0.1-1.1,0.4-1.4c0.3-0.3,0.7-0.5,1.2-0.5
			c0.5,0,0.9,0.2,1.2,0.5c0.3,0.3,0.4,0.7,0.4,1.3c0,0.2,0,0.3,0,0.5h-2.6v-0.6h1.9c0-0.3-0.1-0.6-0.2-0.8c-0.2-0.2-0.4-0.3-0.7-0.3
			c-0.3,0-0.6,0.1-0.7,0.3S105,58,105,58.4c0,0.4,0.1,0.8,0.4,1s0.6,0.3,1,0.3c0.2,0,0.3,0,0.5,0c0.1,0,0.3,0,0.5-0.1l0.1,0.6
			c-0.2,0-0.4,0.1-0.6,0.1C106.6,60.3,106.4,60.4,106.3,60.4z"/>
		<path class="st3" d="M108.3,60.3v-0.6h2.5v0.6H108.3z M108.4,57.2v-0.6h1.2l0.1,0.6H108.4z M109.1,60.3v-3.7h0.6l0.1,1.1v2.6
			H109.1z M109.9,58.7l-0.2-1.2h0.3c0-0.7,0.4-1,1-1c0.4,0,0.7,0.1,0.8,0.3c0.2,0.2,0.3,0.6,0.3,1.1h-0.7c0-0.3,0-0.5-0.1-0.6
			s-0.2-0.2-0.4-0.2c-0.3,0-0.5,0.1-0.7,0.4C109.9,57.8,109.9,58.2,109.9,58.7z"/>
		<path class="st3" d="M114,60.4c-0.3,0-0.5,0-0.7,0c-0.2,0-0.4,0-0.5-0.1l0.1-0.7c0.2,0,0.5,0.1,0.6,0.1c0.2,0,0.4,0,0.5,0
			c0.4,0,0.6,0,0.8-0.1c0.2-0.1,0.3-0.2,0.3-0.3c0-0.1,0-0.2-0.1-0.2c-0.1-0.1-0.2-0.1-0.3-0.1l-0.8-0.2c-0.4-0.1-0.6-0.2-0.8-0.3
			c-0.2-0.1-0.3-0.3-0.3-0.6c0-0.4,0.2-0.7,0.5-0.9c0.3-0.2,0.8-0.3,1.5-0.3c0.2,0,0.3,0,0.5,0c0.2,0,0.3,0,0.5,0.1l-0.1,0.6
			c-0.2,0-0.4,0-0.5,0c-0.1,0-0.3,0-0.4,0c-0.4,0-0.7,0-0.9,0.1c-0.2,0.1-0.3,0.2-0.3,0.3c0,0.1,0,0.2,0.1,0.2
			c0.1,0,0.2,0.1,0.4,0.1l0.7,0.2c0.4,0.1,0.7,0.2,0.9,0.4s0.3,0.4,0.3,0.7c0,0.4-0.1,0.7-0.4,0.9C115.1,60.3,114.6,60.4,114,60.4z"
			/>
		<path class="st3" d="M116.9,60.3v-0.6h1.5v0.6H116.9z M117.1,57.2v-0.6h1.9v0.6H117.1z M118.7,56c-0.1,0-0.3-0.1-0.4-0.2
			c-0.1-0.1-0.2-0.2-0.2-0.4c0-0.1,0.1-0.3,0.2-0.4c0.1-0.1,0.2-0.1,0.4-0.1c0.1,0,0.3,0,0.4,0.1c0.1,0.1,0.1,0.2,0.1,0.4
			c0,0.1,0,0.3-0.1,0.4C118.9,56,118.8,56,118.7,56z M118.3,60.3v-3.5h0.7v3.5H118.3z M119,60.3v-0.6h1.2v0.6H119z"/>
		<path class="st3" d="M120.8,57.2v-0.6h3.3v0.6H120.8z M121.7,58.5v-3.1h0.7v3.1H121.7z M123.3,60.4c-0.6,0-1-0.1-1.2-0.3
			c-0.2-0.2-0.4-0.6-0.4-1.1v-0.6h0.7v0.6c0,0.3,0.1,0.5,0.2,0.6c0.1,0.1,0.4,0.2,0.7,0.2c0.1,0,0.2,0,0.4,0c0.1,0,0.3,0,0.4-0.1
			l0.1,0.6c-0.2,0-0.3,0-0.5,0.1C123.6,60.3,123.5,60.4,123.3,60.4z"/>
		<path class="st3" d="M126.4,60.3l-1.5-3.7h0.8l1.2,3.1h0.1v0.6H126.4z M125,62l0-0.7l0.6-0.1c0.2,0,0.5-0.1,0.6-0.2
			s0.3-0.3,0.4-0.5c0.1-0.2,0.2-0.5,0.3-0.8l0.9-3.2h0.8l-1.1,3.4c-0.1,0.4-0.3,0.8-0.5,1.1s-0.4,0.5-0.6,0.6
			c-0.2,0.1-0.5,0.2-0.8,0.3L125,62z"/>
	</g>
</g>
</svg>
