<svg xmlns="http://www.w3.org/2000/svg" viewBox="0 0 362 367.35"><defs><style>.cls-1{fill:#fff;}.cls-2{fill:#00afaa;}</style></defs><g id="Layer_2" data-name="Layer 2"><g id="Layer_1-2" data-name="Layer 1"><g id="Layer_2-2" data-name="Layer 2"><ellipse class="cls-1" cx="184.83" cy="210.69" rx="103.64" ry="93.39"/><path class="cls-2" d="M289,199.82a108.07,108.07,0,0,0-30.87-63.26,109.66,109.66,0,0,0-8.2-7.41V87.08c-33.17-39.31-107.36-37.45-137.74,0v42.31q-4.1,3.36-7.91,7.17c-42.31,42.33-42.31,111.52,0,153.85l76.94,76.94,76.91-77c.15-.17.3-.3.45-.45l44,21.95-19-59.22,51-48.37Zm-176,55.3a79.88,79.88,0,1,1,146.32-58.21l-34-3.35a49.44,49.44,0,0,0-2.77-5.24,48.44,48.44,0,1,0-32.4,72.79l21.54,26.23A80.05,80.05,0,0,1,113,255.12Zm149.64-6.62,11,28.39-17.75-10.51,4.88-15.44-30.42,27.79-61.8-75,126.1,14.52-25.5,22.66-71.49-24.49-.23.3Z"/><path class="cls-2" d="M67.23,120l-2.71,25.58a16.12,16.12,0,0,0,20.2,0L82,120a11.15,11.15,0,0,0-3.41-2.57,7.86,7.86,0,0,0,.51-13.28V97.38l21,5.44V85.4l1.29-3.61a77,77,0,0,1,10.15-10.36c17.85-15.05,42.91-23,68.06-23.21s50.72,7.11,69.72,22.5a81.63,81.63,0,0,1,11.21,10.94l1.37,3.74v17.42L362,76.86,181,0,109.92,30.19,74.09,34.73a4.47,4.47,0,0,0-3.91,4.43v65a7.89,7.89,0,0,0,.44,13.32A11.52,11.52,0,0,0,67.23,120ZM79.11,43.09l.61-.08-.61.27Z"/><polygon class="cls-2" points="61.24 92.74 61.24 50.86 0 76.86 61.24 92.74"/></g></g></g></svg>