<svg xmlns="http://www.w3.org/2000/svg" viewBox="0 0 640.11 200.39">
	<g>
		<g>
			<polyline points="516.53 192.69 521.6 170.99 546.33 170.99 552.75 192.69" style="fill:none;stroke:#fff;stroke-linecap:round;stroke-linejoin:round;stroke-width:1.88427687142084px" />
			<polyline points="557.92 198.65 557.92 192.69 511.37 192.69 511.37 198.65" style="fill:none;stroke:#fff;stroke-linecap:round;stroke-linejoin:round;stroke-width:1.88427687142084px" />
			<rect x="427.35" y="21.78" width="211.82" height="149.21" rx="5.24" style="fill:none;stroke:#fff;stroke-linecap:round;stroke-linejoin:round;stroke-width:1.88427687142084px" />
			<line x1="639.17" y1="154.88" x2="427.35" y2="154.88" style="fill:none;stroke:#fff;stroke-linecap:round;stroke-linejoin:round;stroke-width:1.88427687142084px" />
			<circle cx="531.91" cy="90.05" r="22.06" style="fill:#033432;opacity:0.1" />
			<polygon points="527.58 82.16 527.58 97.93 539.77 90.05 527.58 82.16" style="fill:none;stroke:#fff;stroke-linecap:round;stroke-linejoin:round;stroke-width:1.88427687142084px" />
			<path d="M599.44,191h16.43a8,8,0,0,1,8,8v0a0,0,0,0,1,0,0H591.49a0,0,0,0,1,0,0v0A8,8,0,0,1,599.44,191Z" style="fill:none;stroke:#fff;stroke-linecap:round;stroke-linejoin:round;stroke-width:1.88427687142084px" />
			<polyline points="194.43 65 223.45 198.65 630.08 198.65 243.46 16.83" style="fill:#fff;opacity:0.7000000000000001" />
			<path d="M116.83,199h0A10.94,10.94,0,0,0,105.89,188H83.75A10.94,10.94,0,0,0,72.81,199h0" style="fill:#20c5ba;stroke:#fff;stroke-linecap:round;stroke-linejoin:round;stroke-width:1.88427687142084px" />
			<line x1="93.36" y1="186.98" x2="107.37" y2="67.83" style="fill:none;stroke:#fff;stroke-linecap:round;stroke-linejoin:round;stroke-width:1.88427687142084px" />
			<line x1="100.37" y1="188.04" x2="114.61" y2="67.41" style="fill:none;stroke:#fff;stroke-linecap:round;stroke-linejoin:round;stroke-width:1.88427687142084px" />
			<circle cx="111.64" cy="57.17" r="10.66" style="fill:none;stroke:#fff;stroke-linecap:round;stroke-linejoin:round;stroke-width:1.88427687142084px" />
			<circle cx="179.38" cy="13.95" r="5.97" style="fill:none;stroke:#fff;stroke-linecap:round;stroke-linejoin:round;stroke-width:1.88427687142084px" />
			<path d="M243.46,16.83,194.43,65a35.14,35.14,0,0,1-15.37-29,35,35,0,0,1,61.18-23.36A34.38,34.38,0,0,1,243.46,16.83Z" style="fill:none;stroke:#fff;stroke-linecap:round;stroke-linejoin:round;stroke-width:1.88427687142084px" />
			<polygon points="246.75 13.61 243.46 16.83 194.43 65 191.72 67.67 187.97 63.97 190.29 61.7 240.24 12.63 243 9.91 246.75 13.61" style="fill:#20c5ba;stroke:#fff;stroke-linecap:round;stroke-linejoin:round;stroke-width:1.88427687142084px" />
			<line x1="118.29" y1="48.74" x2="173.41" y2="13.95" style="fill:none;stroke:#fff;stroke-linecap:round;stroke-linejoin:round;stroke-width:1.88427687142084px" />
			<line x1="122.2" y1="55.15" x2="177.58" y2="20.03" style="fill:none;stroke:#fff;stroke-linecap:round;stroke-linejoin:round;stroke-width:1.88427687142084px" />
			<polyline points="183.85 126.03 183.85 120.4 151.16 120.4 151.16 126.03" style="fill:none;stroke:#fff;stroke-linecap:round;stroke-linejoin:round;stroke-width:1.88427687142084px" />
			<line x1="164.01" y1="192.68" x2="136.69" y2="192.68" style="fill:none;stroke:#fff;stroke-linecap:round;stroke-linejoin:round;stroke-width:1.88427687142084px" />
			<line x1="144.27" y1="187" x2="133.18" y2="187" style="fill:none;stroke:#fff;stroke-linecap:round;stroke-linejoin:round;stroke-width:1.88427687142084px" />
			<line x1="150.3" y1="142.52" x2="149.67" y2="132.65" style="fill:none;stroke:#fff;stroke-linecap:round;stroke-linejoin:round;stroke-width:1.88427687142084px" />
			<line x1="152.65" y1="178.55" x2="151.92" y2="167.94" style="fill:none;stroke:#fff;stroke-linecap:round;stroke-linejoin:round;stroke-width:1.88427687142084px" />
			<line x1="182.62" y1="167.94" x2="181.85" y2="178.55" style="fill:none;stroke:#fff;stroke-linecap:round;stroke-linejoin:round;stroke-width:1.88427687142084px" />
			<line x1="184.96" y1="132.65" x2="184.3" y2="142.52" style="fill:none;stroke:#fff;stroke-linecap:round;stroke-linejoin:round;stroke-width:1.88427687142084px" />
			<path d="M187.53,144.22,186,166.45a1.6,1.6,0,0,1-1.59,1.49H150.07a1.59,1.59,0,0,1-1.58-1.48L147,144.22a1.6,1.6,0,0,1,1.59-1.7h37.4A1.6,1.6,0,0,1,187.53,144.22Z" style="fill:#fff" />
			<rect x="144.27" y="126.03" width="45.83" height="6.62" rx="1.66" style="fill:none;stroke:#fff;stroke-linecap:round;stroke-linejoin:round;stroke-width:1.88427687142084px" />
			<path d="M210.38,179.43H134.67a10,10,0,0,0-10,10h0a10,10,0,0,0,10,10h75.71" style="fill:none;stroke:#fff;stroke-linecap:round;stroke-linejoin:round;stroke-width:1.88427687142084px" />
			<polyline points="180.77 185.25 193.89 185.25 193.89 194.71 180.09 194.71" style="fill:none;stroke:#fff;stroke-linecap:round;stroke-linejoin:round;stroke-width:1.88427687142084px" />
			<path d="M205.9,179.43s-7.08,8.76,0,20" style="fill:none;stroke:#fff;stroke-linecap:round;stroke-linejoin:round;stroke-width:1.88427687142084px" />
			<path d="M53.68,134.58c2.92-10.14,6.09-20.23,8.57-30.49A188.68,188.68,0,0,0,67,72.83c0-.66.09-1.32.13-2,.58-8.8.77-17.79-.61-26.53-.13-.87-.29-1.75-.47-2.62-5.34,6.6-8.71,14.84-11.46,22.78-7,20.19-9.73,41.65-10.56,62.91-.1,2.54-.15,5.07-.15,7.61" style="fill:#ec1e79;opacity:0.2" />
			<line x1="18.14" y1="198.98" x2="11.57" y2="153.27" style="fill:none;stroke:#fff;stroke-linecap:round;stroke-linejoin:round;stroke-width:1.88427687142084px" />
			<line x1="66.64" y1="153.27" x2="60.63" y2="198.98" style="fill:none;stroke:#fff;stroke-linecap:round;stroke-linejoin:round;stroke-width:1.88427687142084px" />
			<path d="M60.63,135s16.59-26.45,17.79-57.47C56.06,103,51.25,135,51.25,135" style="fill:#ec1e79" />
			<path d="M26.2,134.62c-2.61-9.09-5.47-18.12-7.88-27.28C16,98.41,15,89.2,14.26,80c-.79-9.72-1.23-19.88.75-29.5,4.65,5.75,7.63,12.87,10.08,19.78,6.28,17.7,8.9,36.57,9.75,55.28.14,3.14.25,6.28.25,9.43" style="fill:#ec1e79;opacity:0.2" />
			<line x1="42.55" y1="165.49" x2="64.83" y2="165.49" style="fill:none;stroke:#fff;stroke-linecap:round;stroke-linejoin:round;stroke-width:1.88427687142084px" />
			<line x1="30.47" y1="176.13" x2="48.51" y2="176.13" style="fill:none;stroke:#fff;stroke-linecap:round;stroke-linejoin:round;stroke-width:1.88427687142084px" />
			<path d="M17.8,135S1.2,108.55,0,77.53C22.37,103,27.18,135,27.18,135" style="fill:#ec1e79" />
			<path d="M32.6,135s-4.83-70.36,6-101C53,64.94,45,135,45,135" style="fill:#ec1e79" />
			<rect x="5.32" y="135" width="66.61" height="18.28" rx="4.73" style="fill:none;stroke:#fff;stroke-linecap:round;stroke-linejoin:round;stroke-width:1.88427687142084px" />
			<path d="M152.08,151.38a.52.52,0,0,1-.41.26.62.62,0,0,1-.32-.11l-.42-.24a3.05,3.05,0,0,0-.57-.24,2.39,2.39,0,0,0-.76-.11,1.66,1.66,0,0,0-1.17.36,1.25,1.25,0,0,0-.39.95.9.9,0,0,0,.35.76,3.32,3.32,0,0,0,.86.47c.35.13.73.26,1.14.37a4.6,4.6,0,0,1,1.13.49,2.83,2.83,0,0,1,.87.82,2.36,2.36,0,0,1,.35,1.34,3.44,3.44,0,0,1-.24,1.29,2.92,2.92,0,0,1-.69,1,3.37,3.37,0,0,1-1.11.69,4.31,4.31,0,0,1-1.49.25,4.8,4.8,0,0,1-1.87-.37,4.34,4.34,0,0,1-1.48-.95l.57-.87a.69.69,0,0,1,.18-.16.39.39,0,0,1,.23-.07.66.66,0,0,1,.37.15l.48.31a2.9,2.9,0,0,0,.66.32,2.57,2.57,0,0,0,.92.15,1.82,1.82,0,0,0,1.24-.39,1.38,1.38,0,0,0,.45-1.1,1.05,1.05,0,0,0-.34-.84,3,3,0,0,0-.87-.48c-.35-.12-.73-.24-1.13-.35a5.33,5.33,0,0,1-1.12-.48,2.62,2.62,0,0,1-.87-.85,2.65,2.65,0,0,1-.34-1.46,2.75,2.75,0,0,1,.87-2,3.27,3.27,0,0,1,1-.64,3.84,3.84,0,0,1,1.4-.25,4.84,4.84,0,0,1,1.65.28,3.5,3.5,0,0,1,1.3.79Z" style="fill:#20c5ba" />
			<path d="M161.43,151.05h-3.05v8.6h-1.87v-8.6h-3.07v-1.49h8Z" style="fill:#20c5ba" />
			<path d="M171.44,159.65H170a.57.57,0,0,1-.46-.24,1.5,1.5,0,0,1-.27-.49l-.66-1.79H164.4l-.64,1.79a2.27,2.27,0,0,1-.31.48.55.55,0,0,1-.45.25h-1.46l4-10.09h1.9Zm-3.3-3.8-1.07-2.95c-.1-.23-.2-.49-.31-.78s-.2-.58-.28-.88c-.08.31-.17.6-.27.89s-.21.54-.31.77l-1.06,2.95Z" style="fill:#20c5ba" />
			<path d="M180.39,159.65H178.7a.71.71,0,0,1-.68-.36L175.86,156a1,1,0,0,0-.26-.25.89.89,0,0,0-.42-.08h-.82v4h-1.87V149.56h3.11a6.51,6.51,0,0,1,1.76.2,3.34,3.34,0,0,1,1.21.59,2.28,2.28,0,0,1,.69.91,2.94,2.94,0,0,1,.22,1.17,2.79,2.79,0,0,1-.6,1.8,3.19,3.19,0,0,1-1.7,1.06,1.92,1.92,0,0,1,.38.25,1.31,1.31,0,0,1,.29.36Zm-4.82-5.29a2.2,2.2,0,0,0,1.58-.5,1.74,1.74,0,0,0,.5-1.29c0-1.08-.68-1.61-2.05-1.61h-1.24v3.4Z" style="fill:#20c5ba" />
			<path d="M185,149.56a4.55,4.55,0,0,1,2.85.7,2.37,2.37,0,0,1,.87,2,2.09,2.09,0,0,1-.44,1.31,2.68,2.68,0,0,1-1.4.89,3.17,3.17,0,0,1,1.62.8,2.05,2.05,0,0,1,.53,1.47,3,3,0,0,1-.25,1.2,2.63,2.63,0,0,1-.73.93,3.4,3.4,0,0,1-1.15.61,5,5,0,0,1-1.57.22h-3.83V149.56ZM183.4,151v3h1.36a7,7,0,0,0,.81,0,2,2,0,0,0,.68-.22,1.17,1.17,0,0,0,.47-.44,1.56,1.56,0,0,0,.16-.76,1.35,1.35,0,0,0-.45-1.16A2.35,2.35,0,0,0,185,151Zm1.93,7.26a2.79,2.79,0,0,0,.88-.12,1.41,1.41,0,0,0,.58-.33,1.28,1.28,0,0,0,.31-.51,1.79,1.79,0,0,0,.1-.62,1.39,1.39,0,0,0-.42-1,2,2,0,0,0-1.45-.4H183.4v3Z" style="fill:#20c5ba" />
			<path d="M239.36,80.52v29.22H234V96.85H220.08v12.89h-5.46V80.52h5.46V93.11H234V80.52Z" style="fill:#033432" />
			<path d="M249,99.93a7.59,7.59,0,0,0,1.58,4.66,5.1,5.1,0,0,0,4.1,1.72,7.08,7.08,0,0,0,2.13-.29,8,8,0,0,0,1.57-.66l1.14-.66a1.83,1.83,0,0,1,.93-.29,1.15,1.15,0,0,1,1,.49l1.4,1.76a7.83,7.83,0,0,1-1.82,1.63,10.26,10.26,0,0,1-2.16,1,10.79,10.79,0,0,1-2.31.55,16.65,16.65,0,0,1-2.29.16,11.05,11.05,0,0,1-4-.73,9.23,9.23,0,0,1-3.24-2.13,9.88,9.88,0,0,1-2.16-3.5,14,14,0,0,1-.77-4.82,11.41,11.41,0,0,1,.69-4,9.2,9.2,0,0,1,5.1-5.46,10.5,10.5,0,0,1,4.21-.81,9.89,9.89,0,0,1,3.63.64,8.09,8.09,0,0,1,2.86,1.84,8.56,8.56,0,0,1,1.9,3,11.16,11.16,0,0,1,.68,4,3,3,0,0,1-.24,1.49,1.08,1.08,0,0,1-.95.36Zm9.55-3a5.45,5.45,0,0,0-1.1-3.48,4,4,0,0,0-3.34-1.41,4.67,4.67,0,0,0-3.46,1.26A6,6,0,0,0,249.05,97Z" style="fill:#033432" />
			<path d="M271.81,79.77v30h-5v-30Z" style="fill:#033432" />
			<path d="M281.45,91.87a10.5,10.5,0,0,1,2.91-2.39,7.78,7.78,0,0,1,3.83-.91,7.07,7.07,0,0,1,3.15.71,6.78,6.78,0,0,1,2.44,2.07,10.45,10.45,0,0,1,1.58,3.32,15.77,15.77,0,0,1,.58,4.51,14.16,14.16,0,0,1-.64,4.31,10.68,10.68,0,0,1-1.81,3.43,8.46,8.46,0,0,1-2.82,2.29,8.08,8.08,0,0,1-3.72.84,7.62,7.62,0,0,1-3-.53,6.75,6.75,0,0,1-2.2-1.54v8.58h-5V89h3a1.18,1.18,0,0,1,1.27.84Zm.31,12.54a4.9,4.9,0,0,0,1.85,1.52,5.46,5.46,0,0,0,2.2.42,4.32,4.32,0,0,0,3.63-1.76c.9-1.17,1.35-3,1.35-5.41s-.39-4.22-1.15-5.26a3.71,3.71,0,0,0-3.17-1.56,5.06,5.06,0,0,0-2.66.68A7.49,7.49,0,0,0,281.76,95Z" style="fill:#033432" />
			<path d="M326.93,103l.2,0a.34.34,0,0,1,.2,0,1.47,1.47,0,0,0,.24.13.52.52,0,0,1,.2.17l2.16,2.2a11.5,11.5,0,0,1-4.45,3.41,15.68,15.68,0,0,1-6.25,1.13,15.07,15.07,0,0,1-5.88-1.1,13.08,13.08,0,0,1-4.47-3.06A13.47,13.47,0,0,1,306,101.2a17.41,17.41,0,0,1-1-6,16.8,16.8,0,0,1,1-6A13.93,13.93,0,0,1,309,84.46a13.66,13.66,0,0,1,4.58-3.15,15.06,15.06,0,0,1,6-1.14,14.71,14.71,0,0,1,5.67,1,13.69,13.69,0,0,1,4.28,2.8l-1.15,1.56a10.94,10.94,0,0,1-.73.92,1.83,1.83,0,0,1-.5.44,1,1,0,0,1-.49.11,2.05,2.05,0,0,1-.92-.26c-.56-.38-1.07-.7-1.54-1a10.78,10.78,0,0,0-1.43-.66,7.83,7.83,0,0,0-1.5-.37,12.51,12.51,0,0,0-1.69-.11,8.59,8.59,0,0,0-3.77.79A8.36,8.36,0,0,0,313,87.63,9.34,9.34,0,0,0,311.19,91a14.8,14.8,0,0,0-.59,4.25,13,13,0,0,0,.68,4.42,9.34,9.34,0,0,0,1.89,3.23,8,8,0,0,0,2.87,2,9.26,9.26,0,0,0,3.54.68,14.17,14.17,0,0,0,3.24-.33,6.38,6.38,0,0,0,2.7-1.48A6.38,6.38,0,0,1,326.93,103Z" style="fill:#033432" />
			<path d="M336.75,99.93a7.53,7.53,0,0,0,1.59,4.66,5.07,5.07,0,0,0,4.09,1.72,7.19,7.19,0,0,0,2.14-.29,8.13,8.13,0,0,0,1.56-.66l1.14-.66a1.83,1.83,0,0,1,.93-.29,1.15,1.15,0,0,1,1,.49l1.41,1.76a7.88,7.88,0,0,1-1.83,1.63,10.26,10.26,0,0,1-2.16,1,10.79,10.79,0,0,1-2.31.55,16.65,16.65,0,0,1-2.29.16,11.05,11.05,0,0,1-4.05-.73,9.23,9.23,0,0,1-3.24-2.13,9.88,9.88,0,0,1-2.16-3.5,14,14,0,0,1-.77-4.82,11.41,11.41,0,0,1,.69-4,9.2,9.2,0,0,1,5.1-5.46,10.5,10.5,0,0,1,4.21-.81,9.89,9.89,0,0,1,3.63.64,8.09,8.09,0,0,1,2.86,1.84,8.56,8.56,0,0,1,1.9,3,11.16,11.16,0,0,1,.68,4,3,3,0,0,1-.24,1.49,1.08,1.08,0,0,1-1,.36Zm9.55-3a5.45,5.45,0,0,0-1.1-3.48,4,4,0,0,0-3.34-1.41,4.67,4.67,0,0,0-3.46,1.26A6,6,0,0,0,336.84,97Z" style="fill:#033432" />
			<path d="M359.2,91.61a11,11,0,0,1,2.8-2.18,7.73,7.73,0,0,1,3.68-.81,7.58,7.58,0,0,1,3,.57,5.82,5.82,0,0,1,2.21,1.63,7.45,7.45,0,0,1,1.34,2.51,10.46,10.46,0,0,1,.46,3.21v13.2h-5V96.54a4.79,4.79,0,0,0-.88-3.08,3.24,3.24,0,0,0-2.68-1.1,4.82,4.82,0,0,0-2.45.64,9.2,9.2,0,0,0-2.13,1.69v15h-5V89h3a1.18,1.18,0,0,1,1.27.84Z" style="fill:#033432" />
			<path d="M384.39,110.05a5.44,5.44,0,0,1-4.12-1.5,5.77,5.77,0,0,1-1.43-4.14V92.67h-2.16a1,1,0,0,1-.72-.27,1,1,0,0,1-.29-.75V89.72l3.43-.49,1-5.85c.09-.5.45-.75,1.1-.75h2.6v6.6h5.5v3.44h-5.5v11.39a2.32,2.32,0,0,0,.46,1.56,1.64,1.64,0,0,0,1.34.55,2,2,0,0,0,1.34-.35,1.28,1.28,0,0,1,.77-.35,1,1,0,0,1,.71.44l1.45,2.29a8.1,8.1,0,0,1-2.53,1.36A9,9,0,0,1,384.39,110.05Z" style="fill:#033432" />
			<path d="M396.45,99.93a7.53,7.53,0,0,0,1.59,4.66,5.07,5.07,0,0,0,4.09,1.72,7.15,7.15,0,0,0,2.14-.29,8.13,8.13,0,0,0,1.56-.66l1.14-.66a1.86,1.86,0,0,1,.93-.29,1.15,1.15,0,0,1,1,.49l1.41,1.76a7.88,7.88,0,0,1-1.83,1.63,10.26,10.26,0,0,1-2.16,1,10.79,10.79,0,0,1-2.31.55,16.65,16.65,0,0,1-2.29.16,11.05,11.05,0,0,1-4.05-.73,9.23,9.23,0,0,1-3.24-2.13,9.72,9.72,0,0,1-2.15-3.5,13.73,13.73,0,0,1-.77-4.82,11.4,11.4,0,0,1,.68-4,9.59,9.59,0,0,1,2-3.26,9.34,9.34,0,0,1,3.15-2.2,10.45,10.45,0,0,1,4.2-.81,9.89,9.89,0,0,1,3.63.64A8.09,8.09,0,0,1,408,91.1a8.56,8.56,0,0,1,1.9,3,11.16,11.16,0,0,1,.68,4,3,3,0,0,1-.24,1.49,1.07,1.07,0,0,1-.95.36ZM406,97a5.51,5.51,0,0,0-1.1-3.48,4,4,0,0,0-3.35-1.41,4.67,4.67,0,0,0-3.46,1.26A6.1,6.1,0,0,0,396.54,97Z" style="fill:#033432" />
			<path d="M419,92.75a8.31,8.31,0,0,1,2.29-3.1,5,5,0,0,1,3.21-1.08,4.27,4.27,0,0,1,2.34.58l-.36,3.65a.77.77,0,0,1-.79.66,5.43,5.43,0,0,1-.88-.11,6.58,6.58,0,0,0-1.19-.11,3.77,3.77,0,0,0-2.66.92,7,7,0,0,0-1.65,2.69v12.89h-5V89h2.95a1.7,1.7,0,0,1,1.06.26,1.42,1.42,0,0,1,.39.88Z" style="fill:#033432" />
		</g>
	</g>
</svg>
