<svg xmlns="http://www.w3.org/2000/svg" viewBox="0 0 1289.93 1308.99"><defs><style>.cls-1{fill:#188c80;fill-rule:evenodd;}</style></defs><g id="Layer_2" data-name="Layer 2"><path class="cls-1" d="M1050,777.73,600.66,726,820.87,993.2l108.41-99-17.37,55,63.25,37.47L935.84,885.49,703.59,772.3l.8-1.1,254.76,87.29M802.84,689.72,924,701.65a284.26,284.26,0,0,0-35.35-88.94C807,478.86,631.26,436.3,497.4,517.92S321,775.26,402.63,909.08c73.78,121,224.54,167.41,351.67,114.8l-76.77-93.45c-68.44,12.75-140.91-16.86-179.26-79.69C448.8,769.58,474.62,663,555.75,613.56S743.48,589.86,793,671.05A179.65,179.65,0,0,1,802.84,689.72ZM371.39,486.61c150.83-150.77,397.41-150.77,548.24,0a385.26,385.26,0,0,1,110,225.43l162.61,16L1010.36,900.39l67.79,211-156.93-78.21c-.51.54-1.05,1-1.59,1.62L645.57,1309,371.39,1034.84C220.64,884,220.64,637.43,371.39,486.61Z"/><path class="cls-1" d="M399.59,512.21c148.69-92.23,341.76-89.05,490.8,0V310.29c-118.18-140.07-382.55-133.43-490.8,0V512.21M284.07,153.27l-2.19.28v.66Zm-2.19,218a28,28,0,0,1-1.79,47.32,40.64,40.64,0,0,1,12.14,9.14l9.67,91.18a57.56,57.56,0,0,1-72,0l9.68-91.15a40.38,40.38,0,0,1,12.07-9.17,28.13,28.13,0,0,1-1.56-47.47V338.73h0v-171h0V139.53A15.89,15.89,0,0,1,264,123.75L391.7,107.57,645,0l644.93,273.89L933.26,366.38V304.32L928.38,291a289.18,289.18,0,0,0-39.92-39C820.73,197.16,729.6,170.93,640,171.81s-178.89,29.1-242.5,82.72a274.45,274.45,0,0,0-36.18,36.91l-4.6,12.88v62.06L281.88,347ZM0,273.89l218.23-92.66V330.47Z"/></g></svg>