<svg xmlns="http://www.w3.org/2000/svg" viewBox="0 0 244.94 236"><defs><style>.cls-1{fill:#5fccf5;}.cls-1,.cls-2,.cls-3{stroke:#21409a;stroke-miterlimit:10;stroke-width:6.38px;}.cls-2{fill:#fff;}.cls-3{fill:none;}</style></defs><g id="Layer_2" data-name="Layer 2"><g id="Capa_1" data-name="Capa 1"><path class="cls-1" d="M215,183.22a22.86,22.86,0,0,1-22.87,22.87H52.78a22.86,22.86,0,0,1-22.87-22.87V52.77A22.86,22.86,0,0,1,52.78,29.9H192.16A22.86,22.86,0,0,1,215,52.77Z"/><path class="cls-2" d="M179.12,157.91a14,14,0,0,1-14,14H79.82a14,14,0,0,1-14-14V78.08a14,14,0,0,1,14-14h85.3a14,14,0,0,1,14,14Z"/><path class="cls-1" d="M154.89,118.4c0-1,0-2-.13-2.91l6.49-1.7-2.91-11.13-6.63,1.74a32.55,32.55,0,0,0-5.36-7.93L150.6,91l-9.1-7-4.31,5.57a32.28,32.28,0,0,0-9-3V79.42h-11.5V86.5a32.68,32.68,0,0,0-8.56,2.8l-4.22-5.63-9.21,6.89,4.19,5.58a31.77,31.77,0,0,0-4.21,5.51l-6.46-2.38-4,10.8,6.34,2.33a32.12,32.12,0,0,0-.56,6c0,.71,0,1.42.07,2.12l-6.43,1.68,2.91,11.13,6.29-1.65A32.31,32.31,0,0,0,98.26,140L94.34,145l9.11,7,3.85-5a32.28,32.28,0,0,0,9.42,3.26v6.27h11.5v-6.27a32.34,32.34,0,0,0,9-3l3.78,5.05,9.21-6.9-3.83-5.12a32.53,32.53,0,0,0,4.25-5.82l6.07,2.23,4-10.78-6.2-2.28A32.56,32.56,0,0,0,154.89,118.4Zm-32.43,21.68A22.08,22.08,0,1,1,144.55,118,22.08,22.08,0,0,1,122.46,140.08Z"/><line class="cls-1" x1="57.35" x2="57.35" y2="29.9"/><line class="cls-1" x1="79.06" x2="79.06" y2="29.9"/><line class="cls-1" x1="100.76" x2="100.76" y2="29.9"/><line class="cls-1" x1="122.46" x2="122.46" y2="29.9"/><line class="cls-1" x1="144.18" x2="144.18" y2="29.9"/><line class="cls-1" x1="165.88" x2="165.88" y2="29.9"/><line class="cls-1" x1="187.59" x2="187.59" y2="29.9"/><line class="cls-1" x1="244.94" y1="52.88" x2="215.03" y2="52.88"/><line class="cls-1" x1="244.94" y1="74.58" x2="215.03" y2="74.58"/><line class="cls-1" x1="244.94" y1="96.3" x2="215.03" y2="96.3"/><line class="cls-1" x1="244.94" y1="118" x2="215.03" y2="118"/><line class="cls-1" x1="244.94" y1="139.7" x2="215.03" y2="139.7"/><line class="cls-1" x1="244.94" y1="161.41" x2="215.03" y2="161.41"/><line class="cls-1" x1="244.94" y1="183.11" x2="215.03" y2="183.11"/><line class="cls-1" x1="187.59" y1="236" x2="187.59" y2="206.09"/><line class="cls-1" x1="165.88" y1="236" x2="165.88" y2="206.09"/><line class="cls-1" x1="144.18" y1="236" x2="144.18" y2="206.09"/><line class="cls-1" x1="122.46" y1="236" x2="122.46" y2="206.09"/><line class="cls-1" x1="100.76" y1="236" x2="100.76" y2="206.09"/><line class="cls-1" x1="79.06" y1="236" x2="79.06" y2="206.09"/><line class="cls-1" x1="57.35" y1="236" x2="57.35" y2="206.09"/><line class="cls-1" y1="183.11" x2="29.91" y2="183.11"/><line class="cls-1" y1="161.41" x2="29.91" y2="161.41"/><line class="cls-1" y1="139.7" x2="29.91" y2="139.7"/><line class="cls-1" y1="118" x2="29.91" y2="118"/><line class="cls-1" y1="96.3" x2="29.91" y2="96.3"/><line class="cls-1" y1="74.58" x2="29.91" y2="74.58"/><line class="cls-1" y1="52.88" x2="29.91" y2="52.88"/><path class="cls-3" d="M59.6,55.1a6.77,6.77,0,1,1-6.77-6.77A6.77,6.77,0,0,1,59.6,55.1Z"/><path class="cls-3" d="M59.6,180.91a6.77,6.77,0,1,1-6.77-6.78A6.77,6.77,0,0,1,59.6,180.91Z"/><path class="cls-3" d="M201.13,55.1a6.77,6.77,0,1,1-6.77-6.77A6.77,6.77,0,0,1,201.13,55.1Z"/><path class="cls-3" d="M201.13,180.91a6.77,6.77,0,1,1-6.77-6.78A6.77,6.77,0,0,1,201.13,180.91Z"/></g></g></svg>