<svg xmlns="http://www.w3.org/2000/svg" viewBox="0 0 259.74 224.24"><defs><style>.cls-1{fill:#5fccf5;}.cls-1,.cls-2,.cls-3{stroke:#21409a;stroke-width:6.38px;}.cls-1,.cls-3{stroke-miterlimit:10;}.cls-2{fill:#fff;stroke-linecap:round;stroke-linejoin:round;}.cls-3{fill:none;}</style></defs><g id="Layer_2" data-name="Layer 2"><g id="Capa_1" data-name="Capa 1"><path class="cls-1" d="M256.54,160.4a13.25,13.25,0,0,1-13.26,13.26H16.45A13.26,13.26,0,0,1,3.19,160.4V16.46A13.27,13.27,0,0,1,16.45,3.19H243.28a13.26,13.26,0,0,1,13.26,13.27Z"/><rect class="cls-2" x="18.2" y="18.62" width="223.33" height="139.62"/><rect class="cls-1" x="105.92" y="173.66" width="47.89" height="35.89"/><path class="cls-2" d="M169.57,209.55H90.16s-10.32,0-11.41,11.5H181C179.9,209.55,169.57,209.55,169.57,209.55Z"/><polyline class="cls-3" points="33.83 74.85 33.83 143.8 95.11 143.8"/><path class="cls-3" d="M173.49,89c0-1.32-.08-2.62-.18-3.92L182,82.76l-3.91-15-8.91,2.33A43.67,43.67,0,0,0,162,59.47l5.72-7.41-12.25-9.45-5.79,7.5a43.15,43.15,0,0,0-12.07-4V36.52H122.13v9.54a42.93,42.93,0,0,0-11.51,3.76l-5.69-7.58L92.56,51.52,98.17,59a44.5,44.5,0,0,0-5.66,7.42l-8.69-3.2L78.48,77.75,87,80.89A43.92,43.92,0,0,0,86.24,89c0,1,0,1.91.1,2.85l-8.65,2.27,3.92,15,8.46-2.22A44,44,0,0,0,97.28,118L92,124.79l12.25,9.45,5.18-6.71a43.6,43.6,0,0,0,12.68,4.37v8.43H137.6V131.9a43.47,43.47,0,0,0,12.11-4.08l5.08,6.79,12.38-9.27L162,118.45a44.17,44.17,0,0,0,5.72-7.83l8.17,3,5.34-14.52L172.91,96A44.25,44.25,0,0,0,173.49,89Zm-43.62,29.16a29.71,29.71,0,1,1,29.7-29.7A29.71,29.71,0,0,1,129.87,118.13Z"/></g></g></svg>