<svg xmlns="http://www.w3.org/2000/svg" viewBox="0 0 264.25 264.25"><defs><style>.cls-1{fill:#5fccf5;stroke:#21409a;stroke-miterlimit:10;stroke-width:6.38px;}</style></defs><g id="Layer_2" data-name="Layer 2"><g id="Capa_1" data-name="Capa 1"><path class="cls-1" d="M7.71,261.06H261.05V7.71Zm206-47.1H119.44l94.23-94.24Z"/><line class="cls-1" x1="38.75" y1="247.89" x2="38.75" y2="261.06"/><line class="cls-1" x1="54.71" y1="247.89" x2="54.71" y2="261.06"/><line class="cls-1" x1="70.67" y1="247.89" x2="70.67" y2="261.06"/><line class="cls-1" x1="86.63" y1="247.89" x2="86.63" y2="261.06"/><line class="cls-1" x1="102.59" y1="247.89" x2="102.59" y2="261.06"/><line class="cls-1" x1="118.55" y1="247.89" x2="118.55" y2="261.06"/><line class="cls-1" x1="134.51" y1="247.89" x2="134.51" y2="261.06"/><line class="cls-1" x1="150.47" y1="247.89" x2="150.47" y2="261.06"/><line class="cls-1" x1="166.42" y1="247.89" x2="166.42" y2="261.06"/><line class="cls-1" x1="182.39" y1="247.89" x2="182.39" y2="261.06"/><line class="cls-1" x1="198.35" y1="247.89" x2="198.35" y2="261.06"/><line class="cls-1" x1="214.31" y1="247.89" x2="214.31" y2="261.06"/><line class="cls-1" x1="230.26" y1="247.89" x2="230.26" y2="261.06"/><line class="cls-1" x1="246.23" y1="247.89" x2="246.23" y2="261.06"/></g></g></svg>