<svg xmlns="http://www.w3.org/2000/svg" viewBox="0 0 184.65 259.74"><defs><style>.cls-1{fill:none;}.cls-1,.cls-2{stroke:#21409a;stroke-miterlimit:10;stroke-width:6.38px;}.cls-2{fill:#5fccf5;}</style></defs><g id="Layer_2" data-name="Layer 2"><g id="Capa_1" data-name="Capa 1"><path class="cls-1" d="M181.46,243.38a13.17,13.17,0,0,1-13.17,13.17H16.35A13.17,13.17,0,0,1,3.19,243.38v-227A13.17,13.17,0,0,1,16.35,3.19H168.29a13.17,13.17,0,0,1,13.17,13.17Z"/><rect class="cls-2" x="23.37" y="33.68" width="137.9" height="30.64"/><rect class="cls-1" x="23.37" y="82.2" width="137.9" height="11.07"/><rect class="cls-2" x="37.24" y="114.57" width="25.55" height="25.55"/><rect class="cls-2" x="79.54" y="114.57" width="25.55" height="25.55"/><rect class="cls-2" x="121.85" y="114.57" width="25.55" height="25.55"/><rect class="cls-2" x="37.24" y="157.54" width="25.55" height="25.56"/><rect class="cls-2" x="79.54" y="157.54" width="25.55" height="25.56"/><rect class="cls-2" x="121.85" y="157.54" width="25.55" height="25.56"/><rect class="cls-2" x="37.24" y="200.5" width="25.55" height="25.56"/><rect class="cls-2" x="79.54" y="200.5" width="25.55" height="25.56"/><rect class="cls-2" x="121.85" y="200.5" width="25.55" height="25.56"/><path class="cls-1" d="M164.79,155v72.68a13.16,13.16,0,0,1-13.16,13.16H108.09"/></g></g></svg>