<svg xmlns="http://www.w3.org/2000/svg" viewBox="0 0 79.18 252.34"><defs><style>.cls-1{fill:none;}.cls-1,.cls-2,.cls-3{stroke:#21409a;stroke-miterlimit:10;stroke-width:6.38px;}.cls-2{fill:#5fccf5;}.cls-3{fill:#fff;}</style></defs><g id="Layer_2" data-name="Layer 2"><g id="Capa_1" data-name="Capa 1"><path class="cls-1" d="M54.09,4.87V38.25h-29V4.87a36.4,36.4,0,1,0,29,0Z"/><path class="cls-1" d="M64.16,36.2a26.67,26.67,0,0,1-27.28,26"/><rect class="cls-1" x="32.78" y="74" width="13.73" height="39.23"/><path class="cls-2" d="M53.31,121.52V238.37c0,12.11-13.72,10.73-13.72,10.73-13.72.23-13.72-10.73-13.72-10.73V121.52s.41-10.21,13.72-9.89C39.59,111.63,51.82,110.67,53.31,121.52Z"/><path class="cls-3" d="M43.35,223a3.77,3.77,0,0,1-3.76,3.77h0A3.76,3.76,0,0,1,35.83,223V134.7a3.76,3.76,0,0,1,3.76-3.76h0a3.77,3.77,0,0,1,3.76,3.76Z"/></g></g></svg>