<svg xmlns="http://www.w3.org/2000/svg" viewBox="0 0 151.58 259.74"><defs><style>.cls-1{fill:#5fccf5;}.cls-1,.cls-2{stroke:#21409a;stroke-miterlimit:10;stroke-width:6.38px;}.cls-2{fill:#fff;}</style></defs><g id="Layer_2" data-name="Layer 2"><g id="Capa_1" data-name="Capa 1"><path class="cls-1" d="M148.39,242.81a13.74,13.74,0,0,1-13.74,13.74H16.94A13.75,13.75,0,0,1,3.19,242.81V16.93A13.75,13.75,0,0,1,16.94,3.19H134.65a13.74,13.74,0,0,1,13.74,13.74Z"/><rect class="cls-2" x="3.19" y="29.25" width="145.2" height="201.24"/><line class="cls-2" x1="50.72" y1="16.73" x2="85.69" y2="16.73"/><line class="cls-2" x1="90.31" y1="16.73" x2="100.86" y2="16.73"/><polyline class="cls-2" points="21.28 159.29 21.28 215.34 75.79 215.34"/><path class="cls-1" d="M111.27,134.27l7.3-.55-1.07-14.08-7.21.54a35.52,35.52,0,0,0-5.09-10.89l5-5.19L99.93,94.34,95,99.49a35.55,35.55,0,0,0-12.16-4.9V87.51H68.73v7.08a35.43,35.43,0,0,0-14.92,6.85l-5.39-4.67-9.26,10.67,5.43,4.71a35.6,35.6,0,0,0-4.33,13.32L33,126l1,14.08,7.33-.56a35.89,35.89,0,0,0,5.15,10.74l-5.11,5.36,10.22,9.76L56.81,160a35.54,35.54,0,0,0,11.92,4.76v7.48H82.85v-7.48a35.7,35.7,0,0,0,14.68-6.67l5.63,4.88,9.26-10.66-5.58-4.85A35.77,35.77,0,0,0,111.27,134.27Zm-35.48,6.84A11.24,11.24,0,1,1,87,129.87,11.24,11.24,0,0,1,75.79,141.11Z"/><path class="cls-2" d="M87,129.87a11.24,11.24,0,1,1-11.24-11.24A11.24,11.24,0,0,1,87,129.87Z"/></g></g></svg>