<svg xmlns="http://www.w3.org/2000/svg" viewBox="0 0 294.84 215.36"><defs><style>.cls-1,.cls-4{fill:#5fccf5;}.cls-1,.cls-2,.cls-3,.cls-4,.cls-5{stroke:#21409a;stroke-width:6.38px;}.cls-1,.cls-2,.cls-3{stroke-miterlimit:10;}.cls-2{fill:#fff;}.cls-3,.cls-5{fill:none;}.cls-4,.cls-5{stroke-linecap:round;stroke-linejoin:round;}</style></defs><g id="Layer_2" data-name="Layer 2"><g id="Capa_1" data-name="Capa 1"><path class="cls-1" d="M7.71,212.16H212.16V7.71Zm166.21-38h-76l76-76Z"/><line class="cls-1" x1="32.75" y1="201.54" x2="32.75" y2="212.16"/><line class="cls-1" x1="45.63" y1="201.54" x2="45.63" y2="212.16"/><line class="cls-1" x1="58.51" y1="201.54" x2="58.51" y2="212.16"/><line class="cls-1" x1="71.39" y1="201.54" x2="71.39" y2="212.16"/><line class="cls-1" x1="84.28" y1="201.54" x2="84.28" y2="212.16"/><line class="cls-1" x1="97.15" y1="201.54" x2="97.15" y2="212.16"/><line class="cls-1" x1="110.03" y1="201.54" x2="110.03" y2="212.16"/><line class="cls-1" x1="122.91" y1="201.54" x2="122.91" y2="212.16"/><line class="cls-1" x1="135.79" y1="201.54" x2="135.79" y2="212.16"/><line class="cls-1" x1="148.67" y1="201.54" x2="148.67" y2="212.16"/><line class="cls-1" x1="161.55" y1="201.54" x2="161.55" y2="212.16"/><line class="cls-1" x1="174.44" y1="201.54" x2="174.44" y2="212.16"/><line class="cls-1" x1="187.31" y1="201.54" x2="187.31" y2="212.16"/><line class="cls-1" x1="200.19" y1="201.54" x2="200.19" y2="212.16"/><path class="cls-2" d="M202.87,42.53h81.7a7.08,7.08,0,0,1,7.08,7.08V171.68a7.08,7.08,0,0,1-7.08,7.08h-81.7a7.07,7.07,0,0,1-7.07-7.07V49.6A7.07,7.07,0,0,1,202.87,42.53Z"/><rect class="cls-1" x="206.64" y="58.93" width="74.15" height="16.47"/><rect class="cls-1" x="213.48" y="89.61" width="14.04" height="14.03"/><rect class="cls-1" x="236.71" y="89.61" width="14.03" height="14.03"/><rect class="cls-1" x="259.94" y="89.61" width="14.03" height="14.03"/><rect class="cls-1" x="213.48" y="113.19" width="14.04" height="14.03"/><rect class="cls-1" x="236.71" y="113.19" width="14.03" height="14.03"/><rect class="cls-1" x="259.94" y="113.19" width="14.03" height="14.03"/><rect class="cls-1" x="213.48" y="136.78" width="14.04" height="14.03"/><rect class="cls-1" x="236.71" y="136.78" width="14.03" height="14.03"/><rect class="cls-1" x="259.94" y="136.78" width="14.03" height="14.03"/><path class="cls-3" d="M282.69,148.21v15a7.09,7.09,0,0,1-7.08,7.09H252.2"/><polygon class="cls-4" points="32.17 154.78 19.02 141.64 118.35 42.32 131.49 55.47 32.17 154.78"/><polygon class="cls-5" points="131.49 55.47 118.35 42.32 125.31 35.35 138.46 48.49 131.49 55.47"/><path class="cls-5" d="M138.46,48.5l3.79-3.79A9.3,9.3,0,1,0,129.1,31.56l-3.79,3.79Z"/><polygon class="cls-5" points="19.02 141.64 32.17 154.78 9.86 163.95 19.02 141.64"/><polygon class="cls-5" points="14.39 152.94 9.86 163.95 20.88 159.43 14.39 152.94"/><line class="cls-5" x1="124.92" y1="48.9" x2="25.6" y2="148.21"/></g></g></svg>