<svg xmlns="http://www.w3.org/2000/svg" viewBox="0 0 287.01 188.47"><defs><style>.cls-1{fill:#5fccf5;}.cls-1,.cls-2{stroke:#21409a;stroke-miterlimit:10;stroke-width:6.38px;}.cls-2{fill:none;}</style></defs><g id="Layer_2" data-name="Layer 2"><g id="Capa_1" data-name="Capa 1"><polygon class="cls-1" points="158.2 65.25 153.08 3.19 143.51 3.19 133.94 3.19 128.82 65.25 158.2 65.25"/><path class="cls-2" d="M271.06,167c0-41.14-17.25-82.92-50.91-110.34a122.22,122.22,0,0,0-27.32-16.78L190,21.78a114.77,114.77,0,0,0-36.24-10.16l4.41,53.63H128.82l4.43-53.8C111.05,13.44,97,21.78,97,21.78L93.76,39.86C60.09,55.32,35.63,85.25,24.13,118.28A147.78,147.78,0,0,0,16,167h255.1"/><line class="cls-2" x1="190.03" y1="21.78" x2="199.79" y2="84.77"/><line class="cls-2" x1="85.73" y1="84.77" x2="96.98" y2="21.78"/><path class="cls-2" d="M45.73,108.24s-12.92,22.69-11.92,40h79.76"/><path class="cls-2" d="M272.49,167H14.7s-11.62.43-11.51,18.3H283.82C283.93,167.4,272.49,167,272.49,167Z"/></g></g></svg>