<svg xmlns="http://www.w3.org/2000/svg" viewBox="0 0 191.01 259.74"><defs><style>.cls-1{fill:#5fccf5;}.cls-1,.cls-2,.cls-3{stroke:#21409a;stroke-miterlimit:10;stroke-width:6.38px;}.cls-2{fill:#fff;}.cls-3{fill:none;}</style></defs><g id="Layer_2" data-name="Layer 2"><g id="Capa_1" data-name="Capa 1"><rect class="cls-1" x="3.19" y="35.98" width="184.63" height="220.56"/><rect class="cls-2" x="17.86" y="35.98" width="155.3" height="205.78"/><line class="cls-1" x1="36.17" y1="118.51" x2="154.85" y2="118.51"/><line class="cls-1" x1="36.17" y1="158.07" x2="63.95" y2="158.07"/><line class="cls-1" x1="74.88" y1="158.07" x2="154.85" y2="158.07"/><line class="cls-1" x1="36.17" y1="137.02" x2="81.63" y2="137.02"/><line class="cls-1" x1="94.25" y1="137.02" x2="154.85" y2="137.02"/><line class="cls-1" x1="36.17" y1="178.18" x2="154.85" y2="178.18"/><line class="cls-1" x1="36.17" y1="217.74" x2="63.95" y2="217.74"/><line class="cls-1" x1="74.88" y1="217.74" x2="154.85" y2="217.74"/><line class="cls-1" x1="36.17" y1="196.7" x2="81.63" y2="196.7"/><line class="cls-1" x1="94.25" y1="196.7" x2="154.85" y2="196.7"/><path class="cls-1" d="M117.35,25.92c0-.27.05-.56.05-.83a21.89,21.89,0,1,0-43.78,0c0,.27,0,.56,0,.83H58.48V49.48h74.06V25.92Z"/><path class="cls-3" d="M117.24,84.13c0-.66,0-1.31-.09-1.95L121.49,81l-1.95-7.46-4.43,1.16a21.62,21.62,0,0,0-3.6-5.31l2.85-3.68L108.26,61l-2.88,3.74a21.8,21.8,0,0,0-6-2V58h-7.7v4.74a21.41,21.41,0,0,0-5.73,1.88l-2.84-3.78-6.17,4.63,2.81,3.73a20.72,20.72,0,0,0-2.82,3.69l-4.33-1.59-2.67,7.23,4.25,1.56a21.35,21.35,0,0,0-.38,4c0,.48,0,.94,0,1.42l-4.31,1.13,2,7.45L75.69,93a21.57,21.57,0,0,0,3.59,5.55L76.65,102l6.1,4.7,2.6-3.34a21.34,21.34,0,0,0,6.31,2.17v4.2h7.7v-4.2a21.43,21.43,0,0,0,6-2l2.53,3.38,6.17-4.62-2.57-3.43a21.44,21.44,0,0,0,2.85-3.9l4.07,1.49,2.66-7.22L117,87.64A22.57,22.57,0,0,0,117.24,84.13ZM95.51,93.91a10.06,10.06,0,1,1,10.06-10.06A10.05,10.05,0,0,1,95.51,93.91Z"/></g></g></svg>