<svg xmlns="http://www.w3.org/2000/svg" viewBox="0 0 241.21 210.04"><defs><style>.cls-1{fill:none;}.cls-1,.cls-2{stroke:#21409a;stroke-miterlimit:10;stroke-width:6.38px;}.cls-2{fill:#5fccf5;}</style></defs><g id="Layer_2" data-name="Layer 2"><g id="Capa_1" data-name="Capa 1"><path class="cls-1" d="M110,187.59c4,27.17-59,28-64.38-13.1-25.95,7.27-43.87-17.78-31.33-39.92-15-10.26-14.77-40.23.91-49.21-12-12.76,2.56-48.52,31.54-42.14C38.79,14.5,80.7-8.89,110.14,14Z"/><path class="cls-1" d="M45.82,36.84C48,49.58,59.19,59.45,72,61.75"/><path class="cls-1" d="M72,27.27c-3,19,29,27,37.67,14.68"/><path class="cls-1" d="M56,55.36C56,62,47,70.6,42,72.6"/><path class="cls-1" d="M36.24,94.3c7.88,4,8,15.43,16.57,18,8.93,2.66,13.79-7.21,17.38-14C75.66,87.77,83.78,83.54,95.6,85.4c3.86.6,10.55,3.3,12.78,4.43"/><path class="cls-1" d="M27.3,93.66c6.12,7.59,15.94-3.62,9.58-10.21"/><path class="cls-1" d="M110.29,133.25c-8.38-8.36-21.43,1.07-24.25,10.12-3.31,10.66,6.77,19.35,3.22,29.72-2.15,6.31-7.09,9.08-13.44,8"/><path class="cls-1" d="M45.82,179.84c-9.84-25.75,38.94-18.5,17.87-57.45"/><path class="cls-1" d="M13.9,135.8c3.49-5.72,11.84-6.15,17.92-5.77,5.5.34,11.68,4.48,14,5.13"/><path class="cls-1" d="M237,122.4l.92-28.09-17-.56a85.42,85.42,0,0,0-4.78-16.82l15.61-8.56L218.21,43.72,201.6,52.83a88.45,88.45,0,0,0-11.86-11.52l9.91-16.76L175.47,10.23,165.23,27.52a86.8,86.8,0,0,0-15.49-4V3.19H135.85V206.85h13.89V194.27a85.31,85.31,0,0,0,15.34-4l6,11.25,24.81-13.18-6.27-11.82a87.07,87.07,0,0,0,12.68-12.42L214,171.59l15.11-23.7-12.63-8a85.27,85.27,0,0,0,4.77-18Z"/><path class="cls-2" d="M135.85,43.58V63a42.06,42.06,0,0,1,0,84.12v19.37a61.44,61.44,0,0,0,0-122.87Z"/></g></g></svg>