<svg xmlns="http://www.w3.org/2000/svg" viewBox="0 0 259.11 225.15"><defs><style>.cls-1,.cls-3{fill:none;}.cls-1,.cls-2,.cls-3{stroke:#21409a;stroke-width:6.38px;}.cls-1{stroke-linecap:round;stroke-linejoin:round;}.cls-2{fill:#5fccf5;}.cls-2,.cls-3{stroke-miterlimit:10;}</style></defs><g id="Layer_2" data-name="Layer 2"><g id="Capa_1" data-name="Capa 1"><path class="cls-1" d="M241.32,3.19H17.79a14.59,14.59,0,0,0-14.6,14.6V172.88a14.59,14.59,0,0,0,14.6,14.6H169.66l-3,34.47,40.42-34.47h34.21a14.6,14.6,0,0,0,14.6-14.6V17.79A14.6,14.6,0,0,0,241.32,3.19Z"/><path class="cls-2" d="M175.58,91.36c0-1.37-.07-2.72-.19-4l9-2.37-4-15.43-9.19,2.39a44.84,44.84,0,0,0-7.45-11l5.89-7.65L157,43.53l-6,7.73a44.36,44.36,0,0,0-12.45-4.18V37.24h-16v9.84A44.88,44.88,0,0,0,110.72,51l-5.85-7.82L92.09,52.72l5.8,7.74a44.4,44.4,0,0,0-5.84,7.64l-9-3.3-5.52,15L86.36,83a45.7,45.7,0,0,0-.79,8.34c0,1,.05,2,.11,2.93l-8.93,2.34,4,15.44,8.73-2.29A45,45,0,0,0,97,121.27l-5.43,7,12.64,9.75,5.34-6.92a44.36,44.36,0,0,0,13.08,4.5v8.71h16v-8.71a44.44,44.44,0,0,0,12.49-4.2l5.24,7,12.78-9.57-5.32-7.1a44.89,44.89,0,0,0,5.9-8.08l8.42,3.1,5.51-15L175,98.64A45.94,45.94,0,0,0,175.58,91.36Zm-45,30.07a30.64,30.64,0,1,1,30.64-30.64A30.65,30.65,0,0,1,130.58,121.43Z"/><path class="cls-3" d="M22.84,84v64.53s1.28,11.11,11.49,13.65h71.5"/></g></g></svg>