<svg xmlns="http://www.w3.org/2000/svg" viewBox="0 0 187.85 259.74"><defs><style>.cls-1,.cls-2{fill:none;}.cls-1,.cls-2,.cls-3{stroke:#21409a;stroke-width:6.38px;}.cls-1{stroke-linecap:round;stroke-linejoin:round;}.cls-2,.cls-3{stroke-miterlimit:10;}.cls-3{fill:#5fccf5;}</style></defs><g id="Layer_2" data-name="Layer 2"><g id="Capa_1" data-name="Capa 1"><path class="cls-1" d="M133.27,204.22v-9.53c1.12-13.34.2-19.38,8-23.38a90.73,90.73,0,1,0-94.78,0c9,6.72,6.93,10,8,23.38v9.53Z"/><rect class="cls-1" x="54.59" y="204.22" width="78.72" height="32.19"/><line class="cls-1" x1="54.59" y1="215.44" x2="133.31" y2="215.44"/><line class="cls-1" x1="54.59" y1="225.98" x2="133.31" y2="225.98"/><path class="cls-1" d="M70.64,236.41a23.56,23.56,0,0,0,46.61,0Z"/><path class="cls-2" d="M157.2,103.61l.57-17.54-10.64-.35a53.68,53.68,0,0,0-3-10.51l9.75-5.34-8.44-15.4-10.37,5.69A54.14,54.14,0,0,0,127.68,53l6.2-10.47-15.11-8.94-6.39,10.79a53.13,53.13,0,0,0-9.68-2.51V29.16H85.15V41.84a53.74,53.74,0,0,0-7.42,1.74l-5.9-11.11-15.5,8.24,5.73,10.8a55.38,55.38,0,0,0-7,6.09L45,51.18,35.57,66,45.07,72a53.72,53.72,0,0,0-3.63,10.22L30.65,81.9l-.58,17.55,10,.31a53,53,0,0,0,2.18,11.33L34,115.65,42.38,131l7.73-4.23a53.8,53.8,0,0,0,8.16,9L54,143,69.08,152l4.07-6.88a52.64,52.64,0,0,0,12,3.41v7.88H102.7v-7.88a51.44,51.44,0,0,0,9.58-2.48l3.74,7,15.49-8.24-3.91-7.37a54.37,54.37,0,0,0,7.92-7.77l7.32,4.68,9.43-14.81-7.87-5a54.48,54.48,0,0,0,3-11.22Z"/><path class="cls-3" d="M93.92,54.39a38.37,38.37,0,1,0,38.37,38.36A38.36,38.36,0,0,0,93.92,54.39Zm0,64.64A26.28,26.28,0,1,1,120.2,92.75,26.27,26.27,0,0,1,93.92,119Z"/><path class="cls-2" d="M170.41,94a74.23,74.23,0,0,1-74.23,74.23"/></g></g></svg>