<svg xmlns="http://www.w3.org/2000/svg" viewBox="0 0 146.7 273.76"><defs><style>.cls-1{fill:none;}.cls-1,.cls-2{stroke:#21409a;stroke-miterlimit:10;stroke-width:6.38px;}.cls-2{fill:#5fccf5;}</style></defs><g id="Layer_2" data-name="Layer 2"><g id="Capa_1" data-name="Capa 1"><polygon class="cls-1" points="17.79 224.27 76.37 55.89 55.22 48.52 3.19 219.2 3.19 256.17 17.79 224.27"/><polygon class="cls-1" points="142.74 256.17 143.49 224.27 93.75 48.52 72.59 55.89 142.74 256.17"/><path class="cls-2" d="M99.41,57.58A24.93,24.93,0,1,1,74.48,32.66,24.93,24.93,0,0,1,99.41,57.58Z"/><path class="cls-1" d="M143.5,94.53a103.35,103.35,0,0,1-140.31,0"/><line class="cls-1" x1="74.48" y1="102.07" x2="74.48" y2="133.74"/><path class="cls-2" d="M74.48,32.66a24.89,24.89,0,0,1,8.32,1.42V11.51a8.32,8.32,0,1,0-16.63,0V34.08A24.88,24.88,0,0,1,74.48,32.66Z"/><path class="cls-2" d="M37.36,190.65a17.09,17.09,0,1,1-17.08-17.09A17.07,17.07,0,0,1,37.36,190.65Z"/></g></g></svg>