<svg xmlns="http://www.w3.org/2000/svg" viewBox="0 0 262.65 259.74"><defs><style>.cls-1{fill:#fff;}.cls-1,.cls-2,.cls-3{stroke:#21409a;stroke-miterlimit:10;stroke-width:6.38px;}.cls-2{fill:#5fccf5;}.cls-3{fill:none;}</style></defs><g id="Layer_2" data-name="Layer 2"><g id="Capa_1" data-name="Capa 1"><path class="cls-1" d="M237.41,143l21.82-1.64-3.17-42.11-21.57,1.62a106.48,106.48,0,0,0-15.24-32.59l14.81-15.51L203.5,23.65,188.81,39a106.21,106.21,0,0,0-36.37-14.67V3.19H110.21V24.37A106.48,106.48,0,0,0,65.58,44.88l-16.1-14L21.8,62.82,38,76.9a106.13,106.13,0,0,0-12.95,39.82L3.42,118.34l3.17,42.12,21.91-1.65A106.59,106.59,0,0,0,43.9,190.9l-15.31,16,30.56,29.15,15.41-16.15a106.06,106.06,0,0,0,35.65,14.22v22.38h42.23V234.16a106.33,106.33,0,0,0,43.89-19.94l16.85,14.62,27.67-31.91-16.7-14.48A106.27,106.27,0,0,0,237.41,143ZM131.33,163.48a33.61,33.61,0,1,1,33.6-33.61A33.61,33.61,0,0,1,131.33,163.48Z"/><path class="cls-2" d="M198.57,129.88a67.25,67.25,0,1,1-67.24-67.25A67.23,67.23,0,0,1,198.57,129.88Z"/><path class="cls-1" d="M164.93,129.87a33.61,33.61,0,1,1-33.6-33.6A33.61,33.61,0,0,1,164.93,129.87Z"/><path class="cls-3" d="M131.33,41.92c46.74,0,87.95,37.56,87.95,88"/></g></g></svg>