<svg xmlns="http://www.w3.org/2000/svg" viewBox="0 0 146.85 103.58"><defs><style>.cls-1{fill:#21409a;}.cls-2{fill:#5fccf5;}</style></defs><g id="Layer_2" data-name="Layer 2"><g id="Layer_1-2" data-name="Layer 1"><path class="cls-1" d="M79.05,34.43a12.58,12.58,0,0,0-5,24.14V74.12a20,20,0,0,1-39.74,2.64c14.43-2.35,24.46-15,24.46-31.86v-36a4.75,4.75,0,0,0-4.74-4.75,4.7,4.7,0,0,0-2.87,1,6.23,6.23,0,1,0-3.08,11.64,6,6,0,0,0,1.2-.12V44.9c0,13.41-8.19,22.77-19.92,22.77S9.49,58.31,9.49,44.9V16.78a4.93,4.93,0,0,0,.55,0A6.23,6.23,0,0,0,10,4.35,6,6,0,0,0,7.35,5a4.66,4.66,0,0,0-2.6-.79A4.75,4.75,0,0,0,0,8.93v36c0,17,10.18,29.7,24.79,31.92a29.46,29.46,0,0,0,58.8-2.7V58.73a12.57,12.57,0,0,0-4.54-24.3ZM48.13,13a2.43,2.43,0,0,1,0-4.86,2.39,2.39,0,0,1,1.24.35c0,.14,0,.28,0,.43v3.75A2.35,2.35,0,0,1,48.13,13ZM10,8.15A2.43,2.43,0,1,1,10,13,2.51,2.51,0,0,1,9.49,13v-4a4.05,4.05,0,0,0-.07-.7A2.51,2.51,0,0,1,10,8.15ZM2.85,44.9v-36a1.9,1.9,0,1,1,3.79,0v36C6.64,60,16,70.52,29.41,70.52S52.18,60,52.18,44.9v-36a1.9,1.9,0,1,1,3.79,0v36C56,62,44.8,74.32,29.41,74.32S2.85,62,2.85,44.9ZM80.74,74.12a26.61,26.61,0,0,1-53.06,3c.57,0,1.15,0,1.73,0s1.41,0,2.1-.08a22.82,22.82,0,0,0,45.44-3V47a1.9,1.9,0,1,1,3.79,0Zm2.85-18.5V47a4.75,4.75,0,1,0-9.49,0v8.43a9.73,9.73,0,1,1,9.49.24Z"/><path class="cls-2" d="M88.79,47a9.75,9.75,0,0,1-5.2,8.61V47a4.75,4.75,0,1,0-9.49,0v8.43A9.73,9.73,0,1,1,88.79,47Z"/><path class="cls-2" d="M80.74,47V74.12a26.61,26.61,0,0,1-53.06,3c.57,0,1.15,0,1.73,0s1.41,0,2.1-.08a22.82,22.82,0,0,0,45.44-3V47a1.9,1.9,0,1,1,3.79,0Z"/><path class="cls-2" d="M56,8.93v36C56,62,44.8,74.32,29.41,74.32S2.85,62,2.85,44.9v-36a1.9,1.9,0,1,1,3.79,0v36C6.64,60,16,70.52,29.41,70.52S52.18,60,52.18,44.9v-36a1.9,1.9,0,1,1,3.79,0Z"/><path class="cls-1" d="M146.53,80.82l-13.6-16.1a10.85,10.85,0,0,0,2.88-6.53,11,11,0,0,0-2.55-8L105.14,16.85A11,11,0,0,0,95,13.1L90.23,7.44C92.1,5,93,2.48,91.71,1c-2-2.42-7.33.16-11.38,3.58s-7.48,8.2-5.44,10.62a2.88,2.88,0,0,0,2.33,1,7.9,7.9,0,0,0,2.85-.64c.48-.19,1-.42,1.48-.68l4.76,5.64A11.27,11.27,0,0,0,85.76,23a10.92,10.92,0,0,0,2.56,8l28.12,33.31a11,11,0,0,0,14.4,2.12l13.6,16.1a1.38,1.38,0,0,0,1.05.49,1.36,1.36,0,0,0,.87-.32A1.38,1.38,0,0,0,146.53,80.82Zm-66.8-70.3a1.46,1.46,0,0,0-.48.93,1.4,1.4,0,0,0,.32,1l.17.19a5.61,5.61,0,0,1-2.74.73c-.06-.73,1.24-3.52,5.09-6.76S88.9,2.54,89.6,2.72A5.4,5.4,0,0,1,88.43,5.3l-.17-.19A1.35,1.35,0,0,0,86.34,5Zm7.9,7.24-5.1-6,4.53-3.82,5.1,6a11.06,11.06,0,0,0-2.53,1.59A11.33,11.33,0,0,0,87.63,17.76Zm42.56,45.83a8.3,8.3,0,0,1-11.67-1l-.12-.14,4.36-3.68a1,1,0,0,0-1.32-1.56l-4.36,3.68-2.37-2.82,2.42-2a1,1,0,0,0-1.32-1.56l-2.42,2-2.62-3.1,4.35-3.68a1,1,0,1,0-1.31-1.56l-4.36,3.67L107.07,49l2.42-2a1,1,0,0,0-1.32-1.57l-2.42,2-2-2.38,4.35-3.68a1,1,0,1,0-1.32-1.56l-4.35,3.68-.52-.62-.67-.79-.49-.57-.7-.84,2.42-2a1,1,0,0,0-1.32-1.56l-2.42,2-2.62-3.11,4.36-3.67a1,1,0,0,0-1.32-1.57l-4.36,3.68-2.38-2.81,2.42-2a1,1,0,0,0-1.32-1.57L91.1,30.12l-.7-.83a8.28,8.28,0,0,1,6.31-13.62c.24,0,.48,0,.71,0a8.22,8.22,0,0,1,5.63,2.91L113.48,31l.41.48.74.88,16.54,19.59a8.27,8.27,0,0,1-1,11.67Z"/><path class="cls-2" d="M89.6,2.72A5.4,5.4,0,0,1,88.43,5.3l-.17-.19A1.35,1.35,0,0,0,86.34,5l-6.61,5.57a1.46,1.46,0,0,0-.48.93,1.4,1.4,0,0,0,.32,1l.17.19a5.61,5.61,0,0,1-2.74.73c-.06-.73,1.24-3.52,5.09-6.76S88.9,2.54,89.6,2.72Z"/><path class="cls-2" d="M92.16,14a11.06,11.06,0,0,0-2.53,1.59,11.33,11.33,0,0,0-2,2.22l-5.1-6,4.53-3.82Z"/><path class="cls-2" d="M113.48,31,100.75,41.56l-.7-.84,2.42-2a1,1,0,0,0-1.32-1.56l-2.42,2-2.62-3.11,4.36-3.67a1,1,0,0,0-1.32-1.57l-4.36,3.68-2.38-2.81,2.42-2a1,1,0,0,0-1.32-1.57L91.1,30.12l-.7-.83a8.28,8.28,0,0,1,6.31-13.62c.24,0,.48,0,.71,0a8.22,8.22,0,0,1,5.63,2.91Z"/><path class="cls-2" d="M133.1,58a8.28,8.28,0,0,1-14.58,4.64l-.12-.14,4.36-3.68a1,1,0,0,0-1.32-1.56l-4.36,3.68-2.37-2.82,2.42-2a1,1,0,0,0-1.32-1.56l-2.42,2-2.62-3.1,4.35-3.68a1,1,0,1,0-1.31-1.56l-4.36,3.67L107.07,49l2.42-2a1,1,0,0,0-1.32-1.57l-2.42,2-2-2.38,4.35-3.68a1,1,0,1,0-1.32-1.56l-4.35,3.68-.52-.62q6.36-5.3,12.72-10.59l16.54,19.59A8.24,8.24,0,0,1,133.1,58Z"/><path class="cls-1" d="M115.4,31.69l-.77.64L101.91,42.92l-.54.45c-.88.74-2.16-.53-1.27-1.27l.65-.54L113.48,31l.65-.54C115,29.69,116.29,31,115.4,31.69Z"/></g></g></svg>