<svg xmlns="http://www.w3.org/2000/svg" xmlns:xlink="http://www.w3.org/1999/xlink" viewBox="0 0 377.84 315.78"><defs><style>.cls-1{fill:url(#linear-gradient);}.cls-2{fill:url(#linear-gradient-2);}.cls-3{fill:url(#linear-gradient-3);}.cls-4{fill:url(#linear-gradient-4);}.cls-5{fill:url(#linear-gradient-5);}.cls-6{fill:url(#linear-gradient-6);}</style><linearGradient id="linear-gradient" x1="157.89" y1="171.3" x2="427.86" y2="-72.85" gradientUnits="userSpaceOnUse"><stop offset="0" stop-color="#430068"/><stop offset="0.39" stop-color="#1a5fc4"/><stop offset="0.62" stop-color="#009cff"/><stop offset="0.72" stop-color="#00bcf3"/><stop offset="0.84" stop-color="#00e1e6"/><stop offset="0.94" stop-color="#00f7de"/><stop offset="1" stop-color="#00ffdb"/></linearGradient><linearGradient id="linear-gradient-2" x1="239.51" y1="261.55" x2="509.48" y2="17.41" xlink:href="#linear-gradient"/><linearGradient id="linear-gradient-3" x1="-25.8" y1="346.32" x2="232.52" y2="88" gradientUnits="userSpaceOnUse"><stop offset="0" stop-color="#430068"/><stop offset="0.06" stop-color="#4e006c"/><stop offset="0.17" stop-color="#6b0076"/><stop offset="0.32" stop-color="#9a0188"/><stop offset="0.49" stop-color="#db029f"/><stop offset="0.58" stop-color="#ff02ac"/><stop offset="0.62" stop-color="#ff3494"/><stop offset="0.67" stop-color="#ff627e"/><stop offset="0.72" stop-color="#ff896b"/><stop offset="0.77" stop-color="#ffa95c"/><stop offset="0.82" stop-color="#ffc250"/><stop offset="0.87" stop-color="#ffd448"/><stop offset="0.93" stop-color="#ffdf43"/><stop offset="1" stop-color="#ffe241"/></linearGradient><linearGradient id="linear-gradient-4" x1="-104.16" y1="224.15" x2="126.91" y2="-6.91" xlink:href="#linear-gradient-3"/><linearGradient id="linear-gradient-5" x1="-62.26" y1="258.33" x2="156.85" y2="39.22" xlink:href="#linear-gradient-3"/><linearGradient id="linear-gradient-6" x1="146.65" y1="266.32" x2="288" y2="124.98" gradientUnits="userSpaceOnUse"><stop offset="0" stop-color="#430068"/><stop offset="0.11" stop-color="#4a006b"/><stop offset="0.27" stop-color="#5f0072"/><stop offset="0.46" stop-color="#80017e"/><stop offset="0.68" stop-color="#ae018f"/><stop offset="0.92" stop-color="#e802a4"/><stop offset="1" stop-color="#ff02ac"/></linearGradient></defs><g id="Layer_2" data-name="Layer 2"><g id="Layer_1-2" data-name="Layer 1"><path class="cls-1" d="M246.06,42.1A61.3,61.3,0,0,1,279,33c14.59,0,27.32,3.62,37.84,10.76A62.85,62.85,0,0,1,339.18,70.8h38.66c-5.86-21.07-16.95-38.08-33-50.62h0C327.73,6.79,305.79,0,279.62,0c-20.16,0-38.09,4.54-53.29,13.49a92.75,92.75,0,0,0-35.41,37.83,113.19,113.19,0,0,0-11.7,39h8.93a38.84,38.84,0,0,0,35.06-22.13h0A61.48,61.48,0,0,1,246.06,42.1Z"/><path class="cls-2" d="M377.84,143.38H339.18a62.84,62.84,0,0,1-22.33,27.08l-.19.13c-13,8.73-21.22,22.88-21.22,38.51v4.19c19.2-2.18,35.8-8.66,49.39-19.28C360.89,181.47,372,164.45,377.84,143.38Z"/><path class="cls-3" d="M164.78,259.07,99,180a29.93,29.93,0,0,0-23-10.78h-28l72.59,89.82Z"/><path class="cls-4" d="M0,45.65H37a0,0,0,0,1,0,0V153.78a8.5,8.5,0,0,1-8.5,8.5H0a0,0,0,0,1,0,0V45.65A0,0,0,0,1,0,45.65Z"/><polygon class="cls-5" points="166.35 45.41 122.54 45.41 48.25 135.28 88.91 135.28 166.35 45.41"/><path class="cls-6" d="M251.6,228c7.15,5.94,10.78,14.47,10.78,25.35s-3.59,19.28-10.67,25.09c-6.87,5.6-16.67,8.44-29.12,8.44h0a26.49,26.49,0,0,0-26.48,26.49v2.42h35.24c22.58,0,40-5.14,51.64-15.27,11.52-10,17.36-23.85,17.36-41.23a50.48,50.48,0,0,0-11.23-32.62c-7.56-9.33-17.39-15.12-30-17.7l-15.76-3.21L259,202.08a47.08,47.08,0,0,0,26.4-16c6.61-8.05,10-18.66,10-31.53,0-16.77-5.45-29.37-16.66-38.53s-27.89-13.9-49.22-13.9H140.15v58.56h7.1a29.94,29.94,0,0,0,29.94-29.93v-.35h42.59c12.5,0,22,2.82,28.29,8.39s9.62,13.72,9.62,23.89-3.3,18.21-9.8,23.8c-6.43,5.43-15.67,8.17-27.48,8.17H140.15v24.53h82.13C234.71,219.18,244.57,222.14,251.6,228Z"/></g></g></svg>