<svg xmlns="http://www.w3.org/2000/svg" viewBox="0 0 162.46 135.78"><defs><style>.cls-1{fill:#000;}</style></defs><g id="Layer_2" data-name="Layer 2"><g id="Layer_1-2" data-name="Layer 1"><path class="cls-1" d="M105.8,18.1A26.31,26.31,0,0,1,120,14.17a28.46,28.46,0,0,1,16.28,4.63,27.06,27.06,0,0,1,9.6,11.64h16.62A40.64,40.64,0,0,0,148.27,8.68h0C140.92,2.92,131.48,0,120.23,0A44.53,44.53,0,0,0,97.31,5.8,39.9,39.9,0,0,0,82.09,22.07a48.79,48.79,0,0,0-5,16.76H80.9A16.69,16.69,0,0,0,96,29.32h0A26.49,26.49,0,0,1,105.8,18.1Z"/><path class="cls-1" d="M162.46,61.65H145.84a27,27,0,0,1-9.6,11.64l-.08.06A20,20,0,0,0,127,89.91v1.8a41.51,41.51,0,0,0,21.24-8.29A40.67,40.67,0,0,0,162.46,61.65Z"/><path class="cls-1" d="M70.85,111.39l-28.3-34a12.84,12.84,0,0,0-9.89-4.64h-12l31.21,38.62Z"/><path class="cls-1" d="M15.92,19.63H0V69.78H7.42a8.5,8.5,0,0,0,8.5-8.5Z"/><path class="cls-1" d="M48.42,43.61A90.78,90.78,0,0,0,42,54.87c-1.09,2.21-2,4.48-3.08,6.71a10.39,10.39,0,0,1-8.66,6.35,10.31,10.31,0,0,1-10-4.32A8.74,8.74,0,0,1,20.68,53c2.16-2.5,4.47-4.86,6.63-7.37A105.5,105.5,0,0,0,37.39,32.7,102.3,102.3,0,0,0,44.2,19.6a1.47,1.47,0,0,1,1.11-.94A11.37,11.37,0,0,1,53.7,19.8c.36.2.59.38.84-.16s.3-1.34,1.09-1.54a3.53,3.53,0,0,1,2.79.55,10.19,10.19,0,0,1,3.39,3.81c.45.77.82,1.58,1.25,2.36a1.26,1.26,0,0,1-.2,1.62c-2.66,3-5.28,6-7.91,9.05M26.34,50.1a7.13,7.13,0,0,1,4.9,1.73,5.9,5.9,0,0,1,2,6.24,6,6,0,0,1-4.92,4.47,4.43,4.43,0,0,1-4.27-2c-.88-1.56-.43-2.88.66-4.16s2.05-2.56,3.11-3.88a4.79,4.79,0,0,0-2.73,0,6.51,6.51,0,0,0-2.87,10.12,8.31,8.31,0,0,0,8.29,3,8.29,8.29,0,0,0,6.79-6.08c1.19-3.84-.94-8-4.92-10l-1.47-.7c3.91-3.65,7.7-7.28,11.44-11.13a15.23,15.23,0,0,0-4.52-.86,1,1,0,0,0-1,.48c-1.44,2-2.94,3.89-4.52,5.74C30.4,45.42,28.43,47.68,26.34,50.1ZM39.5,54.75c.13-.12.18-.15.2-.19A86,86,0,0,1,47.41,41.3a.46.46,0,0,0-.09-.73A15,15,0,0,0,45,38.91c-.32-.18-.52-.21-.8.09-2.93,3.09-6,6-9.09,9-.38.36-.3.5.06.76A11.49,11.49,0,0,1,39.5,54.75Zm8.36-23.28.23-.34a91.38,91.38,0,0,0,5-8.51c.23-.44.1-.62-.3-.84a9.26,9.26,0,0,0-5.94-1.19,1,1,0,0,0-1,.66c-1.2,2.72-2.49,5.39-3.94,8-.23.41-.28.61.31.68a17.77,17.77,0,0,1,5.11,1.44A.6.6,0,0,0,47.86,31.47ZM60.6,24.76a11.42,11.42,0,0,0-3-4c-.85-.62-.92-.6-1.36.31A86.28,86.28,0,0,1,50,32.19c-.28.42-.21.6.16.88a7.1,7.1,0,0,1,1.77,1.73c.33.5.5.32.79,0,2.53-2.95,5.07-5.9,7.63-8.82C60.76,25.51,60.91,25.14,60.6,24.76ZM30.87,54.82c-.07-.1-.24-.4-.42-.69-.38-.62-.69-.55-1.11,0-1,1.33-2.05,2.61-3.06,3.92-.69.89-.58,1.44.38,2a2.39,2.39,0,0,0,1.9.2A3.9,3.9,0,0,0,30.87,54.82Z"/><path class="cls-1" d="M108.18,98c3.08,2.56,4.64,6.22,4.64,10.9s-1.55,8.29-4.59,10.79-7.17,3.63-12.52,3.63h0a11.39,11.39,0,0,0-11.39,11.39v1H99.47c9.72,0,17.19-2.21,22.21-6.57s7.46-10.25,7.46-17.73a21.69,21.69,0,0,0-4.82-14,21.46,21.46,0,0,0-12.92-7.61l-6.77-1.38,6.73-1.58A20.23,20.23,0,0,0,122.71,80c2.84-3.46,4.28-8,4.28-13.56,0-7.21-2.34-12.63-7.16-16.56s-12-6-21.16-6H60.26V69.09h3.06A12.87,12.87,0,0,0,76.19,56.22v-.15H94.5c5.38,0,9.47,1.21,12.16,3.61S110.8,65.57,110.8,70s-1.42,7.83-4.21,10.23S99.85,83.7,94.77,83.7H60.26V94.24H95.58C100.92,94.24,105.16,95.52,108.18,98Z"/></g></g></svg>